<?xml version="1.0" standalone="no"?>
<!DOCTYPE svg PUBLIC "-//W3C//DTD SVG 1.1//EN" "http://www.w3.org/Graphics/SVG/1.1/DTD/svg11.dtd" >
<svg xmlns="http://www.w3.org/2000/svg">
<metadata></metadata>
<defs>
<font id="estilo_text_regularregular" horiz-adv-x="1024" >
<font-face units-per-em="2048" ascent="1638" descent="-410" />
<missing-glyph horiz-adv-x="368" />
<glyph unicode="&#xfb01;" horiz-adv-x="962" d="M25 741q0 32 22.5 55t54.5 23h66v256q0 70 16 122t42 83t66 50t82.5 25.5t96.5 6.5q32 0 55 -23t23 -55t-23 -54t-55 -22q-80 0 -113.5 -29t-33.5 -104v-256h444q32 0 55 -23t23 -55v-673q0 -32 -23 -55t-55 -23t-55 23t-23 55v598h-366v-598q0 -32 -23 -55t-55 -23 t-55 23t-23 55v598h-66q-32 0 -54.5 21.5t-22.5 53.5zM690 1059q0 32 23 55t55 23t55 -23t23 -55t-23 -54t-55 -22t-55 22t-23 54z" />
<glyph unicode="&#xfb02;" horiz-adv-x="1105" d="M25 741q0 32 22.5 55t54.5 23h66v250q0 71 16 122.5t42 82t66.5 48.5t82 24t96.5 6h297q32 0 55 -23t23 -55v-998q0 -75 33.5 -104t113.5 -29q33 0 55.5 -21.5t22.5 -53.5t-23 -55t-55 -23q-54 0 -96 6.5t-82.5 25t-66.5 50t-42 83t-16 121.5v926h-219q-80 0 -113.5 -29 t-33.5 -104v-250h147q32 0 55 -23t23 -55t-22.5 -53.5t-55.5 -21.5h-147v-598q0 -32 -23 -55t-55 -23t-55 23t-23 55v598h-66q-32 0 -54.5 21.5t-22.5 53.5z" />
<glyph unicode="&#xfb03;" horiz-adv-x="1484" d="M25 741q0 32 22.5 55t54.5 23h66v256q0 70 16 122t42 83t66 50t82.5 25.5t96.5 6.5q32 0 55 -23t23 -55t-23 -54t-55 -22q-80 0 -113.5 -29t-33.5 -104v-256h366v256q0 70 16 122t42 83t66 50t82.5 25.5t96.5 6.5q32 0 55 -23t23 -55t-23 -54t-55 -22q-80 0 -113.5 -29 t-33.5 -104v-256h444q32 0 55 -23t23 -55v-673q0 -32 -23 -55t-55 -23t-55 23t-23 55v598h-366v-598q0 -32 -23 -55t-55 -23t-55 23t-23 55v598h-366v-598q0 -32 -23 -55t-55 -23t-55 23t-23 55v598h-66q-32 0 -54.5 21.5t-22.5 53.5zM1212 1059q0 32 23 55t55 23t55 -23 t23 -55t-23 -54t-55 -22t-55 22t-23 54z" />
<glyph unicode="&#xfb04;" horiz-adv-x="1628" d="M25 741q0 32 22.5 55t54.5 23h66v256q0 70 16 122t42 83t66 50t82.5 25.5t96.5 6.5q32 0 55 -23t23 -55t-23 -54t-55 -22q-80 0 -113.5 -29t-33.5 -104v-256h366v250q0 71 16 122.5t42 82t66.5 48.5t82 24t96.5 6h297q32 0 55 -23t23 -55v-998q0 -75 34 -104t114 -29 q32 0 54.5 -21.5t22.5 -53.5t-22.5 -55t-54.5 -23q-69 0 -119.5 11.5t-94.5 41t-67 88t-23 145.5v926h-219q-80 0 -113.5 -29t-33.5 -104v-250h147q32 0 55 -23t23 -55t-22.5 -53.5t-55.5 -21.5h-147v-598q0 -32 -23 -55t-55 -23t-55 23t-23 55v598h-366v-598q0 -32 -23 -55 t-55 -23t-55 23t-23 55v598h-66q-32 0 -54.5 21.5t-22.5 53.5z" />
<glyph horiz-adv-x="2048" />
<glyph horiz-adv-x="2048" />
<glyph unicode="&#xd;" horiz-adv-x="2048" />
<glyph unicode=" "  horiz-adv-x="368" />
<glyph unicode="&#x09;" horiz-adv-x="368" />
<glyph unicode="&#xa0;" horiz-adv-x="368" />
<glyph unicode="!" horiz-adv-x="512" d="M174 72q0 35 23.5 58.5t58.5 23.5t58.5 -23.5t23.5 -58.5q0 -34 -23.5 -58t-58.5 -24t-58.5 24t-23.5 58zM178 344v940q0 32 23 55t55 23t55 -23t23 -55v-940q0 -32 -23 -55t-55 -23t-55 23t-23 55z" />
<glyph unicode="&#x22;" horiz-adv-x="659" d="M92 985v313q0 28 18 46t46 18q26 0 44.5 -18t18.5 -46v-313q0 -26 -18.5 -44.5t-44.5 -18.5q-28 0 -46 18t-18 45zM440 985v313q0 27 18.5 45.5t45.5 18.5q28 0 45.5 -18t17.5 -46v-313q0 -27 -18 -45t-45 -18q-26 0 -45 18.5t-19 44.5z" />
<glyph unicode="#" horiz-adv-x="1597" d="M205 502q0 22 14.5 36.5t36.5 14.5h205l90 266h-295q-22 0 -36.5 14.5t-14.5 36.5t14.5 37t36.5 15h330l135 399q22 59 72 49q21 -4 29.5 -24t2.5 -43l-129 -381h361l135 399q22 59 72 49q21 -4 29.5 -24t2.5 -43l-129 -381h174q22 0 37 -15t15 -37t-15 -36.5t-37 -14.5 h-208l-91 -266h299q22 0 37 -14.5t15 -36.5t-15 -36.5t-37 -14.5h-333l-142 -420q-17 -63 -73 -49q-20 5 -29 24.5t-2 42.5l135 402h-360l-142 -420q-17 -63 -73 -49q-20 5 -29 24.5t-2 42.5l135 402h-170q-22 0 -36.5 14.5t-14.5 36.5zM571 553h361l90 266h-360z" />
<glyph unicode="$" horiz-adv-x="1011" d="M135.5 172q0.5 24 18.5 45q23 25 56.5 26t55.5 -22q81 -88 228 -88q101 0 165 59t64 156q0 62 -32 113t-82.5 87t-112 70.5t-123 72.5t-112 82.5t-82.5 111.5t-32 149q0 128 75.5 218.5t211.5 111.5v125q0 32 22 55t54 23q33 0 55.5 -22.5t22.5 -55.5v-123 q136 -16 227 -104q11 -11 18.5 -27.5t6 -39.5t-16.5 -44q-22 -25 -53.5 -27.5t-56.5 19.5q-40 36 -96 56t-109 20q-100 0 -152.5 -48.5t-52.5 -136.5q0 -57 32 -103.5t82.5 -81t112 -67.5t123 -72.5t112 -86t82.5 -117.5t32 -158q0 -137 -80.5 -234t-210.5 -124v-127 q0 -33 -22.5 -55.5t-55.5 -22.5q-32 0 -54 23t-22 55v121q-174 16 -272 120q-11 13 -19 28.5t-7.5 39.5z" />
<glyph unicode="%" horiz-adv-x="1454" d="M164 1149q0 91 65 156t156 65t156 -65t65 -156t-65 -156t-156 -65t-156 65t-65 156zM260 1149q0 -51 37 -88t88 -37t88 37t37 88t-37 88t-88 37t-88 -37t-37 -88zM455 49l430 1272q22 59 71 49q21 -4 30 -24t3 -43l-430 -1272q-8 -29 -27 -42.5t-47 -6.5q-20 4 -29 24 t-1 43zM848 201q0 91 65 156t156 65t156 -65t65 -156t-65 -156t-156 -65t-156 65t-65 156zM944 201q0 -51 37 -88t88 -37t88 37t37 88t-37 88t-88 37t-88 -37t-37 -88z" />
<glyph unicode="&#x26;" horiz-adv-x="1642" d="M143 410q0 119 62.5 216.5t165.5 149.5q-63 42 -99 109t-36 149q0 140 99 239t238 99q188 0 301 -110q12 -12 19.5 -27.5t6.5 -39t-17 -44.5q-22 -25 -51 -27.5t-54 19.5q-94 84 -205 84q-84 0 -136 -55t-52 -138q0 -82 52 -135t136 -53h547v213q0 32 22 55t54 23t55 -23 t23 -55v-213h147q32 0 55 -23t23 -55t-23 -55t-55 -23h-147v-414q0 -75 33.5 -104t113.5 -29q33 0 55.5 -21.5t22.5 -53.5t-23 -55t-55 -23q-54 0 -95.5 6.5t-81.5 25t-66 50t-42 83t-16 121.5v414h-547q-122 0 -199 -80t-77 -200q0 -121 78 -201t209 -80q149 0 252 86 q23 21 57 18.5t55 -28.5q17 -22 16.5 -46.5t-9.5 -40t-21 -26.5q-130 -112 -350 -112q-188 0 -314.5 125t-126.5 305z" />
<glyph unicode="'" horiz-adv-x="311" d="M92 985v313q0 28 18 46t46 18q26 0 44.5 -18t18.5 -46v-313q0 -26 -18.5 -44.5t-44.5 -18.5q-28 0 -46 18t-18 45z" />
<glyph unicode="(" horiz-adv-x="649" d="M178 406v534q0 230 66.5 400t206.5 294q26 22 57.5 19t54.5 -29q21 -23 18.5 -53t-28.5 -53q-115 -106 -167 -243t-52 -335v-534q0 -198 52 -335t167 -243q26 -23 28.5 -53.5t-18.5 -53.5q-23 -26 -54.5 -29t-57.5 19q-140 124 -206.5 294.5t-66.5 400.5z" />
<glyph unicode=")" horiz-adv-x="649" d="M67.5 -225.5q2.5 30.5 28.5 53.5q115 106 167 243t52 335v534q0 198 -52 335t-167 243q-26 23 -28.5 53t18.5 53q23 26 55 29t58 -19q140 -124 206 -294t66 -400v-534q0 -231 -66 -401t-206 -294q-26 -22 -58 -19t-55 29q-21 23 -18.5 53.5z" />
<glyph unicode="*" horiz-adv-x="765" d="M102 1092q0 22 15 36.5t37 14.5h106l-76 76q-15 13 -15 34.5t15 36.5t36.5 15t35.5 -15l76 -76v107q0 22 14.5 36.5t36.5 14.5t36.5 -14.5t14.5 -36.5v-107l76 76q14 15 35.5 15t36.5 -15t15 -36.5t-15 -34.5l-76 -76h106q22 0 37 -14.5t15 -36.5t-15 -37t-37 -15h-106 l76 -75q15 -14 15 -35.5t-15 -36.5t-36.5 -15t-35.5 15l-76 76v-107q0 -22 -14.5 -36.5t-36.5 -14.5t-36.5 14.5t-14.5 36.5v107l-76 -76q-14 -15 -35.5 -15t-36.5 15t-15 36.5t15 35.5l76 75h-106q-22 0 -37 15t-15 37z" />
<glyph unicode="+" horiz-adv-x="1118" d="M170 500q0 30 20 50.5t50 20.5h249v248q0 29 20.5 50.5t49.5 21.5q30 0 50 -21t20 -51v-248h250q29 0 49 -20t20 -51q0 -29 -20 -49.5t-49 -20.5h-250v-248q0 -30 -20 -50.5t-50 -20.5q-29 0 -49.5 21t-20.5 50v248h-249q-29 0 -49.5 20.5t-20.5 49.5z" />
<glyph unicode="," horiz-adv-x="389" d="M106 -220q0 21 15 36q37 37 56.5 84t17.5 90q-35 0 -58.5 24t-23.5 58q0 35 23.5 58.5t58.5 23.5q34 0 58.5 -19t33.5 -51q14 -50 11 -106t-30 -117t-71 -105q-16 -16 -35.5 -20t-38.5 10q-17 13 -17 34z" />
<glyph unicode="-" horiz-adv-x="1118" d="M170 500q0 30 20 50.5t50 20.5h639q29 0 49 -20t20 -51q0 -29 -20 -49.5t-49 -20.5h-639q-29 0 -49.5 20.5t-20.5 49.5z" />
<glyph unicode="." horiz-adv-x="389" d="M113 72q0 35 23.5 58.5t58.5 23.5t58 -23.5t23 -58.5q0 -34 -23 -58t-58 -24t-58.5 24t-23.5 58z" />
<glyph unicode="/" horiz-adv-x="811" d="M125 82l412 1216q30 88 104 72q30 -7 43 -36.5t4 -61.5l-412 -1219q-11 -42 -38.5 -61t-69.5 -8q-28 6 -41.5 35.5t-1.5 62.5z" />
<glyph unicode="0" horiz-adv-x="1105" d="M123 410v532q0 178 125.5 304t304.5 126t304.5 -126t125.5 -304v-532q0 -178 -125.5 -304t-304.5 -126t-304.5 126t-125.5 304zM276 410q0 -120 77.5 -200.5t199.5 -80.5q121 0 198.5 80.5t77.5 200.5v532q0 120 -77.5 200.5t-198.5 80.5q-122 0 -199.5 -80.5 t-77.5 -200.5v-532z" />
<glyph unicode="1" horiz-adv-x="686" d="M45 1274q0 32 23 55t55 23h297q32 0 55 -23t23 -55v-1206q0 -32 -23 -55t-55 -23t-55 23t-23 55v1130h-219q-32 0 -55 22t-23 54z" />
<glyph unicode="2" horiz-adv-x="1003" d="M137 78v215q0 80 24.5 147t64 113t90.5 88t103.5 72t103.5 65t90.5 67.5t64 78.5t24.5 100q0 84 -51.5 141.5t-142.5 57.5q-129 0 -242 -74q-27 -16 -57 -11t-47 33q-16 25 -10 49.5t15.5 39t22.5 24.5q130 88 318 88q152 0 251 -95t99 -253q0 -81 -31 -147t-80.5 -111 t-109.5 -84.5t-119.5 -78t-109 -80t-80.5 -101t-31 -131.5v-139h522q32 0 55 -22t23 -54t-23 -54t-55 -22h-604q-32 0 -55 23t-23 55z" />
<glyph unicode="3" horiz-adv-x="1067" d="M122.5 158.5q-0.5 24.5 16.5 46.5q21 26 55 28.5t58 -18.5q103 -86 252 -86q131 0 209 80t78 201q0 120 -77.5 200t-199.5 80h-55q-32 0 -55 23t-23 55t23 55t55 23h55q83 0 135.5 53t52.5 135q0 83 -53 138t-135 55q-111 0 -205 -84q-25 -22 -53.5 -19.5t-50.5 27.5 q-16 21 -17.5 44.5t6 39t19.5 27.5q113 110 301 110q140 0 239 -99t99 -239q0 -82 -36 -149t-99 -109q103 -52 165 -149.5t62 -216.5q0 -180 -126 -305t-314 -125q-220 0 -350 112q-12 11 -21.5 26.5t-10 40z" />
<glyph unicode="4" horiz-adv-x="1003" d="M55 385q0 34 23 80l366 827q19 40 40.5 55t50.5 15q32 0 50.5 -19t18.5 -53q0 -29 -26 -90l-334 -739h385v229q0 32 23 55t55 23t54.5 -23t22.5 -55v-229h90q32 0 55 -22t23 -54t-23 -55t-55 -23h-90v-239q0 -32 -22.5 -55t-54.5 -23t-55 23t-23 55v239h-494 q-34 0 -57 23t-23 55z" />
<glyph unicode="5" horiz-adv-x="1067" d="M122.5 158.5q-0.5 24.5 16.5 46.5q21 26 55 28.5t58 -18.5q103 -86 252 -86q131 0 209 80t78 201q0 120 -77.5 200t-199.5 80h-248q-32 0 -54 23t-22 55v506q0 32 22 55t54 23h529q32 0 54.5 -23t22.5 -55t-22.5 -54t-54.5 -22h-451v-375h170q180 0 305 -118t125 -295 q0 -180 -126 -305t-314 -125q-220 0 -350 112q-12 11 -21.5 26.5t-10 40z" />
<glyph unicode="6" horiz-adv-x="1112" d="M123 509q0 82 20 166.5t51.5 164.5t84.5 156.5t120 142.5t158 122.5t197 96.5q31 12 59 -2.5t39 -46.5q9 -31 -4.5 -58.5t-42.5 -36.5q-196 -71 -322.5 -201.5t-175.5 -293.5q96 104 252 104q180 0 305 -118t125 -295q0 -178 -125.5 -304t-304.5 -126q-162 0 -282.5 105 t-143.5 261q-10 81 -10 163zM283 410q0 -120 77.5 -200.5t198.5 -80.5q122 0 199.5 80.5t77.5 200.5t-77.5 200t-199.5 80t-199 -80t-77 -200z" />
<glyph unicode="7" horiz-adv-x="921" d="M35 1274q0 32 23 55t55 23h678q33 0 56 -23t23 -55q0 -36 -22 -80l-502 -1128q-18 -41 -39.5 -56.5t-50.5 -15.5q-32 0 -51 19t-19 53q0 20 27 92l469 1040h-569q-32 0 -55 22t-23 54z" />
<glyph unicode="8" horiz-adv-x="1105" d="M123 410q0 119 62 216.5t165 149.5q-63 42 -99 109t-36 149q0 140 99.5 239t238.5 99t238.5 -99t99.5 -239q0 -82 -36 -149t-99 -109q103 -52 165 -149.5t62 -216.5q0 -178 -125.5 -304t-304.5 -126t-304.5 126t-125.5 304zM276 410q0 -120 77.5 -200.5t199.5 -80.5 q121 0 198.5 80.5t77.5 200.5t-77 200t-199 80t-199.5 -80t-77.5 -200zM365 1034q0 -83 53 -138.5t135 -55.5t135 55.5t53 138.5t-53 138t-135 55t-135 -55t-53 -138z" />
<glyph unicode="9" horiz-adv-x="1112" d="M123 942q0 178 125.5 304t304.5 126q162 0 282.5 -105t143.5 -261q10 -81 10 -163t-20 -166.5t-51.5 -164.5t-84.5 -156.5t-120 -142.5t-158 -122.5t-197 -96.5q-31 -12 -59 2.5t-39 46.5q-9 31 4.5 58t42.5 36q196 71 322.5 202t175.5 294q-97 -105 -252 -105 q-180 0 -305 118.5t-125 295.5zM276 942q0 -120 77.5 -200t199.5 -80t199 80t77 200t-77.5 200.5t-198.5 80.5q-122 0 -199.5 -80.5t-77.5 -200.5z" />
<glyph unicode=":" horiz-adv-x="389" d="M113 195q0 35 23.5 58t58.5 23t58 -23t23 -58t-23 -58.5t-58 -23.5t-58.5 23.5t-23.5 58.5zM113 625q0 35 23.5 58.5t58.5 23.5t58 -23.5t23 -58.5t-23 -58.5t-58 -23.5t-58.5 23.5t-23.5 58.5z" />
<glyph unicode=";" horiz-adv-x="389" d="M106 -220q0 21 15 36q37 37 56.5 84t17.5 90q-35 0 -58.5 24t-23.5 58q0 35 23.5 58.5t58.5 23.5q34 0 58.5 -19t33.5 -51q14 -50 11 -106t-30 -117t-71 -105q-16 -16 -35.5 -20t-38.5 10q-17 13 -17 34zM113 625q0 35 23.5 58.5t58.5 23.5t58 -23.5t23 -58.5t-23 -58.5 t-58 -23.5t-58.5 23.5t-23.5 58.5z" />
<glyph unicode="&#x3c;" horiz-adv-x="794" d="M174 502q0 20 7 32.5t30 36.5l278 275q17 20 52 20q30 0 49.5 -19.5t19.5 -49.5q0 -21 -7 -34t-30 -36l-229 -223l229 -223q23 -23 30 -36t7 -34q0 -31 -20 -50.5t-49 -19.5q-34 0 -52 21l-278 270q-21 21 -29 35t-8 35z" />
<glyph unicode="=" horiz-adv-x="1118" d="M170 315q0 31 20.5 51.5t49.5 20.5h639q29 0 49 -20.5t20 -51.5q0 -29 -20 -49t-49 -20h-639q-29 0 -49.5 20t-20.5 49zM170 688q0 29 20.5 49.5t49.5 20.5h639q29 0 49 -20.5t20 -49.5q0 -31 -20 -51.5t-49 -20.5h-639q-29 0 -49.5 20.5t-20.5 51.5z" />
<glyph unicode="&#x3e;" horiz-adv-x="794" d="M184 211q0 21 7 34t30 36l230 223l-230 223q-23 23 -30 36t-7 34q0 30 20 49.5t50 19.5q34 0 51 -20l279 -275q23 -24 30 -36.5t7 -32.5q0 -21 -8 -35t-29 -35l-279 -270q-18 -21 -51 -21q-30 0 -50 20t-20 50z" />
<glyph unicode="?" horiz-adv-x="958" d="M100 1171q-32 54 13 99q118 102 333 102q179 0 305 -126t126 -304q0 -166 -113 -288.5t-277 -137.5q-23 -4 -69 -4v-170q0 -32 -22 -54t-54 -22t-55 22t-23 54v242q0 32 22.5 53.5t55.5 21.5h104q120 -1 198.5 82.5t78.5 200.5q0 120 -77.5 200.5t-199.5 80.5 q-126 0 -243 -74q-25 -16 -56 -11t-47 33zM260 72q0 34 23.5 58t58.5 24q34 0 58 -24t24 -58q0 -35 -24 -58.5t-58 -23.5q-35 0 -58.5 23.5t-23.5 58.5z" />
<glyph unicode="@" horiz-adv-x="1720" d="M164 389q0 142 55 271t148 222t222 148t271 55t271 -55t222 -148t148 -222t55 -271v-303q0 -22 -14.5 -36.5t-36.5 -14.5h-413q-26 0 -44 18t-18 43v37h-4q-37 -47 -106.5 -76.5t-147.5 -29.5q-102 0 -165.5 54t-63.5 150q0 94 70.5 147.5t170.5 53.5q143 0 242 -41h4v86 q0 119 -168 119q-113 0 -198 -59q-20 -15 -46.5 -11.5t-39.5 25.5q-27 45 24 90q106 74 264 74q140 0 214.5 -66.5t74.5 -165.5v-360h313v266q0 165 -81.5 305t-221.5 221.5t-305 81.5t-305 -81.5t-221.5 -221.5t-81.5 -305t81.5 -305t221.5 -221.5t305 -81.5q20 0 33.5 -13 t13.5 -32t-13.5 -31t-33.5 -12q-142 0 -271 55t-222 148t-148 222t-55 271zM668 236q0 -49 34.5 -74t98.5 -25q116 0 229 62v118q-130 13 -229 13q-133 0 -133 -94z" />
<glyph unicode="A" horiz-adv-x="1468" d="M36 42q-5 13 -5 26q0 17 8 34l575 1203q32 67 121 67q87 0 119 -67l576 -1203q8 -17 8 -34q0 -13 -5 -26q-11 -29 -42 -44q-16 -8 -33 -8q-14 0 -28 6q-30 12 -44 39l-190 395h-723l-191 -395q-14 -27 -44 -39q-14 -5 -27 -6l-33 8q-31 15 -42 44zM444 584h580l-289 614z " />
<glyph unicode="B" horiz-adv-x="1136" d="M178 78v1196q0 32 23 55t55 23h287q151 0 247.5 -97.5t96.5 -240.5q0 -73 -31.5 -137.5t-85.5 -106.5q116 -41 188 -138t72 -224q0 -169 -118.5 -288.5t-286.5 -119.5h-369q-32 0 -55 23t-23 55zM334 154h284q104 0 179 75t75 181t-75 181t-179 75h-284v-512zM334 819 h203q80 0 136 56.5t56 138.5q0 79 -56 131.5t-136 52.5h-203v-379z" />
<glyph unicode="C" horiz-adv-x="1454" d="M123 676q0 142 55 271t148 222t222 148t271 55q143 0 271.5 -55.5t226.5 -153.5q23 -23 23 -54t-23 -54t-55.5 -22t-55.5 24q-74 76 -174 119t-213 43q-150 0 -274.5 -73.5t-195 -198t-70.5 -271.5t70.5 -271.5t195 -198t274.5 -73.5q228 0 387 162q23 23 55.5 24 t55.5 -22t23 -54.5t-23 -54.5q-97 -98 -225.5 -153t-272.5 -55q-142 0 -271 55t-222 148t-148 222t-55 271z" />
<glyph unicode="D" horiz-adv-x="1720" d="M178 78v1196q0 32 23 55t55 23h645q142 0 270.5 -52t222 -141t148.5 -215t55 -268t-55 -268t-148.5 -215t-222 -141t-270.5 -52h-645q-32 0 -55 23t-23 55zM334 152h567q113 0 213.5 40.5t172.5 110t113.5 166.5t41.5 207t-41.5 207t-113.5 166.5t-172.5 110t-213.5 40.5 h-567v-1048z" />
<glyph unicode="E" d="M178 78v1196q0 32 23 55t55 23h594q32 0 55 -23t23 -55t-23 -54t-55 -22h-516v-403h393q32 0 55 -23t23 -55t-23 -55t-55 -23h-393v-485h516q32 0 55 -22t23 -54t-23 -55t-55 -23h-594q-32 0 -55 23t-23 55z" />
<glyph unicode="F" horiz-adv-x="972" d="M178 68v1206q0 32 23 55t55 23h594q32 0 55 -23t23 -55t-23 -54t-55 -22h-516v-444h393q32 0 55 -23t23 -55t-23 -55t-55 -23h-393v-530q0 -32 -23 -55t-55 -23t-55 23t-23 55z" />
<glyph unicode="G" horiz-adv-x="1474" d="M123 676q0 142 55 271t148 222t222 148t271 55q143 0 271.5 -55.5t226.5 -153.5q23 -23 23 -54t-23 -54t-55.5 -22t-55.5 24q-74 76 -174 119t-213 43q-150 0 -274.5 -73.5t-195 -198t-70.5 -271.5t70.5 -271.5t195 -198t274.5 -73.5q212 0 369 141v324q0 32 22 54t54 22 t54.5 -22t22.5 -54v-352q0 -33 -20 -56q-95 -99 -226 -154.5t-276 -55.5q-142 0 -271 55t-222 148t-148 222t-55 271z" />
<glyph unicode="H" horiz-adv-x="1802" d="M178 68v1216q0 32 23 55t55 23t55 -23t23 -55v-479h1134v479q0 32 23 55t55 23t55 -23t23 -55v-1216q0 -32 -23 -55t-55 -23t-55 23t-23 55v581h-1134v-581q0 -32 -23 -55t-55 -23t-55 23t-23 55z" />
<glyph unicode="I" horiz-adv-x="512" d="M178 68v1216q0 32 23 55t55 23t55 -23t23 -55v-1216q0 -32 -23 -55t-55 -23t-55 23t-23 55z" />
<glyph unicode="J" horiz-adv-x="512" d="M-70 -532q3 30 29 53q115 106 167 242.5t52 334.5v1186q0 32 23 55t55 23t55 -23t23 -55v-1186q0 -230 -66.5 -400t-206.5 -294q-23 -19 -50 -19h-7q-32 3 -55 29q-19 21 -19 47v7z" />
<glyph unicode="K" horiz-adv-x="1531" d="M178 68v1216q0 32 23 55t55 23t55 -23t23 -55v-633l895 686q26 23 61 24t56 -24q20 -26 13 -55t-32 -49l-704 -537l239 -268q134 -151 267.5 -218t293.5 -67q33 0 55.5 -21.5t22.5 -53.5t-23 -55t-55 -23q-220 0 -383 86t-303 243l-243 275l-160 -129v-397q0 -32 -23 -55 t-55 -23t-55 23t-23 55z" />
<glyph unicode="L" horiz-adv-x="972" d="M178 78v1206q0 32 23 55t55 23t55 -22t23 -54v-1132h516q32 0 55 -22t23 -54t-23 -55t-55 -23h-594q-32 0 -55 23t-23 55z" />
<glyph unicode="M" horiz-adv-x="1802" d="M178 68v1216q0 32 23 55t55 23q23 0 38.5 -8.5t39.5 -32.5l567 -547l567 547q24 24 39.5 32.5t38.5 8.5q32 0 55 -23t23 -55v-1216q0 -32 -23 -55t-55 -23t-55 23t-23 55v1032l-489 -473q-23 -23 -39 -31t-39 -8t-39 8t-39 31l-489 473v-1032q0 -32 -23 -55t-55 -23 t-55 23t-23 55z" />
<glyph unicode="N" horiz-adv-x="1802" d="M178 68v1216q0 32 23 55t55 23q23 0 38.5 -8.5t39.5 -32.5l1134 -1069v1032q0 32 23 55t55 23t55 -23t23 -55v-1216q0 -32 -23 -55t-55 -23q-23 0 -38.5 8.5t-39.5 32.5l-1134 1069v-1032q0 -32 -23 -55t-55 -23t-55 23t-23 55z" />
<glyph unicode="O" horiz-adv-x="1638" d="M123 676q0 142 55 271t148 222t222 148t271 55q189 0 349.5 -93t254 -253.5t93.5 -349.5t-93.5 -349.5t-254 -253.5t-349.5 -93q-142 0 -271 55t-222 148t-148 222t-55 271zM279 676q0 -147 70.5 -271.5t195 -198t274.5 -73.5t275 73.5t195.5 198t70.5 271.5t-70.5 271.5 t-195.5 198t-275 73.5t-274.5 -73.5t-195 -198t-70.5 -271.5z" />
<glyph unicode="P" horiz-adv-x="1136" d="M178 68v1206q0 32 23 55t55 23h369q168 0 286.5 -120.5t118.5 -289.5t-118.5 -289.5t-286.5 -120.5h-291v-466q0 -32 -23 -54t-55 -22t-55 23t-23 55zM334 686h284q104 0 179 75t75 181t-75 181t-179 75h-284v-512z" />
<glyph unicode="Q" horiz-adv-x="1638" d="M123 676q0 142 55 271t148 222t222 148t271 55q189 0 349.5 -93t254 -253.5t93.5 -349.5q0 -243 -151 -431t-382 -243q55 -85 128.5 -154t170 -119t202.5 -71q59 -11 123 -11q54 0 112 7q128 18 257 78q29 12 59.5 2t43.5 -37q11 -18 11 -37q0 -12 -4 -23 q-10 -31 -40 -45q-163 -73 -326 -90q-53 -5 -104 -5q-102 0 -192 23q-134 33 -253 102.5t-206.5 160.5t-147.5 197q-189 1 -349 94t-252.5 253t-92.5 349zM279 676q0 -147 70.5 -271.5t195 -198t274.5 -73.5t275 73.5t195.5 198t70.5 271.5t-70.5 271.5t-195.5 198 t-275 73.5t-274.5 -73.5t-195 -198t-70.5 -271.5z" />
<glyph unicode="R" horiz-adv-x="1531" d="M178 68v1206q0 32 23 55t55 23h369q168 0 286.5 -120.5t118.5 -289.5q0 -135 -78 -241t-202 -146l112 -127q134 -151 267.5 -218t293.5 -67q33 0 55.5 -21.5t22.5 -53.5t-23 -55t-55 -23q-220 0 -383 86t-303 243l-190 213h-213v-466q0 -32 -23 -54t-55 -22t-55 23 t-23 55zM334 686h284q104 0 179 75t75 181t-75 181t-179 75h-284v-512z" />
<glyph unicode="S" horiz-adv-x="950" d="M123 217q23 25 57 26t56 -22q81 -88 227 -88q101 0 165 59t64 156q0 49 -19.5 91t-53 73t-76.5 59.5t-90.5 55.5t-95.5 55t-91 62.5t-76.5 74.5t-53 95t-19.5 120q0 147 97.5 242.5t268.5 95.5q188 0 301 -110q11 -11 18.5 -27.5t6.5 -39.5t-16 -44q-22 -25 -54 -27.5 t-57 19.5q-40 36 -96 56t-109 20q-99 0 -152 -49t-53 -136q0 -57 32 -103.5t82.5 -81t112 -67.5t123 -72.5t112 -86t82.5 -117.5t32 -158q0 -161 -108.5 -264.5t-276.5 -103.5q-211 0 -332 124q-11 12 -19 28q-8 15 -8 37q0 26 19 48z" />
<glyph unicode="T" horiz-adv-x="880" d="M66 1274q0 32 22.5 55t54.5 23h594q32 0 55 -23t23 -55t-23 -54t-55 -22h-219v-1130q0 -32 -23 -55t-55 -23t-55 23t-23 55v1130h-219q-32 0 -54.5 22t-22.5 54z" />
<glyph unicode="U" horiz-adv-x="1699" d="M154 676v608q0 32 22.5 55t54.5 23t54 -23t22 -55v-608q0 -147 71 -271.5t196.5 -198t275.5 -73.5t275.5 73.5t196.5 198t71 271.5v608q0 33 21.5 55.5t53.5 22.5t55 -23t23 -55v-608q0 -142 -55 -271t-148 -222t-222 -148t-271 -55t-271 55t-222 148t-148 222t-55 271z " />
<glyph unicode="V" horiz-adv-x="1468" d="M36 1310q11 30 42 44q16 8 33 8l27 -6q30 -12 44 -39l553 -1163l551 1163q14 27 44 39q14 5 28 6q17 0 33 -8q31 -14 42 -44q5 -13 5 -27q0 -17 -8 -34l-576 -1202q-32 -67 -119 -67q-89 0 -121 67l-575 1202q-8 17 -8 34q0 14 5 27z" />
<glyph unicode="W" horiz-adv-x="1744" d="M150 1284q-1 32 21.5 55t55.5 23q32 0 53.5 -22.5t24.5 -55.5l92 -1042l398 483q21 24 37 31.5t40 7.5q25 0 42 -8t36 -31l398 -483l92 1042q3 33 24.5 55.5t53.5 22.5t55 -23t22 -55l-102 -1216q-3 -33 -24.5 -55.5t-53.5 -22.5q-25 0 -41 8t-37 33l-465 547l-464 -547 q-21 -25 -37 -33t-41 -8q-32 0 -53.5 22.5t-24.5 55.5z" />
<glyph unicode="X" horiz-adv-x="1560" d="M82 68q0 28 24 55l562 553l-562 553q-24 27 -24 55q0 32 23 55t55 23q22 0 37 -8.5t39 -32.5l544 -537l545 537q24 24 39 32.5t37 8.5q32 0 55 -23t23 -55q0 -30 -25 -55l-563 -553l559 -553q25 -29 25 -55q0 -32 -23 -55t-55 -23q-22 0 -37 8.5t-39 32.5l-541 534 l-544 -534q-24 -24 -39 -32.5t-37 -8.5q-32 0 -55 23t-23 55z" />
<glyph unicode="Y" horiz-adv-x="1437" d="M20 1284q0 32 23 55t55 23q22 0 37 -8.5t39 -32.5l545 -537l545 537q25 25 39 33t36 8q32 0 55 -23t23 -55q0 -31 -24 -55l-598 -588v-573q0 -32 -22 -55t-54 -23q-33 0 -55.5 22.5t-22.5 55.5v573l-596 588q-25 29 -25 55z" />
<glyph unicode="Z" horiz-adv-x="1460" d="M41 78q0 22 8 37.5t31 38.5l1036 1044h-907q-32 0 -54 22t-22 54t22 55t54 23h1091q33 0 55.5 -22.5t22.5 -55.5q0 -22 -8 -36.5t-31 -39.5l-1040 -1044h1042q34 0 56 -22t22 -54q0 -33 -22.5 -55.5t-55.5 -22.5h-1222q-33 0 -55.5 22.5t-22.5 55.5z" />
<glyph unicode="[" horiz-adv-x="645" d="M178 -229v1810q0 32 23 55t55 23h246q32 0 55 -22t23 -54t-23 -54t-55 -22h-168v-1663h168q33 0 55.5 -21.5t22.5 -53.5t-23 -54t-55 -22h-246q-32 0 -55 23t-23 55z" />
<glyph unicode="\" horiz-adv-x="811" d="M123 1272q-9 32 4 61.5t43 36.5q74 16 104 -72l412 -1216q12 -33 -1.5 -62.5t-41.5 -35.5q-42 -11 -69.5 8t-38.5 61z" />
<glyph unicode="]" horiz-adv-x="645" d="M66 -231q0 32 22.5 53.5t54.5 21.5h168v1663h-168q-32 0 -54.5 22t-22.5 54t22.5 54t54.5 22h246q32 0 55 -23t23 -55v-1810q0 -32 -23 -55t-55 -23h-246q-32 0 -54.5 22t-22.5 54z" />
<glyph unicode="^" horiz-adv-x="704" d="M80 678q0 27 18 45l193 192q21 21 33 28t30 7t30.5 -7t33.5 -28l190 -192q19 -19 19 -45t-18 -45t-44 -19q-18 0 -29.5 6.5t-33.5 26.5l-150 152l-147 -152q-21 -20 -33.5 -26.5t-30.5 -6.5q-26 0 -43.5 18.5t-17.5 45.5z" />
<glyph unicode="_" horiz-adv-x="1118" d="M170 -176q0 31 20.5 51.5t49.5 20.5h639q29 0 49 -20.5t20 -51.5q0 -29 -20 -49.5t-49 -20.5h-639q-29 0 -49.5 20.5t-20.5 49.5z" />
<glyph unicode="`" horiz-adv-x="520" d="M92 1169q0 28 19 47t47 19q19 0 31 -6.5t34 -26.5l172 -166q21 -24 21 -49q0 -28 -19 -46.5t-47 -18.5q-19 0 -31 6.5t-34 27.5l-174 164q-19 22 -19 49z" />
<glyph unicode="a" horiz-adv-x="937" d="M72 236q0 117 90.5 184t216.5 67q169 0 297 -51h4v107q0 147 -211 147q-59 0 -127 -19t-119 -55q-26 -18 -58.5 -13.5t-49.5 32.5q-17 23 -10.5 47.5t16.5 38t24 24.5q131 95 330 95q176 0 268.5 -77.5t92.5 -199.5v-495q0 -32 -23 -55t-55 -23t-55 23t-23 55v45h-4 q-46 -59 -131.5 -96t-182.5 -37q-129 0 -209.5 68t-80.5 188zM225 242q0 -62 44 -95.5t126 -33.5q133 0 285 82v147q-200 20 -285 20q-84 0 -127 -31t-43 -89z" />
<glyph unicode="b" horiz-adv-x="1013" d="M106 68v1216q0 32 23 55t55 23t55 -23t23 -55v-567h4q101 123 283 123q170 0 281.5 -124.5t111.5 -305.5q0 -119 -48.5 -216.5t-138 -155.5t-202.5 -58q-183 0 -287 133h-4v-45q0 -32 -23 -55t-55 -23t-55 23t-23 55zM256 410q0 -121 73 -201t193 -80t193 80t73 201 t-72.5 200.5t-193.5 79.5t-193.5 -79.5t-72.5 -200.5z" />
<glyph unicode="c" horiz-adv-x="911" d="M72 410q0 178 126 304t304 126q187 0 317 -88q13 -10 23 -24.5t16 -39.5q2 -7 2 -14q0 -18 -12 -35q-17 -28 -47.5 -33.5t-57.5 10.5q-113 74 -241 74q-122 0 -199.5 -80t-77.5 -200t77.5 -200.5t199.5 -80.5q128 0 241 74q27 16 57.5 10.5t47.5 -33.5q12 -17 12 -35 q0 -7 -2 -14q-6 -25 -16 -39t-23 -24q-130 -88 -317 -88q-178 0 -304 126t-126 304z" />
<glyph unicode="d" d="M72 410q0 181 111.5 305.5t281.5 124.5q182 0 283 -123h4v567q0 32 22.5 55t54.5 23t55 -23t23 -55v-1216q0 -32 -23 -55t-55 -23t-54.5 23t-22.5 55v45h-4q-104 -133 -287 -133q-113 0 -202.5 58t-138 155.5t-48.5 216.5zM225 410q0 -121 73 -201t194 -80q120 0 193 80 t73 201t-72.5 200.5t-193.5 79.5t-194 -79.5t-73 -200.5z" />
<glyph unicode="e" horiz-adv-x="952" d="M72 410q0 178 126 304t304 126q180 0 287.5 -110t107.5 -290q0 -32 -23 -55t-55 -23h-590q14 -101 89 -167t184 -66q128 0 241 74q27 16 57.5 10.5t47.5 -33.5q16 -24 10 -49t-16 -39t-23 -24q-130 -88 -317 -88q-178 0 -304 126t-126 304zM246 502h473q-29 188 -217 188 q-94 0 -161.5 -50.5t-94.5 -137.5z" />
<glyph unicode="f" horiz-adv-x="573" d="M25 741q0 32 22.5 55t54.5 23h66v256q0 70 16 122t42 83t66 50t82.5 25.5t96.5 6.5q32 0 55 -23t23 -55t-23 -54t-55 -22q-80 0 -113.5 -29t-33.5 -104v-256h147q32 0 55 -23t23 -55t-22.5 -53.5t-55.5 -21.5h-147v-598q0 -32 -23 -55t-55 -23t-55 23t-23 55v598h-66 q-32 0 -54.5 21.5t-22.5 53.5z" />
<glyph unicode="g" d="M72 410q0 180 111 305t278 125q183 0 287 -133h4v45q0 32 22.5 54.5t54.5 22.5t55 -22.5t23 -54.5v-793q0 -117 -57.5 -216t-156.5 -156.5t-216 -57.5q-190 0 -317 88q-14 10 -24.5 25t-15.5 39t11 49q17 28 46.5 33t55.5 -11q117 -74 244 -74q120 0 197.5 80.5 t77.5 200.5v154h-4q-104 -133 -287 -133q-113 0 -202.5 58t-138 155.5t-48.5 216.5zM225 410q0 -121 73 -201t194 -80q120 0 193 80t73 201t-72.5 200.5t-193.5 79.5t-194 -79.5t-73 -200.5z" />
<glyph unicode="h" horiz-adv-x="1054" d="M117 68v1216q0 32 23 55t55 23t54.5 -23t22.5 -55v-592h4q111 148 304 148q174 0 273 -116t99 -314v-342q0 -32 -23 -55t-55 -23t-53.5 22.5t-21.5 55.5v342q0 133 -69.5 206.5t-192.5 73.5q-119 0 -192 -79.5t-73 -200.5v-342q0 -32 -22.5 -55t-54.5 -23t-55 23t-23 55z " />
<glyph unicode="i" horiz-adv-x="389" d="M111 1053q0 35 24.5 59.5t59.5 24.5t59.5 -24.5t24.5 -59.5t-24.5 -59.5t-59.5 -24.5t-59.5 24.5t-24.5 59.5zM117 68v684q0 32 23 54.5t55 22.5t54.5 -22.5t22.5 -54.5v-684q0 -32 -22.5 -55t-54.5 -23t-55 23t-23 55z" />
<glyph unicode="j" horiz-adv-x="389" d="M-131 -389q3 30 29 53q115 106 167 243t52 335v510q0 32 23 54.5t55 22.5t54.5 -22.5t22.5 -54.5v-510q0 -231 -66 -401t-206 -294q-22 -19 -49 -19h-9q-32 4 -55 30q-18 20 -18 46v7zM111 1053q0 35 24.5 59.5t59.5 24.5t59.5 -24.5t24.5 -59.5t-24.5 -59.5t-59.5 -24.5 t-59.5 24.5t-24.5 59.5z" />
<glyph unicode="k" horiz-adv-x="876" d="M117 68v1216q0 32 23 55t55 23t54.5 -23t22.5 -55v-797h152l248 301q19 25 35 33t41 8q32 0 54.5 -22.5t22.5 -54.5q0 -29 -24 -56l-242 -286l242 -287q24 -27 24 -55q0 -32 -22.5 -55t-54.5 -23q-25 0 -41 8t-37 33l-248 301h-150v-264q0 -32 -22.5 -55t-54.5 -23 t-55 23t-23 55z" />
<glyph unicode="l" horiz-adv-x="532" d="M117 276v1008q0 32 23 55t55 23t54.5 -23t22.5 -55v-1008q0 -75 34 -104t114 -29q33 0 55.5 -21.5t22.5 -53.5t-23 -55t-55 -23q-54 0 -96 6.5t-82.5 25t-66.5 50t-42 83t-16 121.5z" />
<glyph unicode="m" horiz-adv-x="1734" d="M117 68v684q0 32 23 54.5t55 22.5t54.5 -22.5t22.5 -54.5v-60h4q111 148 304 148q114 0 197 -52t128 -147h6q75 112 158.5 155.5t190.5 43.5q175 0 273.5 -116t98.5 -314v-342q0 -32 -22 -55t-54 -23t-54.5 23t-22.5 55v342q0 133 -68.5 206.5t-191.5 73.5 q-121 0 -194 -79.5t-73 -200.5v-342q0 -32 -23 -55t-55 -23t-53.5 22.5t-21.5 55.5v342q0 133 -69.5 206.5t-192.5 73.5q-119 0 -192 -79.5t-73 -200.5v-342q0 -32 -22.5 -55t-54.5 -23t-55 23t-23 55z" />
<glyph unicode="n" horiz-adv-x="1054" d="M117 68v684q0 32 23 54.5t55 22.5t54.5 -22.5t22.5 -54.5v-60h4q111 148 304 148q174 0 273 -116t99 -314v-342q0 -32 -23 -55t-55 -23t-53.5 22.5t-21.5 55.5v342q0 133 -69.5 206.5t-192.5 73.5q-119 0 -192 -79.5t-73 -200.5v-342q0 -32 -22.5 -55t-54.5 -23t-55 23 t-23 55z" />
<glyph unicode="o" horiz-adv-x="1003" d="M72 410q0 178 126 304t304 126t304 -126t126 -304t-126 -304t-304 -126t-304 126t-126 304zM225 410q0 -120 77.5 -200.5t199.5 -80.5q121 0 198.5 80.5t77.5 200.5t-77 200t-199 80t-199.5 -80t-77.5 -200z" />
<glyph unicode="p" d="M117 -393v1145q0 32 23 54.5t55 22.5t54.5 -22.5t22.5 -54.5v-45h4q104 133 287 133q169 0 279 -124.5t110 -305.5t-111.5 -305.5t-281.5 -124.5q-182 0 -283 122h-4v-495q0 -32 -22.5 -55t-54.5 -23t-55 23t-23 55zM266 410q0 -121 73 -201t193 -80q121 0 194 80t73 201 t-73 200.5t-194 79.5t-193.5 -79.5t-72.5 -200.5z" />
<glyph unicode="q" d="M72 410q0 119 48.5 216.5t138 155.5t202.5 58q183 0 287 -133h4v45q0 32 22.5 54.5t54.5 22.5t55 -22.5t23 -54.5v-1145q0 -32 -23 -55t-55 -23t-54.5 23t-22.5 55v495h-4q-101 -122 -283 -122q-170 0 -281.5 124.5t-111.5 305.5zM225 410q0 -121 73 -201t194 -80 q120 0 193 80t73 201t-72.5 200.5t-193.5 79.5t-194 -79.5t-73 -200.5z" />
<glyph unicode="r" horiz-adv-x="632" d="M117 68v684q0 32 23 54.5t55 22.5t54.5 -22.5t22.5 -54.5v-45h4q34 54 94 91.5t144 37.5q32 0 55 -23t23 -55t-23 -55t-55 -23q-242 0 -242 -256v-356q0 -32 -22.5 -55t-54.5 -23t-55 23t-23 55z" />
<glyph unicode="s" horiz-adv-x="876" d="M58 136q-2 6 -2 13q0 17 12 35q18 28 50 32.5t58 -13.5q52 -36 124.5 -55t133.5 -19q215 0 215 117q0 27 -18 45.5t-50.5 29.5t-70.5 18t-86 14q-24 3 -37 5q-51 7 -91.5 17.5t-80 29.5t-66 43.5t-43 61.5t-16.5 84q0 110 84.5 178t257.5 68q188 0 318 -88 q13 -10 22.5 -24.5t15.5 -39t-10 -49.5q-17 -29 -47.5 -35t-56.5 12q-51 34 -126.5 54t-135.5 20q-84 0 -128 -20t-44 -68q0 -17 7.5 -31t24 -23.5t34 -16.5t45.5 -12.5t50 -9t56.5 -8.5t56.5 -9q45 -6 83.5 -17t76.5 -31t65 -46t43.5 -65.5t16.5 -86.5q0 -119 -98.5 -192.5 t-276.5 -73.5q-194 0 -324 94q-14 10 -25 24t-17 38z" />
<glyph unicode="t" horiz-adv-x="593" d="M25 741q0 32 22.5 55t54.5 23h66v240q0 32 23 55t55 23t55 -23t23 -55v-240h147q32 0 55 -23t23 -55t-22.5 -53.5t-55.5 -21.5h-147v-390q0 -75 33.5 -104t113.5 -29q33 0 55.5 -21.5t22.5 -53.5t-23 -55t-55 -23q-54 0 -96 6.5t-82.5 25t-66.5 50t-42 83t-16 121.5v390 h-66q-32 0 -54.5 21.5t-22.5 53.5z" />
<glyph unicode="u" horiz-adv-x="1054" d="M102 410v342q0 32 22 54.5t56 22.5q32 0 54 -22.5t22 -54.5v-342q0 -133 69 -207t191 -74q120 0 193 80t73 201v342q0 32 23 54.5t55 22.5t55 -22.5t23 -54.5v-684q0 -32 -23 -55t-55 -23t-55 23t-23 55v59h-4q-110 -147 -303 -147q-175 0 -274 116t-99 314z" />
<glyph unicode="v" horiz-adv-x="927" d="M41 762q0 32 19 49.5t53 17.5q57 0 82 -53l266 -610l272 610q22 53 82 53q34 0 53 -17.5t19 -49.5t-19 -66l-293 -639q-32 -67 -114 -67q-81 0 -113 67l-289 639q-18 32 -18 66z" />
<glyph unicode="w" horiz-adv-x="1341" d="M41 762q0 32 19 49.5t53 17.5q64 0 82 -53l221 -600l172 594q14 59 82 59q67 0 84 -59l170 -594l223 600q18 53 82 53q34 0 52.5 -17.5t18.5 -49.5q0 -19 -14 -66l-254 -635q-28 -71 -112 -71q-90 0 -111 71l-139 447l-138 -447q-21 -71 -112 -71q-83 0 -111 71l-254 635 q-14 47 -14 66z" />
<glyph unicode="x" horiz-adv-x="856" d="M51 68q0 26 25 55l241 287l-241 286q-25 29 -25 56q0 32 23 54.5t55 22.5q25 0 41 -8t35 -33l223 -270l223 270q19 25 35 33t41 8q32 0 55 -22.5t23 -54.5q0 -27 -25 -56l-241 -286l241 -287q25 -29 25 -55q0 -32 -23 -55t-55 -23q-25 0 -41 8t-37 33l-221 268l-223 -268 q-19 -25 -35 -33t-41 -8q-32 0 -55 23t-23 55z" />
<glyph unicode="y" horiz-adv-x="1054" d="M102 410v342q0 32 22 54.5t56 22.5q32 0 54 -22.5t22 -54.5v-342q0 -133 69 -207t191 -74q120 0 193 80t73 201v342q0 32 23 54.5t55 22.5t55 -22.5t23 -54.5v-793q0 -179 -126 -304.5t-304 -125.5q-191 0 -318 88q-14 10 -24.5 25t-15.5 39t10 49q18 28 48.5 33 t55.5 -11q117 -74 244 -74q120 0 197 80.5t77 200.5v168h-4q-110 -147 -303 -147q-175 0 -274 116t-99 314z" />
<glyph unicode="z" horiz-adv-x="856" d="M41 78q0 43 39 82l473 508h-426q-33 0 -55.5 21.5t-22.5 53.5t23 54t55 22h584q33 0 55 -22.5t22 -55.5q0 -44 -38 -82l-474 -507h461q32 0 55 -22t23 -54t-23 -54t-55 -22h-618q-33 0 -55.5 22.5t-22.5 55.5z" />
<glyph unicode="{" horiz-adv-x="837" d="M55 674q0 32 23 55t55 23h55q84 0 137.5 54.5t53.5 137.5q0 231 65.5 401t206.5 293q25 22 56.5 19t54.5 -29q22 -23 19.5 -53t-27.5 -53q-116 -106 -169 -243t-53 -335q0 -83 -36.5 -154.5t-98.5 -113.5q62 -43 98.5 -113.5t36.5 -152.5q0 -198 53 -335t169 -243 q25 -23 27.5 -53t-19.5 -53q-23 -26 -54.5 -29.5t-56.5 18.5q-141 123 -206.5 293t-65.5 402q0 82 -53 134t-138 52h-55q-32 0 -55 23t-23 55z" />
<glyph unicode="|" horiz-adv-x="512" d="M178 -137v1626q0 32 23 55t55 23t55 -23t23 -55v-1626q0 -32 -23 -55t-55 -23t-55 23t-23 55z" />
<glyph unicode="}" horiz-adv-x="837" d="M56.5 -221q2.5 30 27.5 53q116 106 168.5 242.5t52.5 335.5q0 82 36.5 152.5t98.5 113.5q-62 42 -98.5 113.5t-36.5 154.5q0 199 -52.5 335.5t-168.5 242.5q-25 23 -27.5 53t19.5 53q23 26 54 29t56 -19q141 -123 207 -293t66 -401q0 -83 53 -137.5t137 -54.5h56 q32 0 54.5 -23t22.5 -55t-22.5 -55t-54.5 -23h-56q-84 0 -137 -52t-53 -134q0 -231 -66 -401.5t-207 -293.5q-25 -22 -56 -18.5t-54 29.5q-22 23 -19.5 53z" />
<glyph unicode="~" horiz-adv-x="833" d="M93 661.5q-5 25.5 9 43.5q29 43 49.5 67.5t51.5 46.5t64 23.5t79.5 -14.5t104.5 -54q57 -39 96.5 -29.5t79.5 72.5q11 21 38.5 24t47.5 -10q22 -17 27 -42t-9 -44q-29 -43 -50 -67.5t-53 -46.5t-64.5 -23.5t-79 14.5t-103.5 54q-57 39 -95.5 29.5t-78.5 -72.5 q-13 -21 -40 -23.5t-48 11.5q-21 15 -26 40.5z" />
<glyph unicode="&#xa1;" horiz-adv-x="512" d="M174 819q0 34 23.5 58t58.5 24t58.5 -24t23.5 -58q0 -35 -23.5 -58.5t-58.5 -23.5t-58.5 23.5t-23.5 58.5zM178 -393v940q0 32 23 55t55 23t55 -23t23 -55v-940q0 -32 -23 -55t-55 -23t-55 23t-23 55z" />
<glyph unicode="&#xa2;" horiz-adv-x="999" d="M102 410q0 157 100.5 275t252.5 146v177q0 32 22.5 54.5t54.5 22.5t55 -22.5t23 -54.5v-172q144 -17 240 -84q13 -10 23 -24.5t16 -39.5t-10 -49q-17 -28 -47.5 -33.5t-57.5 10.5q-113 74 -242 74q-122 0 -199 -80t-77 -200t77.5 -200.5t198.5 -80.5q129 0 242 74 q27 16 57.5 10.5t47.5 -33.5q16 -24 10 -49t-16 -39t-23 -24q-96 -67 -240 -84v-172q0 -32 -23 -55t-55 -23t-54.5 23t-22.5 55v176q-152 26 -252.5 145.5t-100.5 276.5z" />
<glyph unicode="&#xa3;" horiz-adv-x="1146" d="M133 78q0 32 22 54t54 22h78v419h-84q-29 0 -49.5 20.5t-20.5 49.5q0 31 20.5 51.5t49.5 20.5h84v319q0 146 97.5 242t266.5 96q190 0 303 -110q11 -11 18.5 -27.5t6.5 -39.5t-16 -44q-22 -25 -54 -27.5t-57 19.5q-40 36 -96 56t-109 20q-99 0 -153 -49t-54 -136v-319 h226q29 0 49 -20.5t20 -51.5q0 -29 -20 -49.5t-49 -20.5h-226v-419h498q32 0 54 -22t22 -54t-22 -55t-54 -23h-729q-32 0 -54 23t-22 55z" />
<glyph unicode="&#xa4;" horiz-adv-x="1050" d="M143 928l17 16l162 -184q90 74 204 74q113 0 203 -74l160 184l18 -16l-159 -183q102 -96 102 -235q0 -68 -26.5 -129t-73.5 -105l155 -176l-18 -18l-158 178q-88 -72 -203 -72q-116 0 -204 72l-156 -178l-19 18l156 176q-98 95 -98 234q0 138 98 233zM229 510 q0 -122 87.5 -209.5t209.5 -87.5t210.5 88t88.5 209q0 122 -88.5 210.5t-210.5 88.5q-121 0 -209 -88.5t-88 -210.5z" />
<glyph unicode="&#xa5;" horiz-adv-x="1441" d="M20 1284q0 32 23 55t55 23q23 0 38.5 -8.5t39.5 -32.5l543 -537l545 537q24 24 39.5 32.5t37.5 8.5q32 0 55 -23t23 -55q0 -29 -26 -55l-596 -588h280q22 0 36.5 -14.5t14.5 -36.5t-14.5 -36.5t-36.5 -14.5h-280v-471q0 -32 -23 -55t-55 -23t-55 23t-23 55v471h-281 q-22 0 -36.5 14.5t-14.5 36.5t14.5 36.5t36.5 14.5h281l-594 588q-27 27 -27 55z" />
<glyph unicode="&#xa6;" horiz-adv-x="512" d="M178 -137v581q0 32 23 55t55 23t55 -23t23 -55v-581q0 -32 -23 -55t-55 -23t-55 23t-23 55zM178 907v582q0 32 23 55t55 23t55 -23t23 -55v-582q0 -32 -23 -55t-55 -23t-55 23t-23 55z" />
<glyph unicode="&#xa7;" horiz-adv-x="1048" d="M164 -52q1 21 18 34q17 14 38.5 12t33.5 -19q83 -90 199 -96q122 -9 208 58t95 190q4 56 -14 103.5t-52 82t-79.5 65.5t-95.5 59t-100.5 56.5t-95 64.5t-78 77.5t-51 100t-12.5 128.5q6 118 74 195q-61 90 -53 215q11 151 113 232t272 69q148 -9 247 -123 q13 -17 12 -37.5t-16 -34.5q-19 -14 -40 -12.5t-33 18.5q-74 80 -179 89q-111 6 -186.5 -44.5t-81.5 -152.5q-6 -75 24.5 -134t83 -99.5t117.5 -77t129.5 -76t116.5 -85.5t82 -117t23 -161q-9 -115 -70 -198q57 -90 49 -211q-12 -170 -131.5 -262t-286.5 -80 q-157 9 -268 133q-13 17 -12 38zM287 868q-5 -61 15 -111.5t54 -85t84 -69t98 -59.5t104.5 -60.5t94.5 -68.5q34 59 39 123q5 69 -22.5 123.5t-80 95.5t-108 72.5t-125.5 72.5t-114 78q-36 -46 -39 -111z" />
<glyph unicode="&#xa8;" horiz-adv-x="735" d="M92 1020q0 38 26 65t64 27t65 -27t27 -65t-27 -64t-65 -26t-64 26t-26 64zM461 1020q0 38 25.5 65t62.5 27q40 0 67 -27t27 -65t-27 -64t-67 -26q-37 0 -62.5 26t-25.5 64z" />
<glyph unicode="&#xa9;" horiz-adv-x="1638" d="M123 676q0 142 55 271t148 222t222 148t271 55q189 0 349.5 -93t254 -253.5t93.5 -349.5t-93.5 -349.5t-254 -253.5t-349.5 -93q-142 0 -271 55t-222 148t-148 222t-55 271zM225 676q0 -161 79.5 -298t216.5 -216.5t298 -79.5t298 79.5t216.5 216.5t79.5 298t-79.5 298 t-216.5 216.5t-298 79.5t-298 -79.5t-216.5 -216.5t-79.5 -298zM485 676q0 149 105 253.5t254 104.5q150 0 254 -104q15 -15 15 -36t-15 -36t-37 -16t-37 14q-76 76 -180 76q-106 0 -181 -75t-75 -181t75 -181t181 -75q108 0 182 74q15 15 36 15t36 -15t15 -36t-15 -36 q-105 -105 -254 -105t-254 105t-105 254z" />
<glyph unicode="&#xaa;" horiz-adv-x="663" d="M102 993q0 70 53 110t128 40q111 -3 182 -31h2v66q0 88 -127 88q-33 0 -75.5 -11.5t-69.5 -27.5q-15 -10 -38 -8t-30 18q-16 36 25 66q34 26 90 39.5t102 13.5q105 0 160 -44t55 -116v-305q0 -19 -12.5 -32t-32.5 -13t-33.5 13t-13.5 32v29h-2q-28 -36 -80.5 -58 t-110.5 -22q-78 0 -125 40.5t-47 112.5zM195 995q0 -73 100 -73q90 0 172 47v88q-98 10 -172 10q-100 0 -100 -72z" />
<glyph unicode="&#xab;" horiz-adv-x="1204" d="M182 502q0 20 7 32.5t30 36.5l279 275q17 20 51 20q30 0 49.5 -19.5t19.5 -49.5q0 -21 -7 -34.5t-29 -35.5l-230 -223l230 -223q22 -22 29 -35.5t7 -34.5q0 -31 -20 -50.5t-49 -19.5q-33 0 -51 21l-279 270q-21 21 -29 35t-8 35zM592 502q0 20 7 32.5t30 36.5l278 275 q17 20 51 20q30 0 50 -19.5t20 -49.5q0 -21 -7 -34t-30 -36l-229 -223l229 -223q23 -23 30 -36t7 -34q0 -30 -20 -50t-50 -20q-33 0 -51 21l-278 270q-21 21 -29 35t-8 35z" />
<glyph unicode="&#xac;" horiz-adv-x="1413" d="M205 770q0 22 14.5 35.5t36.5 13.5h901q22 0 36.5 -14.5t14.5 -36.5v-389q0 -22 -14.5 -36.5t-36.5 -14.5t-36.5 13.5t-14.5 35.5v344h-850q-22 0 -36.5 13.5t-14.5 35.5z" />
<glyph unicode="&#xad;" horiz-adv-x="1118" d="M170 500q0 30 20 50.5t50 20.5h639q29 0 49 -20t20 -51q0 -29 -20 -49.5t-49 -20.5h-639q-29 0 -49.5 20.5t-20.5 49.5z" />
<glyph unicode="&#xae;" horiz-adv-x="1638" d="M123 676q0 142 55 271t148 222t222 148t271 55q189 0 349.5 -93t254 -253.5t93.5 -349.5t-93.5 -349.5t-254 -253.5t-349.5 -93q-142 0 -271 55t-222 148t-148 222t-55 271zM225 676q0 -161 79.5 -298t216.5 -216.5t298 -79.5t298 79.5t216.5 216.5t79.5 298t-79.5 298 t-216.5 216.5t-298 79.5t-298 -79.5t-216.5 -216.5t-79.5 -298zM532 375v598q0 22 15 36.5t37 14.5h319q93 0 158 -61t65 -152q0 -80 -51 -137.5t-129 -71.5l187 -196q14 -14 16 -35t-12 -35q-15 -15 -40 -12t-40 20l-242 254h-180v-225q0 -22 -14.5 -35.5t-36.5 -13.5 t-37 14.5t-15 36.5zM635 696h268q54 0 87.5 32.5t33.5 82.5t-33.5 82.5t-87.5 32.5h-268v-230z" />
<glyph unicode="&#xaf;" horiz-adv-x="765" d="M92 1024q0 26 18 44.5t46 18.5h454q28 0 46 -18.5t18 -44.5t-18 -44.5t-46 -18.5h-454q-28 0 -46 18.5t-18 44.5z" />
<glyph unicode="&#xb0;" horiz-adv-x="647" d="M102 1149q0 91 65.5 156t156.5 65t156 -65t65 -156t-65 -156t-156 -65t-156.5 65t-65.5 156zM180 1149q0 -60 42 -101.5t102 -41.5t101.5 41.5t41.5 101.5t-41.5 101.5t-101.5 41.5t-102 -41.5t-42 -101.5z" />
<glyph unicode="&#xb1;" horiz-adv-x="1118" d="M170 90q0 30 20 50t50 20h639q29 0 49 -20t20 -50q0 -29 -20 -49.5t-49 -20.5h-639q-29 0 -49.5 20.5t-20.5 49.5zM170 643q0 31 20.5 51.5t49.5 20.5h249v248q0 29 20.5 50t49.5 21q30 0 50 -20.5t20 -50.5v-248h250q29 0 49 -20.5t20 -51.5q0 -29 -20 -49.5t-49 -20.5 h-250v-247q0 -30 -20 -51t-50 -21q-29 0 -49.5 21.5t-20.5 50.5v247h-249q-29 0 -49.5 20.5t-20.5 49.5z" />
<glyph unicode="&#xb2;" horiz-adv-x="659" d="M102 987v131q0 54 19 97.5t49.5 73t67 54t73 46.5t67 45.5t49.5 56t19 72.5q0 50 -31 82t-81 32q-67 0 -125 -51q-13 -11 -31.5 -9t-30.5 15q-24 32 5 66q70 67 182 67q84 0 143.5 -59t59.5 -143q0 -52 -19 -94t-48.5 -70t-66 -52t-73 -46.5t-66 -46.5t-48.5 -59.5 t-19 -78.5v-84h315q19 0 32 -12.5t13 -32.5t-13 -32.5t-32 -12.5h-362q-20 0 -34 13t-14 32z" />
<glyph unicode="&#xb3;" horiz-adv-x="700" d="M105.5 1023.5q-4.5 16.5 9.5 39.5q13 17 33.5 18.5t33.5 -12.5q63 -51 152 -51q78 0 124 48t46 122q0 72 -46 120t-118 48h-35q-19 0 -32 13.5t-13 33.5q0 19 13 32t32 13h35q49 0 81 32.5t32 82.5t-32 82t-81 32q-71 0 -125 -51q-13 -11 -31 -9t-30 15q-13 22 -10 38.5 t14 27.5q70 67 182 67q84 0 142.5 -58.5t58.5 -143.5q0 -48 -22 -89t-58 -67q61 -30 99 -89t38 -130q0 -108 -76 -183t-188 -75q-132 0 -211 67q-13 10 -17.5 26.5z" />
<glyph unicode="&#xb4;" horiz-adv-x="520" d="M102 987q0 25 21 49l172 166q22 20 34 26.5t31 6.5q28 0 47 -19t19 -47t-18 -49l-175 -164q-22 -21 -34 -27.5t-31 -6.5q-28 0 -47 18.5t-19 46.5z" />
<glyph unicode="&#xb5;" horiz-adv-x="1044" d="M-131 -389q3 30 29 53q115 106 167 243t52 335v510q0 32 23 54.5t55 22.5t54.5 -22.5t22.5 -54.5v-351q1 -130 69.5 -201t190.5 -71q121 0 194 80t73 201v342q0 32 21.5 54.5t53.5 22.5t55 -22.5t23 -54.5v-684q0 -32 -23 -55t-55 -23t-53.5 22.5t-21.5 55.5v59h-4 q-113 -147 -303 -147q-144 0 -232 79q-44 -320 -260 -512q-26 -22 -58 -18.5t-55 29.5q-21 23 -18 53z" />
<glyph unicode="&#xb6;" horiz-adv-x="1126" d="M164 942q0 170 115.5 290t283.5 120h144q22 0 36.5 -15t14.5 -37v-1259q0 -22 -14.5 -36.5t-36.5 -14.5t-37 14t-15 35v493h-92q-168 0 -283.5 120t-115.5 290zM860 41v1259q0 22 14.5 37t36.5 15t37 -15t15 -37v-1259q0 -22 -15 -36.5t-37 -14.5t-36.5 14.5t-14.5 36.5z " />
<glyph unicode="&#xb7;" horiz-adv-x="409" d="M94 709q0 46 31.5 78t77.5 32t79 -32t33 -78q0 -47 -33 -79t-79 -32t-77.5 32t-31.5 79z" />
<glyph unicode="&#xb8;" horiz-adv-x="589" d="M152 -422q-9 27 1 47.5t37 24.5q77 15 106 66q25 45 -8 75q-19 18 -55 23q-27 3 -37 16t-10 39v131h101v-96q102 -9 136.5 -85.5t-17 -159t-166.5 -105.5q-28 -7 -53.5 -2.5t-34.5 26.5z" />
<glyph unicode="&#xb9;" horiz-adv-x="671" d="M102 983q0 19 12 31t31 12h150v635h-131q-20 0 -33.5 13t-13.5 32q0 20 13.5 33.5t33.5 13.5h178q20 0 32.5 -13.5t12.5 -33.5v-680h139q19 0 31 -12t12 -31q0 -17 -12 -29t-31 -12h-381q-19 0 -31 12t-12 29z" />
<glyph unicode="&#xba;" horiz-adv-x="720" d="M102 1098q0 107 75.5 182.5t182.5 75.5t182.5 -75.5t75.5 -182.5t-75.5 -182.5t-182.5 -75.5t-182.5 75.5t-75.5 182.5zM195 1098q0 -72 46 -120t119 -48t119.5 48.5t46.5 119.5t-46.5 119.5t-119.5 48.5t-119 -48t-46 -120z" />
<glyph unicode="&#xbb;" horiz-adv-x="1204" d="M184 211q0 21 7 34t30 36l230 223l-230 223q-23 23 -30 36t-7 34q0 30 20 49.5t50 19.5q34 0 51 -20l279 -275q23 -24 30 -36.5t7 -32.5q0 -21 -8 -35t-29 -35l-279 -270q-18 -21 -51 -21q-30 0 -50 20t-20 50zM594 211q0 21 7 34t30 36l229 223l-229 223q-23 23 -30 36 t-7 34q0 30 20 49.5t50 19.5q34 0 51 -20l278 -275q23 -24 30 -36.5t7 -32.5q0 -21 -8 -35t-29 -35l-278 -270q-18 -21 -51 -21q-30 0 -50 20t-20 50z" />
<glyph unicode="&#xbc;" horiz-adv-x="1843" d="M102 575q0 17 12 29t31 12h150v635h-131q-20 0 -33.5 13t-13.5 32q0 20 13.5 33.5t33.5 13.5h178q20 0 32.5 -13.5t12.5 -33.5v-680h139q19 0 31 -12t12 -29q0 -19 -12 -31t-31 -12h-381q-19 0 -31 12t-12 31zM682 37l438 1294q18 49 58 39q18 -3 25.5 -19t2.5 -34 l-438 -1297q-14 -49 -61 -38q-15 5 -23 21t-2 34zM1204 231q0 22 13 48l221 497q16 41 53 41q41 0 41 -43q0 -20 -14 -55l-201 -443h231v138q0 20 13 33.5t32 13.5q20 0 33.5 -13.5t13.5 -33.5v-138h54q20 0 33.5 -13t13.5 -32q0 -20 -13.5 -33.5t-33.5 -13.5h-54v-149 q0 -20 -13.5 -33.5t-33.5 -13.5q-19 0 -32 13.5t-13 33.5v149h-297q-20 0 -33.5 13.5t-13.5 33.5z" />
<glyph unicode="&#xbd;" horiz-adv-x="1843" d="M102 575q0 17 12 29t31 12h150v635h-131q-20 0 -33.5 13t-13.5 32q0 20 13.5 33.5t33.5 13.5h178q20 0 32.5 -13.5t12.5 -33.5v-680h139q19 0 31 -12t12 -29q0 -19 -12 -31t-31 -12h-381q-19 0 -31 12t-12 31zM692 37l438 1294q18 49 60 39q17 -3 24.5 -19t2.5 -34 l-439 -1297q-14 -50 -59 -38q-17 5 -25 20.5t-2 34.5zM1286 47v129q0 54 19 97.5t49.5 73t67 54t73 46.5t67 45.5t49.5 56t19 72.5q0 50 -31.5 82t-82.5 32q-69 0 -123 -51q-15 -11 -32.5 -9t-29.5 15q-13 22 -10 39.5t14 28.5q68 65 181 65q85 0 143.5 -58.5t58.5 -143.5 q0 -71 -35 -123.5t-84.5 -84.5t-99 -62t-84.5 -74t-35 -103v-82h314q20 0 33.5 -13.5t13.5 -33.5q0 -19 -13.5 -32t-33.5 -13h-363q-19 0 -32 13.5t-13 33.5z" />
<glyph unicode="&#xbe;" horiz-adv-x="1843" d="M115 655q13 15 33.5 17t33.5 -10q61 -52 152 -52q78 0 124 48t46 120t-46 120t-118 48h-35q-19 0 -32 13.5t-13 33.5q0 19 13 33t32 14h35q50 0 81.5 32t31.5 81q0 50 -32 82.5t-81 32.5q-71 0 -125 -51q-13 -11 -31 -9t-30 15q-13 22 -10 39t14 28q72 66 182 66 q83 0 142 -59t59 -144q0 -48 -22 -89t-58 -67q61 -30 99 -89t38 -130q0 -108 -76 -183t-188 -75q-131 0 -211 68q-35 35 -8 67zM682 37l438 1294q18 49 58 39q18 -3 25.5 -19t2.5 -34l-438 -1297q-14 -49 -61 -38q-15 5 -23 21t-2 34zM1204 231q0 22 13 48l221 497 q16 41 53 41q41 0 41 -43q0 -20 -14 -55l-201 -443h231v138q0 20 13 33.5t32 13.5q20 0 33.5 -13.5t13.5 -33.5v-138h54q20 0 33.5 -13t13.5 -32q0 -20 -13.5 -33.5t-33.5 -13.5h-54v-149q0 -20 -13.5 -33.5t-33.5 -13.5q-19 0 -32 13.5t-13 33.5v149h-297q-20 0 -33.5 13.5 t-13.5 33.5z" />
<glyph unicode="&#xbf;" horiz-adv-x="958" d="M82 -41q0 166 112.5 288.5t276.5 137.5q23 4 70 4v170q0 32 21.5 54t53.5 22t55 -22t23 -54v-242q0 -32 -22.5 -53.5t-55.5 -21.5h-104q-120 1 -198 -82.5t-78 -200.5q0 -120 77.5 -200.5t198.5 -80.5q127 0 244 74q26 16 55.5 11t46.5 -33q32 -55 -12 -99 q-118 -102 -334 -102q-178 0 -304 125.5t-126 304.5zM535 829q0 35 23.5 58.5t57.5 23.5q35 0 58.5 -23.5t23.5 -58.5q0 -34 -23.5 -57.5t-58.5 -23.5q-34 0 -57.5 23.5t-23.5 57.5z" />
<glyph unicode="&#xc0;" horiz-adv-x="1466" d="M36 42q-11 29 3 60l575 1203q32 67 121 67q87 0 119 -67l576 -1203q14 -31 3 -60t-42 -44q-30 -14 -60.5 -2.5t-44.5 39.5l-190 395h-723l-191 -395q-14 -28 -44 -39.5t-60 2.5q-31 15 -42 44zM444 584h580l-289 614zM451 1722q0 28 18.5 47t46.5 19q19 0 32 -6.5 t34 -26.5l172 -166q20 -23 20 -49q0 -28 -18.5 -46.5t-46.5 -18.5q-19 0 -31.5 7t-34.5 27l-174 164q-18 21 -18 49z" />
<glyph unicode="&#xc1;" horiz-adv-x="1466" d="M36 42q-11 29 3 60l575 1203q32 67 121 67q87 0 119 -67l576 -1203q14 -31 3 -60t-42 -44q-30 -14 -60.5 -2.5t-44.5 39.5l-190 395h-723l-191 -395q-14 -28 -44 -39.5t-60 2.5q-31 15 -42 44zM444 584h580l-289 614zM705 1540q0 26 20 49l172 166q21 20 34 26.5t32 6.5 q28 0 46.5 -19t18.5 -47t-18 -49l-174 -164q-22 -20 -34.5 -27t-31.5 -7q-28 0 -46.5 18.5t-18.5 46.5z" />
<glyph unicode="&#xc2;" horiz-adv-x="1466" d="M36 42q-11 29 3 60l575 1203q32 67 121 67q87 0 119 -67l576 -1203q14 -31 3 -60t-42 -44q-30 -14 -60.5 -2.5t-44.5 39.5l-190 395h-723l-191 -395q-14 -28 -44 -39.5t-60 2.5q-31 15 -42 44zM444 584h580l-289 614zM461 1538q0 27 18 45l193 193q21 21 33 27.5t30 6.5 q19 0 31 -6.5t33 -27.5l190 -193q19 -19 19 -45t-18 -44.5t-44 -18.5q-18 0 -30 6.5t-33 25.5l-150 152l-147 -152q-21 -19 -33.5 -25.5t-30.5 -6.5q-26 0 -43.5 18.5t-17.5 44.5z" />
<glyph unicode="&#xc3;" horiz-adv-x="1466" d="M36 42q-11 29 3 60l575 1203q32 67 121 67q87 0 119 -67l576 -1203q14 -31 3 -60t-42 -44q-30 -14 -60.5 -2.5t-44.5 39.5l-190 395h-723l-191 -395q-14 -28 -44 -39.5t-60 2.5q-31 15 -42 44zM412.5 1526.5q-4.5 24.5 9.5 44.5q24 36 41 57t41.5 43.5t49 29t56.5 6 t72 -17.5t88 -49q57 -38 96.5 -29t79.5 70q12 21 39 25t47 -10q22 -17 27 -41.5t-8 -44.5q-25 -35 -42.5 -56.5t-42.5 -44t-49.5 -29.5t-57 -6.5t-72 17.5t-87.5 49q-57 38 -95.5 29t-78.5 -70q-13 -21 -40 -24.5t-48 10.5q-21 17 -25.5 41.5zM444 584h580l-289 614z" />
<glyph unicode="&#xc4;" horiz-adv-x="1466" d="M36 42q-11 29 3 60l575 1203q32 67 121 67q87 0 119 -67l576 -1203q14 -31 3 -60t-42 -44q-30 -14 -60.5 -2.5t-44.5 39.5l-190 395h-723l-191 -395q-14 -28 -44 -39.5t-60 2.5q-31 15 -42 44zM444 584h580l-289 614zM461 1573q0 38 26 65t64 27t65 -27t27 -65t-27 -64 t-65 -26t-64 26t-26 64zM829 1573q0 38 26 65t63 27q40 0 67 -27t27 -65t-27 -64t-67 -26q-37 0 -63 26t-26 64z" />
<glyph unicode="&#xc5;" horiz-adv-x="1466" d="M36 42q-11 29 3 60l575 1203q32 67 121 67q87 0 119 -67l576 -1203q14 -31 3 -60t-42 -44q-30 -14 -60.5 -2.5t-44.5 39.5l-190 395h-723l-191 -395q-14 -28 -44 -39.5t-60 2.5q-31 15 -42 44zM444 584h580l-289 614zM557 1651q0 73 51.5 124.5t124.5 51.5t124.5 -51.5 t51.5 -124.5q0 -72 -51.5 -124t-124.5 -52t-124.5 52t-51.5 124zM643 1651q0 -40 25 -65t65 -25t65 25t25 65t-25 65t-65 25t-65 -25t-25 -65z" />
<glyph unicode="&#xc6;" horiz-adv-x="1910" d="M32 40q-5 27 13 50l913 1208q40 54 97 54h682q32 0 53.5 -22.5t21.5 -55.5q0 -32 -21.5 -54t-53.5 -22h-518v-440h395q32 0 54 -22t22 -56q0 -32 -22 -54t-54 -22h-395v-450h518q32 0 53.5 -22t21.5 -54q0 -33 -21.5 -55.5t-53.5 -22.5h-594q-33 0 -55.5 22.5t-22.5 55.5 v526h-457l-440 -577q-19 -26 -49.5 -35t-55.5 6q-26 15 -31 42zM721 758h344v440h-12z" />
<glyph unicode="&#xc7;" horiz-adv-x="1454" d="M123 676q0 142 55 271t148 222t222 148t271 55q143 0 271.5 -55.5t226.5 -153.5q23 -23 23 -54t-23 -54t-55.5 -22t-55.5 24q-74 76 -174 119t-213 43q-150 0 -274.5 -73.5t-195 -198t-70.5 -271.5t70.5 -271.5t195 -198t274.5 -73.5q228 0 387 162q23 23 55.5 24 t55.5 -22t23 -54.5t-23 -54.5q-93 -95 -216 -149.5t-261 -58.5v-76q102 -9 136.5 -85.5t-17 -159t-166.5 -105.5q-28 -7 -53.5 -2.5t-34.5 26.5q-9 27 1 47.5t37 24.5q77 15 106 66q25 45 -8 75q-19 18 -55 23q-27 3 -37 16t-10 39v117q-172 18 -313 114t-222 248t-81 328z " />
<glyph unicode="&#xc8;" d="M178 78v1196q0 32 23 55t55 23h594q32 0 55 -23t23 -55t-23 -54t-55 -22h-516v-403h393q32 0 55 -23t23 -55t-23 -55t-55 -23h-393v-485h516q32 0 55 -22t23 -54t-23 -55t-55 -23h-594q-32 0 -55 23t-23 55zM252 1722q0 28 18.5 47t46.5 19q19 0 32 -6.5t34 -26.5 l172 -166q20 -23 20 -49q0 -28 -18.5 -46.5t-46.5 -18.5q-19 0 -31.5 7t-34.5 27l-174 164q-18 21 -18 49z" />
<glyph unicode="&#xc9;" d="M178 78v1196q0 32 23 55t55 23h594q32 0 55 -23t23 -55t-23 -54t-55 -22h-516v-403h393q32 0 55 -23t23 -55t-23 -55t-55 -23h-393v-485h516q32 0 55 -22t23 -54t-23 -55t-55 -23h-594q-32 0 -55 23t-23 55zM496 1540q0 26 20 49l172 166q21 20 34 26.5t32 6.5 q28 0 46.5 -19t18.5 -47t-18 -49l-174 -164q-22 -20 -34.5 -27t-31.5 -7q-28 0 -46.5 18.5t-18.5 46.5z" />
<glyph unicode="&#xca;" d="M178 78v1196q0 32 23 55t55 23h594q32 0 55 -23t23 -55t-23 -54t-55 -22h-516v-403h393q32 0 55 -23t23 -55t-23 -55t-55 -23h-393v-485h516q32 0 55 -22t23 -54t-23 -55t-55 -23h-594q-32 0 -55 23t-23 55zM285 1538q0 27 18 45l193 193q21 21 33 27.5t30 6.5 q19 0 31 -6.5t33 -27.5l190 -193q18 -18 18 -45q0 -26 -17.5 -44.5t-43.5 -18.5q-18 0 -30 6.5t-33 25.5l-150 152l-147 -152q-21 -19 -33.5 -25.5t-30.5 -6.5q-26 0 -43.5 18.5t-17.5 44.5z" />
<glyph unicode="&#xcb;" d="M178 78v1196q0 32 23 55t55 23h594q32 0 55 -23t23 -55t-23 -54t-55 -22h-516v-403h393q32 0 55 -23t23 -55t-23 -55t-55 -23h-393v-485h516q32 0 55 -22t23 -54t-23 -55t-55 -23h-594q-32 0 -55 23t-23 55zM270 1573q0 38 26 65t64 27t65.5 -27t27.5 -65t-27 -64 t-66 -26q-38 0 -64 26t-26 64zM639 1573q0 38 25.5 65t62.5 27q40 0 67 -27t27 -65t-27 -64t-67 -26q-37 0 -62.5 26t-25.5 64z" />
<glyph unicode="&#xcc;" horiz-adv-x="512" d="M10 1722q0 28 19 47t47 19q19 0 31 -6.5t34 -26.5l172 -166q21 -25 21 -49q0 -28 -19 -46.5t-47 -18.5q-19 0 -31 6.5t-34 27.5l-174 164q-19 22 -19 49zM178 68v1216q0 32 23 55t55 23t55 -23t23 -55v-1216q0 -32 -23 -55t-55 -23t-55 23t-23 55z" />
<glyph unicode="&#xcd;" horiz-adv-x="512" d="M178 68v1216q0 32 23 55t55 23t55 -23t23 -55v-1216q0 -32 -23 -55t-55 -23t-55 23t-23 55zM180 1540q0 24 21 49l172 166q22 20 34 26.5t31 6.5q28 0 47 -19t19 -47q0 -27 -19 -49l-174 -164q-22 -21 -34 -27.5t-31 -6.5q-28 0 -47 18.5t-19 46.5z" />
<glyph unicode="&#xce;" horiz-adv-x="512" d="M-18 1538q0 27 18 45l193 193q21 21 33 27.5t30 6.5t30 -6.5t33 -27.5l191 -193q18 -18 18 -45q0 -26 -17.5 -44.5t-43.5 -18.5q-18 0 -30.5 6.5t-33.5 25.5l-149 152l-148 -152q-21 -19 -33 -25.5t-30 -6.5q-26 0 -43.5 18.5t-17.5 44.5zM176 68v1216q0 32 23 55t55 23 t55 -23t23 -55v-1216q0 -32 -23 -55t-55 -23t-55 23t-23 55z" />
<glyph unicode="&#xcf;" horiz-adv-x="512" d="M-18 1573q0 38 26 65t64 27t65 -27t27 -65t-27 -64t-65 -26t-64 26t-26 64zM180 68v1216q0 32 23 55t55 23t55 -23t23 -55v-1216q0 -32 -23 -55t-55 -23t-55 23t-23 55zM350 1573q0 38 25.5 65t62.5 27q40 0 67 -27t27 -65t-27 -64t-67 -26q-37 0 -62.5 26t-25.5 64z" />
<glyph unicode="&#xd0;" horiz-adv-x="1720" d="M0 686q0 22 14.5 36.5t36.5 14.5h127v537q0 32 23 55t55 23h645q142 0 270.5 -52t222 -141t148.5 -215t55 -268t-55 -268t-148.5 -215t-222 -141t-270.5 -52h-645q-32 0 -55 23t-23 55v557h-127q-22 0 -36.5 14.5t-14.5 36.5zM334 152h567q113 0 213.5 40.5t172.5 110 t113.5 166.5t41.5 207t-41.5 207t-113.5 166.5t-172.5 110t-213.5 40.5h-567v-463h381q22 0 36.5 -14.5t14.5 -36.5t-14.5 -36.5t-36.5 -14.5h-381v-483z" />
<glyph unicode="&#xd1;" horiz-adv-x="1802" d="M178 68v1216q0 32 23 55t55 23q23 0 38.5 -8.5t39.5 -32.5l1134 -1069v1032q0 32 23 55t55 23t55 -23t23 -55v-1216q0 -32 -23 -55t-55 -23q-23 0 -38.5 8.5t-39.5 32.5l-1134 1069v-1032q0 -32 -23 -55t-55 -23t-55 23t-23 55zM606.5 1526.5q-4.5 24.5 9.5 44.5 q24 35 41 56.5t41.5 44t49 29t57 6t72.5 -17.5t88 -49q57 -38 96.5 -29t79.5 70q12 21 39 25t47 -10q22 -17 27 -41.5t-9 -44.5q-30 -43 -50.5 -67t-52.5 -46.5t-64.5 -24t-79 14t-103.5 53.5t-95.5 29t-78.5 -70q-13 -21 -40 -24.5t-48 10.5q-22 17 -26.5 41.5z" />
<glyph unicode="&#xd2;" horiz-adv-x="1638" d="M123 676q0 142 55 271t148 222t222 148t271 55q189 0 349.5 -93t254 -253.5t93.5 -349.5t-93.5 -349.5t-254 -253.5t-349.5 -93q-142 0 -271 55t-222 148t-148 222t-55 271zM279 676q0 -147 70.5 -271.5t195 -198t274.5 -73.5t275 73.5t195.5 198t70.5 271.5t-70.5 271.5 t-195.5 198t-275 73.5t-274.5 -73.5t-195 -198t-70.5 -271.5zM547 1722q0 28 18.5 47t46.5 19q19 0 32 -6.5t34 -26.5l172 -166q20 -23 20 -49q0 -28 -18.5 -46.5t-46.5 -18.5q-19 0 -31.5 7t-34.5 27l-174 164q-18 21 -18 49z" />
<glyph unicode="&#xd3;" horiz-adv-x="1638" d="M123 676q0 142 55 271t148 222t222 148t271 55q189 0 349.5 -93t254 -253.5t93.5 -349.5t-93.5 -349.5t-254 -253.5t-349.5 -93q-142 0 -271 55t-222 148t-148 222t-55 271zM279 676q0 -147 70.5 -271.5t195 -198t274.5 -73.5t275 73.5t195.5 198t70.5 271.5t-70.5 271.5 t-195.5 198t-275 73.5t-274.5 -73.5t-195 -198t-70.5 -271.5zM788 1540q0 24 21 49l172 166q21 20 34 26.5t32 6.5q28 0 46.5 -19t18.5 -47t-18 -49l-174 -164q-22 -20 -34.5 -27t-31.5 -7q-28 0 -47 18.5t-19 46.5z" />
<glyph unicode="&#xd4;" horiz-adv-x="1638" d="M123 676q0 142 55 271t148 222t222 148t271 55q189 0 349.5 -93t254 -253.5t93.5 -349.5t-93.5 -349.5t-254 -253.5t-349.5 -93q-142 0 -271 55t-222 148t-148 222t-55 271zM279 676q0 -147 70.5 -271.5t195 -198t274.5 -73.5t275 73.5t195.5 198t70.5 271.5t-70.5 271.5 t-195.5 198t-275 73.5t-274.5 -73.5t-195 -198t-70.5 -271.5zM553 1538q0 27 18 45l193 193q21 21 33 27.5t30 6.5q19 0 31 -6.5t33 -27.5l190 -193q19 -19 19 -45t-18 -44.5t-44 -18.5q-18 0 -30 6.5t-33 25.5l-150 152l-147 -152q-21 -19 -33.5 -25.5t-30.5 -6.5 q-26 0 -43.5 18.5t-17.5 44.5z" />
<glyph unicode="&#xd5;" horiz-adv-x="1638" d="M123 676q0 142 55 271t148 222t222 148t271 55q189 0 349.5 -93t254 -253.5t93.5 -349.5t-93.5 -349.5t-254 -253.5t-349.5 -93q-142 0 -271 55t-222 148t-148 222t-55 271zM279 676q0 -147 70.5 -271.5t195 -198t274.5 -73.5t275 73.5t195.5 198t70.5 271.5t-70.5 271.5 t-195.5 198t-275 73.5t-274.5 -73.5t-195 -198t-70.5 -271.5zM498.5 1526.5q-4.5 24.5 9.5 44.5q24 36 41 57t41.5 43.5t49 29t56.5 6t72 -17.5t88 -49q57 -38 96.5 -29t79.5 70q12 21 39 25t47 -10q22 -17 27 -41.5t-8 -44.5q-25 -35 -42.5 -56.5t-42.5 -44t-49.5 -29.5 t-57 -6.5t-72 17.5t-87.5 49q-57 38 -95.5 29t-78.5 -70q-13 -21 -40 -24.5t-48 10.5q-21 17 -25.5 41.5z" />
<glyph unicode="&#xd6;" horiz-adv-x="1638" d="M123 676q0 142 55 271t148 222t222 148t271 55q189 0 349.5 -93t254 -253.5t93.5 -349.5t-93.5 -349.5t-254 -253.5t-349.5 -93q-142 0 -271 55t-222 148t-148 222t-55 271zM279 676q0 -147 70.5 -271.5t195 -198t274.5 -73.5t275 73.5t195.5 198t70.5 271.5t-70.5 271.5 t-195.5 198t-275 73.5t-274.5 -73.5t-195 -198t-70.5 -271.5zM547 1573q0 38 26 65t64 27t65 -27t27 -65t-27 -64t-65 -26t-64 26t-26 64zM915 1573q0 38 26 65t63 27q40 0 67 -27t27 -65t-27 -64t-67 -26q-37 0 -63 26t-26 64z" />
<glyph unicode="&#xd7;" horiz-adv-x="1087" d="M175 203q0 29 20 49l249 248l-249 250q-20 20 -20 49t20 51q22 20 50 20t50 -20l248 -250l248 250q22 20 50 20t50 -20q21 -24 21 -51.5t-21 -48.5l-250 -250l250 -248q21 -21 21 -48.5t-21 -51.5q-22 -20 -50 -20t-50 20l-248 249l-248 -249q-22 -20 -50 -20t-50 20 q-20 22 -20 51z" />
<glyph unicode="&#xd8;" horiz-adv-x="1638" d="M123 676q0 142 55 271t148 222t222 148t271 55q189 0 349.5 -93t254 -253.5t93.5 -349.5t-93.5 -349.5t-254 -253.5t-349.5 -93q-142 0 -271 55t-222 148t-148 222t-55 271zM279 676q0 -196 116 -340l764 762q-146 121 -340 121q-150 0 -274.5 -73.5t-195 -198 t-70.5 -271.5zM469 262q148 -129 350 -129q150 0 275 73.5t195.5 198t70.5 271.5q0 195 -127 348z" />
<glyph unicode="&#xd9;" horiz-adv-x="1720" d="M154 676v608q0 32 22.5 55t54.5 23t54 -23t22 -55v-608q0 -147 71 -271.5t196.5 -198t275.5 -73.5t275.5 73.5t196.5 198t71 271.5v608q0 33 21.5 55.5t53.5 22.5t55 -23t23 -55v-608q0 -142 -55 -271t-148 -222t-222 -148t-271 -55t-271 55t-222 148t-148 222t-55 271z M584 1722q0 28 18.5 47t46.5 19q19 0 32 -6.5t34 -26.5l172 -166q20 -23 20 -49q0 -28 -18.5 -46.5t-46.5 -18.5q-19 0 -31.5 7t-34.5 27l-174 164q-18 21 -18 49z" />
<glyph unicode="&#xda;" horiz-adv-x="1720" d="M154 676v608q0 32 22.5 55t54.5 23t54 -23t22 -55v-608q0 -147 71 -271.5t196.5 -198t275.5 -73.5t275.5 73.5t196.5 198t71 271.5v608q0 33 21.5 55.5t53.5 22.5t55 -23t23 -55v-608q0 -142 -55 -271t-148 -222t-222 -148t-271 -55t-271 55t-222 148t-148 222t-55 271z M821 1540q0 24 21 49l172 166q22 20 34 26.5t31 6.5q28 0 47 -19t19 -47q0 -27 -19 -49l-174 -164q-22 -21 -34 -27.5t-31 -6.5q-28 0 -47 18.5t-19 46.5z" />
<glyph unicode="&#xdb;" horiz-adv-x="1720" d="M154 676v608q0 32 22.5 55t54.5 23t54 -23t22 -55v-608q0 -147 71 -271.5t196.5 -198t275.5 -73.5t275.5 73.5t196.5 198t71 271.5v608q0 33 21.5 55.5t53.5 22.5t55 -23t23 -55v-608q0 -142 -55 -271t-148 -222t-222 -148t-271 -55t-271 55t-222 148t-148 222t-55 271z M588 1538q0 27 18 45l193 193q21 21 33 27.5t30 6.5q19 0 31 -6.5t33 -27.5l190 -193q19 -19 19 -45t-18 -44.5t-44 -18.5q-18 0 -30 6.5t-33 25.5l-150 152l-147 -152q-21 -19 -33.5 -25.5t-30.5 -6.5q-26 0 -43.5 18.5t-17.5 44.5z" />
<glyph unicode="&#xdc;" horiz-adv-x="1720" d="M154 676v608q0 32 22.5 55t54.5 23t54 -23t22 -55v-608q0 -147 71 -271.5t196.5 -198t275.5 -73.5t275.5 73.5t196.5 198t71 271.5v608q0 33 21.5 55.5t53.5 22.5t55 -23t23 -55v-608q0 -142 -55 -271t-148 -222t-222 -148t-271 -55t-271 55t-222 148t-148 222t-55 271z M584 1573q0 38 26 65t64 27t65 -27t27 -65t-27 -64t-65 -26t-64 26t-26 64zM952 1573q0 38 25.5 65t62.5 27q40 0 67.5 -27t27.5 -65t-27.5 -64t-67.5 -26q-37 0 -62.5 26t-25.5 64z" />
<glyph unicode="&#xdd;" horiz-adv-x="1433" d="M20 1284q0 32 23 55t55 23q22 0 37 -8.5t39 -32.5l545 -537l545 537q25 25 39 33t36 8q32 0 55 -23t23 -55q0 -31 -24 -55l-598 -588v-573q0 -32 -22 -55t-54 -23q-33 0 -55.5 22.5t-22.5 55.5v573l-596 588q-25 29 -25 55zM676 1540q0 26 20 49l172 166q21 20 34 26.5 t32 6.5q28 0 46.5 -19t18.5 -47t-18 -49l-174 -164q-22 -20 -34.5 -27t-31.5 -7q-28 0 -46.5 18.5t-18.5 46.5z" />
<glyph unicode="&#xde;" horiz-adv-x="1136" d="M178 68v1216q0 32 23 55t55 23t55 -23t23 -55v-178h291q168 0 286.5 -120.5t118.5 -289.5t-118.5 -289t-286.5 -120h-291v-221q0 -32 -23 -54t-55 -22t-55 23t-23 55zM334 440h284q104 0 179 75t75 181t-75 181t-179 75h-284v-512z" />
<glyph unicode="&#xdf;" horiz-adv-x="1040" d="M117 -383v1397q0 143 99 240.5t255 97.5t255 -97.5t99 -240.5q0 -74 -31 -138t-85 -106q116 -41 188 -138t72 -224q0 -169 -118.5 -288.5t-287.5 -119.5h-102q-32 0 -55 23t-23 55t23 54t55 22h96q104 0 179 75t75 181t-75 181t-179 75h-96q-33 0 -55.5 21.5t-22.5 53.5 t23 55t55 23h14q80 0 136.5 57t56.5 138q0 79 -57 131.5t-140 52.5q-81 0 -140 -53t-59 -131v-1397q0 -32 -22.5 -55t-54.5 -23t-55 23t-23 55z" />
<glyph unicode="&#xe0;" horiz-adv-x="921" d="M72 236q0 117 90.5 184t216.5 67q169 0 297 -51h4v107q0 147 -211 147q-59 0 -127 -19t-119 -55q-26 -18 -58.5 -13.5t-49.5 32.5q-17 23 -10.5 47.5t16.5 38t24 24.5q131 95 330 95q176 0 268.5 -77.5t92.5 -199.5v-495q0 -32 -23 -55t-55 -23t-55 23t-23 55v45h-4 q-46 -59 -131.5 -96t-182.5 -37q-129 0 -209.5 68t-80.5 188zM207 1169q0 28 18.5 47t46.5 19q19 0 32 -6.5t34 -26.5l172 -166q20 -23 20 -49q0 -28 -18.5 -46.5t-46.5 -18.5q-19 0 -31.5 7t-34.5 27l-174 164q-18 21 -18 49zM225 242q0 -62 44 -95.5t126 -33.5 q133 0 285 82v147q-200 20 -285 20q-84 0 -127 -31t-43 -89z" />
<glyph unicode="&#xe1;" horiz-adv-x="921" d="M72 236q0 117 90.5 184t216.5 67q169 0 297 -51h4v107q0 147 -211 147q-59 0 -127 -19t-119 -55q-26 -18 -58.5 -13.5t-49.5 32.5q-17 23 -10.5 47.5t16.5 38t24 24.5q131 95 330 95q176 0 268.5 -77.5t92.5 -199.5v-495q0 -32 -23 -55t-55 -23t-55 23t-23 55v45h-4 q-46 -59 -131.5 -96t-182.5 -37q-129 0 -209.5 68t-80.5 188zM225 242q0 -62 44 -95.5t126 -33.5q133 0 285 82v147q-200 20 -285 20q-84 0 -127 -31t-43 -89zM362 987q0 25 21 49l172 166q21 20 34 26.5t32 6.5q28 0 46.5 -19t18.5 -47t-18 -49l-174 -164 q-22 -20 -34.5 -27t-31.5 -7q-28 0 -47 18.5t-19 46.5z" />
<glyph unicode="&#xe2;" horiz-adv-x="921" d="M72 236q0 117 90.5 184t216.5 67q169 0 297 -51h4v107q0 147 -211 147q-59 0 -127 -19t-119 -55q-26 -18 -58.5 -13.5t-49.5 32.5q-17 23 -10.5 47.5t16.5 38t24 24.5q131 95 330 95q176 0 268.5 -77.5t92.5 -199.5v-495q0 -32 -23 -55t-55 -23t-55 23t-23 55v45h-4 q-46 -59 -131.5 -96t-182.5 -37q-129 0 -209.5 68t-80.5 188zM182 985q0 26 19 45l192 193q21 21 33 27.5t31 6.5q18 0 30 -6.5t33 -27.5l191 -193q18 -18 18 -45q0 -26 -17.5 -44.5t-43.5 -18.5q-18 0 -30.5 6.5t-33.5 25.5l-149 152l-148 -152q-21 -19 -33 -25.5t-30 -6.5 q-26 0 -44 18.5t-18 44.5zM225 242q0 -62 44 -95.5t126 -33.5q133 0 285 82v147q-200 20 -285 20q-84 0 -127 -31t-43 -89z" />
<glyph unicode="&#xe3;" horiz-adv-x="921" d="M72 236q0 117 90.5 184t216.5 67q169 0 297 -51h4v107q0 147 -211 147q-59 0 -127 -19t-119 -55q-26 -18 -58.5 -13.5t-49.5 32.5q-17 23 -10.5 47.5t16.5 38t24 24.5q131 95 330 95q176 0 268.5 -77.5t92.5 -199.5v-495q0 -32 -23 -55t-55 -23t-55 23t-23 55v45h-4 q-46 -59 -131.5 -96t-182.5 -37q-129 0 -209.5 68t-80.5 188zM140.5 968.5q-4.5 25.5 9.5 43.5q29 43 49.5 67.5t51.5 46.5t63.5 23.5t79 -14.5t104.5 -54q57 -39 96.5 -29.5t79.5 72.5q11 21 38.5 24.5t47.5 -9.5q22 -17 27 -42t-9 -44q-30 -43 -50.5 -68t-52.5 -47 t-64.5 -23.5t-79 14.5t-103.5 54q-57 39 -95.5 29.5t-78.5 -72.5q-13 -21 -40 -23.5t-48 11.5q-21 15 -25.5 40.5zM225 242q0 -62 44 -95.5t126 -33.5q133 0 285 82v147q-200 20 -285 20q-84 0 -127 -31t-43 -89z" />
<glyph unicode="&#xe4;" horiz-adv-x="921" d="M72 236q0 117 90.5 184t216.5 67q169 0 297 -51h4v107q0 147 -211 147q-59 0 -127 -19t-119 -55q-26 -18 -58.5 -13.5t-49.5 32.5q-17 23 -10.5 47.5t16.5 38t24 24.5q131 95 330 95q176 0 268.5 -77.5t92.5 -199.5v-495q0 -32 -23 -55t-55 -23t-55 23t-23 55v45h-4 q-46 -59 -131.5 -96t-182.5 -37q-129 0 -209.5 68t-80.5 188zM184 1020q0 38 26 65t64 27t65.5 -27t27.5 -65t-27 -64t-66 -26q-38 0 -64 26t-26 64zM225 242q0 -62 44 -95.5t126 -33.5q133 0 285 82v147q-200 20 -285 20q-84 0 -127 -31t-43 -89zM553 1020q0 38 25.5 65 t62.5 27q40 0 67 -27t27 -65t-27 -64t-67 -26q-37 0 -62.5 26t-25.5 64z" />
<glyph unicode="&#xe5;" horiz-adv-x="921" d="M72 236q0 117 90.5 184t216.5 67q169 0 297 -51h4v107q0 147 -211 147q-59 0 -127 -19t-119 -55q-26 -18 -58.5 -13.5t-49.5 32.5q-17 23 -10.5 47.5t16.5 38t24 24.5q131 95 330 95q176 0 268.5 -77.5t92.5 -199.5v-495q0 -32 -23 -55t-55 -23t-55 23t-23 55v45h-4 q-46 -59 -131.5 -96t-182.5 -37q-129 0 -209.5 68t-80.5 188zM225 242q0 -62 44 -95.5t126 -33.5q133 0 285 82v147q-200 20 -285 20q-84 0 -127 -31t-43 -89zM272 1098q0 73 51.5 124.5t125.5 51.5q73 0 124.5 -51t51.5 -125q0 -72 -51.5 -124t-124.5 -52t-125 52t-52 124z M358 1098q0 -40 25.5 -65t65.5 -25t65 25t25 65t-25 65t-65 25t-65.5 -25t-25.5 -65z" />
<glyph unicode="&#xe6;" horiz-adv-x="1560" d="M72 236q0 79 43 137t110 86t148 28q175 0 303 -51h4v107q0 147 -211 147q-59 0 -127 -19t-119 -55q-26 -18 -58.5 -13.5t-49.5 32.5q-17 23 -10.5 47.5t16.5 38t24 24.5q131 95 330 95q120 0 202.5 -36.5t121.5 -103.5q58 66 138.5 103t172.5 37q180 0 287.5 -110 t107.5 -290q0 -32 -23 -55t-55 -23h-587q14 -102 88 -167.5t182 -65.5q127 0 244 74q26 16 55.5 10.5t46.5 -33.5q15 -25 10.5 -49t-15 -38.5t-24.5 -24.5q-127 -88 -317 -88q-104 0 -194 46t-150 126q-190 -172 -408 -172q-129 0 -207.5 67.5t-78.5 188.5zM225 242 q0 -123 170 -123q65 0 158 27t170 77q-29 59 -37 119q-157 16 -291 16q-170 0 -170 -116zM856 502h471q-12 90 -66.5 139t-150.5 49q-93 0 -160.5 -50.5t-93.5 -137.5z" />
<glyph unicode="&#xe7;" horiz-adv-x="911" d="M72 410q0 178 126 304t304 126q187 0 317 -88q13 -10 23 -24.5t16 -39.5t-10 -49q-17 -28 -47.5 -33.5t-57.5 10.5q-113 74 -241 74q-122 0 -199.5 -80t-77.5 -200t77.5 -200.5t199.5 -80.5q128 0 241 74q27 16 57.5 10.5t47.5 -33.5q16 -24 10 -49t-16 -39t-23 -24 q-125 -85 -295 -88v-76q102 -9 136.5 -85.5t-17 -159t-166.5 -105.5q-28 -7 -53.5 -2.5t-34.5 26.5q-9 27 1.5 47.5t37.5 24.5q77 15 106 66q25 45 -8 75q-19 18 -55 23q-27 3 -37 16t-10 39v119q-152 26 -252 145.5t-100 276.5z" />
<glyph unicode="&#xe8;" horiz-adv-x="962" d="M72 410q0 178 126 304t304 126q180 0 287.5 -110t107.5 -290q0 -32 -23 -55t-55 -23h-590q14 -101 89 -167t184 -66q128 0 241 74q27 16 57.5 10.5t47.5 -33.5q16 -24 10 -49t-16 -39t-23 -24q-130 -88 -317 -88q-178 0 -304 126t-126 304zM246 502h473q-29 188 -217 188 q-94 0 -161.5 -50.5t-94.5 -137.5zM287 1169q0 28 18.5 47t46.5 19q19 0 32 -6.5t34 -26.5l172 -166q20 -23 20 -49q0 -28 -18.5 -46.5t-46.5 -18.5q-19 0 -31.5 7t-34.5 27l-174 164q-18 21 -18 49z" />
<glyph unicode="&#xe9;" horiz-adv-x="962" d="M72 410q0 178 126 304t304 126q180 0 287.5 -110t107.5 -290q0 -32 -23 -55t-55 -23h-590q14 -101 89 -167t184 -66q128 0 241 74q27 16 57.5 10.5t47.5 -33.5q16 -24 10 -49t-16 -39t-23 -24q-130 -88 -317 -88q-178 0 -304 126t-126 304zM246 502h473q-29 188 -217 188 q-94 0 -161.5 -50.5t-94.5 -137.5zM524 987q0 25 21 49l172 166q22 20 34 26.5t31 6.5q28 0 47 -19t19 -47q0 -27 -19 -49l-174 -164q-22 -21 -34 -27.5t-31 -6.5q-28 0 -47 18.5t-19 46.5z" />
<glyph unicode="&#xea;" horiz-adv-x="962" d="M72 410q0 178 126 304t304 126q180 0 287.5 -110t107.5 -290q0 -32 -23 -55t-55 -23h-590q14 -101 89 -167t184 -66q128 0 241 74q27 16 57.5 10.5t47.5 -33.5q16 -24 10 -49t-16 -39t-23 -24q-130 -88 -317 -88q-178 0 -304 126t-126 304zM242 985q0 27 18 45l193 193 q21 21 33 27.5t30 6.5q19 0 31 -6.5t33 -27.5l190 -193q18 -18 18 -45q0 -26 -17.5 -44.5t-43.5 -18.5q-18 0 -30 6.5t-33 25.5l-150 152l-147 -152q-21 -19 -33.5 -25.5t-30.5 -6.5q-26 0 -43.5 18.5t-17.5 44.5zM246 502h473q-29 188 -217 188q-94 0 -161.5 -50.5 t-94.5 -137.5z" />
<glyph unicode="&#xeb;" horiz-adv-x="962" d="M72 410q0 178 126 304t304 126q180 0 287.5 -110t107.5 -290q0 -32 -23 -55t-55 -23h-590q14 -101 89 -167t184 -66q128 0 241 74q27 16 57.5 10.5t47.5 -33.5q16 -24 10 -49t-16 -39t-23 -24q-130 -88 -317 -88q-178 0 -304 126t-126 304zM182 1020q0 38 26 65t64 27 t65.5 -27t27.5 -65t-27 -64t-66 -26q-38 0 -64 26t-26 64zM246 502h473q-29 188 -217 188q-94 0 -161.5 -50.5t-94.5 -137.5zM551 1020q0 38 25.5 65t62.5 27q40 0 67 -27t27 -65t-27 -64t-67 -26q-37 0 -62.5 26t-25.5 64z" />
<glyph unicode="&#xec;" horiz-adv-x="389" d="M-55 1169q0 28 19 47t47 19q19 0 31 -6.5t34 -26.5l172 -166q21 -24 21 -49q0 -28 -19 -46.5t-47 -18.5q-19 0 -31 6.5t-34 27.5l-174 164q-19 22 -19 49zM117 68v684q0 32 23 54.5t55 22.5t54.5 -22.5t22.5 -54.5v-684q0 -32 -22.5 -55t-54.5 -23t-55 23t-23 55z" />
<glyph unicode="&#xed;" horiz-adv-x="389" d="M117 68v684q0 32 23 54.5t55 22.5t54.5 -22.5t22.5 -54.5v-684q0 -32 -22.5 -55t-54.5 -23t-55 23t-23 55zM127 987q0 25 21 49l172 166q22 20 34 26.5t31 6.5q28 0 47 -19t19 -47t-18 -49l-175 -164q-22 -21 -34 -27.5t-31 -6.5q-28 0 -47 18.5t-19 46.5z" />
<glyph unicode="&#xee;" horiz-adv-x="389" d="M-80 985q0 26 19 45l192 193q21 21 33 27.5t31 6.5q18 0 30 -6.5t33 -27.5l191 -193q18 -18 18 -45q0 -26 -17.5 -44.5t-43.5 -18.5q-18 0 -30.5 6.5t-33.5 25.5l-149 152l-148 -152q-21 -19 -33 -25.5t-30 -6.5q-26 0 -44 18.5t-18 44.5zM117 68v684q0 32 23 54.5 t55 22.5t54.5 -22.5t22.5 -54.5v-684q0 -32 -22.5 -55t-54.5 -23t-55 23t-23 55z" />
<glyph unicode="&#xef;" horiz-adv-x="389" d="M-80 1020q0 38 26 65t64 27t65 -27t27 -65t-27 -64t-65 -26t-64 26t-26 64zM119 68v684q0 32 23 54.5t55 22.5t54.5 -22.5t22.5 -54.5v-684q0 -32 -22.5 -55t-54.5 -23t-55 23t-23 55zM289 1020q0 38 25.5 65t62.5 27q40 0 67 -27t27 -65t-27 -64t-67 -26q-37 0 -62.5 26 t-25.5 64z" />
<glyph unicode="&#xf0;" horiz-adv-x="1009" d="M72 410q0 177 125 295t305 118q156 0 252 -104q-58 191 -215 330l-103 -103q-15 -15 -35.5 -15t-35.5 15t-15 36t15 36l92 92q-83 58 -201 104q-29 9 -42.5 36.5t-4.5 58.5q11 32 39 46.5t59 2.5q141 -54 258 -139l123 124q15 13 36 13t36 -13q15 -15 15 -36.5t-15 -36.5 l-115 -115q177 -162 245.5 -378.5t35.5 -430.5q-22 -156 -142.5 -261t-281.5 -105q-178 0 -304 126t-126 304zM225 410q0 -120 77.5 -200.5t199.5 -80.5q121 0 198.5 80.5t77.5 200.5t-77 200t-199 80t-199.5 -80t-77.5 -200z" />
<glyph unicode="&#xf1;" horiz-adv-x="1075" d="M117 68v684q0 32 23 54.5t55 22.5t54.5 -22.5t22.5 -54.5v-60h4q111 148 304 148q174 0 273 -116t99 -314v-342q0 -32 -23 -55t-55 -23t-53.5 22.5t-21.5 55.5v342q0 133 -69.5 206.5t-192.5 73.5q-119 0 -192 -79.5t-73 -200.5v-342q0 -32 -22.5 -55t-54.5 -23t-55 23 t-23 55zM183.5 968.5q-4.5 25.5 9.5 43.5q29 43 49.5 67.5t51.5 46.5t63.5 23.5t79 -14.5t104.5 -54q57 -39 96.5 -29.5t79.5 72.5q11 21 38.5 24.5t47.5 -9.5q22 -17 27 -42t-9 -44q-30 -43 -50.5 -68t-52.5 -47t-64.5 -23.5t-79 14.5t-103.5 54q-57 39 -95.5 29.5 t-78.5 -72.5q-13 -21 -40 -23.5t-48 11.5q-21 15 -25.5 40.5z" />
<glyph unicode="&#xf2;" d="M72 410q0 178 126 304t304 126t304 -126t126 -304t-126 -304t-304 -126t-304 126t-126 304zM225 410q0 -120 77.5 -200.5t199.5 -80.5q121 0 198.5 80.5t77.5 200.5t-77 200t-199 80t-199.5 -80t-77.5 -200zM289 1169q0 28 18.5 47t46.5 19q19 0 32 -6.5t34 -26.5 l172 -166q20 -23 20 -49q0 -28 -18.5 -46.5t-46.5 -18.5q-19 0 -31.5 7t-34.5 27l-174 164q-18 21 -18 49z" />
<glyph unicode="&#xf3;" d="M72 410q0 178 126 304t304 126t304 -126t126 -304t-126 -304t-304 -126t-304 126t-126 304zM225 410q0 -120 77.5 -200.5t199.5 -80.5q121 0 198.5 80.5t77.5 200.5t-77 200t-199 80t-199.5 -80t-77.5 -200zM436 987q0 25 21 49l172 166q22 20 34 26.5t31 6.5 q28 0 47 -19t19 -47q0 -27 -19 -49l-174 -164q-22 -21 -34 -27.5t-31 -6.5q-28 0 -47 18.5t-19 46.5z" />
<glyph unicode="&#xf4;" d="M72 410q0 178 126 304t304 126t304 -126t126 -304t-126 -304t-304 -126t-304 126t-126 304zM225 410q0 -120 77.5 -200.5t199.5 -80.5q121 0 198.5 80.5t77.5 200.5t-77 200t-199 80t-199.5 -80t-77.5 -200zM244 985q0 27 18 45l193 193q21 21 33 27.5t30 6.5 q19 0 31 -6.5t33 -27.5l190 -193q19 -19 19 -45t-18 -44.5t-44 -18.5q-18 0 -30 6.5t-33 25.5l-150 152l-147 -152q-21 -19 -33.5 -25.5t-30.5 -6.5q-26 0 -43.5 18.5t-17.5 44.5z" />
<glyph unicode="&#xf5;" d="M72 410q0 178 126 304t304 126t304 -126t126 -304t-126 -304t-304 -126t-304 126t-126 304zM203.5 968.5q-4.5 25.5 9.5 43.5q29 43 49.5 67.5t51.5 46.5t63.5 23.5t79 -14.5t104.5 -54q57 -39 96.5 -29.5t79.5 72.5q11 21 38.5 24.5t47.5 -9.5q22 -17 27.5 -42t-8.5 -44 q-30 -43 -50.5 -68t-52.5 -47t-64.5 -23.5t-79 14.5t-103.5 54q-57 39 -96 29.5t-79 -72.5q-13 -21 -40 -23.5t-48 11.5q-21 15 -25.5 40.5zM225 410q0 -120 77.5 -200.5t199.5 -80.5q121 0 198.5 80.5t77.5 200.5t-77 200t-199 80t-199.5 -80t-77.5 -200z" />
<glyph unicode="&#xf6;" d="M72 410q0 178 126 304t304 126t304 -126t126 -304t-126 -304t-304 -126t-304 126t-126 304zM225 410q0 -120 77.5 -200.5t199.5 -80.5q121 0 198.5 80.5t77.5 200.5t-77 200t-199 80t-199.5 -80t-77.5 -200zM236 1020q0 38 26 65t64 27t65 -27t27 -65t-27 -64t-65 -26 t-64 26t-26 64zM604 1020q0 38 25.5 65t62.5 27q40 0 67 -27t27 -65t-27 -64t-67 -26q-37 0 -62.5 26t-25.5 64z" />
<glyph unicode="&#xf7;" horiz-adv-x="1118" d="M170 500q0 30 20 50.5t50 20.5h639q29 0 49 -20t20 -51q0 -29 -20 -49.5t-49 -20.5h-639q-29 0 -49.5 20.5t-20.5 49.5zM461 225q0 34 23.5 58t58.5 24t58.5 -24t23.5 -58q0 -35 -23.5 -58.5t-58.5 -23.5t-58.5 23.5t-23.5 58.5zM461 778q0 35 23.5 58.5t58.5 23.5 t58.5 -23.5t23.5 -58.5q0 -34 -23.5 -58t-58.5 -24t-58.5 24t-23.5 58z" />
<glyph unicode="&#xf8;" horiz-adv-x="1003" d="M72 410q0 178 126 304t304 126t304 -126t126 -304t-126 -304t-304 -126t-304 126t-126 304zM225 410q0 -87 41 -152l389 389q-72 43 -153 43q-122 0 -199.5 -80t-77.5 -200zM334 180q70 -51 168 -51q121 0 198.5 80.5t77.5 200.5q0 93 -51 163z" />
<glyph unicode="&#xf9;" horiz-adv-x="1075" d="M102 410v342q0 32 22 54.5t56 22.5q32 0 54 -22.5t22 -54.5v-342q0 -133 69 -207t191 -74q120 0 193 80t73 201v342q0 32 23 54.5t55 22.5t55 -22.5t23 -54.5v-684q0 -32 -23 -55t-55 -23t-55 23t-23 55v59h-4q-110 -147 -303 -147q-175 0 -274 116t-99 314zM254 1169 q0 28 18.5 47t46.5 19q19 0 32 -6.5t34 -26.5l172 -166q21 -24 21 -49q0 -28 -19 -46.5t-47 -18.5q-19 0 -31.5 7t-34.5 27l-174 164q-18 21 -18 49z" />
<glyph unicode="&#xfa;" horiz-adv-x="1075" d="M102 410v342q0 32 22 54.5t56 22.5q32 0 54 -22.5t22 -54.5v-342q0 -133 69 -207t191 -74q120 0 193 80t73 201v342q0 32 23 54.5t55 22.5t55 -22.5t23 -54.5v-684q0 -32 -23 -55t-55 -23t-55 23t-23 55v59h-4q-110 -147 -303 -147q-175 0 -274 116t-99 314zM436 987 q0 25 21 49l172 166q22 20 34 26.5t31 6.5q28 0 47 -19t19 -47q0 -27 -19 -49l-174 -164q-22 -21 -34 -27.5t-31 -6.5q-28 0 -47 18.5t-19 46.5z" />
<glyph unicode="&#xfb;" horiz-adv-x="1075" d="M102 410v342q0 32 22 54.5t56 22.5q32 0 54 -22.5t22 -54.5v-342q0 -133 69 -207t191 -74q120 0 193 80t73 201v342q0 32 23 54.5t55 22.5t55 -22.5t23 -54.5v-684q0 -32 -23 -55t-55 -23t-55 23t-23 55v59h-4q-110 -147 -303 -147q-175 0 -274 116t-99 314zM233 985 q0 26 19 45l192 193q21 21 33 27.5t31 6.5q18 0 30 -6.5t33 -27.5l191 -193q18 -18 18 -45q0 -26 -17.5 -44.5t-43.5 -18.5q-18 0 -30.5 6.5t-33.5 25.5l-149 152l-148 -152q-21 -19 -33 -25.5t-30 -6.5q-26 0 -44 18.5t-18 44.5z" />
<glyph unicode="&#xfc;" horiz-adv-x="1075" d="M102 410v342q0 32 22 54.5t56 22.5q32 0 54 -22.5t22 -54.5v-342q0 -133 69 -207t191 -74q120 0 193 80t73 201v342q0 32 23 54.5t55 22.5t55 -22.5t23 -54.5v-684q0 -32 -23 -55t-55 -23t-55 23t-23 55v59h-4q-110 -147 -303 -147q-175 0 -274 116t-99 314zM221 1020 q0 38 26 65t64 27t65 -27t27 -65t-27 -64t-65 -26t-64 26t-26 64zM590 1020q0 38 25.5 65t62.5 27q40 0 67 -27t27 -65t-27 -64t-67 -26q-37 0 -62.5 26t-25.5 64z" />
<glyph unicode="&#xfd;" horiz-adv-x="1075" d="M102 410v342q0 32 22 54.5t56 22.5q32 0 54 -22.5t22 -54.5v-342q0 -133 69 -207t191 -74q120 0 193 80t73 201v342q0 32 23 54.5t55 22.5t55 -22.5t23 -54.5v-793q0 -179 -126 -304.5t-304 -125.5q-191 0 -318 88q-14 10 -24.5 25t-15.5 39t10 49q18 28 48.5 33 t55.5 -11q117 -74 244 -74q120 0 197 80.5t77 200.5v168h-4q-110 -147 -303 -147q-175 0 -274 116t-99 314zM432 987q0 25 21 49l172 166q22 20 34 26.5t31 6.5q28 0 47 -19t19 -47q0 -27 -19 -49l-174 -164q-22 -21 -34 -27.5t-31 -6.5q-28 0 -47 18.5t-19 46.5z" />
<glyph unicode="&#xfe;" d="M117 -393v1677q0 32 23 55t55 23t54.5 -23t22.5 -55v-577h4q104 133 287 133q169 0 279 -124.5t110 -305.5t-111.5 -305.5t-281.5 -124.5q-182 0 -283 122h-4v-495q0 -32 -22.5 -55t-54.5 -23t-55 23t-23 55zM266 410q0 -121 73 -201t193 -80q121 0 194 80t73 201 t-73 200.5t-194 79.5t-193.5 -79.5t-72.5 -200.5z" />
<glyph unicode="&#xff;" horiz-adv-x="1075" d="M102 410v342q0 32 22 54.5t56 22.5q32 0 54 -22.5t22 -54.5v-342q0 -133 69 -207t191 -74q120 0 193 80t73 201v342q0 32 23 54.5t55 22.5t55 -22.5t23 -54.5v-793q0 -179 -126 -304.5t-304 -125.5q-191 0 -318 88q-14 10 -24.5 25t-15.5 39t10 49q18 28 48.5 33 t55.5 -11q117 -74 244 -74q120 0 197 80.5t77 200.5v168h-4q-110 -147 -303 -147q-175 0 -274 116t-99 314zM236 1020q0 38 26 65t64 27t65 -27t27 -65t-27 -64t-65 -26t-64 26t-26 64zM604 1020q0 38 25.5 65t62.5 27q40 0 67 -27t27 -65t-27 -64t-67 -26q-37 0 -62.5 26 t-25.5 64z" />
<glyph unicode="&#x152;" horiz-adv-x="2207" d="M123 676q0 142 55 271t148 222t222 148t271 55q163 0 306.5 -72.5t238.5 -197.5v172q0 32 22 55t54 23h594q32 0 54.5 -23t22.5 -55t-22.5 -54t-54.5 -22h-516v-403h393q32 0 55 -23t23 -55t-23 -55t-55 -23h-393v-485h516q32 0 54.5 -22t22.5 -54t-22.5 -55t-54.5 -23 h-594q-32 0 -54 23t-22 55v172q-95 -125 -238.5 -197.5t-306.5 -72.5q-142 0 -271 55t-222 148t-148 222t-55 271zM279 676q0 -147 70.5 -271.5t195 -198t274.5 -73.5t275 73.5t195.5 198t70.5 271.5t-70.5 271.5t-195.5 198t-275 73.5t-274.5 -73.5t-195 -198t-70.5 -271.5 z" />
<glyph unicode="&#x153;" horiz-adv-x="1662" d="M72 410q0 178 126 304t304 126q108 0 202 -52.5t152 -140.5q58 88 152 140.5t204 52.5q180 0 287 -110t107 -290q0 -32 -22 -55t-54 -23h-590q14 -102 88 -167.5t184 -65.5q129 0 242 74q27 16 57.5 10.5t47.5 -33.5q16 -24 10 -49t-16 -39t-23 -24q-130 -88 -318 -88 q-111 0 -204.5 51t-151.5 139q-58 -88 -151.5 -139t-202.5 -51q-178 0 -304 126t-126 304zM225 410q0 -120 77.5 -200.5t199.5 -80.5q121 0 198.5 80.5t77.5 200.5t-77 200t-199 80t-199.5 -80t-77.5 -200zM956 502h474q-29 188 -218 188q-94 0 -161.5 -50.5t-94.5 -137.5z " />
<glyph unicode="&#x178;" horiz-adv-x="1433" d="M20 1284q0 32 23 55t55 23q22 0 37 -8.5t39 -32.5l545 -537l545 537q25 25 39 33t36 8q32 0 55 -23t23 -55q0 -31 -24 -55l-598 -588v-573q0 -32 -22 -55t-54 -23q-33 0 -55.5 22.5t-22.5 55.5v573l-596 588q-25 29 -25 55zM440 1573q0 38 26 65t64 27t65.5 -27t27.5 -65 t-27 -64t-66 -26q-38 0 -64 26t-26 64zM809 1573q0 38 25.5 65t62.5 27q40 0 67 -27t27 -65t-27 -64t-67 -26q-37 0 -62.5 26t-25.5 64z" />
<glyph unicode="&#x2c6;" horiz-adv-x="704" d="M80 985q0 27 18 45l193 193q21 21 33 27.5t30 6.5q19 0 31 -6.5t33 -27.5l190 -193q19 -19 19 -45t-18 -44.5t-44 -18.5q-18 0 -30 6.5t-33 25.5l-150 152l-147 -152q-21 -19 -33.5 -25.5t-30.5 -6.5q-26 0 -43.5 18.5t-17.5 44.5z" />
<glyph unicode="&#x2dc;" horiz-adv-x="833" d="M93 968.5q-5 25.5 9 43.5q29 43 49.5 67.5t51.5 46.5t64 23.5t79.5 -14.5t104.5 -54q57 -39 96.5 -29.5t79.5 72.5q11 21 38.5 24.5t47.5 -9.5q22 -17 27 -42t-9 -44q-30 -43 -50.5 -68t-52.5 -47t-64.5 -23.5t-79 14.5t-103.5 54q-57 39 -95.5 29.5t-78.5 -72.5 q-13 -21 -40 -23.5t-48 11.5q-21 15 -26 40.5z" />
<glyph unicode="&#x2000;" horiz-adv-x="913" />
<glyph unicode="&#x2001;" horiz-adv-x="1827" />
<glyph unicode="&#x2002;" horiz-adv-x="913" />
<glyph unicode="&#x2003;" horiz-adv-x="1827" />
<glyph unicode="&#x2004;" horiz-adv-x="609" />
<glyph unicode="&#x2005;" horiz-adv-x="456" />
<glyph unicode="&#x2006;" horiz-adv-x="304" />
<glyph unicode="&#x2007;" horiz-adv-x="304" />
<glyph unicode="&#x2008;" horiz-adv-x="228" />
<glyph unicode="&#x2009;" horiz-adv-x="365" />
<glyph unicode="&#x200a;" horiz-adv-x="101" />
<glyph unicode="&#x2010;" horiz-adv-x="1118" d="M170 500q0 30 20 50.5t50 20.5h639q29 0 49 -20t20 -51q0 -29 -20 -49.5t-49 -20.5h-639q-29 0 -49.5 20.5t-20.5 49.5z" />
<glyph unicode="&#x2011;" horiz-adv-x="1118" d="M170 500q0 30 20 50.5t50 20.5h639q29 0 49 -20t20 -51q0 -29 -20 -49.5t-49 -20.5h-639q-29 0 -49.5 20.5t-20.5 49.5z" />
<glyph unicode="&#x2012;" horiz-adv-x="1118" d="M170 500q0 30 20 50.5t50 20.5h639q29 0 49 -20t20 -51q0 -29 -20 -49.5t-49 -20.5h-639q-29 0 -49.5 20.5t-20.5 49.5z" />
<glyph unicode="&#x2013;" horiz-adv-x="1118" d="M170 500q0 30 20 50.5t50 20.5h639q29 0 49 -20t20 -51q0 -29 -20 -49.5t-49 -20.5h-639q-29 0 -49.5 20.5t-20.5 49.5z" />
<glyph unicode="&#x2014;" horiz-adv-x="1732" d="M170 500q0 30 20 50.5t50 20.5h1253q29 0 49.5 -20.5t20.5 -50.5q0 -29 -20.5 -49.5t-49.5 -20.5h-1253q-29 0 -49.5 20.5t-20.5 49.5z" />
<glyph unicode="&#x2018;" horiz-adv-x="428" d="M120 1112q3 56 30 116.5t71 104.5q16 16 35.5 20t38.5 -10q17 -13 17 -33.5t-15 -35.5q-37 -37 -56.5 -84t-17.5 -90q35 0 58.5 -24t23.5 -58q0 -35 -23.5 -58.5t-58.5 -23.5q-34 0 -58.5 19t-33.5 51q-14 50 -11 106z" />
<glyph unicode="&#x2019;" horiz-adv-x="428" d="M116 987q0 20 15 35q37 37 56.5 85t17.5 91q-35 0 -58.5 23.5t-23.5 58.5q0 34 23.5 58t58.5 24t59 -19.5t33 -52.5q26 -67 1.5 -162.5t-91.5 -162.5q-16 -16 -35.5 -20.5t-38.5 9.5q-17 13 -17 33z" />
<glyph unicode="&#x201a;" horiz-adv-x="428" d="M116 -220q0 21 15 36q37 37 56.5 84t17.5 90q-35 0 -58.5 24t-23.5 58q0 35 23.5 58.5t58.5 23.5q34 0 58.5 -19t33.5 -51q14 -50 11 -106t-30 -117t-71 -105q-16 -16 -35.5 -20t-38.5 10q-17 13 -17 34z" />
<glyph unicode="&#x201c;" horiz-adv-x="735" d="M120 1112q3 56 30 116.5t71 104.5q16 16 35.5 20t38.5 -10q17 -13 17 -33.5t-15 -35.5q-37 -37 -56.5 -84t-17.5 -90q35 0 58.5 -24t23.5 -58q0 -35 -23.5 -58.5t-58.5 -23.5q-34 0 -58.5 19t-33.5 51q-14 50 -11 106zM427 1112q3 56 30 116.5t71 104.5q16 16 35.5 20 t38.5 -10q17 -13 17 -33.5t-15 -35.5q-37 -37 -56.5 -84t-17.5 -90q35 0 58.5 -24t23.5 -58q0 -35 -23.5 -58.5t-58.5 -23.5q-34 0 -58.5 19t-33.5 51q-14 50 -11 106z" />
<glyph unicode="&#x201d;" horiz-adv-x="735" d="M116 987q0 20 15 35q37 37 56.5 85t17.5 91q-35 0 -58.5 23.5t-23.5 58.5q0 34 23.5 58t58.5 24t59 -19.5t33 -52.5q26 -67 1.5 -162.5t-91.5 -162.5q-16 -16 -35.5 -20.5t-38.5 9.5q-17 13 -17 33zM423 987q0 20 15 35q37 37 56.5 85t17.5 91q-35 0 -58.5 23.5 t-23.5 58.5q0 34 23.5 58t58.5 24t59 -19.5t33 -52.5q26 -67 1.5 -162.5t-91.5 -162.5q-16 -16 -35.5 -20.5t-38.5 9.5q-17 13 -17 33z" />
<glyph unicode="&#x201e;" horiz-adv-x="735" d="M116 -220q0 21 15 36q37 37 56.5 84t17.5 90q-35 0 -58.5 24t-23.5 58q0 35 23.5 58.5t58.5 23.5q34 0 58.5 -19t33.5 -51q14 -50 11 -106t-30 -117t-71 -105q-16 -16 -35.5 -20t-38.5 10q-17 13 -17 34zM423 -220q0 21 15 36q37 37 56.5 84t17.5 90q-35 0 -58.5 24 t-23.5 58q0 35 23.5 58.5t58.5 23.5q34 0 58.5 -19t33.5 -51q14 -50 11 -106t-30 -117t-71 -105q-16 -16 -35.5 -20t-38.5 10q-17 13 -17 34z" />
<glyph unicode="&#x2022;" horiz-adv-x="409" d="M88 711q0 48 33 82t82 34q48 0 83.5 -34.5t35.5 -81.5q0 -50 -35.5 -83.5t-83.5 -33.5q-50 0 -82.5 33t-32.5 84z" />
<glyph unicode="&#x2026;" horiz-adv-x="1003" d="M113 72q0 35 23.5 58.5t58.5 23.5t58 -23.5t23 -58.5q0 -34 -23 -58t-58 -24t-58.5 24t-23.5 58zM420 72q0 35 23.5 58.5t58.5 23.5t58.5 -23.5t23.5 -58.5q0 -34 -23.5 -58t-58.5 -24t-58.5 24t-23.5 58zM727 72q0 35 23.5 58.5t58.5 23.5t58.5 -23.5t23.5 -58.5 q0 -34 -23.5 -58t-58.5 -24t-58.5 24t-23.5 58z" />
<glyph unicode="&#x202f;" horiz-adv-x="365" />
<glyph unicode="&#x2039;" horiz-adv-x="794" d="M182 502q0 20 7 32.5t30 36.5l279 275q17 20 51 20q30 0 49.5 -19.5t19.5 -49.5q0 -21 -7 -34.5t-29 -35.5l-230 -223l230 -223q22 -22 29 -35.5t7 -34.5q0 -31 -20 -50.5t-49 -19.5q-33 0 -51 21l-279 270q-21 21 -29 35t-8 35z" />
<glyph unicode="&#x203a;" horiz-adv-x="794" d="M184 211q0 21 7 34t30 36l230 223l-230 223q-23 23 -30 36t-7 34q0 30 20 49.5t50 19.5q34 0 51 -20l279 -275q23 -24 30 -36.5t7 -32.5q0 -21 -8 -35t-29 -35l-279 -270q-18 -21 -51 -21q-30 0 -50 20t-20 50z" />
<glyph unicode="&#x205f;" horiz-adv-x="456" />
<glyph unicode="&#x20ac;" horiz-adv-x="1636" d="M102 543q0 22 15 36.5t37 14.5h155q-4 54 -4 82q0 41 2 61h-153q-22 0 -37 14.5t-15 36.5t15 37t37 15h170q56 232 244 382t433 150q143 0 271.5 -55.5t226.5 -153.5q23 -23 23 -54t-23 -54t-55 -22t-55 24q-74 76 -174.5 119t-213.5 43q-182 0 -323 -106.5t-193 -272.5 h332q22 0 36.5 -15t14.5 -37t-14.5 -36.5t-36.5 -14.5h-354q-2 -20 -2 -61q0 -42 6 -82h350q22 0 36.5 -14.5t14.5 -36.5t-14.5 -36.5t-36.5 -14.5h-325q57 -160 194.5 -259.5t314.5 -99.5q113 0 213 42.5t175 119.5q23 23 55 24t55 -22t23 -54.5t-23 -54.5 q-97 -98 -225.5 -153t-272.5 -55q-239 0 -424.5 143.5t-246.5 368.5h-176q-22 0 -37 14.5t-15 36.5z" />
<glyph unicode="&#x2122;" horiz-adv-x="1810" d="M123 1303q0 22 14.5 35.5t36.5 13.5h614q22 0 37 -14t15 -35q0 -22 -15 -36t-37 -14h-256v-551q0 -22 -14.5 -36.5t-36.5 -14.5t-36.5 14.5t-14.5 36.5v551h-256q-22 0 -36.5 14t-14.5 36zM983 702v603q0 22 14.5 36.5t36.5 14.5q24 0 51 -27l250 -254l250 254 q27 27 51 27q22 0 37 -14.5t15 -36.5v-603q0 -22 -15 -36.5t-37 -14.5t-36.5 14.5t-14.5 36.5v480l-196 -203q-27 -27 -52 -27q-24 0 -51 27l-201 203v-480q0 -22 -14.5 -36.5t-36.5 -14.5t-36.5 14.5t-14.5 36.5z" />
<glyph unicode="&#xe000;" horiz-adv-x="829" d="M0 0v829h829v-829h-829z" />
</font>
</defs>
</svg>
