<?xml version="1.0" standalone="no"?>
<!DOCTYPE svg PUBLIC "-//W3C//DTD SVG 1.1//EN" "http://www.w3.org/Graphics/SVG/1.1/DTD/svg11.dtd" >
<svg xmlns="http://www.w3.org/2000/svg">
<metadata></metadata>
<defs>
<font id="estilo_textlight" horiz-adv-x="1024" >
<font-face units-per-em="2048" ascent="1638" descent="-410" />
<missing-glyph horiz-adv-x="368" />
<glyph unicode="&#xfb01;" horiz-adv-x="962" d="M51 768q0 22 14.5 36.5t36.5 14.5h93v256q0 74 18 128t44.5 84t65.5 47.5t73 22.5t75 5q22 0 36.5 -14.5t14.5 -36.5t-14.5 -36.5t-36.5 -14.5q-41 0 -68.5 -6t-53.5 -24.5t-39 -57t-13 -97.5v-256h471q22 0 36.5 -14.5t14.5 -36.5v-727q0 -22 -14.5 -36.5t-36.5 -14.5 t-36.5 14.5t-14.5 36.5v676h-420v-676q0 -22 -14.5 -36.5t-36.5 -14.5t-36.5 14.5t-14.5 36.5v676h-93q-22 0 -36.5 14.5t-14.5 36.5zM717 1085q0 22 14.5 37t36.5 15t36.5 -15t14.5 -37t-14.5 -36.5t-36.5 -14.5t-36.5 14.5t-14.5 36.5z" />
<glyph unicode="&#xfb02;" horiz-adv-x="1095" d="M51 768q0 22 14.5 36.5t36.5 14.5h93v256q0 74 18 127t44 81.5t66 44.5t72.5 20t75.5 4h297q22 0 36.5 -15t14.5 -37v-1024q0 -59 13 -97.5t39 -56.5t53.5 -24t68.5 -6q22 0 36.5 -14.5t14.5 -36.5t-14.5 -36.5t-36.5 -14.5q-41 0 -75 5t-73 22.5t-65.5 47t-44.5 83.5 t-18 128v984h-246q-41 0 -68.5 -6t-53.5 -24.5t-39 -57t-13 -97.5v-256h174q22 0 36.5 -14.5t14.5 -36.5t-14.5 -36.5t-36.5 -14.5h-174v-676q0 -22 -14.5 -36.5t-36.5 -14.5t-36.5 14.5t-14.5 36.5v676h-93q-22 0 -36.5 14.5t-14.5 36.5z" />
<glyph unicode="&#xfb03;" horiz-adv-x="1484" d="M51 768q0 22 14.5 36.5t36.5 14.5h93v256q0 74 18 128t44.5 84t65.5 47.5t73 22.5t75 5q22 0 36.5 -14.5t14.5 -36.5t-14.5 -36.5t-36.5 -14.5q-41 0 -68.5 -6t-53.5 -24.5t-39 -57t-13 -97.5v-256h420v256q0 74 18 128t44.5 84t65.5 47.5t73 22.5t75 5q22 0 36.5 -14.5 t14.5 -36.5t-14.5 -36.5t-36.5 -14.5q-41 0 -68.5 -6t-53.5 -24.5t-39 -57t-13 -97.5v-256h471q22 0 36.5 -14.5t14.5 -36.5v-727q0 -22 -14.5 -36.5t-36.5 -14.5t-36.5 14.5t-14.5 36.5v676h-420v-676q0 -22 -14.5 -36.5t-36.5 -14.5t-36.5 14.5t-14.5 36.5v676h-420v-676 q0 -22 -14.5 -36.5t-36.5 -14.5t-36.5 14.5t-14.5 36.5v676h-93q-22 0 -36.5 14.5t-14.5 36.5zM1239 1085q0 22 14.5 37t36.5 15t36.5 -15t14.5 -37t-14.5 -36.5t-36.5 -14.5t-36.5 14.5t-14.5 36.5z" />
<glyph unicode="&#xfb04;" horiz-adv-x="1617" d="M51 768q0 22 14.5 36.5t36.5 14.5h93v256q0 74 18 128t44.5 84t65.5 47.5t73 22.5t75 5q22 0 36.5 -14.5t14.5 -36.5t-14.5 -36.5t-36.5 -14.5q-41 0 -68.5 -6t-53.5 -24.5t-39 -57t-13 -97.5v-256h420v256q0 74 18 127t44 81.5t66 44.5t72.5 20t75.5 4h297 q22 0 36.5 -15t14.5 -37v-1024q0 -59 13 -97.5t39.5 -56.5t54 -24t68.5 -6q22 0 36.5 -14.5t14.5 -36.5t-14.5 -36.5t-36.5 -14.5q-41 0 -75 5t-73.5 22.5t-66 47t-44.5 83.5t-18 128v984h-246q-41 0 -68.5 -6t-53.5 -24.5t-39 -57t-13 -97.5v-256h174q22 0 36.5 -14.5 t14.5 -36.5t-14.5 -36.5t-36.5 -14.5h-174v-676q0 -22 -14.5 -36.5t-36.5 -14.5t-36.5 14.5t-14.5 36.5v676h-420v-676q0 -22 -14.5 -36.5t-36.5 -14.5t-36.5 14.5t-14.5 36.5v676h-93q-22 0 -36.5 14.5t-14.5 36.5z" />
<glyph horiz-adv-x="2048" />
<glyph horiz-adv-x="2048" />
<glyph unicode="&#xd;" horiz-adv-x="2048" />
<glyph unicode=" "  horiz-adv-x="368" />
<glyph unicode="&#x09;" horiz-adv-x="368" />
<glyph unicode="&#xa0;" horiz-adv-x="368" />
<glyph unicode="!" horiz-adv-x="512" d="M195 51q0 26 17.5 44t43.5 18t43.5 -18t17.5 -44t-17.5 -43.5t-43.5 -17.5t-43.5 17.5t-17.5 43.5zM205 287v1024q0 22 14.5 36.5t36.5 14.5t36.5 -14.5t14.5 -36.5v-1024q0 -22 -14.5 -36.5t-36.5 -14.5t-36.5 14.5t-14.5 36.5z" />
<glyph unicode="&#x22;" horiz-adv-x="659" d="M104 977v334q0 22 15 36.5t37 14.5t36.5 -14.5t14.5 -36.5v-334q0 -22 -14.5 -36.5t-36.5 -14.5t-37 14.5t-15 36.5zM453 977v334q0 22 14.5 36.5t36.5 14.5t36.5 -14.5t14.5 -36.5v-334q0 -22 -14.5 -36.5t-36.5 -14.5t-36.5 14.5t-14.5 36.5z" />
<glyph unicode="#" horiz-adv-x="1597" d="M205 502q0 22 14.5 36.5t36.5 14.5h205l90 266h-295q-22 0 -36.5 14.5t-14.5 36.5t14.5 37t36.5 15h330l135 399q22 59 72 49q21 -4 29.5 -24t2.5 -43l-129 -381h361l135 399q22 59 72 49q21 -4 29.5 -24t2.5 -43l-129 -381h174q22 0 37 -15t15 -37t-15 -36.5t-37 -14.5 h-208l-91 -266h299q22 0 37 -14.5t15 -36.5t-15 -36.5t-37 -14.5h-333l-142 -420q-17 -63 -73 -49q-20 5 -29 24.5t-2 42.5l135 402h-360l-142 -420q-17 -63 -73 -49q-20 5 -29 24.5t-2 42.5l135 402h-170q-22 0 -36.5 14.5t-14.5 36.5zM571 553h361l90 266h-360z" />
<glyph unicode="$" d="M164 152.5q1 20.5 18 33.5q17 14 38.5 12.5t33.5 -18.5q82 -98 238 -98q113 0 189.5 70t76.5 186q0 60 -24.5 110.5t-65 85t-92 68.5t-105.5 62t-105.5 65.5t-92 78.5t-65 102t-24.5 134q0 128 76 217.5t209 106.5v148q0 22 14.5 36.5t36.5 14.5t36.5 -14.5t14.5 -36.5 v-148q148 -16 240 -121q13 -17 12 -37t-16 -34q-19 -14 -40.5 -12.5t-33.5 18.5q-76 88 -211 88q-110 0 -172.5 -59t-62.5 -167q0 -58 24.5 -107t65 -82.5t92 -67.5t105 -61.5t105 -66t92 -80t65 -104t24.5 -137.5q0 -136 -81.5 -231t-207.5 -119v-152q0 -22 -14.5 -36.5 t-36.5 -14.5t-36.5 14.5t-14.5 36.5v144q-88 5 -166 39.5t-127 95.5q-13 17 -12 37.5z" />
<glyph unicode="%" horiz-adv-x="1454" d="M164 1149q0 91 65 156t156 65t156 -65t65 -156t-65 -156t-156 -65t-156 65t-65 156zM260 1149q0 -51 37 -88t88 -37t88 37t37 88t-37 88t-88 37t-88 -37t-37 -88zM455 49l430 1272q22 59 71 49q21 -4 30 -24t3 -43l-430 -1272q-8 -29 -27 -42.5t-47 -6.5q-20 4 -29 24 t-1 43zM848 201q0 91 65 156t156 65t156 -65t65 -156t-65 -156t-156 -65t-156 65t-65 156zM944 201q0 -51 37 -88t88 -37t88 37t37 88t-37 88t-88 37t-88 -37t-37 -88z" />
<glyph unicode="&#x26;" horiz-adv-x="1654" d="M164 410q0 132 73.5 237.5t192.5 151.5q-69 39 -109 107t-40 153q0 131 91.5 222t221.5 91q179 0 289 -125q13 -17 12 -37t-16 -34q-19 -14 -40.5 -12.5t-33.5 18.5q-76 88 -211 88q-93 0 -152 -60.5t-59 -150.5q0 -91 59.5 -155t151.5 -64h569v245q0 22 14.5 37t36.5 15 t37 -15t15 -37v-245h174q22 0 36.5 -15t14.5 -37t-14.5 -36.5t-36.5 -14.5h-174v-461q0 -59 13 -97.5t39 -56.5t53.5 -24t68.5 -6q22 0 36.5 -14.5t14.5 -36.5t-14.5 -36.5t-36.5 -14.5q-41 0 -75 5t-73.5 22.5t-66 47t-44.5 83.5t-18 128v461h-569q-144 0 -236 -93.5 t-92 -233.5t92 -234t236 -94q154 0 268 86q17 13 38 12t34 -18t11 -37.5t-17 -34.5q-64 -54 -152.5 -82t-181.5 -28q-178 0 -304 126t-126 304z" />
<glyph unicode="'" horiz-adv-x="311" d="M104 977v334q0 22 15 36.5t37 14.5t36.5 -14.5t14.5 -36.5v-334q0 -22 -14.5 -36.5t-36.5 -14.5t-37 14.5t-15 36.5z" />
<glyph unicode="(" horiz-adv-x="649" d="M205 408v524q0 109 9 191t35 175t81 177t139 159q17 14 38 12.5t36 -18.5q14 -15 12.5 -36t-18.5 -36q-113 -101 -171.5 -244.5t-58.5 -379.5v-524q0 -237 58.5 -380.5t171.5 -244.5q17 -15 18.5 -36t-12.5 -36q-15 -17 -36 -18.5t-38 12.5q-68 61 -117 129.5t-77 133.5 t-44 143t-21 144.5t-5 152.5z" />
<glyph unicode=")" horiz-adv-x="649" d="M94 -253q2 21 19 36q74 66 121.5 142t77.5 198.5t30 284.5v524q0 237 -58 380t-171 244q-17 15 -19 36t12 36q15 17 36 18.5t38 -12.5q84 -75 139 -159t81 -177t35 -175t9 -191v-524q0 -86 -5 -152.5t-21 -144.5t-44 -143t-77 -133.5t-117 -129.5q-17 -14 -38 -12.5 t-36 18.5q-14 15 -12 36z" />
<glyph unicode="*" horiz-adv-x="765" d="M102 1092q0 22 15 36.5t37 14.5h106l-76 76q-15 13 -15 34.5t15 36.5t36.5 15t35.5 -15l76 -76v107q0 22 14.5 36.5t36.5 14.5t36.5 -14.5t14.5 -36.5v-107l76 76q14 15 35.5 15t36.5 -15t15 -36.5t-15 -34.5l-76 -76h106q22 0 37 -14.5t15 -36.5t-15 -37t-37 -15h-106 l76 -75q15 -14 15 -35.5t-15 -36.5t-36.5 -15t-35.5 15l-76 76v-107q0 -22 -14.5 -36.5t-36.5 -14.5t-36.5 14.5t-14.5 36.5v107l-76 -76q-14 -15 -35.5 -15t-36.5 15t-15 36.5t15 35.5l76 75h-106q-22 0 -37 15t-15 37z" />
<glyph unicode="+" horiz-adv-x="1118" d="M176 502q0 22 14.5 36.5t36.5 14.5h281v281q0 22 14.5 36.5t36.5 14.5t36.5 -14.5t14.5 -36.5v-281h281q22 0 36.5 -14.5t14.5 -36.5t-14.5 -36.5t-36.5 -14.5h-281v-281q0 -22 -14.5 -36.5t-36.5 -14.5t-36.5 14.5t-14.5 36.5v281h-281q-22 0 -36.5 14.5t-14.5 36.5z " />
<glyph unicode="," horiz-adv-x="389" d="M112.5 -222q0.5 18 16.5 34q70 70 66 178q-26 0 -44 17.5t-18 43.5t18 44t44 18q49 0 71 -50q17 -40 17.5 -92.5t-21 -111.5t-65.5 -103q-37 -37 -68 -10q-17 14 -16.5 32z" />
<glyph unicode="-" horiz-adv-x="1118" d="M176 502q0 22 14.5 36.5t36.5 14.5h664q22 0 36.5 -14.5t14.5 -36.5t-14.5 -36.5t-36.5 -14.5h-664q-22 0 -36.5 14.5t-14.5 36.5z" />
<glyph unicode="." horiz-adv-x="389" d="M115 70q0 34 23 58t57 24t57.5 -24t23.5 -58t-23.5 -57t-57.5 -23t-57 23t-23 57z" />
<glyph unicode="/" horiz-adv-x="811" d="M139 49l430 1272q22 59 72 49q21 -4 30 -24t3 -43l-430 -1272q-8 -29 -27 -42.5t-47 -6.5q-20 5 -29 24.5t-2 42.5z" />
<glyph unicode="0" horiz-adv-x="1105" d="M123 410v532q0 178 125.5 304t304.5 126t304.5 -126t125.5 -304v-532q0 -178 -125.5 -304t-304.5 -126t-304.5 126t-125.5 304zM225 410q0 -140 92 -234t236 -94t236 94t92 234v532q0 140 -92 234t-236 94t-236 -94t-92 -234v-532z" />
<glyph unicode="1" horiz-adv-x="686" d="M72 1300q0 22 14.5 37t36.5 15h297q22 0 36.5 -15t14.5 -37v-1259q0 -22 -14.5 -36.5t-36.5 -14.5t-36.5 14.5t-14.5 36.5v1208h-246q-22 0 -36.5 14.5t-14.5 36.5z" />
<glyph unicode="2" horiz-adv-x="1003" d="M154 51v252q0 89 32 161t83 120.5t112.5 90t123.5 78.5t113 76.5t83 94t32 120.5q0 97 -59.5 161.5t-165.5 64.5q-154 0 -268 -86q-17 -13 -38 -12t-34 18t-11 37.5t17 34.5q64 54 152.5 82t181.5 28q145 0 238.5 -89t93.5 -239q0 -79 -32 -144t-82.5 -110.5t-112 -86 t-123 -80.5t-112 -83.5t-82.5 -105t-32 -135.5v-201h555q22 0 36.5 -13.5t14.5 -35.5t-14.5 -35.5t-36.5 -13.5h-614q-22 0 -36.5 14.5t-14.5 36.5z" />
<glyph unicode="3" horiz-adv-x="1067" d="M163 124.5q-2 20.5 11 37.5t34 18t38 -12q114 -86 268 -86q144 0 236 94t92 234t-92 233.5t-236 93.5h-82q-22 0 -36.5 14.5t-14.5 36.5t14.5 37t36.5 15h82q92 0 151.5 64t59.5 155q0 90 -59 150.5t-152 60.5q-135 0 -211 -88q-12 -17 -33.5 -18.5t-40.5 12.5 q-15 14 -16 34t12 37q110 125 289 125q130 0 221.5 -91t91.5 -222q0 -85 -40 -153t-109 -107q119 -46 192.5 -151.5t73.5 -237.5q0 -178 -126 -304t-304 -126q-93 0 -181.5 28t-152.5 82q-15 14 -17 34.5z" />
<glyph unicode="4" horiz-adv-x="1003" d="M72 358q0 32 14 60l397 882q17 37 31 49.5t37 12.5q45 0 45 -49q0 -28 -16 -60l-379 -843h454v307q0 22 15 36.5t37 14.5t36.5 -14.5t14.5 -36.5v-307h131q22 0 36.5 -15t14.5 -37t-14.5 -36.5t-36.5 -14.5h-131v-266q0 -22 -14.5 -36.5t-36.5 -14.5t-37 14.5t-15 36.5 v266h-530q-22 0 -37.5 14.5t-15.5 36.5z" />
<glyph unicode="5" horiz-adv-x="1067" d="M163 124.5q-2 20.5 11 37.5t34 18t38 -12q114 -86 268 -86q144 0 236 94t92 234t-92 233.5t-236 93.5h-238q-22 0 -36.5 14.5t-14.5 36.5v512q0 22 14.5 37t36.5 15h543q22 0 36.5 -15t14.5 -37t-14.5 -36.5t-36.5 -14.5h-491v-420h186q180 0 305 -121t125 -298 q0 -178 -126 -304t-304 -126q-93 0 -181.5 28t-152.5 82q-15 14 -17 34.5z" />
<glyph unicode="6" horiz-adv-x="1112" d="M137 332q-39 216 26 426t219 370.5t366 231.5q22 8 40 -1t25 -32q6 -20 -3 -38.5t-28 -22.5q-206 -69 -347 -225.5t-189 -358.5q118 147 313 147q180 0 305 -121t125 -298q0 -178 -125.5 -304t-304.5 -126q-157 0 -276.5 100t-145.5 252zM231 410q0 -140 92 -234t236 -94 t236 94t92 234t-92 233.5t-236 93.5t-236 -93.5t-92 -233.5z" />
<glyph unicode="7" horiz-adv-x="921" d="M51 1300q0 22 14.5 37t36.5 15h703q22 0 37.5 -15t15.5 -37q0 -31 -14 -59l-531 -1180q-17 -37 -30.5 -49t-36.5 -12q-45 0 -45 49q0 28 16 60l512 1140h-627q-22 0 -36.5 14.5t-14.5 36.5z" />
<glyph unicode="8" horiz-adv-x="1105" d="M123 410q0 132 73.5 237.5t192.5 151.5q-69 39 -109 107t-40 153q0 131 91 222t222 91t222 -91t91 -222q0 -85 -40 -153t-109 -107q119 -46 192.5 -151.5t73.5 -237.5q0 -178 -125.5 -304t-304.5 -126t-304.5 126t-125.5 304zM225 410q0 -140 92 -234t236 -94t236 94 t92 234t-92 233.5t-236 93.5t-236 -93.5t-92 -233.5zM342 1059q0 -91 59.5 -156t151.5 -65t151.5 65t59.5 156q0 90 -59 150.5t-152 60.5t-152 -60.5t-59 -150.5z" />
<glyph unicode="9" horiz-adv-x="1112" d="M123 942q0 178 125.5 304t304.5 126q157 0 276.5 -100t145.5 -252q29 -161 -2 -324t-111 -299.5t-209 -244t-288 -160.5q-22 -8 -40.5 1t-25.5 32q-6 20 3 38.5t28 22.5q206 69 347 225.5t189 358.5q-56 -70 -136 -109t-177 -39q-179 0 -304.5 121t-125.5 299zM225 942 q0 -140 92 -234t236 -94t236 94t92 234t-92 234t-236 94t-236 -94t-92 -234z" />
<glyph unicode=":" horiz-adv-x="389" d="M115 193q0 34 23 57.5t57 23.5t57.5 -23.5t23.5 -57.5t-23.5 -57t-57.5 -23t-57 23t-23 57zM115 623q0 34 23 58t57 24t57.5 -24t23.5 -58t-23.5 -57t-57.5 -23t-57 23t-23 57z" />
<glyph unicode=";" horiz-adv-x="389" d="M112.5 -222q0.5 18 16.5 34q70 70 66 178q-26 0 -44 17.5t-18 43.5t18 44t44 18q49 0 71 -50q17 -40 17.5 -92.5t-21 -111.5t-65.5 -103q-37 -37 -68 -10q-17 14 -16.5 32zM115 623q0 34 23 58t57 24t57.5 -24t23.5 -58t-23.5 -57t-57.5 -23t-57 23t-23 57z" />
<glyph unicode="&#x3c;" horiz-adv-x="794" d="M186 502q0 24 27 51l289 287q16 16 37 16q22 0 36.5 -14.5t14.5 -36.5q0 -24 -27 -51l-254 -250l254 -250q27 -27 27 -51q0 -22 -14.5 -36.5t-36.5 -14.5q-21 0 -37 16l-289 283q-27 27 -27 51z" />
<glyph unicode="=" horiz-adv-x="1118" d="M176 317q0 22 14.5 37t36.5 15h664q22 0 36.5 -15t14.5 -37t-14.5 -36.5t-36.5 -14.5h-664q-22 0 -36.5 14.5t-14.5 36.5zM176 686q0 22 14.5 36.5t36.5 14.5h664q22 0 36.5 -14.5t14.5 -36.5t-14.5 -36.5t-36.5 -14.5h-664q-22 0 -36.5 14.5t-14.5 36.5z" />
<glyph unicode="&#x3e;" horiz-adv-x="794" d="M205 203q0 25 26 51l254 250l-254 250q-26 26 -26 51q0 22 14.5 36.5t36.5 14.5q21 0 37 -16l289 -287q26 -26 26 -51t-26 -51l-289 -283q-16 -16 -37 -16q-22 0 -36.5 14.5t-14.5 36.5z" />
<glyph unicode="?" horiz-adv-x="958" d="M95.5 1228q2.5 20 17.5 34q64 54 152.5 82t180.5 28q179 0 305 -126t126 -304t-126 -304t-305 -126h-53v-225q0 -22 -14.5 -36.5t-36.5 -14.5t-36.5 14.5t-14.5 36.5v276q0 22 14.5 36.5t36.5 14.5h104q144 0 236 94t92 234t-92 234t-236 94q-154 0 -268 -86 q-17 -13 -38 -12t-34 18q-13 18 -10.5 38zM281 51q0 26 17.5 44t43.5 18t43.5 -18t17.5 -44t-17.5 -43.5t-43.5 -17.5t-43.5 17.5t-17.5 43.5z" />
<glyph unicode="@" horiz-adv-x="1720" d="M164 389q0 142 55 271t148 222t222 148t271 55t271 -55t222 -148t148 -222t55 -271v-303q0 -22 -14.5 -36.5t-36.5 -14.5h-407q-18 0 -29.5 11.5t-11.5 29.5v57h-4q-41 -46 -113.5 -76t-153.5 -30q-120 0 -174.5 57.5t-54.5 146.5q0 84 63 140.5t175 56.5q158 0 258 -41 h4v115q0 131 -197 131q-56 0 -114.5 -18.5t-98.5 -51.5q-12 -11 -28.5 -9t-28.5 15q-10 14 -8 30.5t14 27.5q51 43 121 65.5t143 22.5q126 0 202.5 -55.5t76.5 -157.5v-396h346v283q0 169 -84 313t-228 228t-313 84t-313 -84t-227.5 -228t-83.5 -313t83.5 -313t227.5 -228 t313 -84q17 0 29 -10.5t12 -25.5t-12 -25t-29 -10q-142 0 -271 55t-222 148t-148 222t-55 271zM639 231q0 -122 164 -122q137 0 254 81v140q-144 16 -254 16q-164 0 -164 -115z" />
<glyph unicode="A" horiz-adv-x="1466" d="M45 24q-3 9 -3 17q0 11 5 22l606 1264q21 45 80 45t80 -45l606 -1264q5 -12 5 -23q0 -8 -2 -16q-6 -20 -27 -30q-11 -5 -22 -5q-9 0 -17 3q-20 7 -29 26l-201 412h-788l-199 -412q-9 -19 -28 -26q-8 -3 -17 -3q-11 0 -22 5q-20 10 -27 30zM387 532h692l-346 717z" />
<glyph unicode="B" horiz-adv-x="1136" d="M205 51v1249q0 22 14.5 37t36.5 15h266q133 0 225.5 -88.5t92.5 -219.5q0 -79 -35.5 -147t-95.5 -106q132 -34 213.5 -137.5t81.5 -243.5q0 -170 -116 -290t-284 -120h-348q-22 0 -36.5 14.5t-14.5 36.5zM307 102h287q127 0 217 90t90 218t-89.5 217.5t-217.5 89.5h-287 v-615zM307 819h205q94 0 159.5 65.5t65.5 159.5q0 92 -64.5 148.5t-160.5 56.5h-205v-430z" />
<glyph unicode="C" horiz-adv-x="1452" d="M123 676q0 142 55 271t148 222t222 148t271 55t270 -54.5t224 -150.5q15 -15 15 -35.5t-15 -35.5t-37 -15t-37 15q-81 81 -190.5 127.5t-229.5 46.5q-161 0 -298 -79.5t-216.5 -216.5t-79.5 -298t79.5 -298t216.5 -216.5t298 -79.5q121 0 229 45.5t191 128.5q15 15 37 15 t37 -15t15 -36t-15 -36q-97 -97 -224.5 -150.5t-269.5 -53.5t-271 55t-222 148t-148 222t-55 271z" />
<glyph unicode="D" horiz-adv-x="1720" d="M205 51v1249q0 22 14.5 37t36.5 15h645q142 0 270.5 -52t222 -141t148.5 -215t55 -268t-55 -268t-148.5 -215t-222 -141t-270.5 -52h-645q-22 0 -36.5 14.5t-14.5 36.5zM307 98h594q162 0 298.5 75.5t216 208.5t79.5 294q0 121 -47 228.5t-126.5 183.5t-189.5 120.5 t-231 44.5h-594v-1155z" />
<glyph unicode="E" d="M205 51v1249q0 22 14.5 37t36.5 15h594q22 0 36.5 -15t14.5 -37t-14.5 -36.5t-36.5 -14.5h-543v-481h420q22 0 36.5 -14.5t14.5 -36.5t-14.5 -36.5t-36.5 -14.5h-420v-564h543q22 0 36.5 -14.5t14.5 -36.5t-14.5 -36.5t-36.5 -14.5h-594q-22 0 -36.5 14.5t-14.5 36.5z " />
<glyph unicode="F" horiz-adv-x="972" d="M205 41v1259q0 22 14.5 37t36.5 15h594q22 0 36.5 -15t14.5 -37t-14.5 -36.5t-36.5 -14.5h-543v-522h420q22 0 36.5 -14.5t14.5 -36.5t-14.5 -36.5t-36.5 -14.5h-420v-584q0 -22 -14.5 -36.5t-36.5 -14.5t-36.5 14.5t-14.5 36.5z" />
<glyph unicode="G" horiz-adv-x="1474" d="M123 676q0 142 55 271t148 222t222 148t271 55t270 -54.5t224 -150.5q15 -15 15 -35.5t-15 -35.5t-37 -15t-37 15q-81 81 -190.5 127.5t-229.5 46.5q-161 0 -298 -79.5t-216.5 -216.5t-79.5 -298t79.5 -298t216.5 -216.5t298 -79.5q237 0 410 162v381q0 22 14.5 36.5 t36.5 14.5t36.5 -14.5t14.5 -36.5v-400q0 -25 -16 -41q-97 -97 -225 -150.5t-271 -53.5q-142 0 -271 55t-222 148t-148 222t-55 271z" />
<glyph unicode="H" horiz-adv-x="1802" d="M205 41v1270q0 22 14.5 36.5t36.5 14.5t36.5 -14.5t14.5 -36.5v-533h1188v533q0 22 14.5 36.5t36.5 14.5t36.5 -14.5t14.5 -36.5v-1270q0 -22 -14.5 -36.5t-36.5 -14.5t-36.5 14.5t-14.5 36.5v635h-1188v-635q0 -22 -14.5 -36.5t-36.5 -14.5t-36.5 14.5t-14.5 36.5z" />
<glyph unicode="I" horiz-adv-x="512" d="M205 41v1270q0 22 14.5 36.5t36.5 14.5t36.5 -14.5t14.5 -36.5v-1270q0 -22 -14.5 -36.5t-36.5 -14.5t-36.5 14.5t-14.5 36.5z" />
<glyph unicode="J" horiz-adv-x="512" d="M-25 -524q113 101 171.5 244.5t58.5 379.5v1211q0 22 14.5 36.5t36.5 14.5t36.5 -14.5t14.5 -36.5v-1211q0 -109 -9 -191t-35 -175t-81 -177t-139 -159q-15 -13 -34 -13q-2 0 -4 1q-21 1 -36 18q-13 14 -13 32q0 24 19 40z" />
<glyph unicode="K" horiz-adv-x="1515" d="M205 41v1270q0 22 14.5 36.5t36.5 14.5t36.5 -14.5t14.5 -36.5v-711l942 746q18 14 40.5 15t37.5 -15q13 -18 8.5 -37.5t-20.5 -32.5l-733 -578l258 -288q158 -178 296 -248t287 -70q22 0 37 -14.5t15 -36.5t-15 -36.5t-37 -14.5q-113 0 -210 26t-178.5 78.5t-143 107.5 t-133.5 136l-260 293l-191 -154v-436q0 -22 -14.5 -36.5t-36.5 -14.5t-36.5 14.5t-14.5 36.5z" />
<glyph unicode="L" horiz-adv-x="972" d="M205 51v1260q0 22 14.5 36.5t36.5 14.5t36.5 -13.5t14.5 -35.5v-1211h543q22 0 36.5 -14.5t14.5 -36.5t-14.5 -36.5t-36.5 -14.5h-594q-22 0 -36.5 14.5t-14.5 36.5z" />
<glyph unicode="M" horiz-adv-x="1802" d="M205 41v1270q0 22 14.5 36.5t36.5 14.5q24 0 51 -27l594 -577l594 577q27 27 51 27q22 0 36.5 -14.5t14.5 -36.5v-1270q0 -22 -14.5 -36.5t-36.5 -14.5t-36.5 14.5t-14.5 36.5v1147l-543 -526q-27 -27 -51 -27t-51 27l-543 526v-1147q0 -22 -14.5 -36.5t-36.5 -14.5 t-36.5 14.5t-14.5 36.5z" />
<glyph unicode="N" horiz-adv-x="1802" d="M205 41v1270q0 22 14.5 36.5t36.5 14.5q24 0 51 -27l1188 -1171v1147q0 22 14.5 36.5t36.5 14.5t36.5 -14.5t14.5 -36.5v-1270q0 -22 -14.5 -36.5t-36.5 -14.5q-25 0 -51 26l-1188 1172v-1147q0 -22 -14.5 -36.5t-36.5 -14.5t-36.5 14.5t-14.5 36.5z" />
<glyph unicode="O" horiz-adv-x="1638" d="M123 676q0 142 55 271t148 222t222 148t271 55q189 0 349.5 -93t254 -253.5t93.5 -349.5t-93.5 -349.5t-254 -253.5t-349.5 -93q-142 0 -271 55t-222 148t-148 222t-55 271zM225 676q0 -161 79.5 -298t216.5 -216.5t298 -79.5t298 79.5t216.5 216.5t79.5 298t-79.5 298 t-216.5 216.5t-298 79.5t-298 -79.5t-216.5 -216.5t-79.5 -298z" />
<glyph unicode="P" horiz-adv-x="1136" d="M205 41v1259q0 22 14.5 37t36.5 15h348q168 0 284 -120t116 -290t-116 -290t-284 -120h-297v-493q0 -22 -14.5 -35.5t-36.5 -13.5t-36.5 14.5t-14.5 36.5zM307 635h287q128 0 217.5 89.5t89.5 217.5t-89.5 217.5t-217.5 89.5h-287v-614z" />
<glyph unicode="Q" horiz-adv-x="1638" d="M123 676q0 142 55 271t148 222t222 148t271 55q189 0 349.5 -93t254 -253.5t93.5 -349.5q0 -259 -167.5 -453t-418.5 -233q81 -133 204.5 -226t264.5 -134q108 -32 225 -32q36 0 72 2q155 13 297 83q19 9 38.5 2.5t28.5 -25.5q7 -13 7 -25q0 -8 -3 -15q-6 -21 -26 -30 q-164 -80 -345 -90q-30 -2 -60 -2q-148 0 -284 43q-163 52 -304 166t-228 273q-189 1 -349 94t-252.5 253t-92.5 349zM225 676q0 -161 79.5 -298t216.5 -216.5t298 -79.5t298 79.5t216.5 216.5t79.5 298t-79.5 298t-216.5 216.5t-298 79.5t-298 -79.5t-216.5 -216.5 t-79.5 -298z" />
<glyph unicode="R" horiz-adv-x="1515" d="M205 41v1259q0 22 14.5 37t36.5 15h348q168 0 284 -120t116 -290q0 -140 -80.5 -247t-210.5 -144l127 -141q158 -178 296 -248t287 -70q22 0 37 -14.5t15 -36.5t-15 -36.5t-37 -14.5q-113 0 -210 26t-178.5 78.5t-143 107.5t-133.5 136l-176 194h-275v-493 q0 -22 -14.5 -35.5t-36.5 -13.5t-36.5 14.5t-14.5 36.5zM307 635h287q128 0 217.5 89.5t89.5 217.5t-89.5 217.5t-217.5 89.5h-287v-614z" />
<glyph unicode="S" horiz-adv-x="942" d="M141 186q17 14 38.5 12.5t33.5 -18.5q82 -98 238 -98q113 0 189.5 70t76.5 186q0 60 -24.5 110.5t-65 85t-92 68.5t-105.5 62t-105.5 65.5t-92 78.5t-65 102t-24.5 134q0 142 91.5 235t246.5 93q179 0 289 -125q13 -17 12 -37t-16 -34q-19 -14 -40.5 -12.5t-33.5 18.5 q-76 88 -211 88q-110 0 -172.5 -59t-62.5 -167q0 -58 24.5 -107t65 -82.5t92 -67.5t105 -61.5t105 -66t92 -80t65 -104t24.5 -137.5q0 -158 -106.5 -258t-261.5 -100q-92 0 -177 35.5t-139 99.5q-12 16 -12 35q0 22 18 36z" />
<glyph unicode="T" horiz-adv-x="880" d="M92 1300q0 22 14.5 37t36.5 15h594q22 0 36.5 -15t14.5 -37t-14.5 -36.5t-36.5 -14.5h-245v-1208q0 -22 -15 -36.5t-37 -14.5t-36.5 14.5t-14.5 36.5v1208h-246q-22 0 -36.5 14.5t-14.5 36.5z" />
<glyph unicode="U" horiz-adv-x="1720" d="M164 676v635q0 22 14.5 36.5t36.5 14.5t36.5 -14.5t14.5 -36.5v-635q0 -161 79.5 -298t216.5 -216.5t298 -79.5t298 79.5t216.5 216.5t79.5 298v635q0 22 14.5 36.5t36.5 14.5t36.5 -14.5t14.5 -36.5v-635q0 -142 -55 -271t-148 -222t-222 -148t-271 -55t-271 55 t-222 148t-148 222t-55 271z" />
<glyph unicode="V" horiz-adv-x="1466" d="M45 1328q7 20 27 30q11 5 22 5q9 1 17 -3q19 -8 28 -27l594 -1231l594 1231q9 19 29 27q9 3 17 3q11 0 22 -5q21 -10 27 -30q3 -8 2 -17q0 -12 -5 -23l-606 -1263q-21 -45 -80 -45t-80 45l-606 1263q-5 10 -5 22q0 8 3 18z" />
<glyph unicode="W" horiz-adv-x="1744" d="M176 1311q-1 21 14 36t37 15q21 0 35.5 -14.5t16.5 -36.5l92 -1157l450 536q21 27 51 27q31 0 52 -27l450 -536l92 1157q2 22 16 36.5t36 14.5t37 -15t14 -36l-103 -1270q-2 -22 -16 -36.5t-35 -14.5q-31 0 -51 26l-492 578l-491 -578q-20 -26 -51 -26q-21 0 -35 14.5 t-16 36.5z" />
<glyph unicode="X" horiz-adv-x="1556" d="M82 41q0 21 16 37l607 598l-607 598q-16 16 -16 37q0 22 14.5 36.5t36.5 14.5q24 0 51 -27l594 -587l594 587q27 27 51 27q22 0 37 -14.5t15 -36.5q0 -20 -17 -37l-606 -598l606 -598q17 -17 17 -37q0 -22 -15 -36.5t-37 -14.5q-25 0 -51 26l-594 586l-594 -586 q-26 -26 -51 -26q-22 0 -36.5 14.5t-14.5 36.5z" />
<glyph unicode="Y" horiz-adv-x="1433" d="M20 1311q0 22 15 36.5t37 14.5q24 0 51 -27l594 -587l594 587q27 27 51 27q22 0 36.5 -14.5t14.5 -36.5q0 -21 -16 -37l-629 -621v-612q0 -22 -14.5 -36.5t-36.5 -14.5t-36.5 14.5t-14.5 36.5v612l-629 621q-17 17 -17 37z" />
<glyph unicode="Z" horiz-adv-x="1460" d="M61 51q0 24 27 51l1096 1147h-969q-22 0 -36.5 14.5t-14.5 36.5t14.5 37t36.5 15h1092q22 0 36.5 -15t14.5 -37q0 -24 -27 -51l-1095 -1147h1112q22 0 36.5 -14.5t14.5 -36.5t-14.5 -36.5t-36.5 -14.5h-1235q-22 0 -37 14.5t-15 36.5z" />
<glyph unicode="[" horiz-adv-x="645" d="M205 -256v1864q0 22 14.5 36.5t36.5 14.5h246q22 0 36.5 -13.5t14.5 -35.5t-14.5 -35.5t-36.5 -13.5h-195v-1770h195q22 0 36.5 -13.5t14.5 -35.5t-14.5 -35.5t-36.5 -13.5h-246q-22 0 -36.5 14.5t-14.5 36.5z" />
<glyph unicode="\" horiz-adv-x="811" d="M137 1303q-6 23 3 43t30 24q50 10 72 -49l430 -1272q7 -23 -2 -42.5t-29 -24.5q-28 -7 -47 6.5t-27 42.5z" />
<glyph unicode="]" horiz-adv-x="645" d="M92 -258q0 22 14.5 35.5t36.5 13.5h195v1770h-195q-22 0 -36.5 13.5t-14.5 35.5t14.5 35.5t36.5 13.5h246q22 0 36.5 -14.5t14.5 -36.5v-1864q0 -22 -14.5 -36.5t-36.5 -14.5h-246q-22 0 -36.5 13.5t-14.5 35.5z" />
<glyph unicode="^" horiz-adv-x="704" d="M102 666q0 19 17 36l184 187q26 26 51 26q26 0 52 -26l180 -187q16 -16 16 -36q0 -22 -14.5 -37t-36.5 -15q-24 0 -51 27l-148 152l-147 -152q-27 -27 -51 -27q-22 0 -37 15t-15 37z" />
<glyph unicode="_" horiz-adv-x="1118" d="M176 -174q0 22 14.5 36.5t36.5 14.5h664q22 0 36.5 -14.5t14.5 -36.5t-14.5 -36.5t-36.5 -14.5h-664q-22 0 -36.5 14.5t-14.5 36.5z" />
<glyph unicode="`" horiz-adv-x="520" d="M102 1174q0 22 15 36.5t37 14.5q24 0 51 -27l196 -188q17 -17 17 -37q0 -22 -14.5 -36.5t-36.5 -14.5q-26 0 -52 26l-196 189q-17 17 -17 37z" />
<glyph unicode="a" horiz-adv-x="931" d="M82 236q0 104 83 174.5t224 70.5q185 0 313 -51h5v143q0 164 -244 164q-70 0 -143 -23t-123 -63q-15 -14 -37 -12.5t-35 18.5t-11 37.5t17 34.5q64 54 152 82.5t180 28.5q156 0 251 -70t95 -197v-532q0 -22 -14.5 -36.5t-36.5 -14.5t-36.5 14.5t-14.5 36.5v72h-5 q-54 -59 -138.5 -96t-184.5 -37q-151 0 -224 73t-73 183zM184 236q0 -164 205 -164q71 0 157 29.5t161 82.5v174q-22 2 -83 11.5t-116 14.5t-119 5q-108 0 -156.5 -42.5t-48.5 -110.5z" />
<glyph unicode="b" horiz-adv-x="1013" d="M123 41v1270q0 22 14.5 36.5t36.5 14.5t36.5 -14.5t14.5 -36.5v-604h4q122 133 303 133q174 0 287 -125t113 -305q0 -181 -108 -305.5t-281 -124.5q-99 0 -179 36.5t-135 96.5h-4v-72q0 -22 -14.5 -36.5t-36.5 -14.5t-36.5 14.5t-14.5 36.5zM215 410q0 -142 82.5 -235 t224.5 -93t224.5 93t82.5 235t-82.5 234.5t-224.5 92.5t-224.5 -92.5t-82.5 -234.5z" />
<glyph unicode="c" horiz-adv-x="925" d="M82 410q0 178 126 304t304 126q92 0 181 -28.5t153 -82.5q15 -15 17 -35v-5q0 -17 -11 -32q-13 -17 -34 -18t-38 12q-114 86 -268 86q-144 0 -236 -93.5t-92 -233.5t92 -234t236 -94q154 0 268 86q17 13 38 12t34 -18q11 -15 11 -32v-6q-2 -20 -17 -34 q-64 -54 -152.5 -82t-181.5 -28q-178 0 -304 126t-126 304z" />
<glyph unicode="d" horiz-adv-x="1034" d="M82 410q0 180 112.5 305t286.5 125q181 0 303 -133h4v604q0 22 15 36.5t37 14.5t36.5 -14.5t14.5 -36.5v-1270q0 -22 -14.5 -36.5t-36.5 -14.5t-37 14.5t-15 36.5v72h-4q-122 -133 -313 -133q-173 0 -281 124.5t-108 305.5zM184 410q0 -142 83 -235t225 -93t224.5 93 t82.5 235t-82.5 234.5t-224.5 92.5t-225 -92.5t-83 -234.5z" />
<glyph unicode="e" horiz-adv-x="962" d="M82 410q0 178 126 304t304 126q176 0 277.5 -109.5t101.5 -290.5q0 -22 -14.5 -36.5t-36.5 -14.5h-656q8 -133 98.5 -220t229.5 -87q154 0 268 86q17 13 38 12t34 -18t11 -37.5t-17 -34.5q-64 -54 -152.5 -82t-181.5 -28q-178 0 -304 126t-126 304zM195 492h573 q-8 113 -71.5 179t-184.5 66q-122 0 -207 -67.5t-110 -177.5z" />
<glyph unicode="f" horiz-adv-x="573" d="M51 768q0 22 14.5 36.5t36.5 14.5h93v256q0 74 18 128t44.5 84t65.5 47.5t73 22.5t75 5q22 0 36.5 -14.5t14.5 -36.5t-14.5 -36.5t-36.5 -14.5q-41 0 -68.5 -6t-53.5 -24.5t-39 -57t-13 -97.5v-256h174q22 0 36.5 -14.5t14.5 -36.5t-14.5 -36.5t-36.5 -14.5h-174v-676 q0 -22 -14.5 -36.5t-36.5 -14.5t-36.5 14.5t-14.5 36.5v676h-93q-22 0 -36.5 14.5t-14.5 36.5z" />
<glyph unicode="g" horiz-adv-x="1034" d="M82 410q0 179 111 304.5t278 125.5q191 0 313 -133h4v71q0 22 15 36.5t37 14.5t36.5 -14.5t14.5 -36.5v-819q0 -117 -57.5 -216t-156.5 -156.5t-216 -57.5q-92 0 -181 28.5t-153 82.5q-15 14 -17 33.5t11 37.5q13 17 34 18t38 -12q114 -86 268 -86q144 0 235.5 94 t91.5 234v154h-4q-122 -133 -313 -133q-173 0 -281 124.5t-108 305.5zM184 410q0 -142 83 -235t225 -93t224.5 93t82.5 235t-82.5 234.5t-224.5 92.5t-225 -92.5t-83 -234.5z" />
<glyph unicode="h" horiz-adv-x="1075" d="M143 41v1270q0 22 15 36.5t37 14.5t36.5 -14.5t14.5 -36.5v-635h4q99 164 323 164q181 0 280 -117t99 -313v-369q0 -22 -14.5 -36.5t-36.5 -14.5t-36.5 14.5t-14.5 36.5v369q0 156 -76 241.5t-221 85.5q-142 0 -224.5 -92.5t-82.5 -234.5v-369q0 -22 -14.5 -36.5 t-36.5 -14.5t-37 14.5t-15 36.5z" />
<glyph unicode="i" horiz-adv-x="389" d="M131 1071q0 28 19 47t45 19q28 0 46.5 -19t18.5 -47q0 -26 -18.5 -44.5t-46.5 -18.5q-26 0 -45 18.5t-19 44.5zM143 41v737q0 22 15 36.5t37 14.5t36.5 -14.5t14.5 -36.5v-737q0 -22 -14.5 -36.5t-36.5 -14.5t-37 14.5t-15 36.5z" />
<glyph unicode="j" horiz-adv-x="389" d="M-86 -381q74 66 121.5 142t77.5 198.5t30 284.5v534q0 22 15 36.5t37 14.5t36.5 -14.5t14.5 -36.5v-534q0 -86 -5 -152.5t-21 -144.5t-44 -143t-77 -133.5t-117 -129.5q-15 -13 -34 -13h-4q-21 2 -36 19q-13 14 -13 32q0 24 19 40zM131 1071q0 28 19 47t45 19 q28 0 46.5 -19t18.5 -47q0 -26 -18.5 -44.5t-46.5 -18.5q-26 0 -45 18.5t-19 44.5z" />
<glyph unicode="k" horiz-adv-x="876" d="M143 41v1270q0 22 15 36.5t37 14.5t36.5 -14.5t14.5 -36.5v-850h186l281 342q20 26 51 26q22 0 36.5 -14.5t14.5 -36.5q0 -21 -16 -37l-277 -331l277 -332q16 -16 16 -37q0 -22 -14.5 -36.5t-36.5 -14.5q-31 0 -51 26l-283 342h-184v-317q0 -22 -14.5 -36.5t-36.5 -14.5 t-37 14.5t-15 36.5z" />
<glyph unicode="l" horiz-adv-x="522" d="M143 276v1035q0 22 15 36.5t37 14.5t36.5 -14.5t14.5 -36.5v-1035q0 -59 13 -97.5t39 -56.5t53.5 -24t68.5 -6q22 0 36.5 -14.5t14.5 -36.5t-14.5 -36.5t-36.5 -14.5q-41 0 -75 5t-73.5 22.5t-66 47t-44.5 83.5t-18 128z" />
<glyph unicode="m" horiz-adv-x="1781" d="M143 41v737q0 22 15 36.5t37 14.5t36.5 -14.5t14.5 -36.5v-102h4q99 164 323 164q123 0 209.5 -56.5t128.5 -158.5h9q55 89 115 137.5t114 63t131 14.5q181 0 280 -117t99 -313v-369q0 -22 -14.5 -36.5t-36.5 -14.5t-37 14.5t-15 36.5v369q0 156 -75.5 241.5t-220.5 85.5 q-142 0 -225 -92.5t-83 -234.5v-369q0 -22 -14.5 -36.5t-36.5 -14.5t-36.5 14.5t-14.5 36.5v369q0 156 -76 241.5t-221 85.5q-142 0 -224.5 -92.5t-82.5 -234.5v-369q0 -22 -14.5 -36.5t-36.5 -14.5t-37 14.5t-15 36.5z" />
<glyph unicode="n" horiz-adv-x="1075" d="M143 41v737q0 22 15 36.5t37 14.5t36.5 -14.5t14.5 -36.5v-102h4q99 164 323 164q181 0 280 -117t99 -313v-369q0 -22 -14.5 -36.5t-36.5 -14.5t-36.5 14.5t-14.5 36.5v369q0 156 -76 241.5t-221 85.5q-142 0 -224.5 -92.5t-82.5 -234.5v-369q0 -22 -14.5 -36.5 t-36.5 -14.5t-37 14.5t-15 36.5z" />
<glyph unicode="o" d="M82 410q0 178 126 304t304 126t304 -126t126 -304t-126 -304t-304 -126t-304 126t-126 304zM184 410q0 -140 92 -234t236 -94t236 94t92 234t-92 233.5t-236 93.5t-236 -93.5t-92 -233.5z" />
<glyph unicode="p" horiz-adv-x="1034" d="M143 -420v1198q0 22 15 36.5t37 14.5t36.5 -14.5t14.5 -36.5v-71h4q122 133 313 133q173 0 281 -124.5t108 -305.5q0 -180 -112.5 -305t-286.5 -125q-181 0 -303 133h-4v-533q0 -22 -14.5 -36.5t-36.5 -14.5t-37 14.5t-15 36.5zM236 410q0 -142 82.5 -235t224.5 -93 t224.5 93t82.5 235t-82.5 234.5t-224.5 92.5t-224.5 -92.5t-82.5 -234.5z" />
<glyph unicode="q" horiz-adv-x="1034" d="M82 410q0 181 108 305.5t281 124.5q191 0 313 -133h4v71q0 22 15 36.5t37 14.5t36.5 -14.5t14.5 -36.5v-1198q0 -22 -14.5 -36.5t-36.5 -14.5t-37 14.5t-15 36.5v533h-4q-122 -133 -303 -133q-174 0 -286.5 125t-112.5 305zM184 410q0 -142 83 -235t225 -93t224.5 93 t82.5 235t-82.5 234.5t-224.5 92.5t-225 -92.5t-83 -234.5z" />
<glyph unicode="r" horiz-adv-x="598" d="M143 41v737q0 22 15 36.5t37 14.5t36.5 -14.5t14.5 -36.5v-71h4q95 122 235 122q22 0 37 -14.5t15 -36.5t-15 -36.5t-37 -14.5q-239 0 -239 -287v-399q0 -22 -14.5 -36.5t-36.5 -14.5t-37 14.5t-15 36.5z" />
<glyph unicode="s" horiz-adv-x="870" d="M73 124v6q0 17 11 32q13 17 35 18.5t37 -12.5q50 -40 123 -63t143 -23q77 0 133.5 14.5t93.5 52.5t37 97q0 36 -21.5 62t-66 41.5t-82.5 23.5t-100 16q-58 8 -101.5 18t-86 27.5t-70 41t-44 58.5t-16.5 80q0 108 85 167t243 59q92 0 181 -28.5t153 -82.5q15 -14 17 -34.5 t-11 -37.5t-35 -18.5t-37 12.5q-48 39 -132 62.5t-156 23.5q-205 0 -205 -123q0 -18 5 -33.5t17 -27.5t24 -21t34 -16.5t38 -12.5t46 -10t48 -7.5t52.5 -7t52.5 -7.5q121 -16 195.5 -73t74.5 -152q0 -126 -103.5 -196t-262.5 -70q-92 0 -180 28t-152 82q-15 14 -17 34z" />
<glyph unicode="t" horiz-adv-x="593" d="M51 768q0 22 14.5 36.5t36.5 14.5h93v266q0 22 14.5 37t36.5 15t36.5 -15t14.5 -37v-266h174q22 0 36.5 -14.5t14.5 -36.5t-14.5 -36.5t-36.5 -14.5h-174v-441q0 -59 13 -97.5t39 -56.5t53.5 -24t68.5 -6q22 0 36.5 -14.5t14.5 -36.5t-14.5 -36.5t-36.5 -14.5 q-41 0 -75 5t-73 22.5t-65.5 47t-44.5 83.5t-18 128v441h-93q-22 0 -36.5 14.5t-14.5 36.5z" />
<glyph unicode="u" horiz-adv-x="1075" d="M123 410v368q0 22 14.5 36.5t36.5 14.5t36.5 -14.5t14.5 -36.5v-368q0 -156 76 -242t221 -86q142 0 224.5 93t82.5 235v368q0 22 15 36.5t37 14.5t36.5 -14.5t14.5 -36.5v-737q0 -22 -14.5 -36.5t-36.5 -14.5t-37 14.5t-15 36.5v102h-4q-98 -163 -323 -163 q-181 0 -280 117t-99 313z" />
<glyph unicode="v" horiz-adv-x="933" d="M61 784q0 21 13 33t35 12q39 0 55 -34l303 -689l303 689q14 34 55 34q47 0 47 -45q0 -19 -12 -43l-317 -706q-21 -45 -76 -45t-76 45l-317 706q-13 26 -13 43z" />
<glyph unicode="w" horiz-adv-x="1351" d="M61 784q0 21 13 33t35 12q42 0 55 -34l258 -678l199 674q10 38 55 38q44 0 55 -38l199 -674l258 678q13 34 55 34q47 0 47 -45q0 -13 -10 -43l-279 -702q-19 -49 -75 -49q-22 0 -45 11t-31 38l-174 584l-174 -584q-8 -27 -31 -38t-45 -11q-57 0 -76 49l-278 702 q-11 33 -11 43z" />
<glyph unicode="x" horiz-adv-x="856" d="M61 41q0 20 17 37l276 332l-276 331q-17 17 -17 37q0 22 15 36.5t37 14.5q31 0 51 -26l264 -322l264 322q20 26 51 26q22 0 37 -14.5t15 -36.5q0 -20 -17 -37l-276 -331l276 -332q17 -17 17 -37q0 -22 -15 -36.5t-37 -14.5q-31 0 -51 26l-264 320l-264 -320 q-20 -26 -51 -26q-22 0 -37 14.5t-15 36.5z" />
<glyph unicode="y" horiz-adv-x="1075" d="M123 410v368q0 22 14.5 36.5t36.5 14.5t36.5 -14.5t14.5 -36.5v-368q0 -156 76 -242t221 -86q142 0 224.5 93t82.5 235v368q0 22 15 36.5t37 14.5t36.5 -14.5t14.5 -36.5v-819q0 -179 -126 -304.5t-304 -125.5q-92 0 -181 28.5t-153 82.5q-15 14 -17 33.5t11 37.5 q13 17 33.5 18t37.5 -12q114 -86 269 -86q144 0 235.5 94t91.5 234v184h-4q-98 -163 -323 -163q-181 0 -280 117t-99 313z" />
<glyph unicode="z" horiz-adv-x="849" d="M61 51q0 24 27 51l530 619h-501q-22 0 -36.5 13.5t-14.5 35.5t14.5 35.5t36.5 13.5h604q22 0 36.5 -14.5t14.5 -36.5q0 -24 -27 -51l-526 -619h518q22 0 36.5 -13.5t14.5 -35.5t-14.5 -35.5t-36.5 -13.5h-624q-22 0 -37 14.5t-15 36.5z" />
<glyph unicode="{" horiz-adv-x="837" d="M72 674q0 22 14.5 36.5t36.5 14.5h82q92 0 151.5 62t59.5 153q0 109 9 191t35 175t81 177t139 159q17 14 38 12.5t36 -18.5q14 -15 12.5 -35.5t-18.5 -35.5q-113 -101 -171.5 -244.5t-58.5 -380.5q0 -85 -40.5 -156t-108.5 -110q69 -39 109 -106.5t40 -151.5 q0 -237 58.5 -380.5t171.5 -244.5q17 -15 18.5 -36t-12.5 -36q-15 -17 -36 -18.5t-38 12.5q-68 61 -117 129.5t-77 133.5t-44 143t-21 144.5t-5 152.5q0 90 -59 148.5t-152 58.5h-82q-22 0 -36.5 14.5t-14.5 36.5z" />
<glyph unicode="|" horiz-adv-x="512" d="M205 -164v1680q0 22 14.5 36.5t36.5 14.5t36.5 -14.5t14.5 -36.5v-1680q0 -22 -14.5 -36.5t-36.5 -14.5t-36.5 14.5t-14.5 36.5z" />
<glyph unicode="}" horiz-adv-x="837" d="M71.5 -245q1.5 21 18.5 36q74 66 121.5 142t77.5 198.5t30 284.5q0 84 40.5 151.5t109.5 106.5q-68 39 -109 110t-41 156q0 162 -30 284.5t-77.5 198.5t-121.5 142q-17 15 -18.5 35.5t12.5 35.5q15 17 36 18.5t38 -12.5q84 -75 139 -159t81 -177t35 -175t9 -191 q0 -91 59.5 -153t151.5 -62h82q22 0 36.5 -14.5t14.5 -36.5t-14.5 -36.5t-36.5 -14.5h-82q-93 0 -152 -58.5t-59 -148.5q0 -86 -5 -152.5t-21 -144.5t-44 -143t-77 -133.5t-117 -129.5q-17 -14 -38 -12.5t-36 18.5q-14 15 -12.5 36z" />
<glyph unicode="~" horiz-adv-x="833" d="M105 648.5q-5 20.5 6 39.5q45 75 68 98q68 66 187 16q35 -15 76 -40q52 -31 86.5 -35t57.5 14t49 62q10 18 30.5 22.5t39.5 -6.5q19 -10 24 -30t-6 -39q-46 -77 -71 -100q-72 -67 -199 -8q-29 14 -62 34q-52 31 -86.5 35t-57 -14t-48.5 -62q-10 -18 -30.5 -23t-39.5 6 q-19 10 -24 30.5z" />
<glyph unicode="&#xa1;" horiz-adv-x="512" d="M195 840q0 26 17.5 43.5t43.5 17.5t43.5 -17.5t17.5 -43.5t-17.5 -44t-43.5 -18t-43.5 18t-17.5 44zM205 -420v1024q0 22 14.5 36.5t36.5 14.5t36.5 -14.5t14.5 -36.5v-1024q0 -22 -14.5 -36.5t-36.5 -14.5t-36.5 14.5t-14.5 36.5z" />
<glyph unicode="&#xa2;" horiz-adv-x="999" d="M102 410q0 163 109 285t270 141v198q0 22 14.5 36.5t36.5 14.5t37 -14.5t15 -36.5v-196q171 -17 282 -109q15 -14 17 -34.5t-11 -37.5t-33.5 -18t-37.5 12q-114 86 -269 86q-144 0 -235.5 -93.5t-91.5 -233.5t91.5 -234t235.5 -94q155 0 269 86q17 13 37.5 12t33.5 -18 t11 -37.5t-17 -34.5q-110 -91 -282 -108v-197q0 -22 -15 -36.5t-37 -14.5t-36.5 14.5t-14.5 36.5v199q-161 19 -270 140t-109 286z" />
<glyph unicode="&#xa3;" horiz-adv-x="1146" d="M164 51q0 22 14.5 36.5t36.5 14.5h102v492h-100q-22 0 -36.5 14.5t-14.5 36.5t14.5 36.5t36.5 14.5h100v348q0 142 91.5 235t246.5 93q179 0 289 -125q13 -17 12 -37t-16 -34q-19 -14 -40.5 -12.5t-33.5 18.5q-76 88 -211 88q-110 0 -172.5 -59t-62.5 -167v-348h237 q22 0 37 -14.5t15 -36.5t-15 -36.5t-37 -14.5h-237v-492h512q22 0 36.5 -14.5t14.5 -36.5t-14.5 -36.5t-36.5 -14.5h-717q-22 0 -36.5 14.5t-14.5 36.5z" />
<glyph unicode="&#xa4;" horiz-adv-x="1050" d="M143 928l17 16l162 -184q90 74 204 74q113 0 203 -74l160 184l18 -16l-159 -183q102 -96 102 -235q0 -68 -26.5 -129t-73.5 -105l155 -176l-18 -18l-158 178q-88 -72 -203 -72q-116 0 -204 72l-156 -178l-19 18l156 176q-98 95 -98 234q0 138 98 233zM229 510 q0 -122 87.5 -209.5t209.5 -87.5t210.5 88t88.5 209q0 122 -88.5 210.5t-210.5 88.5q-121 0 -209 -88.5t-88 -210.5z" />
<glyph unicode="&#xa5;" horiz-adv-x="1441" d="M23 1311q0 22 14.5 36.5t36.5 14.5q24 0 51 -27l594 -587l594 587q27 27 51 27q22 0 36.5 -14.5t14.5 -36.5q0 -21 -16 -37l-629 -621h307q22 0 36.5 -14.5t14.5 -36.5t-14.5 -36.5t-36.5 -14.5h-307v-510q0 -22 -14.5 -36.5t-36.5 -14.5t-36.5 14.5t-14.5 36.5v510h-308 q-22 0 -36.5 14.5t-14.5 36.5t14.5 36.5t36.5 14.5h308l-629 621q-16 16 -16 37z" />
<glyph unicode="&#xa6;" horiz-adv-x="512" d="M205 -164v635q0 22 14.5 36.5t36.5 14.5t36.5 -14.5t14.5 -36.5v-635q0 -22 -14.5 -36.5t-36.5 -14.5t-36.5 14.5t-14.5 36.5zM205 881v635q0 22 14.5 36.5t36.5 14.5t36.5 -14.5t14.5 -36.5v-635q0 -22 -14.5 -37t-36.5 -15t-36.5 15t-14.5 37z" />
<glyph unicode="&#xa7;" horiz-adv-x="1048" d="M164 -52q1 21 18 34q17 14 38.5 12t33.5 -19q83 -90 199 -96q122 -9 208 58t95 190q4 56 -14 103.5t-52 82t-79.5 65.5t-95.5 59t-100.5 56.5t-95 64.5t-78 77.5t-51 100t-12.5 128.5q6 118 74 195q-61 90 -53 215q11 151 113 232t272 69q148 -9 247 -123 q13 -17 12 -37.5t-16 -34.5q-19 -14 -40 -12.5t-33 18.5q-74 80 -179 89q-111 6 -186.5 -44.5t-81.5 -152.5q-6 -75 24.5 -134t83 -99.5t117.5 -77t129.5 -76t116.5 -85.5t82 -117t23 -161q-9 -115 -70 -198q57 -90 49 -211q-12 -170 -131.5 -262t-286.5 -80 q-157 9 -268 133q-13 17 -12 38zM287 868q-5 -61 15 -111.5t54 -85t84 -69t98 -59.5t104.5 -60.5t94.5 -68.5q34 59 39 123q5 69 -22.5 123.5t-80 95.5t-108 72.5t-125.5 72.5t-114 78q-36 -46 -39 -111z" />
<glyph unicode="&#xa8;" horiz-adv-x="735" d="M102 1001q0 34 23 58t57 24t58 -24t24 -58q0 -33 -24 -56t-58 -23t-57 22.5t-23 56.5zM471 1001q0 34 23 58t57 24t58 -24t24 -58q0 -33 -24 -56t-58 -23t-57 22.5t-23 56.5z" />
<glyph unicode="&#xa9;" horiz-adv-x="1638" d="M123 676q0 142 55 271t148 222t222 148t271 55q189 0 349.5 -93t254 -253.5t93.5 -349.5t-93.5 -349.5t-254 -253.5t-349.5 -93q-142 0 -271 55t-222 148t-148 222t-55 271zM225 676q0 -161 79.5 -298t216.5 -216.5t298 -79.5t298 79.5t216.5 216.5t79.5 298t-79.5 298 t-216.5 216.5t-298 79.5t-298 -79.5t-216.5 -216.5t-79.5 -298zM485 676q0 149 105 253.5t254 104.5q150 0 254 -104q15 -15 15 -36t-15 -36t-37 -16t-37 14q-76 76 -180 76q-106 0 -181 -75t-75 -181t75 -181t181 -75q108 0 182 74q15 15 36 15t36 -15t15 -36t-15 -36 q-105 -105 -254 -105t-254 105t-105 254z" />
<glyph unicode="&#xaa;" horiz-adv-x="641" d="M102 993q0 63 47.5 105.5t131.5 42.5q113 0 194 -31h2v86q0 98 -145 98q-97 0 -160 -51q-9 -9 -22 -8t-21 12q-19 19 4 43q78 66 199 66q93 0 150 -42t57 -118v-319q0 -12 -9 -21.5t-22 -9.5q-12 0 -21.5 9.5t-9.5 21.5v43h-2q-32 -35 -86 -57.5t-115 -22.5 q-90 0 -131 43t-41 110zM164 993q0 -92 123 -92q102 0 190 62v104q-106 12 -190 12q-123 0 -123 -86z" />
<glyph unicode="&#xab;" horiz-adv-x="1204" d="M203 502q0 25 26 51l289 287q16 16 37 16q22 0 36.5 -14.5t14.5 -36.5q0 -25 -26 -51l-254 -250l254 -250q26 -26 26 -51q0 -22 -14.5 -36.5t-36.5 -14.5q-21 0 -37 16l-289 283q-26 26 -26 51zM612 502q0 24 27 51l289 287q16 16 37 16q22 0 36.5 -14.5t14.5 -36.5 q0 -24 -27 -51l-254 -250l254 -250q27 -27 27 -51q0 -22 -14.5 -36.5t-36.5 -14.5q-21 0 -37 16l-289 283q-27 27 -27 51z" />
<glyph unicode="&#xac;" horiz-adv-x="1413" d="M205 770q0 22 14.5 35.5t36.5 13.5h901q22 0 36.5 -14.5t14.5 -36.5v-389q0 -22 -14.5 -36.5t-36.5 -14.5t-36.5 13.5t-14.5 35.5v344h-850q-22 0 -36.5 13.5t-14.5 35.5z" />
<glyph unicode="&#xad;" horiz-adv-x="1118" d="M176 502q0 22 14.5 36.5t36.5 14.5h664q22 0 36.5 -14.5t14.5 -36.5t-14.5 -36.5t-36.5 -14.5h-664q-22 0 -36.5 14.5t-14.5 36.5z" />
<glyph unicode="&#xae;" horiz-adv-x="1638" d="M123 676q0 142 55 271t148 222t222 148t271 55q189 0 349.5 -93t254 -253.5t93.5 -349.5t-93.5 -349.5t-254 -253.5t-349.5 -93q-142 0 -271 55t-222 148t-148 222t-55 271zM225 676q0 -161 79.5 -298t216.5 -216.5t298 -79.5t298 79.5t216.5 216.5t79.5 298t-79.5 298 t-216.5 216.5t-298 79.5t-298 -79.5t-216.5 -216.5t-79.5 -298zM532 375v598q0 22 15 36.5t37 14.5h319q93 0 158 -61t65 -152q0 -80 -51 -137.5t-129 -71.5l187 -196q14 -14 16 -35t-12 -35q-15 -15 -40 -12t-40 20l-242 254h-180v-225q0 -22 -14.5 -35.5t-36.5 -13.5 t-37 14.5t-15 36.5zM635 696h268q54 0 87.5 32.5t33.5 82.5t-33.5 82.5t-87.5 32.5h-268v-230z" />
<glyph unicode="&#xaf;" horiz-adv-x="765" d="M102 1014q0 22 15 36.5t37 14.5h458q22 0 37 -14.5t15 -36.5t-15 -36.5t-37 -14.5h-458q-22 0 -37 14.5t-15 36.5z" />
<glyph unicode="&#xb0;" horiz-adv-x="647" d="M102 1149q0 91 65.5 156t156.5 65t156 -65t65 -156t-65 -156t-156 -65t-156.5 65t-65.5 156zM180 1149q0 -60 42 -101.5t102 -41.5t101.5 41.5t41.5 101.5t-41.5 101.5t-101.5 41.5t-102 -41.5t-42 -101.5z" />
<glyph unicode="&#xb1;" horiz-adv-x="1118" d="M176 92q0 22 14.5 36.5t36.5 14.5h664q22 0 36.5 -14.5t14.5 -36.5t-14.5 -36.5t-36.5 -14.5h-664q-22 0 -36.5 14.5t-14.5 36.5zM176 645q0 22 14.5 36.5t36.5 14.5h281v281q0 22 14.5 36.5t36.5 14.5t36.5 -14.5t14.5 -36.5v-281h281q22 0 36.5 -14.5t14.5 -36.5 t-14.5 -36.5t-36.5 -14.5h-281v-281q0 -22 -14.5 -36.5t-36.5 -14.5t-36.5 14.5t-14.5 36.5v281h-281q-22 0 -36.5 14.5t-14.5 36.5z" />
<glyph unicode="&#xb2;" horiz-adv-x="634" d="M102 973v151q0 53 19 95t50 69.5t68 51t74.5 46t68.5 47t50 61.5t19 83q0 55 -35.5 91t-91.5 36q-83 0 -127 -53q-8 -9 -20 -10t-23 6q-9 9 -10 21.5t6 21.5q66 75 174 75q78 0 133 -55t55 -133q0 -54 -19 -97t-49.5 -71.5t-67 -53t-73 -47t-67 -47t-49.5 -60t-19 -79.5 v-121h334q12 0 21 -8.5t9 -21.5q0 -12 -9 -20.5t-21 -8.5h-369q-12 0 -21.5 9.5t-9.5 21.5z" />
<glyph unicode="&#xb3;" horiz-adv-x="675" d="M105 1016.5q-1 12.5 6 21.5q9 10 21.5 11t21.5 -7q71 -51 161 -51q87 0 142 56.5t55 140.5t-55 140t-142 56h-49q-12 0 -21 9.5t-9 21.5t9 21.5t21 9.5h49q56 0 91.5 38t35.5 93t-35.5 91t-91.5 36q-83 0 -127 -53q-8 -9 -20 -10t-23 6q-9 9 -10 21.5t6 21.5 q66 75 174 75q78 0 133.5 -55t55.5 -133q0 -50 -24.5 -91t-65.5 -65q71 -28 115 -91t44 -142q0 -107 -75.5 -182.5t-182.5 -75.5q-120 0 -200 65q-9 9 -10 21.5z" />
<glyph unicode="&#xb4;" horiz-adv-x="520" d="M102 973q0 20 17 37l196 188q27 27 52 27q22 0 36.5 -14.5t14.5 -36.5q0 -20 -17 -37l-196 -189q-26 -26 -51 -26q-22 0 -37 14.5t-15 36.5z" />
<glyph unicode="&#xb5;" horiz-adv-x="1044" d="M-104.5 -417q1.5 21 18.5 36q74 66 121.5 142t77.5 198.5t30 284.5v534q0 22 15 36.5t37 14.5t36.5 -14.5t14.5 -36.5v-385q3 -148 79.5 -229.5t217.5 -81.5q142 0 224.5 93t82.5 235v368q0 22 14.5 36.5t36.5 14.5t36.5 -14.5t14.5 -36.5v-737q0 -22 -14.5 -36.5 t-36.5 -14.5t-36.5 14.5t-14.5 36.5v102h-4q-98 -163 -324 -163q-180 0 -282 118q-12 -167 -69 -302.5t-189 -254.5q-17 -14 -38 -12.5t-36 18.5q-14 15 -12.5 36z" />
<glyph unicode="&#xb6;" horiz-adv-x="1126" d="M164 942q0 170 115.5 290t283.5 120h144q22 0 36.5 -15t14.5 -37v-1259q0 -22 -14.5 -36.5t-36.5 -14.5t-37 14t-15 35v493h-92q-168 0 -283.5 120t-115.5 290zM860 41v1259q0 22 14.5 37t36.5 15t37 -15t15 -37v-1259q0 -22 -15 -36.5t-37 -14.5t-36.5 14.5t-14.5 36.5z " />
<glyph unicode="&#xb7;" horiz-adv-x="409" d="M102 707q0 43 30 72.5t73 29.5t72.5 -29.5t29.5 -72.5t-29.5 -73t-72.5 -30t-73 30t-30 73z" />
<glyph unicode="&#xb8;" horiz-adv-x="589" d="M174 -406q-8 22 0.5 39t30.5 21q76 18 101 66q22 41 -15 67q-17 12 -45 16q-23 3 -32 17t-9 41v139h82v-123q54 -7 87 -37t36.5 -69t-11.5 -79.5t-57 -73t-100 -44.5q-54 -11 -68 20z" />
<glyph unicode="&#xb9;" horiz-adv-x="663" d="M102 973q0 12 9 21.5t22 9.5h172v688h-147q-12 0 -21.5 9t-9.5 21t9.5 21.5t21.5 9.5h178q13 0 22 -9.5t9 -21.5v-718h163q13 0 22 -9.5t9 -21.5t-9 -21.5t-22 -9.5h-397q-13 0 -22 9.5t-9 21.5z" />
<glyph unicode="&#xba;" horiz-adv-x="720" d="M102 1098q0 107 75.5 182.5t182.5 75.5t182.5 -75.5t75.5 -182.5t-75.5 -182.5t-182.5 -75.5t-182.5 75.5t-75.5 182.5zM164 1098q0 -84 54.5 -140.5t141.5 -56.5t142 56.5t55 140.5t-55 140t-142 56t-141.5 -56t-54.5 -140z" />
<glyph unicode="&#xbb;" horiz-adv-x="1204" d="M205 203q0 25 26 51l254 250l-254 250q-26 26 -26 51q0 22 14.5 36.5t36.5 14.5q21 0 37 -16l289 -287q26 -26 26 -51t-26 -51l-289 -283q-16 -16 -37 -16q-22 0 -36.5 14.5t-14.5 36.5zM614 203q0 24 27 51l254 250l-254 250q-27 27 -27 51q0 22 15 36.5t37 14.5 q20 0 36 -16l289 -287q27 -27 27 -51t-27 -51l-289 -283q-16 -16 -36 -16q-22 0 -37 14.5t-15 36.5z" />
<glyph unicode="&#xbc;" horiz-adv-x="1843" d="M102 563q0 12 9 21.5t22 9.5h172v688h-147q-12 0 -21.5 9.5t-9.5 21.5t9.5 21t21.5 9h178q13 0 22 -9t9 -21v-719h163q13 0 22 -9.5t9 -21.5t-9 -21.5t-22 -9.5h-397q-13 0 -22 9.5t-9 21.5zM694 23l447 1318q14 36 43 31q12 -3 17.5 -15.5t2.5 -25.5l-446 -1321 q-11 -37 -45 -28q-12 3 -17.5 15.5t-1.5 25.5zM1221 209q0 19 8 35l239 530q14 37 39 37q29 0 29 -29q0 -17 -10 -37l-228 -505h273v184q0 12 9.5 21.5t21.5 9.5t21 -9.5t9 -21.5v-184h78q13 0 22 -9.5t9 -21.5t-9 -21.5t-22 -9.5h-78v-160q0 -12 -9 -21t-21 -9t-21.5 9 t-9.5 21v160h-318q-13 0 -22.5 9.5t-9.5 21.5z" />
<glyph unicode="&#xbd;" horiz-adv-x="1843" d="M102 563q0 12 9 21.5t22 9.5h172v688h-147q-12 0 -21.5 9.5t-9.5 21.5t9.5 21t21.5 9h178q13 0 22 -9t9 -21v-719h163q13 0 22 -9.5t9 -21.5t-9 -21.5t-22 -9.5h-397q-13 0 -22 9.5t-9 21.5zM694 23l447 1318q14 36 43 31q12 -3 17.5 -15.5t2.5 -25.5l-446 -1321 q-11 -37 -45 -28q-12 3 -17.5 15.5t-1.5 25.5zM1311 31v151q0 53 19 95t50 69.5t68 51t74 46t68 47t50 61.5t19 83q0 55 -35.5 91t-91.5 36q-83 0 -127 -53q-8 -9 -20 -10t-23 6q-9 9 -10 21.5t6 21.5q66 75 174 75q78 0 133 -55t55 -133q0 -54 -19 -97t-49.5 -71.5t-67 -53 t-73 -47t-67 -47t-49.5 -60t-19 -79.5v-121h334q12 0 21.5 -8.5t9.5 -21.5q0 -12 -9.5 -20.5t-21.5 -8.5h-369q-12 0 -21 9.5t-9 21.5z" />
<glyph unicode="&#xbe;" horiz-adv-x="1843" d="M105 607.5q-1 12.5 6 21.5q9 10 21.5 11t21.5 -7q71 -51 161 -51q87 0 142 56t55 140t-55 140.5t-142 56.5h-49q-12 0 -21 9.5t-9 21.5t9 21t21 9h49q56 0 91.5 38t35.5 93t-35.5 91t-91.5 36q-83 0 -127 -53q-8 -9 -20 -10t-23 6q-9 9 -10 21.5t6 21.5q67 76 174 76 q78 0 133.5 -55.5t55.5 -133.5q0 -50 -24.5 -90.5t-65.5 -64.5q71 -28 115 -91.5t44 -142.5q0 -107 -75.5 -182.5t-182.5 -75.5q-119 0 -200 66q-9 9 -10 21.5zM694 23l447 1318q14 36 43 31q12 -3 17.5 -15.5t2.5 -25.5l-446 -1321q-11 -37 -45 -28q-12 3 -17.5 15.5 t-1.5 25.5zM1221 209q0 19 8 35l239 530q14 37 39 37q29 0 29 -29q0 -17 -10 -37l-228 -505h273v184q0 12 9.5 21.5t21.5 9.5t21 -9.5t9 -21.5v-184h78q13 0 22 -9.5t9 -21.5t-9 -21.5t-22 -9.5h-78v-160q0 -12 -9 -21t-21 -9t-21.5 9t-9.5 21v160h-318q-13 0 -22.5 9.5 t-9.5 21.5z" />
<glyph unicode="&#xbf;" horiz-adv-x="958" d="M82 -41q0 179 126 304.5t304 125.5h53v225q0 22 14.5 37t36.5 15t37 -15t15 -37v-276q0 -22 -15 -36.5t-37 -14.5h-104q-144 0 -236 -94t-92 -234t92 -234t236 -94q154 0 268 86q17 13 38 12t34 -18q13 -18 11 -37.5t-17 -33.5q-64 -54 -153 -82.5t-181 -28.5 q-178 0 -304 125.5t-126 304.5zM555 850q0 26 17.5 43.5t43.5 17.5t44 -17.5t18 -43.5t-18 -44t-44 -18t-43.5 18t-17.5 44z" />
<glyph unicode="&#xc0;" horiz-adv-x="1466" d="M45 23.5q-7 19.5 2 39.5l606 1264q21 45 80 45t80 -45l606 -1264q9 -20 2.5 -39.5t-26.5 -29.5q-20 -9 -39.5 -2t-28.5 26l-201 412h-788l-199 -412q-9 -19 -28 -26t-39 2q-20 10 -27 29.5zM387 532h692l-346 717zM461 1726q0 22 14.5 37t36.5 15q24 0 51 -27l197 -188 q16 -16 16 -37q0 -22 -14.5 -36.5t-36.5 -14.5q-25 0 -51 26l-197 189q-16 16 -16 36z" />
<glyph unicode="&#xc1;" horiz-adv-x="1466" d="M45 23.5q-7 19.5 2 39.5l606 1264q21 45 80 45t80 -45l606 -1264q9 -20 2.5 -39.5t-26.5 -29.5q-20 -9 -39.5 -2t-28.5 26l-201 412h-788l-199 -412q-9 -19 -28 -26t-39 2q-20 10 -27 29.5zM387 532h692l-346 717zM705 1526q0 21 16 37l197 188q27 27 51 27 q22 0 36.5 -15t14.5 -37q0 -20 -16 -36l-197 -189q-26 -26 -51 -26q-22 0 -36.5 14.5t-14.5 36.5z" />
<glyph unicode="&#xc2;" horiz-adv-x="1466" d="M45 23.5q-7 19.5 2 39.5l606 1264q21 45 80 45t80 -45l606 -1264q9 -20 2.5 -39.5t-26.5 -29.5q-20 -9 -39.5 -2t-28.5 26l-201 412h-788l-199 -412q-9 -19 -28 -26t-39 2q-20 10 -27 29.5zM387 532h692l-346 717zM483 1526q0 20 17 37l184 186q27 27 51 27t51 -27 l181 -186q16 -16 16 -37q0 -22 -14.5 -36.5t-36.5 -14.5q-25 0 -51 26l-148 152l-147 -152q-26 -26 -51 -26q-22 0 -37 14.5t-15 36.5z" />
<glyph unicode="&#xc3;" horiz-adv-x="1466" d="M45 23.5q-7 19.5 2 39.5l606 1264q21 45 80 45t80 -45l606 -1264q9 -20 2.5 -39.5t-26.5 -29.5q-20 -9 -39.5 -2t-28.5 26l-201 412h-788l-199 -412q-9 -19 -28 -26t-39 2q-20 10 -27 29.5zM387 532h692l-346 717zM424.5 1519.5q-5.5 20.5 5.5 39.5q45 76 70 99 q69 66 191 12q33 -15 71 -38q52 -31 86.5 -35t57 14t48.5 62q10 18 30.5 23t39.5 -6q19 -10 24 -30.5t-6 -39.5q-45 -76 -70 -99q-70 -67 -193 -11q-32 14 -68 36q-52 31 -86.5 35t-57.5 -14t-49 -62q-10 -18 -30 -22.5t-39 6.5q-19 10 -24.5 30.5z" />
<glyph unicode="&#xc4;" horiz-adv-x="1466" d="M45 23.5q-7 19.5 2 39.5l606 1264q21 45 80 45t80 -45l606 -1264q9 -20 2.5 -39.5t-26.5 -29.5q-20 -9 -39.5 -2t-28.5 26l-201 412h-788l-199 -412q-9 -19 -28 -26t-39 2q-20 10 -27 29.5zM387 532h692l-346 717zM471 1554q0 34 23 58t57 24t58 -24t24 -58 q0 -33 -24 -56t-58 -23t-57 22.5t-23 56.5zM840 1554q0 34 23 58t57 24t57.5 -24t23.5 -58t-23.5 -56.5t-57.5 -22.5t-57 22.5t-23 56.5z" />
<glyph unicode="&#xc5;" horiz-adv-x="1466" d="M45 23.5q-7 19.5 2 39.5l606 1264q21 45 80 45t80 -45l606 -1264q9 -20 2.5 -39.5t-26.5 -29.5q-20 -9 -39.5 -2t-28.5 26l-201 412h-788l-199 -412q-9 -19 -28 -26t-39 2q-20 10 -27 29.5zM387 532h692l-346 717zM573 1634q0 66 47 113t113 47t113 -47t47 -113 t-47 -112.5t-113 -46.5t-113 46.5t-47 112.5zM643 1634q0 -40 25 -65t65 -25t65 25t25 65t-25 65t-65 25t-65 -25t-25 -65z" />
<glyph unicode="&#xc6;" horiz-adv-x="1898" d="M42.5 23.5q-1.5 19.5 10.5 39.5l951 1254q26 35 71 35h649q22 0 37 -15t15 -37t-15 -36.5t-37 -14.5h-542v-512h420q22 0 36.5 -14.5t14.5 -36.5t-14.5 -36.5t-36.5 -14.5h-420v-533h542q22 0 37 -14.5t15 -36.5t-15 -36.5t-37 -14.5h-594q-22 0 -36.5 14.5t-14.5 36.5 v584h-477l-471 -617q-12 -19 -33.5 -26t-36.5 2q-17 10 -18.5 29.5zM680 737h399v512h-8z" />
<glyph unicode="&#xc7;" horiz-adv-x="1452" d="M123 676q0 142 55 271t148 222t222 148t271 55t270 -54.5t224 -150.5q15 -15 15 -35.5t-15 -35.5t-37 -15t-37 15q-81 81 -190.5 127.5t-229.5 46.5q-161 0 -298 -79.5t-216.5 -216.5t-79.5 -298t79.5 -298t216.5 -216.5t298 -79.5q121 0 229 45.5t191 128.5q15 15 37 15 t37 -15t15 -36t-15 -36q-93 -93 -215 -146.5t-258 -57.5v-103q54 -7 87 -37t36.5 -69t-11.5 -79.5t-57 -73t-100 -44.5q-54 -11 -68 20q-8 22 0.5 39t30.5 21q76 18 101 66q22 41 -15 67q-17 12 -45 16q-23 3 -32 17t-9 41v121q-132 11 -249.5 70.5t-202 151t-134 215 t-49.5 257.5z" />
<glyph unicode="&#xc8;" d="M205 51v1249q0 22 14.5 37t36.5 15h594q22 0 36.5 -15t14.5 -37t-14.5 -36.5t-36.5 -14.5h-543v-481h420q22 0 36.5 -14.5t14.5 -36.5t-14.5 -36.5t-36.5 -14.5h-420v-564h543q22 0 36.5 -14.5t14.5 -36.5t-14.5 -36.5t-36.5 -14.5h-594q-22 0 -36.5 14.5t-14.5 36.5z M262 1726q0 22 14.5 37t36.5 15q25 0 52 -27l196 -188q17 -17 17 -37q0 -22 -15 -36.5t-37 -14.5q-25 0 -51 26l-196 189q-17 17 -17 36z" />
<glyph unicode="&#xc9;" d="M205 51v1249q0 22 14.5 37t36.5 15h594q22 0 36.5 -15t14.5 -37t-14.5 -36.5t-36.5 -14.5h-543v-481h420q22 0 36.5 -14.5t14.5 -36.5t-14.5 -36.5t-36.5 -14.5h-420v-564h543q22 0 36.5 -14.5t14.5 -36.5t-14.5 -36.5t-36.5 -14.5h-594q-22 0 -36.5 14.5t-14.5 36.5z M496 1526q0 21 16 37l197 188q27 27 51 27q22 0 36.5 -15t14.5 -37q0 -20 -16 -36l-197 -189q-26 -26 -51 -26q-22 0 -36.5 14.5t-14.5 36.5z" />
<glyph unicode="&#xca;" d="M205 51v1249q0 22 14.5 37t36.5 15h594q22 0 36.5 -15t14.5 -37t-14.5 -36.5t-36.5 -14.5h-543v-481h420q22 0 36.5 -14.5t14.5 -36.5t-14.5 -36.5t-36.5 -14.5h-420v-564h543q22 0 36.5 -14.5t14.5 -36.5t-14.5 -36.5t-36.5 -14.5h-594q-22 0 -36.5 14.5t-14.5 36.5z M307 1526q0 20 17 37l184 186q27 27 51 27t51 -27l181 -186q16 -16 16 -37q0 -22 -14.5 -36.5t-36.5 -14.5q-25 0 -51 26l-148 152l-147 -152q-26 -26 -52 -26q-22 0 -36.5 14.5t-14.5 36.5z" />
<glyph unicode="&#xcb;" d="M205 51v1249q0 22 14.5 37t36.5 15h594q22 0 36.5 -15t14.5 -37t-14.5 -36.5t-36.5 -14.5h-543v-481h420q22 0 36.5 -14.5t14.5 -36.5t-14.5 -36.5t-36.5 -14.5h-420v-564h543q22 0 36.5 -14.5t14.5 -36.5t-14.5 -36.5t-36.5 -14.5h-594q-22 0 -36.5 14.5t-14.5 36.5z M281 1554q0 34 23 58t56 24q34 0 58 -24t24 -58q0 -33 -24 -56t-58 -23t-56.5 22.5t-22.5 56.5zM649 1554q0 34 23 58t57 24t58 -24t24 -58q0 -33 -24 -56t-58 -23t-57 22.5t-23 56.5z" />
<glyph unicode="&#xcc;" horiz-adv-x="512" d="M20 1726q0 22 15 37t37 15q24 0 51 -27l196 -188q17 -17 17 -37q0 -22 -14.5 -36.5t-36.5 -14.5q-26 0 -52 26l-196 189q-17 17 -17 36zM205 41v1270q0 22 14.5 36.5t36.5 14.5t36.5 -14.5t14.5 -36.5v-1270q0 -22 -14.5 -36.5t-36.5 -14.5t-36.5 14.5t-14.5 36.5z" />
<glyph unicode="&#xcd;" horiz-adv-x="512" d="M180 1526q0 20 17 37l196 188q27 27 51 27q22 0 37 -15t15 -37q0 -19 -17 -36l-196 -189q-26 -26 -52 -26q-22 0 -36.5 14.5t-14.5 36.5zM205 41v1270q0 22 14.5 36.5t36.5 14.5t36.5 -14.5t14.5 -36.5v-1270q0 -22 -14.5 -36.5t-36.5 -14.5t-36.5 14.5t-14.5 36.5z" />
<glyph unicode="&#xce;" horiz-adv-x="512" d="M4 1526q0 21 16 37l185 186q27 27 51 27t51 -27l180 -186q17 -17 17 -37q0 -22 -14.5 -36.5t-36.5 -14.5q-26 0 -52 26l-147 152l-148 -152q-26 -26 -51 -26q-22 0 -36.5 14.5t-14.5 36.5zM203 41v1270q0 22 14.5 36.5t36.5 14.5t36.5 -14.5t14.5 -36.5v-1270 q0 -22 -14.5 -36.5t-36.5 -14.5t-36.5 14.5t-14.5 36.5z" />
<glyph unicode="&#xcf;" horiz-adv-x="512" d="M-8 1554q0 34 23 58t57 24t58 -24t24 -58q0 -33 -24 -56t-58 -23t-57 22.5t-23 56.5zM207 41v1270q0 22 14.5 36.5t36.5 14.5t36.5 -14.5t14.5 -36.5v-1270q0 -22 -14.5 -36.5t-36.5 -14.5t-36.5 14.5t-14.5 36.5zM360 1554q0 34 23 58t57 24t58 -24t24 -58 q0 -33 -24 -56t-58 -23t-57 22.5t-23 56.5z" />
<glyph unicode="&#xd0;" horiz-adv-x="1720" d="M0 686q0 22 14.5 36.5t36.5 14.5h154v563q0 22 14.5 37t36.5 15h645q142 0 270.5 -52t222 -141t148.5 -215t55 -268t-55 -268t-148.5 -215t-222 -141t-270.5 -52h-645q-22 0 -36.5 14.5t-14.5 36.5v584h-154q-22 0 -36.5 14.5t-14.5 36.5zM307 98h594q162 0 298.5 75.5 t216 208.5t79.5 294q0 121 -47 228.5t-126.5 183.5t-189.5 120.5t-231 44.5h-594v-516h408q22 0 36.5 -14.5t14.5 -36.5t-14.5 -36.5t-36.5 -14.5h-408v-537z" />
<glyph unicode="&#xd1;" horiz-adv-x="1802" d="M205 41v1270q0 22 14.5 36.5t36.5 14.5q24 0 51 -27l1188 -1171v1147q0 22 14.5 36.5t36.5 14.5t36.5 -14.5t14.5 -36.5v-1270q0 -22 -14.5 -36.5t-36.5 -14.5q-25 0 -51 26l-1188 1172v-1147q0 -22 -14.5 -36.5t-36.5 -14.5t-36.5 14.5t-14.5 36.5zM619 1519.5 q-5 20.5 6 39.5q45 76 69 98q68 66 188 14q34 -15 74 -39q52 -31 86.5 -35t57.5 14t49 62q10 18 30.5 23t39.5 -6q19 -10 24 -30.5t-6 -39.5q-46 -77 -71 -100q-72 -67 -199 -8q-29 14 -62 34q-52 31 -86.5 35t-57 -14t-48.5 -62q-10 -18 -30.5 -22.5t-39.5 6.5 q-19 10 -24 30.5z" />
<glyph unicode="&#xd2;" horiz-adv-x="1638" d="M123 676q0 142 55 271t148 222t222 148t271 55q189 0 349.5 -93t254 -253.5t93.5 -349.5t-93.5 -349.5t-254 -253.5t-349.5 -93q-142 0 -271 55t-222 148t-148 222t-55 271zM225 676q0 -161 79.5 -298t216.5 -216.5t298 -79.5t298 79.5t216.5 216.5t79.5 298t-79.5 298 t-216.5 216.5t-298 79.5t-298 -79.5t-216.5 -216.5t-79.5 -298zM557 1726q0 22 14.5 37t36.5 15q24 0 51 -27l197 -188q16 -16 16 -37q0 -22 -14.5 -36.5t-36.5 -14.5q-25 0 -51 26l-197 189q-16 16 -16 36z" />
<glyph unicode="&#xd3;" horiz-adv-x="1638" d="M123 676q0 142 55 271t148 222t222 148t271 55q189 0 349.5 -93t254 -253.5t93.5 -349.5t-93.5 -349.5t-254 -253.5t-349.5 -93q-142 0 -271 55t-222 148t-148 222t-55 271zM225 676q0 -161 79.5 -298t216.5 -216.5t298 -79.5t298 79.5t216.5 216.5t79.5 298t-79.5 298 t-216.5 216.5t-298 79.5t-298 -79.5t-216.5 -216.5t-79.5 -298zM788 1526q0 20 17 37l196 188q27 27 52 27q22 0 36.5 -15t14.5 -37q0 -19 -17 -36l-196 -189q-26 -26 -51 -26q-22 0 -37 14.5t-15 36.5z" />
<glyph unicode="&#xd4;" horiz-adv-x="1638" d="M123 676q0 142 55 271t148 222t222 148t271 55q189 0 349.5 -93t254 -253.5t93.5 -349.5t-93.5 -349.5t-254 -253.5t-349.5 -93q-142 0 -271 55t-222 148t-148 222t-55 271zM225 676q0 -161 79.5 -298t216.5 -216.5t298 -79.5t298 79.5t216.5 216.5t79.5 298t-79.5 298 t-216.5 216.5t-298 79.5t-298 -79.5t-216.5 -216.5t-79.5 -298zM575 1526q0 20 17 37l184 186q27 27 51 27q25 0 52 -27l180 -186q16 -16 16 -37q0 -22 -14.5 -36.5t-36.5 -14.5q-25 0 -51 26l-148 152l-147 -152q-26 -26 -51 -26q-22 0 -37 14.5t-15 36.5z" />
<glyph unicode="&#xd5;" horiz-adv-x="1638" d="M123 676q0 142 55 271t148 222t222 148t271 55q189 0 349.5 -93t254 -253.5t93.5 -349.5t-93.5 -349.5t-254 -253.5t-349.5 -93q-142 0 -271 55t-222 148t-148 222t-55 271zM225 676q0 -161 79.5 -298t216.5 -216.5t298 -79.5t298 79.5t216.5 216.5t79.5 298t-79.5 298 t-216.5 216.5t-298 79.5t-298 -79.5t-216.5 -216.5t-79.5 -298zM510.5 1519.5q-5.5 20.5 5.5 39.5q45 76 70 99q69 66 191 12q33 -15 71 -38q52 -31 86.5 -35t57 14t48.5 62q10 18 30.5 23t39.5 -6q19 -10 24 -30.5t-6 -39.5q-45 -76 -70 -99q-70 -67 -193 -11 q-32 14 -68 36q-52 31 -86.5 35t-57.5 -14t-49 -62q-10 -18 -30 -22.5t-39 6.5q-19 10 -24.5 30.5z" />
<glyph unicode="&#xd6;" horiz-adv-x="1638" d="M123 676q0 142 55 271t148 222t222 148t271 55q189 0 349.5 -93t254 -253.5t93.5 -349.5t-93.5 -349.5t-254 -253.5t-349.5 -93q-142 0 -271 55t-222 148t-148 222t-55 271zM225 676q0 -161 79.5 -298t216.5 -216.5t298 -79.5t298 79.5t216.5 216.5t79.5 298t-79.5 298 t-216.5 216.5t-298 79.5t-298 -79.5t-216.5 -216.5t-79.5 -298zM557 1554q0 34 23 58t57 24t58 -24t24 -58q0 -33 -24 -56t-58 -23t-57 22.5t-23 56.5zM926 1554q0 34 23 58t57 24t57.5 -24t23.5 -58t-23.5 -56.5t-57.5 -22.5t-57 22.5t-23 56.5z" />
<glyph unicode="&#xd7;" horiz-adv-x="1087" d="M186 194.5q0 21.5 13 36.5l272 271l-272 270q-13 15 -13 37t13 37q15 14 36.5 14t36.5 -14l271 -273l270 273q15 14 37 14t37 -14q13 -15 13 -37t-13 -37l-273 -270l273 -271q13 -15 13 -36.5t-13 -36.5q-15 -14 -37 -14t-37 14l-270 272l-271 -272q-15 -14 -36.5 -14 t-36.5 14q-13 15 -13 36.5z" />
<glyph unicode="&#xd8;" horiz-adv-x="1638" d="M123 676q0 142 55 271t148 222t222 148t271 55q189 0 349.5 -93t254 -253.5t93.5 -349.5t-93.5 -349.5t-254 -253.5t-349.5 -93q-142 0 -271 55t-222 148t-148 222t-55 271zM225 676q0 -215 133 -377l838 836q-164 135 -377 135q-161 0 -298 -79.5t-216.5 -216.5 t-79.5 -298zM432 225q165 -143 387 -143q161 0 298 79.5t216.5 216.5t79.5 298q0 216 -143 385z" />
<glyph unicode="&#xd9;" horiz-adv-x="1720" d="M164 676v635q0 22 14.5 36.5t36.5 14.5t36.5 -14.5t14.5 -36.5v-635q0 -161 79.5 -298t216.5 -216.5t298 -79.5t298 79.5t216.5 216.5t79.5 298v635q0 22 14.5 36.5t36.5 14.5t36.5 -14.5t14.5 -36.5v-635q0 -142 -55 -271t-148 -222t-222 -148t-271 -55t-271 55 t-222 148t-148 222t-55 271zM594 1726q0 22 14.5 37t36.5 15q24 0 51 -27l197 -188q16 -16 16 -37q0 -22 -14.5 -36.5t-36.5 -14.5q-25 0 -51 26l-197 189q-16 16 -16 36z" />
<glyph unicode="&#xda;" horiz-adv-x="1720" d="M164 676v635q0 22 14.5 36.5t36.5 14.5t36.5 -14.5t14.5 -36.5v-635q0 -161 79.5 -298t216.5 -216.5t298 -79.5t298 79.5t216.5 216.5t79.5 298v635q0 22 14.5 36.5t36.5 14.5t36.5 -14.5t14.5 -36.5v-635q0 -142 -55 -271t-148 -222t-222 -148t-271 -55t-271 55 t-222 148t-148 222t-55 271zM821 1526q0 20 17 37l196 188q27 27 51 27q22 0 37 -15t15 -37q0 -19 -17 -36l-196 -189q-26 -26 -52 -26q-22 0 -36.5 14.5t-14.5 36.5z" />
<glyph unicode="&#xdb;" horiz-adv-x="1720" d="M164 676v635q0 22 14.5 36.5t36.5 14.5t36.5 -14.5t14.5 -36.5v-635q0 -161 79.5 -298t216.5 -216.5t298 -79.5t298 79.5t216.5 216.5t79.5 298v635q0 22 14.5 36.5t36.5 14.5t36.5 -14.5t14.5 -36.5v-635q0 -142 -55 -271t-148 -222t-222 -148t-271 -55t-271 55 t-222 148t-148 222t-55 271zM610 1526q0 20 17 37l184 186q27 27 51 27t51 -27l181 -186q16 -16 16 -37q0 -22 -14.5 -36.5t-36.5 -14.5q-25 0 -51 26l-148 152l-147 -152q-26 -26 -51 -26q-22 0 -37 14.5t-15 36.5z" />
<glyph unicode="&#xdc;" horiz-adv-x="1720" d="M164 676v635q0 22 14.5 36.5t36.5 14.5t36.5 -14.5t14.5 -36.5v-635q0 -161 79.5 -298t216.5 -216.5t298 -79.5t298 79.5t216.5 216.5t79.5 298v635q0 22 14.5 36.5t36.5 14.5t36.5 -14.5t14.5 -36.5v-635q0 -142 -55 -271t-148 -222t-222 -148t-271 -55t-271 55 t-222 148t-148 222t-55 271zM594 1554q0 34 23 58t57 24t58 -24t24 -58q0 -33 -24 -56t-58 -23t-57 22.5t-23 56.5zM963 1554q0 34 23 58t56 24q34 0 58 -24t24 -58q0 -33 -24 -56t-58 -23t-56.5 22.5t-22.5 56.5z" />
<glyph unicode="&#xdd;" horiz-adv-x="1433" d="M20 1311q0 22 15 36.5t37 14.5q24 0 51 -27l594 -587l594 587q27 27 51 27q22 0 36.5 -14.5t14.5 -36.5q0 -21 -16 -37l-629 -621v-612q0 -22 -14.5 -36.5t-36.5 -14.5t-36.5 14.5t-14.5 36.5v612l-629 621q-17 17 -17 37zM676 1526q0 21 16 37l197 188q27 27 51 27 q22 0 36.5 -15t14.5 -37q0 -20 -16 -36l-197 -189q-26 -26 -51 -26q-22 0 -36.5 14.5t-14.5 36.5z" />
<glyph unicode="&#xde;" horiz-adv-x="1136" d="M205 41v1270q0 22 14.5 36.5t36.5 14.5t36.5 -14.5t14.5 -36.5v-205h297q168 0 284 -120t116 -290t-116 -289.5t-284 -119.5h-297v-248q0 -22 -14.5 -35.5t-36.5 -13.5t-36.5 14.5t-14.5 36.5zM307 389h287q128 0 217.5 89.5t89.5 217.5t-90 218t-217 90h-287v-615z" />
<glyph unicode="&#xdf;" d="M143 -410v1454q0 131 92.5 219.5t225.5 88.5t225 -88.5t92 -219.5q0 -79 -35.5 -147t-95.5 -106q132 -34 213.5 -137.5t81.5 -243.5q0 -170 -115.5 -290t-283.5 -120h-103q-22 0 -36.5 14.5t-14.5 36.5t14.5 36.5t36.5 14.5h92q128 0 218 90t90 218q0 127 -90 217 t-218 90h-92q-22 0 -36.5 14.5t-14.5 36.5t14.5 36.5t36.5 14.5h11q94 0 159.5 65.5t65.5 159.5q0 91 -63.5 148t-151.5 57t-151.5 -57t-63.5 -148v-1454q0 -22 -14.5 -36.5t-36.5 -14.5t-37 14.5t-15 36.5z" />
<glyph unicode="&#xe0;" horiz-adv-x="931" d="M82 236q0 104 83 174.5t224 70.5q185 0 313 -51h5v143q0 164 -244 164q-70 0 -143 -23t-123 -63q-15 -14 -37 -12.5t-35 18.5t-11 37.5t17 34.5q64 54 152 82.5t180 28.5q156 0 251 -70t95 -197v-532q0 -22 -14.5 -36.5t-36.5 -14.5t-36.5 14.5t-14.5 36.5v72h-5 q-54 -59 -138.5 -96t-184.5 -37q-151 0 -224 73t-73 183zM184 236q0 -164 205 -164q71 0 157 29.5t161 82.5v174q-22 2 -83 11.5t-116 14.5t-119 5q-108 0 -156.5 -42.5t-48.5 -110.5zM227 1174q0 22 15 36.5t37 14.5q24 0 51 -27l196 -188q17 -17 17 -37q0 -22 -14.5 -36.5 t-36.5 -14.5q-26 0 -52 26l-196 189q-17 17 -17 37z" />
<glyph unicode="&#xe1;" horiz-adv-x="931" d="M82 236q0 104 83 174.5t224 70.5q185 0 313 -51h5v143q0 164 -244 164q-70 0 -143 -23t-123 -63q-15 -14 -37 -12.5t-35 18.5t-11 37.5t17 34.5q64 54 152 82.5t180 28.5q156 0 251 -70t95 -197v-532q0 -22 -14.5 -36.5t-36.5 -14.5t-36.5 14.5t-14.5 36.5v72h-5 q-54 -59 -138.5 -96t-184.5 -37q-151 0 -224 73t-73 183zM184 236q0 -164 205 -164q71 0 157 29.5t161 82.5v174q-22 2 -83 11.5t-116 14.5t-119 5q-108 0 -156.5 -42.5t-48.5 -110.5zM372 973q0 20 17 37l196 188q27 27 52 27q22 0 36.5 -14.5t14.5 -36.5q0 -20 -17 -37 l-196 -189q-26 -26 -51 -26q-22 0 -37 14.5t-15 36.5z" />
<glyph unicode="&#xe2;" horiz-adv-x="931" d="M82 236q0 104 83 174.5t224 70.5q185 0 313 -51h5v143q0 164 -244 164q-70 0 -143 -23t-123 -63q-15 -14 -37 -12.5t-35 18.5t-11 37.5t17 34.5q64 54 152 82.5t180 28.5q156 0 251 -70t95 -197v-532q0 -22 -14.5 -36.5t-36.5 -14.5t-36.5 14.5t-14.5 36.5v72h-5 q-54 -59 -138.5 -96t-184.5 -37q-151 0 -224 73t-73 183zM184 236q0 -164 205 -164q71 0 157 29.5t161 82.5v174q-22 2 -83 11.5t-116 14.5t-119 5q-108 0 -156.5 -42.5t-48.5 -110.5zM215 973q0 20 17 37l184 186q27 27 51 27q25 0 52 -27l180 -186q16 -16 16 -37 q0 -22 -14.5 -36.5t-36.5 -14.5q-25 0 -51 26l-148 152l-147 -152q-26 -26 -51 -26q-22 0 -37 14.5t-15 36.5z" />
<glyph unicode="&#xe3;" horiz-adv-x="931" d="M82 236q0 104 83 174.5t224 70.5q185 0 313 -51h5v143q0 164 -244 164q-70 0 -143 -23t-123 -63q-15 -14 -37 -12.5t-35 18.5t-11 37.5t17 34.5q64 54 152 82.5t180 28.5q156 0 251 -70t95 -197v-532q0 -22 -14.5 -36.5t-36.5 -14.5t-36.5 14.5t-14.5 36.5v72h-5 q-54 -59 -138.5 -96t-184.5 -37q-151 0 -224 73t-73 183zM162 956q-5 20 6 39q45 75 68 98q68 66 187 16q35 -15 76 -40q52 -31 86.5 -35t57.5 14t49 62q10 18 30.5 22.5t39.5 -6.5q19 -10 24 -30t-6 -39q-46 -77 -71 -100q-72 -67 -199 -8q-29 14 -62 34q-52 31 -86.5 35 t-57 -14t-48.5 -62q-10 -18 -30.5 -22.5t-39.5 6.5q-19 10 -24 30zM184 236q0 -164 205 -164q71 0 157 29.5t161 82.5v174q-22 2 -83 11.5t-116 14.5t-119 5q-108 0 -156.5 -42.5t-48.5 -110.5z" />
<glyph unicode="&#xe4;" horiz-adv-x="931" d="M82 236q0 104 83 174.5t224 70.5q185 0 313 -51h5v143q0 164 -244 164q-70 0 -143 -23t-123 -63q-15 -14 -37 -12.5t-35 18.5t-11 37.5t17 34.5q64 54 152 82.5t180 28.5q156 0 251 -70t95 -197v-532q0 -22 -14.5 -36.5t-36.5 -14.5t-36.5 14.5t-14.5 36.5v72h-5 q-54 -59 -138.5 -96t-184.5 -37q-151 0 -224 73t-73 183zM184 236q0 -164 205 -164q71 0 157 29.5t161 82.5v174q-22 2 -83 11.5t-116 14.5t-119 5q-108 0 -156.5 -42.5t-48.5 -110.5zM204 1001q0 34 23 58t57 24t58 -24t24 -58q0 -33 -24 -56t-58 -23t-57 22.5t-23 56.5z M573 1001q0 34 23 58t57 24t58 -24t24 -58q0 -33 -24 -56t-58 -23t-57 22.5t-23 56.5z" />
<glyph unicode="&#xe5;" horiz-adv-x="931" d="M82 236q0 104 83 174.5t224 70.5q185 0 313 -51h5v143q0 164 -244 164q-70 0 -143 -23t-123 -63q-15 -14 -37 -12.5t-35 18.5t-11 37.5t17 34.5q64 54 152 82.5t180 28.5q156 0 251 -70t95 -197v-532q0 -22 -14.5 -36.5t-36.5 -14.5t-36.5 14.5t-14.5 36.5v72h-5 q-54 -59 -138.5 -96t-184.5 -37q-151 0 -224 73t-73 183zM184 236q0 -164 205 -164q71 0 157 29.5t161 82.5v174q-22 2 -83 11.5t-116 14.5t-119 5q-108 0 -156.5 -42.5t-48.5 -110.5zM299 1081q0 66 47 113t113 47t113 -47t47 -113t-47 -112.5t-113 -46.5t-113 46.5 t-47 112.5zM369 1081q0 -40 25 -65t65 -25t65 25t25 65t-25 65t-65 25t-65 -25t-25 -65z" />
<glyph unicode="&#xe6;" horiz-adv-x="1587" d="M82 236q0 105 78.5 175t218.5 70q195 0 323 -51h5v143q0 164 -244 164q-70 0 -143 -23t-123 -63q-15 -14 -37 -12.5t-35 18.5t-11 37.5t17 34.5q64 54 152 82.5t180 28.5q124 0 211 -44.5t119 -127.5q60 80 150 126t194 46q176 0 277.5 -109.5t101.5 -290.5 q0 -22 -15 -36.5t-37 -14.5h-655q8 -133 98.5 -220t229.5 -87q154 0 268 86q17 13 38 12t34 -18q13 -18 10.5 -38t-17.5 -34q-64 -54 -152.5 -82t-180.5 -28q-105 0 -197 47.5t-152 128.5q-124 -97 -219.5 -136.5t-199.5 -39.5q-150 0 -218.5 72.5t-68.5 183.5zM184 236 q0 -154 205 -154q72 0 179.5 36t185.5 95q-36 71 -45 145q-181 21 -320 21q-205 0 -205 -143zM819 492h574q-8 113 -71.5 179t-184.5 66q-122 0 -207.5 -67.5t-110.5 -177.5z" />
<glyph unicode="&#xe7;" horiz-adv-x="925" d="M82 410q0 178 126 304t304 126q92 0 181 -28.5t153 -82.5q15 -14 17 -34.5t-11 -37.5t-34 -18t-38 12q-114 86 -268 86q-144 0 -236 -93.5t-92 -233.5t92 -234t236 -94q154 0 268 86q17 13 38 12t34 -18t11 -37.5t-17 -34.5q-124 -103 -311 -110v-103q39 -5 67 -22.5 t41 -41.5t16 -52.5t-8.5 -58t-31.5 -55t-54 -45.5t-76 -28q-23 -6 -41 -2.5t-26 22.5q-8 22 0.5 39t30.5 21q76 18 101 66q22 41 -15 67q-17 12 -45 16q-23 3 -32 17t-9 41v123q-158 22 -264.5 143t-106.5 283z" />
<glyph unicode="&#xe8;" horiz-adv-x="962" d="M82 410q0 178 126 304t304 126q176 0 277.5 -109.5t101.5 -290.5q0 -22 -14.5 -36.5t-36.5 -14.5h-656q8 -133 98.5 -220t229.5 -87q154 0 268 86q17 13 38 12t34 -18t11 -37.5t-17 -34.5q-64 -54 -152.5 -82t-181.5 -28q-178 0 -304 126t-126 304zM195 492h573 q-8 113 -71.5 179t-184.5 66q-122 0 -207 -67.5t-110 -177.5zM297 1174q0 22 15 36.5t37 14.5q24 0 51 -27l196 -188q17 -17 17 -37q0 -22 -14.5 -36.5t-36.5 -14.5q-26 0 -52 26l-196 189q-17 17 -17 37z" />
<glyph unicode="&#xe9;" horiz-adv-x="962" d="M82 410q0 178 126 304t304 126q176 0 277.5 -109.5t101.5 -290.5q0 -22 -14.5 -36.5t-36.5 -14.5h-656q8 -133 98.5 -220t229.5 -87q154 0 268 86q17 13 38 12t34 -18t11 -37.5t-17 -34.5q-64 -54 -152.5 -82t-181.5 -28q-178 0 -304 126t-126 304zM195 492h573 q-8 113 -71.5 179t-184.5 66q-122 0 -207 -67.5t-110 -177.5zM524 973q0 20 17 37l196 188q27 27 52 27q22 0 36.5 -14.5t14.5 -36.5q0 -20 -17 -37l-196 -189q-26 -26 -51 -26q-22 0 -37 14.5t-15 36.5z" />
<glyph unicode="&#xea;" horiz-adv-x="962" d="M82 410q0 178 126 304t304 126q176 0 277.5 -109.5t101.5 -290.5q0 -22 -14.5 -36.5t-36.5 -14.5h-656q8 -133 98.5 -220t229.5 -87q154 0 268 86q17 13 38 12t34 -18t11 -37.5t-17 -34.5q-64 -54 -152.5 -82t-181.5 -28q-178 0 -304 126t-126 304zM195 492h573 q-8 113 -71.5 179t-184.5 66q-122 0 -207 -67.5t-110 -177.5zM264 973q0 20 17 37l184 186q27 27 51 27q25 0 52 -27l180 -186q16 -16 16 -37q0 -22 -14.5 -36.5t-36.5 -14.5q-25 0 -51 26l-148 152l-147 -152q-26 -26 -51 -26q-22 0 -37 14.5t-15 36.5z" />
<glyph unicode="&#xeb;" horiz-adv-x="962" d="M82 410q0 178 126 304t304 126q176 0 277.5 -109.5t101.5 -290.5q0 -22 -14.5 -36.5t-36.5 -14.5h-656q8 -133 98.5 -220t229.5 -87q154 0 268 86q17 13 38 12t34 -18t11 -37.5t-17 -34.5q-64 -54 -152.5 -82t-181.5 -28q-178 0 -304 126t-126 304zM192 1001q0 34 23 58 t57 24t58 -24t24 -58q0 -33 -24 -56t-58 -23t-57 22.5t-23 56.5zM195 492h573q-8 113 -71.5 179t-184.5 66q-122 0 -207 -67.5t-110 -177.5zM561 1001q0 34 23 58t57 24t58 -24t24 -58q0 -33 -24 -56t-58 -23t-57 22.5t-23 56.5z" />
<glyph unicode="&#xec;" horiz-adv-x="389" d="M-45 1174q0 22 15 36.5t37 14.5q24 0 51 -27l196 -188q17 -17 17 -37q0 -22 -14.5 -36.5t-36.5 -14.5q-26 0 -52 26l-196 189q-17 17 -17 37zM143 41v737q0 22 15 36.5t37 14.5t36.5 -14.5t14.5 -36.5v-737q0 -22 -14.5 -36.5t-36.5 -14.5t-37 14.5t-15 36.5z" />
<glyph unicode="&#xed;" horiz-adv-x="389" d="M127 973q0 20 17 37l196 188q27 27 52 27q22 0 36.5 -14.5t14.5 -36.5q0 -20 -17 -37l-196 -189q-26 -26 -51 -26q-22 0 -37 14.5t-15 36.5zM143 41v737q0 22 15 36.5t37 14.5t36.5 -14.5t14.5 -36.5v-737q0 -22 -14.5 -36.5t-36.5 -14.5t-37 14.5t-15 36.5z" />
<glyph unicode="&#xee;" horiz-adv-x="389" d="M-57 973q0 21 16 37l184 186q27 27 52 27q24 0 51 -27l180 -186q16 -16 16 -37q0 -22 -14.5 -36.5t-36.5 -14.5q-25 0 -51 26l-147 152l-148 -152q-26 -26 -51 -26q-22 0 -36.5 14.5t-14.5 36.5zM143 41v737q0 22 15 36.5t37 14.5t36.5 -14.5t14.5 -36.5v-737 q0 -22 -14.5 -36.5t-36.5 -14.5t-37 14.5t-15 36.5z" />
<glyph unicode="&#xef;" horiz-adv-x="389" d="M-70 1001q0 34 23 58t57 24t58 -24t24 -58q0 -33 -24 -56t-58 -23t-57 22.5t-23 56.5zM145 41v737q0 22 15 36.5t37 14.5t36.5 -14.5t14.5 -36.5v-737q0 -22 -14.5 -36.5t-36.5 -14.5t-37 14.5t-15 36.5zM299 1001q0 34 23 58t57 24t58 -24t24 -58q0 -33 -24 -56t-58 -23 t-57 22.5t-23 56.5z" />
<glyph unicode="&#xf0;" horiz-adv-x="1030" d="M82 410q0 177 125 298t305 121q195 0 313 -147q-56 232 -233 399l-115 -114q-15 -15 -35.5 -15t-35.5 15t-15 35.5t15 35.5l108 109q-107 77 -225 119q-19 4 -28 22.5t-3 38.5q7 23 25.5 32t40.5 1q139 -48 262 -141l143 145q15 14 36 14t36 -14q15 -15 15 -37t-15 -37 l-137 -137q163 -158 236 -377t34 -444q-26 -152 -145.5 -252t-276.5 -100q-178 0 -304 126t-126 304zM184 410q0 -140 92 -234t236 -94t236 94t92 234t-92 233.5t-236 93.5t-236 -93.5t-92 -233.5z" />
<glyph unicode="&#xf1;" horiz-adv-x="1075" d="M143 41v737q0 22 15 36.5t37 14.5t36.5 -14.5t14.5 -36.5v-102h4q99 164 323 164q181 0 280 -117t99 -313v-369q0 -22 -14.5 -36.5t-36.5 -14.5t-36.5 14.5t-14.5 36.5v369q0 156 -76 241.5t-221 85.5q-142 0 -224.5 -92.5t-82.5 -234.5v-369q0 -22 -14.5 -36.5 t-36.5 -14.5t-37 14.5t-15 36.5zM195 956q-5 20 6 39q45 75 68 98q68 66 187 16q35 -15 76 -40q52 -31 86.5 -35t57.5 14t49 62q10 18 30.5 22.5t39.5 -6.5q19 -10 24 -30t-6 -39q-46 -77 -71 -100q-72 -67 -199 -8q-29 14 -62 34q-52 31 -86.5 35t-57 -14t-48.5 -62 q-10 -18 -30.5 -22.5t-39.5 6.5q-19 10 -24 30z" />
<glyph unicode="&#xf2;" d="M82 410q0 178 126 304t304 126t304 -126t126 -304t-126 -304t-304 -126t-304 126t-126 304zM184 410q0 -140 92 -234t236 -94t236 94t92 234t-92 233.5t-236 93.5t-236 -93.5t-92 -233.5zM299 1174q0 22 15 36.5t37 14.5q24 0 51 -27l196 -188q17 -17 17 -37 q0 -22 -14.5 -36.5t-36.5 -14.5q-26 0 -52 26l-196 189q-17 17 -17 37z" />
<glyph unicode="&#xf3;" d="M82 410q0 178 126 304t304 126t304 -126t126 -304t-126 -304t-304 -126t-304 126t-126 304zM184 410q0 -140 92 -234t236 -94t236 94t92 234t-92 233.5t-236 93.5t-236 -93.5t-92 -233.5zM436 973q0 20 17 37l196 188q27 27 52 27q22 0 36.5 -14.5t14.5 -36.5 q0 -20 -17 -37l-196 -189q-26 -26 -51 -26q-22 0 -37 14.5t-15 36.5z" />
<glyph unicode="&#xf4;" d="M82 410q0 178 126 304t304 126t304 -126t126 -304t-126 -304t-304 -126t-304 126t-126 304zM184 410q0 -140 92 -234t236 -94t236 94t92 234t-92 233.5t-236 93.5t-236 -93.5t-92 -233.5zM266 973q0 20 17 37l184 186q27 27 51 27q25 0 52 -27l180 -186q16 -16 16 -37 q0 -22 -14.5 -36.5t-36.5 -14.5q-25 0 -51 26l-148 152l-147 -152q-26 -26 -51 -26q-22 0 -37 14.5t-15 36.5z" />
<glyph unicode="&#xf5;" d="M82 410q0 178 126 304t304 126t304 -126t126 -304t-126 -304t-304 -126t-304 126t-126 304zM184 410q0 -140 92 -234t236 -94t236 94t92 234t-92 233.5t-236 93.5t-236 -93.5t-92 -233.5zM216 956q-5 20 6 39q45 75 68 98q68 66 187 16q35 -15 76 -40q52 -31 86.5 -35 t57.5 14t49 62q10 18 30.5 22.5t39.5 -6.5q19 -10 24 -30t-6 -39q-46 -77 -71 -100q-72 -67 -199 -8q-29 14 -62 34q-52 31 -86.5 35t-57 -14t-48.5 -62q-10 -18 -30.5 -22.5t-39.5 6.5q-19 10 -24 30z" />
<glyph unicode="&#xf6;" d="M82 410q0 178 126 304t304 126t304 -126t126 -304t-126 -304t-304 -126t-304 126t-126 304zM184 410q0 -140 92 -234t236 -94t236 94t92 234t-92 233.5t-236 93.5t-236 -93.5t-92 -233.5zM245 1001q0 34 23 58t57 24t58 -24t24 -58q0 -33 -24 -56t-58 -23t-57 22.5 t-23 56.5zM614 1001q0 34 23 58t57 24t58 -24t24 -58q0 -33 -24 -56t-58 -23t-57 22.5t-23 56.5z" />
<glyph unicode="&#xf7;" horiz-adv-x="1118" d="M176 502q0 22 14.5 36.5t36.5 14.5h664q22 0 36.5 -14.5t14.5 -36.5t-14.5 -36.5t-36.5 -14.5h-664q-22 0 -36.5 14.5t-14.5 36.5zM481 246q0 26 18 43.5t44 17.5t43.5 -17.5t17.5 -43.5t-17.5 -44t-43.5 -18t-44 18t-18 44zM481 758q0 26 18 43.5t44 17.5t43.5 -17.5 t17.5 -43.5t-17.5 -44t-43.5 -18t-44 18t-18 44z" />
<glyph unicode="&#xf8;" d="M82 410q0 178 126 304t304 126t304 -126t126 -304t-126 -304t-304 -126t-304 126t-126 304zM184 410q0 -109 56 -189l460 461q-83 55 -188 55q-144 0 -236 -93.5t-92 -233.5zM309 145q89 -63 203 -63q144 0 236 94t92 234q0 111 -66 200z" />
<glyph unicode="&#xf9;" horiz-adv-x="1075" d="M123 410v368q0 22 14.5 36.5t36.5 14.5t36.5 -14.5t14.5 -36.5v-368q0 -156 76 -242t221 -86q142 0 224.5 93t82.5 235v368q0 22 15 36.5t37 14.5t36.5 -14.5t14.5 -36.5v-737q0 -22 -14.5 -36.5t-36.5 -14.5t-37 14.5t-15 36.5v102h-4q-98 -163 -323 -163 q-181 0 -280 117t-99 313zM264 1174q0 22 15 36.5t37 14.5q24 0 51 -27l196 -188q17 -17 17 -37q0 -22 -14.5 -36.5t-36.5 -14.5q-26 0 -52 26l-196 189q-17 17 -17 37z" />
<glyph unicode="&#xfa;" horiz-adv-x="1075" d="M123 410v368q0 22 14.5 36.5t36.5 14.5t36.5 -14.5t14.5 -36.5v-368q0 -156 76 -242t221 -86q142 0 224.5 93t82.5 235v368q0 22 15 36.5t37 14.5t36.5 -14.5t14.5 -36.5v-737q0 -22 -14.5 -36.5t-36.5 -14.5t-37 14.5t-15 36.5v102h-4q-98 -163 -323 -163 q-181 0 -280 117t-99 313zM436 973q0 20 17 37l196 188q27 27 52 27q22 0 36.5 -14.5t14.5 -36.5q0 -20 -17 -37l-196 -189q-26 -26 -51 -26q-22 0 -37 14.5t-15 36.5z" />
<glyph unicode="&#xfb;" horiz-adv-x="1075" d="M123 410v368q0 22 14.5 36.5t36.5 14.5t36.5 -14.5t14.5 -36.5v-368q0 -156 76 -242t221 -86q142 0 224.5 93t82.5 235v368q0 22 15 36.5t37 14.5t36.5 -14.5t14.5 -36.5v-737q0 -22 -14.5 -36.5t-36.5 -14.5t-37 14.5t-15 36.5v102h-4q-98 -163 -323 -163 q-181 0 -280 117t-99 313zM256 973q0 20 17 37l184 186q27 27 51 27q25 0 52 -27l180 -186q16 -16 16 -37q0 -22 -14.5 -36.5t-36.5 -14.5q-25 0 -51 26l-148 152l-147 -152q-26 -26 -51 -26q-22 0 -37 14.5t-15 36.5z" />
<glyph unicode="&#xfc;" horiz-adv-x="1075" d="M123 410v368q0 22 14.5 36.5t36.5 14.5t36.5 -14.5t14.5 -36.5v-368q0 -156 76 -242t221 -86q142 0 224.5 93t82.5 235v368q0 22 15 36.5t37 14.5t36.5 -14.5t14.5 -36.5v-737q0 -22 -14.5 -36.5t-36.5 -14.5t-37 14.5t-15 36.5v102h-4q-98 -163 -323 -163 q-181 0 -280 117t-99 313zM231 1001q0 34 23 58t57 24t58 -24t24 -58q0 -33 -24 -56t-58 -23t-57 22.5t-23 56.5zM600 1001q0 34 23 58t57 24t58 -24t24 -58q0 -33 -24 -56t-58 -23t-57 22.5t-23 56.5z" />
<glyph unicode="&#xfd;" horiz-adv-x="1075" d="M123 410v368q0 22 14.5 36.5t36.5 14.5t36.5 -14.5t14.5 -36.5v-368q0 -156 76 -242t221 -86q142 0 224.5 93t82.5 235v368q0 22 15 36.5t37 14.5t36.5 -14.5t14.5 -36.5v-819q0 -179 -126 -304.5t-304 -125.5q-92 0 -181 28.5t-153 82.5q-15 14 -17 33.5t11 37.5 q13 17 33.5 18t37.5 -12q114 -86 269 -86q144 0 235.5 94t91.5 234v184h-4q-98 -163 -323 -163q-181 0 -280 117t-99 313zM432 973q0 20 17 37l196 188q27 27 52 27q22 0 36.5 -14.5t14.5 -36.5q0 -20 -17 -37l-196 -189q-26 -26 -51 -26q-22 0 -37 14.5t-15 36.5z" />
<glyph unicode="&#xfe;" horiz-adv-x="1034" d="M143 -420v1731q0 22 15 36.5t37 14.5t36.5 -14.5t14.5 -36.5v-604h4q122 133 313 133q173 0 281 -124.5t108 -305.5q0 -180 -112.5 -305t-286.5 -125q-181 0 -303 133h-4v-533q0 -22 -14.5 -36.5t-36.5 -14.5t-37 14.5t-15 36.5zM236 410q0 -142 82.5 -235t224.5 -93 t224.5 93t82.5 235t-82.5 234.5t-224.5 92.5t-224.5 -92.5t-82.5 -234.5z" />
<glyph unicode="&#xff;" horiz-adv-x="1075" d="M123 410v368q0 22 14.5 36.5t36.5 14.5t36.5 -14.5t14.5 -36.5v-368q0 -156 76 -242t221 -86q142 0 224.5 93t82.5 235v368q0 22 15 36.5t37 14.5t36.5 -14.5t14.5 -36.5v-819q0 -179 -126 -304.5t-304 -125.5q-92 0 -181 28.5t-153 82.5q-15 14 -17 33.5t11 37.5 q13 17 33.5 18t37.5 -12q114 -86 269 -86q144 0 235.5 94t91.5 234v184h-4q-98 -163 -323 -163q-181 0 -280 117t-99 313zM245 1001q0 34 23 58t57 24t58 -24t24 -58q0 -33 -24 -56t-58 -23t-57 22.5t-23 56.5zM614 1001q0 34 23 58t57 24t58 -24t24 -58q0 -33 -24 -56 t-58 -23t-57 22.5t-23 56.5z" />
<glyph unicode="&#x152;" horiz-adv-x="2236" d="M123 676q0 142 55 271t148 222t222 148t271 55q187 0 345.5 -92.5t252.5 -247.5v268q0 22 14.5 37t36.5 15h594q22 0 37 -15t15 -37t-15 -36.5t-37 -14.5h-542v-481h419q22 0 37 -14.5t15 -36.5t-15 -36.5t-37 -14.5h-419v-564h542q22 0 37 -14.5t15 -36.5t-15 -36.5 t-37 -14.5h-594q-22 0 -36.5 14.5t-14.5 36.5v266q-94 -155 -252.5 -246t-345.5 -91q-142 0 -271 55t-222 148t-148 222t-55 271zM225 676q0 -161 79.5 -298t216.5 -216.5t298 -79.5t298 79.5t216.5 216.5t79.5 298t-79.5 298t-216.5 216.5t-298 79.5t-298 -79.5 t-216.5 -216.5t-79.5 -298z" />
<glyph unicode="&#x153;" horiz-adv-x="1724" d="M82 410q0 178 126 304t304 126q122 0 224 -63.5t157 -168.5q55 105 157 168.5t224 63.5q176 0 277.5 -109.5t101.5 -290.5q0 -22 -14.5 -36.5t-36.5 -14.5h-656q8 -133 98.5 -220t229.5 -87q154 0 268 86q17 13 38 12t34 -18t11 -37.5t-17 -34.5q-64 -54 -152.5 -82 t-181.5 -28q-123 0 -224.5 62.5t-156.5 166.5q-55 -104 -156.5 -166.5t-224.5 -62.5q-178 0 -304 126t-126 304zM184 410q0 -140 92 -234t236 -94t236 94t92 234t-92 233.5t-236 93.5t-236 -93.5t-92 -233.5zM956 492h574q-8 113 -71.5 179t-184.5 66q-122 0 -207.5 -67.5 t-110.5 -177.5z" />
<glyph unicode="&#x178;" horiz-adv-x="1433" d="M20 1311q0 22 15 36.5t37 14.5q24 0 51 -27l594 -587l594 587q27 27 51 27q22 0 36.5 -14.5t14.5 -36.5q0 -21 -16 -37l-629 -621v-612q0 -22 -14.5 -36.5t-36.5 -14.5t-36.5 14.5t-14.5 36.5v612l-629 621q-17 17 -17 37zM451 1554q0 34 23 58t56 24q34 0 58 -24t24 -58 q0 -33 -24 -56t-58 -23t-56.5 22.5t-22.5 56.5zM819 1554q0 34 23 58t57 24t58 -24t24 -58q0 -33 -24 -56t-58 -23t-57 22.5t-23 56.5z" />
<glyph unicode="&#x2c6;" horiz-adv-x="704" d="M102 973q0 20 17 37l184 186q27 27 51 27q25 0 52 -27l180 -186q16 -16 16 -37q0 -22 -14.5 -36.5t-36.5 -14.5q-25 0 -51 26l-148 152l-147 -152q-26 -26 -51 -26q-22 0 -37 14.5t-15 36.5z" />
<glyph unicode="&#x2dc;" horiz-adv-x="833" d="M105 956q-5 20 6 39q45 75 68 98q68 66 187 16q35 -15 76 -40q52 -31 86.5 -35t57.5 14t49 62q10 18 30.5 22.5t39.5 -6.5q19 -10 24 -30t-6 -39q-46 -77 -71 -100q-72 -67 -199 -8q-29 14 -62 34q-52 31 -86.5 35t-57 -14t-48.5 -62q-10 -18 -30.5 -22.5t-39.5 6.5 q-19 10 -24 30z" />
<glyph unicode="&#x2000;" horiz-adv-x="897" />
<glyph unicode="&#x2001;" horiz-adv-x="1794" />
<glyph unicode="&#x2002;" horiz-adv-x="897" />
<glyph unicode="&#x2003;" horiz-adv-x="1794" />
<glyph unicode="&#x2004;" horiz-adv-x="598" />
<glyph unicode="&#x2005;" horiz-adv-x="448" />
<glyph unicode="&#x2006;" horiz-adv-x="299" />
<glyph unicode="&#x2007;" horiz-adv-x="299" />
<glyph unicode="&#x2008;" horiz-adv-x="224" />
<glyph unicode="&#x2009;" horiz-adv-x="358" />
<glyph unicode="&#x200a;" horiz-adv-x="99" />
<glyph unicode="&#x2010;" horiz-adv-x="1118" d="M176 502q0 22 14.5 36.5t36.5 14.5h664q22 0 36.5 -14.5t14.5 -36.5t-14.5 -36.5t-36.5 -14.5h-664q-22 0 -36.5 14.5t-14.5 36.5z" />
<glyph unicode="&#x2011;" horiz-adv-x="1118" d="M176 502q0 22 14.5 36.5t36.5 14.5h664q22 0 36.5 -14.5t14.5 -36.5t-14.5 -36.5t-36.5 -14.5h-664q-22 0 -36.5 14.5t-14.5 36.5z" />
<glyph unicode="&#x2012;" horiz-adv-x="1118" d="M176 502q0 22 14.5 36.5t36.5 14.5h664q22 0 36.5 -14.5t14.5 -36.5t-14.5 -36.5t-36.5 -14.5h-664q-22 0 -36.5 14.5t-14.5 36.5z" />
<glyph unicode="&#x2013;" horiz-adv-x="1118" d="M176 502q0 22 14.5 36.5t36.5 14.5h664q22 0 36.5 -14.5t14.5 -36.5t-14.5 -36.5t-36.5 -14.5h-664q-22 0 -36.5 14.5t-14.5 36.5z" />
<glyph unicode="&#x2014;" horiz-adv-x="1732" d="M176 502q0 22 14.5 36.5t36.5 14.5h1278q22 0 36.5 -14.5t14.5 -36.5t-14.5 -36.5t-36.5 -14.5h-1278q-22 0 -36.5 14.5t-14.5 36.5z" />
<glyph unicode="&#x2018;" horiz-adv-x="428" d="M134.5 1118.5q-0.5 52.5 21 111.5t65.5 103q37 37 68 10q17 -14 16.5 -31.5t-16.5 -33.5q-70 -70 -66 -178q26 0 44 -18t18 -44t-18 -43.5t-44 -17.5q-49 0 -71 49q-17 40 -17.5 92.5z" />
<glyph unicode="&#x2019;" horiz-adv-x="428" d="M122.5 1027q0.5 18 16.5 34q70 70 66 178q-26 0 -44 17.5t-18 43.5t18 44t44 18q49 0 71 -49q17 -40 17.5 -92.5t-21 -111.5t-65.5 -103q-38 -38 -68 -11q-17 14 -16.5 32z" />
<glyph unicode="&#x201a;" horiz-adv-x="428" d="M122.5 -222q0.5 18 16.5 34q70 70 66 178q-26 0 -44 17.5t-18 43.5t18 44t44 18q49 0 71 -50q17 -40 17.5 -92.5t-21 -111.5t-65.5 -103q-37 -37 -68 -10q-17 14 -16.5 32z" />
<glyph unicode="&#x201c;" horiz-adv-x="735" d="M134.5 1118.5q-0.5 52.5 21 111.5t65.5 103q37 37 68 10q17 -14 16.5 -31.5t-16.5 -33.5q-70 -70 -66 -178q26 0 44 -18t18 -44t-18 -43.5t-44 -17.5q-49 0 -71 49q-17 40 -17.5 92.5zM441.5 1118.5q-0.5 52.5 21 111.5t65.5 103q37 37 68 10q17 -14 16.5 -31.5 t-16.5 -33.5q-70 -70 -66 -178q26 0 44 -18t18 -44t-18 -43.5t-44 -17.5q-49 0 -71 49q-17 40 -17.5 92.5z" />
<glyph unicode="&#x201d;" horiz-adv-x="735" d="M122.5 1027q0.5 18 16.5 34q70 70 66 178q-26 0 -44 17.5t-18 43.5t18 44t44 18q49 0 71 -49q17 -40 17.5 -92.5t-21 -111.5t-65.5 -103q-38 -38 -68 -11q-17 14 -16.5 32zM429.5 1027q0.5 18 16.5 34q70 70 66 178q-26 0 -43.5 17.5t-17.5 43.5t17.5 44t43.5 18 q50 0 72 -49q15 -42 17 -92.5t-20.5 -110.5t-66.5 -104q-38 -38 -68 -11q-17 14 -16.5 32z" />
<glyph unicode="&#x201e;" horiz-adv-x="735" d="M122.5 -222q0.5 18 16.5 34q70 70 66 178q-26 0 -44 17.5t-18 43.5t18 44t44 18q49 0 71 -50q17 -40 17.5 -92.5t-21 -111.5t-65.5 -103q-37 -37 -68 -10q-17 14 -16.5 32zM429.5 -222q0.5 18 16.5 34q70 70 66 178q-26 0 -43.5 17.5t-17.5 43.5t17.5 44t43.5 18 q50 0 72 -50q15 -42 17 -92.5t-20.5 -110.5t-66.5 -104q-37 -37 -68 -10q-17 14 -16.5 32z" />
<glyph unicode="&#x2022;" horiz-adv-x="409" d="M88 711q0 48 33 82t82 34q48 0 83.5 -34.5t35.5 -81.5q0 -50 -35.5 -83.5t-83.5 -33.5q-50 0 -82.5 33t-32.5 84z" />
<glyph unicode="&#x2026;" horiz-adv-x="1003" d="M133 51q0 26 18 44t44 18t43.5 -18t17.5 -44t-17.5 -43.5t-43.5 -17.5t-44 17.5t-18 43.5zM440 51q0 26 18 44t44 18t43.5 -18t17.5 -44t-17.5 -43.5t-43.5 -17.5t-44 17.5t-18 43.5zM748 51q0 26 17.5 44t43.5 18t43.5 -18t17.5 -44t-17.5 -43.5t-43.5 -17.5t-43.5 17.5 t-17.5 43.5z" />
<glyph unicode="&#x202f;" horiz-adv-x="358" />
<glyph unicode="&#x2039;" horiz-adv-x="794" d="M203 502q0 25 26 51l289 287q16 16 37 16q22 0 36.5 -14.5t14.5 -36.5q0 -25 -26 -51l-254 -250l254 -250q26 -26 26 -51q0 -22 -14.5 -36.5t-36.5 -14.5q-21 0 -37 16l-289 283q-26 26 -26 51z" />
<glyph unicode="&#x203a;" horiz-adv-x="794" d="M205 203q0 25 26 51l254 250l-254 250q-26 26 -26 51q0 22 14.5 36.5t36.5 14.5q21 0 37 -16l289 -287q26 -26 26 -51t-26 -51l-289 -283q-16 -16 -37 -16q-22 0 -36.5 14.5t-14.5 36.5z" />
<glyph unicode="&#x205f;" horiz-adv-x="448" />
<glyph unicode="&#x20ac;" horiz-adv-x="1636" d="M102 543q0 22 15 36.5t37 14.5h155q-4 54 -4 82q0 41 2 61h-153q-22 0 -37 14.5t-15 36.5t15 37t37 15h170q56 232 244 382t433 150q142 0 270 -54.5t224 -150.5q15 -15 15 -35.5t-15 -35.5t-37 -15t-37 15q-81 81 -190.5 127.5t-229.5 46.5q-200 0 -358 -121t-213 -309 h387q22 0 36.5 -15t14.5 -37t-14.5 -36.5t-36.5 -14.5h-407q-2 -20 -2 -61q0 -42 6 -82h403q22 0 36.5 -14.5t14.5 -36.5t-14.5 -36.5t-36.5 -14.5h-381q59 -181 214 -295.5t351 -114.5q121 0 229 45.5t191 128.5q15 15 37 15t37 -15t15 -36t-15 -36q-97 -97 -224.5 -150.5 t-269.5 -53.5q-239 0 -424.5 143.5t-246.5 368.5h-176q-22 0 -37 14.5t-15 36.5z" />
<glyph unicode="&#x2122;" horiz-adv-x="1810" d="M123 1303q0 22 14.5 35.5t36.5 13.5h614q22 0 37 -14t15 -35q0 -22 -15 -36t-37 -14h-256v-551q0 -22 -14.5 -36.5t-36.5 -14.5t-36.5 14.5t-14.5 36.5v551h-256q-22 0 -36.5 14t-14.5 36zM983 702v603q0 22 14.5 36.5t36.5 14.5q24 0 51 -27l250 -254l250 254 q27 27 51 27q22 0 37 -14.5t15 -36.5v-603q0 -22 -15 -36.5t-37 -14.5t-36.5 14.5t-14.5 36.5v480l-196 -203q-27 -27 -52 -27q-24 0 -51 27l-201 203v-480q0 -22 -14.5 -36.5t-36.5 -14.5t-36.5 14.5t-14.5 36.5z" />
<glyph unicode="&#xe000;" horiz-adv-x="829" d="M0 0v829h829v-829h-829z" />
</font>
</defs>
</svg>
