<?xml version="1.0" standalone="no"?>
<!DOCTYPE svg PUBLIC "-//W3C//DTD SVG 1.1//EN" "http://www.w3.org/Graphics/SVG/1.1/DTD/svg11.dtd" >
<svg xmlns="http://www.w3.org/2000/svg">
<metadata></metadata>
<defs>
<font id="estilo_textbold" horiz-adv-x="942" >
<font-face units-per-em="2048" ascent="1638" descent="-410" />
<missing-glyph horiz-adv-x="368" />
<glyph unicode="&#xfb01;" horiz-adv-x="962" d="M0 717q0 43 29.5 72.5t72.5 29.5h41v256q0 162 79 224.5t249 62.5q43 0 72.5 -29.5t29.5 -72.5t-29.5 -73t-72.5 -30q-76 0 -99.5 -21.5t-23.5 -60.5v-256h420q43 0 72.5 -29.5t29.5 -72.5v-625q0 -43 -29.5 -72.5t-72.5 -29.5t-72.5 29.5t-29.5 72.5v522h-318v-522 q0 -43 -29.5 -72.5t-72.5 -29.5t-73 29.5t-30 72.5v522h-41q-43 0 -72.5 30t-29.5 73zM666 1034q0 43 29.5 73t72.5 30t72.5 -30t29.5 -73t-29.5 -72.5t-72.5 -29.5t-72.5 29.5t-29.5 72.5z" />
<glyph unicode="&#xfb02;" horiz-adv-x="1116" d="M0 717q0 43 29.5 72.5t72.5 29.5h41v246q0 162 79 224.5t249 62.5h297q43 0 72.5 -30t29.5 -73v-973q0 -18 3.5 -30.5t15 -25t38 -19t66.5 -6.5q43 0 73 -30t30 -73t-30 -72.5t-73 -29.5q-170 0 -248.5 62t-78.5 224v871h-195q-76 0 -99.5 -21.5t-23.5 -60.5v-246h123 q43 0 72.5 -29.5t29.5 -72.5t-29.5 -73t-72.5 -30h-123v-522q0 -43 -29.5 -72.5t-72.5 -29.5t-73 29.5t-30 72.5v522h-41q-43 0 -72.5 30t-29.5 73z" />
<glyph unicode="&#xfb03;" horiz-adv-x="1484" d="M0 717q0 43 29.5 72.5t72.5 29.5h41v256q0 162 79 224.5t249 62.5q43 0 72.5 -29.5t29.5 -72.5t-29.5 -73t-72.5 -30q-76 0 -99.5 -21.5t-23.5 -60.5v-256h318v256q0 162 78.5 224.5t248.5 62.5q43 0 73 -29.5t30 -72.5t-30 -73t-73 -30q-76 0 -99.5 -21.5t-23.5 -60.5 v-256h420q43 0 73 -29.5t30 -72.5v-625q0 -43 -30 -72.5t-73 -29.5t-72.5 29.5t-29.5 72.5v522h-318v-522q0 -43 -29.5 -72.5t-72.5 -29.5t-72.5 29.5t-29.5 72.5v522h-318v-522q0 -43 -29.5 -72.5t-72.5 -29.5t-73 29.5t-30 72.5v522h-41q-43 0 -72.5 30t-29.5 73z M1188 1034q0 43 29.5 73t72.5 30t73 -30t30 -73t-30 -72.5t-73 -29.5t-72.5 29.5t-29.5 72.5z" />
<glyph unicode="&#xfb04;" horiz-adv-x="1638" d="M0 717q0 43 29.5 72.5t72.5 29.5h41v256q0 162 79 224.5t249 62.5q43 0 72.5 -29.5t29.5 -72.5t-29.5 -73t-72.5 -30q-76 0 -99.5 -21.5t-23.5 -60.5v-256h318v246q0 162 78.5 224.5t248.5 62.5h297q43 0 73 -30t30 -73v-973q0 -18 3.5 -30.5t15 -25t38 -19t66.5 -6.5 q43 0 72.5 -30t29.5 -73t-29.5 -72.5t-72.5 -29.5q-170 0 -249 62t-79 224v871h-195q-76 0 -99.5 -21.5t-23.5 -60.5v-246h123q43 0 73 -29.5t30 -72.5t-30 -73t-73 -30h-123v-522q0 -43 -29.5 -72.5t-72.5 -29.5t-72.5 29.5t-29.5 72.5v522h-318v-522q0 -43 -29.5 -72.5 t-72.5 -29.5t-73 29.5t-30 72.5v522h-41q-43 0 -72.5 30t-29.5 73z" />
<glyph horiz-adv-x="2048" />
<glyph horiz-adv-x="2048" />
<glyph unicode="&#xd;" horiz-adv-x="2048" />
<glyph unicode=" "  horiz-adv-x="368" />
<glyph unicode="&#x09;" horiz-adv-x="368" />
<glyph unicode="&#xa0;" horiz-adv-x="368" />
<glyph unicode="!" horiz-adv-x="512" d="M154 92q0 43 29.5 73t72.5 30t72.5 -30t29.5 -73t-29.5 -72.5t-72.5 -29.5t-72.5 29.5t-29.5 72.5zM154 399v861q0 43 29.5 72.5t72.5 29.5t72.5 -29.5t29.5 -72.5v-861q0 -43 -29.5 -72.5t-72.5 -29.5t-72.5 29.5t-29.5 72.5z" />
<glyph unicode="&#x22;" horiz-adv-x="659" d="M82 993v295q0 32 21 53t53 21q31 0 52 -21t21 -53v-295q0 -31 -21 -52t-52 -21q-32 0 -53 21t-21 52zM430 993v295q0 32 21.5 53t52.5 21q32 0 53 -21t21 -53v-295q0 -31 -21 -52t-53 -21q-31 0 -52.5 21t-21.5 52z" />
<glyph unicode="#" horiz-adv-x="1597" d="M205 502q0 22 14.5 36.5t36.5 14.5h205l90 266h-295q-22 0 -36.5 14.5t-14.5 36.5t14.5 37t36.5 15h330l135 399q22 59 72 49q21 -4 29.5 -24t2.5 -43l-129 -381h361l135 399q22 59 72 49q21 -4 29.5 -24t2.5 -43l-129 -381h174q22 0 37 -15t15 -37t-15 -36.5t-37 -14.5 h-208l-91 -266h299q22 0 37 -14.5t15 -36.5t-15 -36.5t-37 -14.5h-333l-142 -420q-17 -63 -73 -49q-20 5 -29 24.5t-2 42.5l135 402h-360l-142 -420q-17 -63 -73 -49q-20 5 -29 24.5t-2 42.5l135 402h-170q-22 0 -36.5 14.5t-14.5 36.5zM571 553h361l90 266h-360z" />
<glyph unicode="$" horiz-adv-x="999" d="M104.5 196q3.5 26 22.5 50q29 36 75.5 40t76.5 -26q44 -41 103.5 -58.5t111.5 -17.5q91 0 142.5 48t51.5 126q0 56 -32 102.5t-82.5 81t-112 68t-123.5 72t-112.5 83.5t-82.5 111.5t-32 147.5q0 129 74.5 220.5t213.5 117.5v102q0 43 30 73t73 30t72.5 -30t29.5 -73v-100 q124 -16 213 -88q10 -8 19.5 -21.5t17 -33t4 -44.5t-19.5 -49q-25 -35 -67 -42t-77 18q-42 29 -99 46t-101 17q-89 0 -132 -38.5t-43 -104.5q0 -47 32 -87.5t83 -71.5t112.5 -63t123 -72t112.5 -88t83 -121.5t32 -162.5q0 -137 -79.5 -237t-213.5 -129v-105 q0 -43 -29.5 -72.5t-72.5 -29.5t-73 29.5t-30 72.5v99q-148 21 -249 108q-11 9 -20.5 22t-19 33.5t-6 46.5z" />
<glyph unicode="%" horiz-adv-x="1454" d="M164 1149q0 91 65 156t156 65t156 -65t65 -156t-65 -156t-156 -65t-156 65t-65 156zM260 1149q0 -51 37 -88t88 -37t88 37t37 88t-37 88t-88 37t-88 -37t-37 -88zM455 49l430 1272q22 59 71 49q21 -4 30 -24t3 -43l-430 -1272q-8 -29 -27 -42.5t-47 -6.5q-20 4 -29 24 t-1 43zM848 201q0 91 65 156t156 65t156 -65t65 -156t-65 -156t-156 -65t-156 65t-65 156zM944 201q0 -51 37 -88t88 -37t88 37t37 88t-37 88t-88 37t-88 -37t-37 -88z" />
<glyph unicode="&#x26;" horiz-adv-x="1630" d="M123 410q0 108 51 198.5t139 145.5q-56 45 -88 112.5t-32 145.5q0 149 105.5 254.5t254.5 105.5q196 0 313 -96q10 -8 19.5 -21.5t17 -33t4 -44.5t-19.5 -49q-25 -35 -61.5 -42t-71.5 18q-37 26 -61.5 40t-63 27t-76.5 13q-73 0 -120.5 -49t-47.5 -123q0 -73 47 -117.5 t121 -44.5h524v184q0 43 30 73t73 30t72.5 -30t29.5 -73v-184h123q43 0 72.5 -29.5t29.5 -72.5t-29.5 -73t-72.5 -30h-123v-369q0 -18 3.5 -30.5t15 -25t38 -19t66.5 -6.5q43 0 72.5 -30t29.5 -73t-29.5 -72.5t-72.5 -29.5q-170 0 -249 62t-79 224v369h-524q-99 0 -162 -67 t-63 -168q0 -104 63.5 -170t181.5 -66q143 0 236 86q30 30 76.5 26t75.5 -40q19 -24 22.5 -50t-6 -46.5t-19 -33.5t-20.5 -22q-66 -59 -153.5 -86.5t-211.5 -27.5q-195 0 -322.5 124.5t-127.5 305.5z" />
<glyph unicode="'" horiz-adv-x="311" d="M82 993v295q0 32 21 53t53 21q31 0 52 -21t21 -53v-295q0 -31 -21 -52t-52 -21q-32 0 -53 21t-21 52z" />
<glyph unicode="(" horiz-adv-x="649" d="M154 406v540q0 454 280 688q34 28 75.5 25t72.5 -37q28 -31 24.5 -71.5t-37.5 -71.5q-118 -112 -164.5 -241t-46.5 -292v-540q0 -163 46.5 -292t164.5 -241q34 -31 37.5 -71.5t-24.5 -71.5q-31 -34 -72.5 -37.5t-75.5 24.5q-280 234 -280 689z" />
<glyph unicode=")" horiz-adv-x="649" d="M43 -198.5q3 40.5 37 71.5q118 112 164.5 241t46.5 292v540q0 163 -46.5 292t-164.5 241q-34 31 -37 71.5t25 71.5q31 34 72 37t75 -25q281 -235 281 -688v-540q0 -454 -281 -689q-34 -28 -75 -24.5t-72 37.5q-28 31 -25 71.5z" />
<glyph unicode="*" horiz-adv-x="765" d="M102 1092q0 22 15 36.5t37 14.5h106l-76 76q-15 13 -15 34.5t15 36.5t36.5 15t35.5 -15l76 -76v107q0 22 14.5 36.5t36.5 14.5t36.5 -14.5t14.5 -36.5v-107l76 76q14 15 35.5 15t36.5 -15t15 -36.5t-15 -34.5l-76 -76h106q22 0 37 -14.5t15 -36.5t-15 -37t-37 -15h-106 l76 -75q15 -14 15 -35.5t-15 -36.5t-36.5 -15t-35.5 15l-76 76v-107q0 -22 -14.5 -36.5t-36.5 -14.5t-36.5 14.5t-14.5 36.5v107l-76 -76q-14 -15 -35.5 -15t-36.5 15t-15 36.5t15 35.5l76 75h-106q-22 0 -37 15t-15 37z" />
<glyph unicode="+" horiz-adv-x="1118" d="M164 500q0 38 25.5 63t62.5 25h219v219q0 37 25.5 62.5t62.5 25.5q38 0 63 -25.5t25 -62.5v-219h219q37 0 62.5 -25t25.5 -63q0 -37 -25.5 -62.5t-62.5 -25.5h-219v-219q0 -37 -25 -63t-63 -26q-37 0 -62.5 26t-25.5 63v219h-219q-37 0 -62.5 25.5t-25.5 62.5z" />
<glyph unicode="," horiz-adv-x="389" d="M92 92q0 43 30 73t73 30q42 0 71.5 -25t40.5 -68q20 -83 -10.5 -180t-99.5 -166q-16 -16 -38 -20t-40 10q-17 13 -18 35t14 37q38 38 59.5 84.5t20.5 87.5q-43 0 -73 29.5t-30 72.5z" />
<glyph unicode="-" horiz-adv-x="1118" d="M164 500q0 38 25.5 63t62.5 25h614q37 0 62.5 -25t25.5 -63q0 -37 -25.5 -62.5t-62.5 -25.5h-614q-37 0 -62.5 25.5t-25.5 62.5z" />
<glyph unicode="." horiz-adv-x="389" d="M92 92q0 43 30 73t73 30t72.5 -30t29.5 -73t-29.5 -72.5t-72.5 -29.5t-73 29.5t-30 72.5z" />
<glyph unicode="/" horiz-adv-x="811" d="M111 113l393 1165q42 112 137 92q39 -9 56 -48t5 -81l-393 -1165q-34 -120 -141 -92q-37 9 -54.5 47t-2.5 82z" />
<glyph unicode="0" horiz-adv-x="1105" d="M123 410v532q0 178 125.5 304t304.5 126t304.5 -126t125.5 -304v-532q0 -178 -125.5 -304t-304.5 -126t-304.5 126t-125.5 304zM328 410q0 -101 63 -168.5t162 -67.5t162 67.5t63 168.5v532q0 101 -63 168.5t-162 67.5t-162 -67.5t-63 -168.5v-532z" />
<glyph unicode="1" horiz-adv-x="686" d="M20 1249q0 43 30 73t73 30h297q43 0 72.5 -30t29.5 -73v-1157q0 -43 -29.5 -72.5t-72.5 -29.5t-73 29.5t-30 72.5v1055h-194q-43 0 -73 29.5t-30 72.5z" />
<glyph unicode="2" horiz-adv-x="1003" d="M123 102v181q0 92 30.5 168t78.5 126.5t106.5 93.5t117.5 78.5t107 71t78.5 82t30.5 101.5q0 73 -44 123.5t-120 50.5q-102 0 -217 -62q-36 -21 -75.5 -11t-59.5 50q-25 52 -1.5 93.5t52.5 56.5q118 67 301 67q160 0 264.5 -101t104.5 -267q0 -83 -30.5 -150 t-78.5 -111.5t-107 -83t-117.5 -74.5t-106.5 -76t-78.5 -97.5t-30.5 -128.5v-78h491q43 0 73 -30t30 -73t-30 -72.5t-73 -29.5h-594q-43 0 -72.5 29.5t-29.5 72.5z" />
<glyph unicode="3" horiz-adv-x="1067" d="M83.5 196q3.5 26 22.5 50q29 36 75.5 40t76.5 -26q93 -86 236 -86q118 0 181.5 66t63.5 170q0 101 -63 168t-162 67h-31q-43 0 -72.5 30t-29.5 73t29.5 72.5t72.5 29.5h31q74 0 121 44.5t47 117.5q0 74 -47.5 123t-120.5 49q-38 0 -76.5 -13t-63 -27t-61.5 -40 q-35 -25 -71.5 -18t-61.5 42q-16 24 -19.5 49t4 44.5t17 33t19.5 21.5q117 96 313 96q149 0 254.5 -105.5t105.5 -254.5q0 -78 -32 -145.5t-88 -112.5q88 -55 139 -145.5t51 -198.5q0 -181 -127.5 -305.5t-322.5 -124.5q-124 0 -211.5 27.5t-153.5 86.5q-11 9 -20.5 22 t-19 33.5t-6 46.5z" />
<glyph unicode="4" horiz-adv-x="1003" d="M41 410q0 14 4 31t8 28t10 25t7 16l338 774q36 78 112 78q43 0 67.5 -24.5t24.5 -67.5q0 -40 -37 -123l-288 -635h317v154q0 43 30 72.5t73 29.5t72.5 -29.5t29.5 -72.5v-154h51q43 0 73 -29.5t30 -72.5t-30 -73t-73 -30h-51v-215q0 -43 -29.5 -72.5t-72.5 -29.5 t-73 29.5t-30 72.5v215h-461q-43 0 -72.5 30t-29.5 73z" />
<glyph unicode="5" horiz-adv-x="1067" d="M83.5 196q3.5 26 22.5 50q29 36 75.5 40t76.5 -26q93 -86 236 -86q118 0 181.5 66t63.5 170q0 101 -63 168t-162 67h-256q-43 0 -72.5 30t-29.5 73v501q0 43 29.5 73t72.5 30h512q43 0 72.5 -30t29.5 -73t-29.5 -72.5t-72.5 -29.5h-410v-328h154q181 0 305.5 -116.5 t124.5 -292.5q0 -181 -127.5 -305.5t-322.5 -124.5q-124 0 -211.5 27.5t-153.5 86.5q-11 9 -20.5 22t-19 33.5t-6 46.5z" />
<glyph unicode="6" horiz-adv-x="1112" d="M124 481.5q0 60.5 8 130.5t29 137t52.5 136.5t82 134.5t115 125t153.5 114t196 97q39 17 78 -3t53 -63q12 -39 -6.5 -75.5t-57.5 -51.5q-349 -136 -460 -407q86 63 192 63q181 0 305.5 -116.5t124.5 -292.5q0 -178 -125.5 -304t-304.5 -126q-165 0 -287 109t-141 271 q-7 61 -7 121.5zM334 410q0 -101 63 -168.5t162 -67.5t162 67.5t63 168.5t-63 168t-162 67t-162 -67t-63 -168z" />
<glyph unicode="7" horiz-adv-x="921" d="M20 1249q0 43 30 73t73 30h655q43 0 73 -30t30 -73q0 -14 -4 -31t-8 -28t-10 -25t-7 -16l-473 -1081q-36 -78 -113 -78q-43 0 -67.5 24.5t-24.5 67.5q0 40 37 123l424 942h-512q-43 0 -73 29.5t-30 72.5z" />
<glyph unicode="8" horiz-adv-x="1105" d="M123 410q0 108 51 198.5t139 145.5q-56 45 -88 112.5t-32 145.5q0 149 105.5 254.5t254.5 105.5t254.5 -105.5t105.5 -254.5q0 -78 -32 -145.5t-88 -112.5q88 -55 139 -145.5t51 -198.5q0 -178 -125.5 -304t-304.5 -126t-304.5 126t-125.5 304zM328 410q0 -101 63 -168.5 t162 -67.5t162 67.5t63 168.5t-63 168t-162 67t-162 -67t-63 -168zM385 1012q0 -74 47.5 -123t120.5 -49t120.5 49t47.5 123t-47.5 123t-120.5 49t-120.5 -49t-47.5 -123z" />
<glyph unicode="9" horiz-adv-x="1112" d="M123 942q0 178 125.5 304t304.5 126q165 0 287 -109.5t141 -271.5q7 -61 7 -121.5t-8 -130t-29 -137t-52.5 -136.5t-82 -134t-115 -125t-153.5 -114t-196 -97q-40 -17 -78.5 2.5t-52.5 62.5q-12 39 6.5 75.5t57.5 51.5q349 136 460 408q-87 -64 -192 -64 q-118 0 -216.5 52.5t-156 146.5t-57.5 211zM328 942q0 -101 63 -168t162 -67t162 67t63 168t-63 168.5t-162 67.5t-162 -67.5t-63 -168.5z" />
<glyph unicode=":" horiz-adv-x="389" d="M92 195q0 43 30 72.5t73 29.5t72.5 -29.5t29.5 -72.5t-29.5 -73t-72.5 -30t-73 30t-30 73zM92 625q0 43 30 72.5t73 29.5t72.5 -29.5t29.5 -72.5t-29.5 -73t-72.5 -30t-73 30t-30 73z" />
<glyph unicode=";" horiz-adv-x="389" d="M92 92q0 43 30 73t73 30q42 0 71.5 -25t40.5 -68q20 -83 -10.5 -180t-99.5 -166q-16 -16 -38 -20t-40 10q-17 13 -18 35t14 37q38 38 59.5 84.5t20.5 87.5q-43 0 -73 29.5t-30 72.5zM92 625q0 43 30 72.5t73 29.5t72.5 -29.5t29.5 -72.5t-29.5 -73t-72.5 -30t-73 30 t-30 73z" />
<glyph unicode="&#x3c;" horiz-adv-x="794" d="M164 502q0 25 9.5 41.5t37.5 46.5l266 260q22 27 66 27q36 0 62 -25.5t26 -63.5q0 -25 -10 -42t-39 -46l-203 -196l203 -197q29 -29 39 -46t10 -42q0 -38 -26 -63t-62 -25q-44 0 -66 27l-266 256q-27 26 -37 43.5t-10 44.5z" />
<glyph unicode="=" horiz-adv-x="1118" d="M164 315q0 38 25.5 63t62.5 25h614q37 0 62.5 -25t25.5 -63q0 -37 -25.5 -62.5t-62.5 -25.5h-614q-37 0 -62.5 25.5t-25.5 62.5zM164 688q0 37 25.5 62.5t62.5 25.5h614q37 0 62.5 -25.5t25.5 -62.5q0 -38 -25.5 -63t-62.5 -25h-614q-37 0 -62.5 25t-25.5 63z" />
<glyph unicode="&#x3e;" horiz-adv-x="794" d="M164 219q0 25 10 42t39 46l203 197l-203 196q-29 29 -39 46t-10 42q0 38 26 63.5t62 25.5q43 0 65 -27l267 -260q28 -30 37.5 -46.5t9.5 -41.5q0 -27 -10 -44.5t-37 -43.5l-267 -256q-22 -27 -65 -27q-36 0 -62 25t-26 63z" />
<glyph unicode="?" horiz-adv-x="958" d="M92.5 1248.5q23.5 41.5 52.5 56.5q118 67 301 67q179 0 305 -126t126 -304t-127 -304t-306 -126v-113q0 -43 -29.5 -72.5t-72.5 -29.5t-72.5 29.5t-29.5 72.5v205q0 43 29.5 73t72.5 30h104q99 0 162.5 67t63.5 168t-63.5 168.5t-162.5 67.5q-102 0 -217 -62 q-36 -21 -75.5 -11t-59.5 50q-25 52 -1.5 93.5zM240 92q0 43 29.5 73t72.5 30t72.5 -30t29.5 -73t-29.5 -72.5t-72.5 -29.5t-72.5 29.5t-29.5 72.5z" />
<glyph unicode="@" horiz-adv-x="1720" d="M164 389q0 142 55 271t148 222t222 148t271 55t271 -55t222 -148t148 -222t55 -271v-303q0 -22 -14.5 -36.5t-36.5 -14.5h-418q-34 0 -57.5 24t-23.5 58v16h-5q-33 -49 -99.5 -77.5t-141.5 -28.5q-31 0 -61.5 6t-61.5 21t-54.5 37.5t-38 58.5t-14.5 81q0 55 24 97 t62.5 64.5t79 33t80.5 10.5q128 0 225 -41h5v58q0 106 -144 106q-101 0 -182 -49q-28 -19 -63.5 -14t-51.5 36q-33 64 43 121q104 62 262 62q82 0 143 -23.5t93.5 -61.5t47.5 -79t15 -84v-330h285v252q0 161 -79.5 298t-216.5 216.5t-298 79.5t-298 -79.5t-216.5 -216.5 t-79.5 -298t79.5 -298t216.5 -216.5t298 -79.5q22 0 36.5 -14.5t14.5 -36.5t-14.5 -36.5t-36.5 -14.5q-142 0 -271 55t-222 148t-148 222t-55 271zM694 240q0 -74 107 -74q103 0 205 41v98q-90 8 -205 8q-107 0 -107 -73z" />
<glyph unicode="A" horiz-adv-x="1470" d="M28 60q-6 16 -6 33q0 23 11 46l542 1143q24 51 70 70.5t90 19.5t90 -19.5t70 -70.5l543 -1143q11 -23 11 -46q0 -17 -6 -33q-14 -38 -54 -60q-21 -10 -43 -10q-18 0 -38 8q-42 16 -61 53l-182 379h-659l-183 -379q-19 -37 -60 -53q-19 -7 -38 -8q-22 0 -43 10 q-40 22 -54 60zM500 635h471l-236 512z" />
<glyph unicode="B" horiz-adv-x="1136" d="M154 102v1147q0 43 29.5 73t72.5 30h307q168 0 268.5 -106t100.5 -263q0 -130 -101 -231q100 -49 162 -140t62 -204q0 -169 -120.5 -288.5t-289.5 -119.5h-389q-43 0 -72.5 29.5t-29.5 72.5zM358 205h283q85 0 145 60t60 145t-60 144.5t-145 59.5h-283v-409zM358 819h201 q67 0 115.5 48.5t48.5 115.5t-48.5 115.5t-115.5 48.5h-201v-328z" />
<glyph unicode="C" horiz-adv-x="1454" d="M123 676q0 142 55 271t148 222t222 148t271 55q145 0 274 -56t228 -157q31 -31 31 -71.5t-31 -71.5q-30 -30 -70 -30h-3q-42 1 -72 32q-143 149 -357 149q-140 0 -252.5 -67t-173.5 -178.5t-61 -245.5t61 -246t173.5 -179t252.5 -67q214 0 357 150q30 31 72 32h3 q40 0 70 -30q31 -31 31 -71.5t-31 -71.5q-99 -101 -228 -157t-274 -56q-142 0 -271 55t-222 148t-148 222t-55 271z" />
<glyph unicode="D" horiz-adv-x="1720" d="M154 102v1147q0 43 29.5 73t72.5 30h645q142 0 270.5 -52t222 -141t148.5 -215t55 -268t-55 -268t-148.5 -215t-222 -141t-270.5 -52h-645q-43 0 -72.5 29.5t-29.5 72.5zM358 205h543q214 0 351 134t137 337t-137 337t-351 134h-543v-942z" />
<glyph unicode="E" horiz-adv-x="1024" d="M154 102v1147q0 43 29.5 73t72.5 30h594q43 0 72.5 -30t29.5 -73t-29.5 -72.5t-72.5 -29.5h-492v-328h369q43 0 72.5 -29.5t29.5 -72.5t-29.5 -73t-72.5 -30h-369v-409h492q43 0 72.5 -30t29.5 -73t-29.5 -72.5t-72.5 -29.5h-594q-43 0 -72.5 29.5t-29.5 72.5z" />
<glyph unicode="F" horiz-adv-x="972" d="M154 92v1157q0 43 29.5 73t72.5 30h594q43 0 72.5 -30t29.5 -73t-29.5 -72.5t-72.5 -29.5h-492v-369h369q43 0 72.5 -29.5t29.5 -72.5t-29.5 -73t-72.5 -30h-369v-481q0 -43 -29.5 -72.5t-72.5 -29.5t-72.5 29.5t-29.5 72.5z" />
<glyph unicode="G" horiz-adv-x="1474" d="M123 676q0 142 55 271t148 222t222 148t271 55q145 0 274 -56t228 -157q31 -31 31 -71.5t-31 -71.5q-30 -30 -70 -30h-3q-41 1 -72 32q-143 149 -357 149q-140 0 -252.5 -67t-173.5 -178.5t-61 -245.5t61 -246t173.5 -179t252.5 -67q190 0 328 119v268q0 43 29.5 73 t72.5 30t73 -30t30 -73v-305q0 -39 -27 -69q-94 -100 -227 -158.5t-279 -58.5q-142 0 -271 55t-222 148t-148 222t-55 271z" />
<glyph unicode="H" horiz-adv-x="1802" d="M154 92v1168q0 43 29.5 72.5t72.5 29.5t72.5 -29.5t29.5 -72.5v-431h1086v431q0 43 29.5 72.5t72.5 29.5t73 -29.5t30 -72.5v-1168q0 -43 -30 -72.5t-73 -29.5t-72.5 29.5t-29.5 72.5v533h-1086v-533q0 -43 -29.5 -72.5t-72.5 -29.5t-72.5 29.5t-29.5 72.5z" />
<glyph unicode="I" horiz-adv-x="512" d="M154 92v1168q0 43 29.5 72.5t72.5 29.5t72.5 -29.5t29.5 -72.5v-1168q0 -43 -29.5 -72.5t-72.5 -29.5t-72.5 29.5t-29.5 72.5z" />
<glyph unicode="J" horiz-adv-x="512" d="M-94 -506q3 41 37 72q118 112 164.5 240.5t46.5 291.5v1162q0 43 29.5 72.5t72.5 29.5t72.5 -29.5t29.5 -72.5v-1162q0 -454 -280 -688q-31 -25 -68 -25h-8q-41 3 -72 37q-25 28 -25 63q0 4 1 9z" />
<glyph unicode="K" horiz-adv-x="1546" d="M154 92v1168q0 43 29.5 72.5t72.5 29.5t72.5 -29.5t29.5 -72.5v-560l850 631q35 29 81 31h4q43 0 71 -31q19 -26 19 -54q0 -10 -2 -20q-9 -39 -42 -65l-675 -498l219 -250q109 -123 239.5 -186t300.5 -63q43 0 73 -30t30 -73t-30 -72.5t-73 -29.5q-427 0 -704 311 l-227 256l-134 -102v-363q0 -43 -29.5 -72.5t-72.5 -29.5t-72.5 29.5t-29.5 72.5z" />
<glyph unicode="L" horiz-adv-x="972" d="M154 102v1158q0 43 29.5 72.5t72.5 29.5t72.5 -29.5t29.5 -72.5v-1055h492q43 0 72.5 -30t29.5 -73t-29.5 -72.5t-72.5 -29.5h-594q-43 0 -72.5 29.5t-29.5 72.5z" />
<glyph unicode="M" horiz-adv-x="1802" d="M154 92v1168q0 43 29.5 72.5t72.5 29.5q30 0 50.5 -11t51.5 -42l543 -521l543 521q31 31 51.5 42t50.5 11q43 0 73 -29.5t30 -72.5v-1168q0 -43 -30 -72.5t-73 -29.5t-72.5 29.5t-29.5 72.5v922l-438 -420q-31 -31 -52.5 -42t-52.5 -11q-30 0 -50.5 11t-51.5 42l-441 420 v-922q0 -43 -29.5 -72.5t-72.5 -29.5t-72.5 29.5t-29.5 72.5z" />
<glyph unicode="N" horiz-adv-x="1802" d="M154 92v1168q0 43 29.5 72.5t72.5 29.5q30 0 50.5 -11t51.5 -42l1086 -971v922q0 43 29.5 72.5t72.5 29.5t73 -29.5t30 -72.5v-1168q0 -43 -30 -72.5t-73 -29.5q-30 0 -50.5 11t-51.5 42l-1086 971v-922q0 -43 -29.5 -72.5t-72.5 -29.5t-72.5 29.5t-29.5 72.5z" />
<glyph unicode="O" horiz-adv-x="1638" d="M123 676q0 142 55 271t148 222t222 148t271 55q189 0 349.5 -93t254 -253.5t93.5 -349.5t-93.5 -349.5t-254 -253.5t-349.5 -93q-142 0 -271 55t-222 148t-148 222t-55 271zM332 676q0 -134 61 -246t173.5 -179t252.5 -67t252.5 67t174 179.5t61.5 245.5t-61.5 245 t-174 179t-252.5 67t-252.5 -67t-173.5 -178.5t-61 -245.5z" />
<glyph unicode="P" horiz-adv-x="1136" d="M154 92v1157q0 43 29.5 73t72.5 30h389q169 0 289.5 -120.5t120.5 -289.5t-120.5 -289.5t-289.5 -120.5h-287v-440q0 -43 -29.5 -72.5t-72.5 -29.5t-72.5 29.5t-29.5 72.5zM358 737h283q85 0 145 60t60 145t-60 145t-145 60h-283v-410z" />
<glyph unicode="Q" horiz-adv-x="1638" d="M123 676q0 142 55 271t148 222t222 148t271 55q189 0 349.5 -93t254 -253.5t93.5 -349.5q0 -229 -134 -411.5t-346 -250.5q32 -45 67 -84.5t86.5 -83t107 -74.5t129.5 -53t153 -25h17q73 0 161 18q99 21 205 67q22 10 44 10q16 0 33 -5q39 -13 58 -50q14 -25 14 -50 q0 -16 -5 -32q-14 -41 -54 -58q-141 -60 -275 -83q-93 -16 -174 -16q-35 0 -67 3q-108 10 -208 45.5t-176 85t-143 113t-111.5 121t-80.5 117.5q-189 1 -349 94t-252.5 253t-92.5 349zM332 676q0 -134 61 -246t173.5 -179t252.5 -67t252.5 67t174 179.5t61.5 245.5 t-61.5 245t-174 179t-252.5 67t-252.5 -67t-173.5 -178.5t-61 -245.5z" />
<glyph unicode="R" horiz-adv-x="1546" d="M154 92v1157q0 43 29.5 73t72.5 30h389q169 0 289.5 -120.5t120.5 -289.5q0 -130 -75.5 -236t-195.5 -149l99 -113q109 -123 239.5 -186t300.5 -63q43 0 73 -30t30 -73t-30 -72.5t-73 -29.5q-427 0 -704 311l-207 231h-154v-440q0 -43 -29.5 -72.5t-72.5 -29.5 t-72.5 29.5t-29.5 72.5zM358 737h283q85 0 145 60t60 145t-60 145t-145 60h-283v-410z" />
<glyph unicode="S" horiz-adv-x="958" d="M84 196q4 26 22 50q30 36 76 40h10q39 0 66 -26q44 -41 103.5 -58.5t111.5 -17.5q91 0 143 48t52 126q0 56 -32 102.5t-83 81t-112.5 68t-123 72t-112.5 83.5t-83 111.5t-32 147.5q0 152 103.5 250t289.5 98q197 0 314 -96q15 -11 26 -31q11 -21 15 -53v-8q0 -28 -21 -56 q-25 -35 -67 -42q-9 -2 -17 -2q-31 0 -59 20q-42 29 -99.5 46t-101.5 17q-89 0 -131.5 -38.5t-42.5 -104.5q0 -47 32 -87.5t83 -71.5t112.5 -63t123 -72t112.5 -88t83 -121.5t32 -162.5q0 -164 -111 -271t-293 -107q-215 0 -344 114q-11 9 -21 22q-8 14 -18 34q-7 15 -7 32 q0 7 1 14z" />
<glyph unicode="T" horiz-adv-x="880" d="M41 1249q0 43 29.5 73t72.5 30h594q43 0 73 -30t30 -73t-30 -72.5t-73 -29.5h-194v-1055q0 -43 -30 -72.5t-73 -29.5t-72.5 29.5t-29.5 72.5v1055h-195q-43 0 -72.5 29.5t-29.5 72.5z" />
<glyph unicode="U" horiz-adv-x="1679" d="M143 676v584q0 43 30 72.5t73 29.5t72.5 -29.5t29.5 -72.5v-584q0 -133 62.5 -245.5t176 -179.5t253.5 -67t253.5 67t175.5 179.5t62 245.5v584q0 43 30 72.5t73 29.5t72.5 -29.5t29.5 -72.5v-584q0 -142 -55 -271t-148 -222t-222 -148t-271 -55q-189 0 -349.5 93 t-254 253.5t-93.5 349.5z" />
<glyph unicode="V" horiz-adv-x="1470" d="M28 1291q14 39 54 61q21 10 43 10q19 0 39 -8q42 -16 59 -54l512 -1095l512 1095q18 38 60 54q20 8 39 8q22 0 43 -10q40 -22 54 -61q6 -17 6 -33q0 -23 -11 -46l-543 -1142q-24 -51 -70 -70.5t-90 -19.5t-90 19.5t-70 70.5l-542 1142q-11 23 -11 46q0 16 6 33z" />
<glyph unicode="W" horiz-adv-x="1744" d="M125 1260v7q0 37 28 65q31 30 74 30q42 0 70 -29t33 -73l92 -932l348 430q27 32 48 42.5t54 10.5t56 -10.5t49 -42.5l346 -428l92 930q5 44 33 73t70 29q43 0 74 -30q28 -27 28 -65v-7l-102 -1168q-3 -43 -32 -72.5t-71 -29.5q-33 0 -54 10.5t-48 42.5l-441 520 l-440 -520q-27 -32 -48 -42.5t-54 -10.5q-42 0 -71 29.5t-32 72.5z" />
<glyph unicode="X" horiz-adv-x="1564" d="M82 92q0 41 33 74l518 510l-518 510q-33 33 -33 74q0 43 29.5 72.5t72.5 29.5q30 0 51 -11t52 -42l493 -490l498 490q31 31 51.5 42t50.5 11q43 0 73 -29.5t30 -72.5q0 -41 -33 -74l-522 -510l514 -510q33 -33 33 -74q0 -43 -30 -72.5t-73 -29.5q-30 0 -50.5 11t-51.5 42 l-490 485l-493 -485q-31 -31 -52 -42t-51 -11q-43 0 -72.5 29.5t-29.5 72.5z" />
<glyph unicode="Y" horiz-adv-x="1441" d="M20 1260q0 43 30 72.5t73 29.5q30 0 50.5 -11t51.5 -42l494 -490l498 490q31 31 51.5 42t50.5 11q43 0 72.5 -29.5t29.5 -72.5q0 -42 -32 -74l-568 -555v-539q0 -43 -29.5 -72.5t-72.5 -29.5t-73 29.5t-30 72.5v539l-563 555q-33 33 -33 74z" />
<glyph unicode="Z" horiz-adv-x="1460" d="M20 102q0 30 11 50.5t43 52.5l977 942h-846q-43 0 -73 29.5t-30 72.5t30 73t73 30h1091q43 0 73 -30t30 -73q0 -29 -10.5 -48t-42.5 -54l-984 -942h975q43 0 73 -30t30 -73t-30 -72.5t-73 -29.5h-1214q-43 0 -73 29.5t-30 72.5z" />
<glyph unicode="[" horiz-adv-x="645" d="M154 -205v1761q0 43 29.5 73t72.5 30h246q43 0 72.5 -30t29.5 -73t-29.5 -72.5t-72.5 -29.5h-144v-1556h144q43 0 72.5 -30t29.5 -73t-29.5 -72.5t-72.5 -29.5h-246q-43 0 -72.5 29.5t-29.5 72.5z" />
<glyph unicode="\" horiz-adv-x="811" d="M109 1241q-12 42 5 81t56 48q95 20 137 -92l393 -1165q15 -44 -2.5 -82t-54.5 -47q-107 -28 -141 92z" />
<glyph unicode="]" horiz-adv-x="645" d="M41 -205q0 43 29.5 73t72.5 30h144v1556h-144q-43 0 -72.5 29.5t-29.5 72.5t29.5 73t72.5 30h246q43 0 73 -30t30 -73v-1761q0 -43 -30 -72.5t-73 -29.5h-246q-43 0 -72.5 29.5t-29.5 72.5z" />
<glyph unicode="^" horiz-adv-x="704" d="M57 688q0 32 23 55l201 199q25 25 38.5 33t34.5 8t35.5 -8.5t38.5 -32.5l201 -199q22 -22 22 -55q0 -31 -20.5 -52.5t-52.5 -21.5q-21 0 -35 8t-39 31l-152 152l-147 -152q-25 -23 -39 -31t-35 -8q-32 0 -53 21.5t-21 52.5z" />
<glyph unicode="_" horiz-adv-x="1118" d="M164 -176q0 38 25.5 63t62.5 25h614q37 0 62.5 -25t25.5 -63q0 -37 -25.5 -62.5t-62.5 -25.5h-614q-37 0 -62.5 25.5t-25.5 62.5z" />
<glyph unicode="`" horiz-adv-x="520" d="M82 1165q0 34 23 57t57 23q22 0 37.5 -8.5t42.5 -32.5l149 -143q23 -26 23 -60t-23 -56.5t-57 -22.5q-22 0 -37.5 8.5t-42.5 32.5l-150 143q-22 25 -22 59z" />
<glyph unicode="a" d="M61 236q0 56 20.5 101t52.5 73.5t73.5 47.5t82 26.5t79.5 7.5q158 0 282 -52h4v72q0 133 -180 133q-48 0 -110.5 -15t-116.5 -46q-28 -19 -61 -19q-9 -1 -19 1q-44 6 -64 46q-12 23 -12 45t7 38t19.5 31t22.5 22.5t19 13.5q128 78 325 78q103 0 179 -25.5t117 -68.5 t60 -91.5t19 -101.5v-461q0 -43 -29.5 -72.5t-72.5 -29.5t-73 29.5t-30 72.5v21h-4q-42 -61 -126 -97t-177 -36q-39 0 -77 7.5t-77 26.5t-68 47.5t-47 73.5t-18 101zM266 246q0 -92 133 -92q129 0 256 51v123q-113 10 -256 10q-133 0 -133 -92z" />
<glyph unicode="b" horiz-adv-x="1013" d="M92 92v1168q0 43 30 72.5t73 29.5t72.5 -29.5t29.5 -72.5v-533h4q89 113 262 113q167 0 278 -125t111 -305t-111 -305t-278 -125q-170 0 -262 133h-4v-21q0 -43 -29.5 -72.5t-72.5 -29.5t-73 29.5t-30 72.5zM297 410q0 -101 63 -168.5t162 -67.5t162.5 67.5t63.5 168.5 t-63.5 168t-162.5 67t-162 -67t-63 -168z" />
<glyph unicode="c" horiz-adv-x="897" d="M61 410q0 178 126 304t305 126q181 0 301 -68q29 -15 53 -56q11 -20 11 -42q0 -24 -13 -51q-20 -40 -60 -50q-13 -3 -25 -3q-26 0 -50 14q-113 61 -217 61q-99 0 -162.5 -67t-63.5 -168t63.5 -168.5t162.5 -67.5q102 0 217 62q24 14 50 14q11 0 25 -3q40 -10 60 -50 q13 -27 13 -51q1 -22 -11 -42q-24 -42 -53 -57q-118 -67 -301 -67q-179 0 -305 126t-126 304z" />
<glyph unicode="d" horiz-adv-x="1013" d="M61 410q0 180 111.5 305t278.5 125q173 0 262 -113h4v533q0 43 29.5 72.5t72.5 29.5t73 -29.5t30 -72.5v-1168q0 -43 -30 -72.5t-73 -29.5t-72.5 29.5t-29.5 72.5v21h-4q-92 -133 -262 -133q-167 0 -278.5 125t-111.5 305zM266 410q0 -101 63.5 -168.5t162.5 -67.5 t162 67.5t63 168.5t-63 168t-162 67t-162.5 -67t-63.5 -168z" />
<glyph unicode="e" d="M61 410q0 178 126 304t305 126q184 0 296.5 -110.5t112.5 -289.5q0 -43 -29.5 -72.5t-72.5 -29.5h-525q21 -73 79.5 -118.5t138.5 -45.5q102 0 217 62q24 14 50 14q11 0 25 -3q40 -10 60 -50q13 -27 13 -51q1 -22 -11 -42q-24 -42 -53 -57q-118 -67 -301 -67 q-179 0 -305 126t-126 304zM297 512h373q-36 133 -178 133q-139 0 -195 -133z" />
<glyph unicode="f" horiz-adv-x="573" d="M0 717q0 43 29.5 72.5t72.5 29.5h41v256q0 162 79 224.5t249 62.5q43 0 72.5 -29.5t29.5 -72.5t-29.5 -73t-72.5 -30q-76 0 -99.5 -21.5t-23.5 -60.5v-256h123q43 0 72.5 -29.5t29.5 -72.5t-29.5 -73t-72.5 -30h-123v-522q0 -43 -29.5 -72.5t-72.5 -29.5t-73 29.5 t-30 72.5v522h-41q-43 0 -72.5 30t-29.5 73z" />
<glyph unicode="g" horiz-adv-x="1013" d="M61 410q0 180 111.5 305t278.5 125q170 0 262 -133h4v20q0 43 29.5 72.5t72.5 29.5t73 -29.5t30 -72.5v-768q0 -179 -126 -304.5t-304 -125.5q-182 0 -302 68q-29 15 -52 56q-12 20 -12 42q0 24 13 51q20 40 59 50q13 3 26 3q26 0 50 -14q113 -61 218 -61q99 0 162 67 t63 168v154h-4q-92 -133 -262 -133q-167 0 -278.5 125t-111.5 305zM266 410q0 -101 63.5 -168.5t162.5 -67.5t162 67.5t63 168.5t-63 168t-162 67t-162.5 -67t-63.5 -168z" />
<glyph unicode="h" horiz-adv-x="1034" d="M92 92v1168q0 43 30 72.5t73 29.5t72.5 -29.5t29.5 -72.5v-553h4q63 66 129.5 99.5t153.5 33.5q169 0 268.5 -115.5t99.5 -314.5v-318q0 -43 -29.5 -72.5t-72.5 -29.5t-72.5 29.5t-29.5 72.5v318q0 113 -61.5 174t-164.5 61q-99 0 -162 -67t-63 -168v-318 q0 -43 -29.5 -72.5t-72.5 -29.5t-73 29.5t-30 72.5z" />
<glyph unicode="i" horiz-adv-x="389" d="M92 92v635q0 43 30 72.5t73 29.5t72.5 -29.5t29.5 -72.5v-635q0 -43 -29.5 -72.5t-72.5 -29.5t-73 29.5t-30 72.5zM92 1034q0 43 30 73t73 30t72.5 -30t29.5 -73t-29.5 -72.5t-72.5 -29.5t-73 29.5t-30 72.5z" />
<glyph unicode="j" horiz-adv-x="389" d="M-156 -362q3 40 37 71q118 112 164.5 241t46.5 292v485q0 43 30 72.5t73 29.5t72.5 -29.5t29.5 -72.5v-485q0 -453 -281 -688q-31 -25 -67 -25h-8q-41 3 -72 37q-25 28 -25 64v8zM92 1034q0 43 30 73t73 30t72.5 -30t29.5 -73t-29.5 -72.5t-72.5 -29.5t-73 29.5t-30 72.5 z" />
<glyph unicode="k" horiz-adv-x="876" d="M92 92v1168q0 43 30 72.5t73 29.5t72.5 -29.5t29.5 -72.5v-748h119l215 264q27 32 48 42.5t54 10.5q43 0 73 -29.5t30 -72.5q0 -32 -33 -74l-207 -243l205 -244q33 -42 33 -74q0 -43 -30 -72.5t-73 -29.5q-33 0 -54 10.5t-48 42.5l-215 264h-117v-215q0 -43 -29.5 -72.5 t-72.5 -29.5t-73 29.5t-30 72.5z" />
<glyph unicode="l" horiz-adv-x="542" d="M92 276v984q0 43 30 72.5t73 29.5t72.5 -29.5t29.5 -72.5v-984q0 -18 3.5 -30.5t15 -25t38 -19t66.5 -6.5q43 0 72.5 -30t29.5 -73t-29.5 -72.5t-72.5 -29.5q-170 0 -249 62t-79 224z" />
<glyph unicode="m" horiz-adv-x="1689" d="M92 92v635q0 43 30 72.5t73 29.5t72.5 -29.5t29.5 -72.5v-20h4q63 66 129.5 99.5t153.5 33.5q107 0 188 -47.5t127 -135.5h4q140 183 336 183q169 0 269 -115.5t100 -314.5v-318q0 -43 -30 -72.5t-73 -29.5t-72.5 29.5t-29.5 72.5v318q0 113 -61.5 174t-163.5 61 q-99 0 -162.5 -67t-63.5 -168v-318q0 -43 -29.5 -72.5t-72.5 -29.5t-72.5 29.5t-29.5 72.5v318q0 113 -61.5 174t-164.5 61q-99 0 -162 -67t-63 -168v-318q0 -43 -29.5 -72.5t-72.5 -29.5t-73 29.5t-30 72.5z" />
<glyph unicode="n" horiz-adv-x="1034" d="M92 92v635q0 43 30 72.5t73 29.5t72.5 -29.5t29.5 -72.5v-20h4q63 66 129.5 99.5t153.5 33.5q169 0 268.5 -115.5t99.5 -314.5v-318q0 -43 -29.5 -72.5t-72.5 -29.5t-72.5 29.5t-29.5 72.5v318q0 113 -61.5 174t-164.5 61q-99 0 -162 -67t-63 -168v-318 q0 -43 -29.5 -72.5t-72.5 -29.5t-73 29.5t-30 72.5z" />
<glyph unicode="o" horiz-adv-x="983" d="M61 410q0 178 126 304t305 126q178 0 304 -126t126 -304t-126 -304t-304 -126q-179 0 -305 126t-126 304zM266 410q0 -101 63.5 -168.5t162.5 -67.5t162 67.5t63 168.5t-63 168t-162 67t-162.5 -67t-63.5 -168z" />
<glyph unicode="p" horiz-adv-x="1013" d="M92 -369v1096q0 43 30 72.5t73 29.5t72.5 -29.5t29.5 -72.5v-20h4q92 133 262 133q167 0 278 -125t111 -305t-111 -305t-278 -125q-173 0 -262 112h-4v-461q0 -43 -29.5 -72.5t-72.5 -29.5t-73 29.5t-30 72.5zM297 410q0 -101 63 -168.5t162 -67.5t162.5 67.5t63.5 168.5 t-63.5 168t-162.5 67t-162 -67t-63 -168z" />
<glyph unicode="q" horiz-adv-x="1013" d="M61 410q0 180 111.5 305t278.5 125q170 0 262 -133h4v20q0 43 29.5 72.5t72.5 29.5t73 -29.5t30 -72.5v-1096q0 -43 -30 -72.5t-73 -29.5t-72.5 29.5t-29.5 72.5v461h-4q-89 -112 -262 -112q-167 0 -278.5 125t-111.5 305zM266 410q0 -101 63.5 -168.5t162.5 -67.5 t162 67.5t63 168.5t-63 168t-162 67t-162.5 -67t-63.5 -168z" />
<glyph unicode="r" horiz-adv-x="665" d="M92 92v635q0 43 30 72.5t73 29.5t72.5 -29.5t29.5 -72.5v-20h4q30 58 92.5 95.5t149.5 37.5q43 0 72.5 -30t29.5 -73t-29.5 -72.5t-72.5 -29.5q-133 0 -189.5 -58.5t-56.5 -166.5v-318q0 -43 -29.5 -72.5t-72.5 -29.5t-73 29.5t-30 72.5z" />
<glyph unicode="s" horiz-adv-x="880" d="M41 162q0 22 12 45q21 39 65 46q10 2 19 2q32 0 60 -19q53 -31 125 -46.5t122 -15.5q170 0 170 72q0 13 -6.5 22.5t-21.5 17t-30.5 12t-41.5 9t-47 7t-53.5 7t-55.5 7.5q-55 8 -101 24t-87 44t-64.5 73t-23.5 104q0 53 18 98.5t57 84.5t111 61.5t170 22.5q181 0 301 -68 q29 -16 53 -56q11 -20 12 -42q0 -24 -13 -51q-20 -40 -60 -50q-13 -3 -25 -3q-26 0 -51 14q-53 28 -122.5 44.5t-114.5 16.5q-71 0 -106.5 -11.5t-35.5 -43.5q0 -16 12.5 -27t40 -18.5t51.5 -12t66 -10.5t66 -10q45 -8 79.5 -17.5t78 -30t72 -47t48 -71t19.5 -100.5 q0 -53 -20.5 -98.5t-63.5 -84t-120.5 -61t-180.5 -22.5q-98 0 -170.5 16.5t-144.5 60.5q-9 6 -19 13.5t-22.5 22.5t-19.5 31t-7 38z" />
<glyph unicode="t" horiz-adv-x="593" d="M0 717q0 43 29.5 72.5t72.5 29.5h41v215q0 43 30 73t73 30t72.5 -30t29.5 -73v-215h123q43 0 72.5 -29.5t29.5 -72.5t-29.5 -73t-72.5 -30h-123v-338q0 -18 3.5 -30.5t15 -25t38 -19t66.5 -6.5q43 0 72.5 -30t29.5 -73t-29.5 -72.5t-72.5 -29.5q-170 0 -249 62t-79 224 v338h-41q-43 0 -72.5 30t-29.5 73z" />
<glyph unicode="u" horiz-adv-x="1034" d="M82 410v317q0 43 29.5 72.5t72.5 29.5t73 -29.5t30 -72.5v-317q0 -113 61.5 -174.5t163.5 -61.5q99 0 162 67.5t63 168.5v317q0 43 30 72.5t73 29.5t72.5 -29.5t29.5 -72.5v-635q0 -43 -29.5 -72.5t-72.5 -29.5t-73 29.5t-30 72.5v21h-4q-63 -66 -129 -99.5t-153 -33.5 q-169 0 -269 115.5t-100 314.5z" />
<glyph unicode="v" horiz-adv-x="921" d="M20 739q0 42 26 66t69 24q75 0 110 -69l232 -537l239 537q30 69 111 69q43 0 68.5 -24t25.5 -66q0 -36 -24 -86l-269 -573q-43 -90 -151 -90q-109 0 -152 90l-260 573q-25 52 -25 86z" />
<glyph unicode="w" horiz-adv-x="1331" d="M20 739q0 42 26 66t69 24q87 0 110 -69l187 -527l143 517q10 39 41 59t70 20q38 0 68.5 -20t41.5 -59l144 -517l186 527q23 69 111 69q43 0 68.5 -24t25.5 -66q0 -29 -21 -86l-227 -569q-36 -94 -148 -94q-118 0 -147 94l-102 311l-103 -311q-29 -94 -147 -94 q-112 0 -148 94l-227 569q-21 57 -21 86z" />
<glyph unicode="x" horiz-adv-x="856" d="M41 92q0 32 33 74l207 244l-207 243q-33 42 -33 74q0 43 29.5 72.5t72.5 29.5q33 0 55 -10.5t48 -42.5l182 -223l182 223q26 32 48 42.5t55 10.5q43 0 72.5 -29.5t29.5 -72.5q0 -32 -33 -74l-207 -243l205 -244q33 -42 33 -74q0 -43 -29.5 -72.5t-72.5 -29.5 q-33 0 -55 10.5t-48 42.5l-180 219l-182 -219q-26 -32 -48 -42.5t-55 -10.5q-43 0 -72.5 29.5t-29.5 72.5z" />
<glyph unicode="y" horiz-adv-x="1034" d="M82 410v317q0 43 29.5 72.5t72.5 29.5t73 -29.5t30 -72.5v-317q0 -113 61.5 -174.5t163.5 -61.5q99 0 162 67.5t63 168.5v317q0 43 30 72.5t73 29.5t72.5 -29.5t29.5 -72.5v-768q0 -179 -126 -304.5t-304 -125.5q-181 0 -301 68q-29 15 -53 56q-11 20 -11 42q0 24 13 51 q20 40 60 50q12 3 25 3q26 0 50 -14q113 -61 217 -61q99 0 162 67t63 168v154h-4q-63 -66 -129 -99.5t-153 -33.5q-169 0 -269 115.5t-100 314.5z" />
<glyph unicode="z" horiz-adv-x="860" d="M20 102q0 59 54 113l413 399h-350q-43 0 -72.5 30t-29.5 73t29.5 72.5t72.5 29.5h565q43 0 73 -29.5t30 -72.5q0 -60 -53 -113l-420 -399h405q43 0 73 -30t30 -73t-30 -72.5t-73 -29.5h-614q-43 0 -73 29.5t-30 72.5z" />
<glyph unicode="{" horiz-adv-x="837" d="M41 674q0 43 29.5 72.5t72.5 29.5h31q73 0 120.5 48t47.5 122q0 453 281 688q34 28 75 25t72 -37q28 -31 25 -71.5t-37 -71.5q-118 -112 -164.5 -241t-46.5 -292q0 -80 -33 -153t-88 -117q55 -44 88 -117t33 -153q0 -163 46.5 -292t164.5 -241q34 -31 37 -71.5t-25 -71.5 q-31 -34 -72 -37.5t-75 24.5q-281 235 -281 689q0 73 -47 119t-121 46h-31q-43 0 -72.5 30t-29.5 73z" />
<glyph unicode="|" horiz-adv-x="512" d="M154 -113v1577q0 43 29.5 73t72.5 30t72.5 -30t29.5 -73v-1577q0 -43 -29.5 -72.5t-72.5 -29.5t-72.5 29.5t-29.5 72.5z" />
<glyph unicode="}" horiz-adv-x="837" d="M43 -198.5q3 40.5 37 71.5q118 112 164.5 241t46.5 292q0 80 33 153t88 117q-55 44 -88 117t-33 153q0 163 -46.5 292t-164.5 241q-34 31 -37 71.5t25 71.5q31 34 72 37t75 -25q281 -235 281 -688q0 -74 47.5 -122t120.5 -48h30q43 0 73 -29.5t30 -72.5t-30 -73t-73 -30 h-30q-74 0 -121 -46t-47 -119q0 -454 -281 -689q-34 -28 -75 -24.5t-72 37.5q-28 31 -25 71.5z" />
<glyph unicode="~" horiz-adv-x="833" d="M81.5 672q-4.5 29 12.5 49q41 57 76 88.5t78.5 45t95 -3.5t115.5 -65q83 -69 159 43q14 24 47 26.5t56 -13.5q25 -22 29 -51.5t-13 -49.5q-41 -57 -76.5 -88.5t-78.5 -45.5t-94.5 3.5t-114.5 65.5q-84 69 -160 -43q-14 -24 -46.5 -26t-55.5 14q-25 22 -29.5 51z" />
<glyph unicode="&#xa1;" horiz-adv-x="512" d="M154 -369v861q0 43 29.5 72.5t72.5 29.5t72.5 -29.5t29.5 -72.5v-861q0 -43 -29.5 -72.5t-72.5 -29.5t-72.5 29.5t-29.5 72.5zM154 799q0 43 29.5 72.5t72.5 29.5t72.5 -29.5t29.5 -72.5t-29.5 -73t-72.5 -30t-72.5 30t-29.5 73z" />
<glyph unicode="&#xa2;" horiz-adv-x="999" d="M102 410q0 150 92.5 265.5t235.5 151.5v156q0 43 29.5 72.5t72.5 29.5t73 -29.5t30 -72.5v-149q109 -12 199 -62q29 -15 52.5 -56t-1.5 -93q-20 -40 -59.5 -50t-75.5 11q-113 61 -218 61q-99 0 -162 -67t-63 -168t63 -168.5t162 -67.5q103 0 218 62q36 21 75.5 11 t59.5 -50q25 -52 1.5 -93.5t-52.5 -56.5q-82 -48 -199 -61v-150q0 -43 -30 -72.5t-73 -29.5t-72.5 29.5t-29.5 72.5v156q-142 34 -235 150.5t-93 267.5z" />
<glyph unicode="&#xa3;" horiz-adv-x="1146" d="M102 102q0 43 30 73t73 30h51v350h-66q-37 0 -62.5 25.5t-25.5 62.5q0 38 25.5 63t62.5 25h66v293q0 152 103.5 250t289.5 98q197 0 314 -96q15 -11 26 -31t14.5 -52.5t-20.5 -64.5q-25 -35 -66.5 -42t-76.5 18q-42 29 -99.5 46t-101.5 17q-89 0 -133.5 -38.5 t-44.5 -104.5v-293h211q37 0 62.5 -25t25.5 -63q0 -37 -25.5 -62.5t-62.5 -25.5h-211v-350h481q43 0 72.5 -30t29.5 -73t-29.5 -72.5t-72.5 -29.5h-737q-43 0 -73 29.5t-30 72.5z" />
<glyph unicode="&#xa4;" horiz-adv-x="1050" d="M143 928l17 16l162 -184q90 74 204 74q113 0 203 -74l160 184l18 -16l-159 -183q102 -96 102 -235q0 -68 -26.5 -129t-73.5 -105l155 -176l-18 -18l-158 178q-88 -72 -203 -72q-116 0 -204 72l-156 -178l-19 18l156 176q-98 95 -98 234q0 138 98 233zM229 510 q0 -122 87.5 -209.5t209.5 -87.5t210.5 88t88.5 209q0 122 -88.5 210.5t-210.5 88.5q-121 0 -209 -88.5t-88 -210.5z" />
<glyph unicode="&#xa5;" horiz-adv-x="1441" d="M20 1260q0 43 30 72.5t73 29.5q30 0 50.5 -11t51.5 -42l494 -490l498 490q31 31 51.5 42t50.5 11q43 0 72.5 -29.5t29.5 -72.5q0 -42 -32 -74l-568 -555h256q22 0 36.5 -14.5t14.5 -36.5t-14.5 -37t-36.5 -15h-256v-436q0 -43 -29.5 -72.5t-72.5 -29.5t-73 29.5t-30 72.5 v436h-256q-22 0 -36.5 15t-14.5 37t14.5 36.5t36.5 14.5h256l-563 555q-33 33 -33 74z" />
<glyph unicode="&#xa6;" horiz-adv-x="512" d="M154 -113v533q0 43 29.5 72.5t72.5 29.5t72.5 -29.5t29.5 -72.5v-533q0 -43 -29.5 -72.5t-72.5 -29.5t-72.5 29.5t-29.5 72.5zM154 932v532q0 43 29.5 73t72.5 30t72.5 -30t29.5 -73v-532q0 -43 -29.5 -73t-72.5 -30t-72.5 30t-29.5 73z" />
<glyph unicode="&#xa7;" horiz-adv-x="1048" d="M164 -52q1 21 18 34q17 14 38.5 12t33.5 -19q83 -90 199 -96q122 -9 208 58t95 190q4 56 -14 103.5t-52 82t-79.5 65.5t-95.5 59t-100.5 56.5t-95 64.5t-78 77.5t-51 100t-12.5 128.5q6 118 74 195q-61 90 -53 215q11 151 113 232t272 69q148 -9 247 -123 q13 -17 12 -37.5t-16 -34.5q-19 -14 -40 -12.5t-33 18.5q-74 80 -179 89q-111 6 -186.5 -44.5t-81.5 -152.5q-6 -75 24.5 -134t83 -99.5t117.5 -77t129.5 -76t116.5 -85.5t82 -117t23 -161q-9 -115 -70 -198q57 -90 49 -211q-12 -170 -131.5 -262t-286.5 -80 q-157 9 -268 133q-13 17 -12 38zM287 868q-5 -61 15 -111.5t54 -85t84 -69t98 -59.5t104.5 -60.5t94.5 -68.5q34 59 39 123q5 69 -22.5 123.5t-80 95.5t-108 72.5t-125.5 72.5t-114 78q-36 -46 -39 -111z" />
<glyph unicode="&#xa8;" horiz-adv-x="735" d="M68 1038q0 48 32.5 82.5t81.5 34.5q47 0 83 -35t36 -82q0 -50 -35.5 -83t-83.5 -33q-50 0 -82 32.5t-32 83.5zM434 1038q0 48 33 82.5t82 34.5t84 -34.5t35 -82.5q0 -50 -34.5 -83t-84.5 -33t-82.5 32.5t-32.5 83.5z" />
<glyph unicode="&#xa9;" horiz-adv-x="1638" d="M123 676q0 142 55 271t148 222t222 148t271 55q189 0 349.5 -93t254 -253.5t93.5 -349.5t-93.5 -349.5t-254 -253.5t-349.5 -93q-142 0 -271 55t-222 148t-148 222t-55 271zM225 676q0 -161 79.5 -298t216.5 -216.5t298 -79.5t298 79.5t216.5 216.5t79.5 298t-79.5 298 t-216.5 216.5t-298 79.5t-298 -79.5t-216.5 -216.5t-79.5 -298zM485 676q0 149 105 253.5t254 104.5q150 0 254 -104q15 -15 15 -36t-15 -36t-37 -16t-37 14q-76 76 -180 76q-106 0 -181 -75t-75 -181t75 -181t181 -75q108 0 182 74q15 15 36 15t36 -15t15 -36t-15 -36 q-105 -105 -254 -105t-254 105t-105 254z" />
<glyph unicode="&#xaa;" horiz-adv-x="684" d="M102 993q0 34 12 61t31.5 44t44.5 28.5t49 16t48 4.5q97 0 170 -31h2v43q0 80 -109 80q-73 0 -135 -37q-23 -13 -49 -9.5t-37 26.5q-16 32 -1.5 55.5t34.5 34.5q75 47 194 47t172.5 -46t53.5 -114v-289q0 -26 -18 -43.5t-44 -17.5t-43.5 17.5t-17.5 43.5v13h-2 q-26 -36 -76.5 -58t-106.5 -22q-41 0 -78 13t-65.5 49t-28.5 91zM225 999q0 -55 80 -55q78 0 154 31v74q-68 6 -154 6q-80 0 -80 -56z" />
<glyph unicode="&#xab;" horiz-adv-x="1204" d="M164 502q0 25 9.5 41.5t37.5 46.5l266 260q22 27 66 27q36 0 62 -25.5t26 -63.5q0 -25 -10 -42t-39 -46l-203 -196l203 -197q29 -29 39 -46t10 -42q0 -38 -26 -63t-62 -25q-44 0 -66 27l-266 256q-27 26 -37 43.5t-10 44.5zM573 502q0 25 9.5 41.5t38.5 46.5l266 260 q22 27 65 27q36 0 62 -25.5t26 -63.5q0 -25 -10 -42t-39 -46l-203 -196l203 -197q29 -29 39 -46t10 -42q0 -38 -26 -63t-62 -25q-43 0 -65 27l-266 256q-28 26 -38 43.5t-10 44.5z" />
<glyph unicode="&#xac;" horiz-adv-x="1413" d="M205 770q0 22 14.5 35.5t36.5 13.5h901q22 0 36.5 -14.5t14.5 -36.5v-389q0 -22 -14.5 -36.5t-36.5 -14.5t-36.5 13.5t-14.5 35.5v344h-850q-22 0 -36.5 13.5t-14.5 35.5z" />
<glyph unicode="&#xad;" horiz-adv-x="1118" d="M164 500q0 38 25.5 63t62.5 25h614q37 0 62.5 -25t25.5 -63q0 -37 -25.5 -62.5t-62.5 -25.5h-614q-37 0 -62.5 25.5t-25.5 62.5z" />
<glyph unicode="&#xae;" horiz-adv-x="1638" d="M123 676q0 142 55 271t148 222t222 148t271 55q189 0 349.5 -93t254 -253.5t93.5 -349.5t-93.5 -349.5t-254 -253.5t-349.5 -93q-142 0 -271 55t-222 148t-148 222t-55 271zM225 676q0 -161 79.5 -298t216.5 -216.5t298 -79.5t298 79.5t216.5 216.5t79.5 298t-79.5 298 t-216.5 216.5t-298 79.5t-298 -79.5t-216.5 -216.5t-79.5 -298zM532 375v598q0 22 15 36.5t37 14.5h319q93 0 158 -61t65 -152q0 -80 -51 -137.5t-129 -71.5l187 -196q14 -14 16 -35t-12 -35q-15 -15 -40 -12t-40 20l-242 254h-180v-225q0 -22 -14.5 -35.5t-36.5 -13.5 t-37 14.5t-15 36.5zM635 696h268q54 0 87.5 32.5t33.5 82.5t-33.5 82.5t-87.5 32.5h-268v-230z" />
<glyph unicode="&#xaf;" horiz-adv-x="765" d="M82 1034q0 31 21.5 52.5t52.5 21.5h454q31 0 52.5 -21.5t21.5 -52.5t-21.5 -52t-52.5 -21h-454q-31 0 -52.5 21t-21.5 52z" />
<glyph unicode="&#xb0;" horiz-adv-x="647" d="M102 1149q0 91 65.5 156t156.5 65t156 -65t65 -156t-65 -156t-156 -65t-156.5 65t-65.5 156zM180 1149q0 -60 42 -101.5t102 -41.5t101.5 41.5t41.5 101.5t-41.5 101.5t-101.5 41.5t-102 -41.5t-42 -101.5z" />
<glyph unicode="&#xb1;" horiz-adv-x="1118" d="M164 88q0 38 25.5 63t62.5 25h614q37 0 62.5 -25t25.5 -63q0 -37 -25.5 -62.5t-62.5 -25.5h-614q-37 0 -62.5 25.5t-25.5 62.5zM164 643q0 38 25.5 63t62.5 25h219v219q0 37 25.5 62.5t62.5 25.5q38 0 63 -25.5t25 -62.5v-219h219q37 0 62.5 -25t25.5 -63 q0 -37 -25.5 -62.5t-62.5 -25.5h-219v-219q0 -37 -25 -62.5t-63 -25.5q-37 0 -62.5 25.5t-25.5 62.5v219h-219q-37 0 -62.5 25.5t-25.5 62.5z" />
<glyph unicode="&#xb2;" horiz-adv-x="684" d="M102 1004v108q0 55 19 100.5t48.5 76.5t66 57t73 47.5t66 43.5t48.5 50t19 61q0 45 -28 75t-72 30q-23 0 -46 -8t-36.5 -16t-38.5 -25q-48 -30 -80 16q-32 43 13 88q70 57 188 57q90 0 153.5 -63.5t63.5 -153.5q0 -51 -18.5 -91.5t-48 -67.5t-65 -50.5t-71 -45.5 t-65 -45.5t-48 -58t-18.5 -77.5v-47h295q26 0 44 -17.5t18 -43.5t-18 -44t-44 -18h-356q-26 0 -44 18t-18 44z" />
<glyph unicode="&#xb3;" horiz-adv-x="722" d="M103 1060.5q2 15.5 14 29.5q19 22 46 24.5t46 -16.5q54 -51 141 -51q71 0 109.5 39.5t38.5 101.5q0 61 -38 101t-98 40h-18q-26 0 -43.5 18t-17.5 44t17.5 43.5t43.5 17.5h18q43 0 72 27t29 69q0 44 -29 74.5t-72 30.5q-51 0 -120 -49q-22 -14 -44.5 -9.5t-35.5 25.5 q-15 18 -13 37.5t9 31t16 19.5q70 57 188 57q90 0 153 -63.5t63 -153.5q0 -94 -72 -153q52 -33 83.5 -88t31.5 -119q0 -109 -77 -183.5t-194 -74.5q-141 0 -219 69q-6 5 -12 13t-12 20.5t-4 28z" />
<glyph unicode="&#xb4;" horiz-adv-x="520" d="M102 1001q0 34 23 60l149 143q27 24 42.5 32.5t37.5 8.5q34 0 57 -23t23 -57t-22 -59l-150 -143q-27 -24 -42.5 -32.5t-37.5 -8.5q-34 0 -57 22.5t-23 56.5z" />
<glyph unicode="&#xb5;" horiz-adv-x="1044" d="M-156 -362.5q3 40.5 37 71.5q118 112 164.5 241t46.5 292v485q0 43 30 72.5t73 29.5t72.5 -29.5t29.5 -72.5v-317q0 -113 61.5 -174.5t163.5 -61.5q99 0 162.5 67.5t63.5 168.5v317q0 43 29.5 72.5t72.5 29.5t72.5 -29.5t29.5 -72.5v-635q0 -43 -29.5 -72.5t-72.5 -29.5 t-72.5 29.5t-29.5 72.5v21h-5q-63 -66 -129 -99.5t-153 -33.5q-101 0 -182 43q-57 -297 -263 -469q-34 -28 -75 -25t-72 37q-28 31 -25 71.5z" />
<glyph unicode="&#xb6;" horiz-adv-x="1126" d="M164 942q0 170 115.5 290t283.5 120h144q22 0 36.5 -15t14.5 -37v-1259q0 -22 -14.5 -36.5t-36.5 -14.5t-37 14t-15 35v493h-92q-168 0 -283.5 120t-115.5 290zM860 41v1259q0 22 14.5 37t36.5 15t37 -15t15 -37v-1259q0 -22 -15 -36.5t-37 -14.5t-36.5 14.5t-14.5 36.5z " />
<glyph unicode="&#xb7;" horiz-adv-x="409" d="M88 711q0 48 33 82t82 34q48 0 83.5 -34.5t35.5 -81.5q0 -50 -35.5 -83.5t-83.5 -33.5q-50 0 -82.5 33t-32.5 84z" />
<glyph unicode="&#xb8;" horiz-adv-x="589" d="M131 -436q-11 30 1.5 55t43.5 29q79 12 112 65q28 46 -3 81q-20 22 -62 28q-32 4 -42.5 16.5t-10.5 36.5v125h117v-70q106 -5 150 -85q40 -73 5 -158q-39 -94 -148 -136q-27 -10 -56 -16q-89 -16 -107 29z" />
<glyph unicode="&#xb9;" horiz-adv-x="679" d="M102 995q0 23 15.5 38.5t38.5 15.5h129v581h-117q-26 0 -44 18t-18 44t18 43.5t44 17.5h178q26 0 44 -17.5t18 -43.5v-643h116q22 0 38 -15.5t16 -38.5t-16 -38t-38 -15h-368q-23 0 -38.5 15t-15.5 38z" />
<glyph unicode="&#xba;" horiz-adv-x="720" d="M102 1098q0 107 75.5 182.5t182.5 75.5t182.5 -75.5t75.5 -182.5t-75.5 -182.5t-182.5 -75.5t-182.5 75.5t-75.5 182.5zM225 1098q0 -61 38 -101.5t97 -40.5t97.5 40.5t38.5 101.5t-38 101t-98 40q-59 0 -97 -40t-38 -101z" />
<glyph unicode="&#xbb;" horiz-adv-x="1204" d="M164 219q0 25 10 42t39 46l203 197l-203 196q-29 29 -39 46t-10 42q0 38 26 63.5t62 25.5q43 0 65 -27l267 -260q28 -30 37.5 -46.5t9.5 -41.5q0 -27 -10 -44.5t-37 -43.5l-267 -256q-22 -27 -65 -27q-36 0 -62 25t-26 63zM573 219q0 25 10 41.5t40 46.5l202 197 l-202 196q-30 30 -40 46.5t-10 41.5q0 38 26.5 63.5t62.5 25.5q43 0 65 -27l266 -260q28 -30 37.5 -46.5t9.5 -41.5q0 -27 -10 -44.5t-37 -43.5l-266 -256q-22 -27 -65 -27q-36 0 -62.5 25.5t-26.5 62.5z" />
<glyph unicode="&#xbc;" horiz-adv-x="1843" d="M102 586q0 23 15.5 38t38.5 15h129v582h-117q-26 0 -44 17.5t-18 43.5t18 43.5t44 17.5h178q26 0 44 -17.5t18 -43.5v-643h116q22 0 38 -15t16 -38t-16 -38.5t-38 -15.5h-368q-23 0 -38.5 15.5t-15.5 38.5zM672 49l430 1272q22 59 72 49q21 -4 29.5 -24t2.5 -43 l-430 -1272q-8 -29 -27 -42.5t-47 -6.5q-20 4 -29 24t-1 43zM1188 252q0 11 3.5 23.5t8 23t4.5 12.5l203 465q22 47 68 47q55 0 55 -55q0 -22 -21 -74l-174 -381h191v93q0 26 17.5 43.5t43.5 17.5t44 -17.5t18 -43.5v-93h30q26 0 44 -17.5t18 -43.5t-18 -44t-44 -18h-30 v-141q0 -26 -18 -43.5t-44 -17.5t-43.5 17.5t-17.5 43.5v141h-277q-26 0 -43.5 18t-17.5 44z" />
<glyph unicode="&#xbd;" horiz-adv-x="1843" d="M102 586q0 23 15.5 38t38.5 15h129v582h-117q-26 0 -44 17.5t-18 43.5t18 43.5t44 17.5h178q26 0 44 -17.5t18 -43.5v-643h116q22 0 38 -15t16 -38t-16 -38.5t-38 -15.5h-368q-23 0 -38.5 15.5t-15.5 38.5zM692 49l430 1272q22 59 72 49q21 -4 30 -24t3 -43l-430 -1272 q-8 -29 -27 -42.5t-47 -6.5q-20 5 -29 24.5t-2 42.5zM1262 61v109q0 55 19 100.5t48.5 76.5t66 57t73 47.5t66 43.5t48.5 50t19 61q0 45 -28.5 75t-72.5 30q-23 0 -46 -8t-36.5 -16t-38.5 -25q-48 -30 -80 16q-32 43 13 88q70 57 188 57q90 0 153.5 -63.5t63.5 -153.5 q0 -51 -18.5 -91.5t-48 -67.5t-65 -50.5t-71 -45.5t-65 -45.5t-48 -58t-18.5 -77.5v-47h295q26 0 44 -18t18 -44t-18 -43.5t-44 -17.5h-356q-26 0 -43.5 17.5t-17.5 43.5z" />
<glyph unicode="&#xbe;" horiz-adv-x="1843" d="M103 650.5q2 15.5 14 29.5q19 22 46 24.5t46 -16.5q54 -51 141 -51q71 0 109.5 39.5t38.5 101.5q0 61 -38.5 101.5t-97.5 40.5h-18q-26 0 -43.5 17.5t-17.5 43.5t17.5 43.5t43.5 17.5h18q43 0 72 27.5t29 69.5q0 44 -29 74t-72 30q-51 0 -120 -49q-22 -14 -44.5 -9.5 t-35.5 25.5q-15 18 -13 37.5t9 31t16 19.5q71 58 188 58q90 0 153 -63t63 -154q0 -95 -72 -154q52 -33 83.5 -88t31.5 -119q0 -109 -77 -183.5t-194 -74.5q-140 0 -219 70q-6 5 -12 13t-12 20t-4 27.5zM672 49l430 1272q22 59 72 49q21 -4 29.5 -24t2.5 -43l-430 -1272 q-8 -29 -27 -42.5t-47 -6.5q-20 4 -29 24t-1 43zM1188 252q0 11 3.5 23.5t8 23t4.5 12.5l203 465q22 47 68 47q55 0 55 -55q0 -22 -21 -74l-174 -381h191v93q0 26 17.5 43.5t43.5 17.5t44 -17.5t18 -43.5v-93h30q26 0 44 -17.5t18 -43.5t-18 -44t-44 -18h-30v-141 q0 -26 -18 -43.5t-44 -17.5t-43.5 17.5t-17.5 43.5v141h-277q-26 0 -43.5 18t-17.5 44z" />
<glyph unicode="&#xbf;" horiz-adv-x="958" d="M82 -41q0 178 126.5 304t305.5 126v113q0 43 29.5 72.5t72.5 29.5t73 -29.5t30 -72.5v-205q0 -43 -30 -72.5t-73 -29.5h-104q-99 0 -162 -67.5t-63 -168.5t63 -168t162 -67q104 0 217 61q36 21 75.5 11t59.5 -50q25 -52 1.5 -93t-52.5 -56q-120 -68 -301 -68 q-178 0 -304 125.5t-126 304.5zM514 809q0 43 29.5 72.5t72.5 29.5t73 -29.5t30 -72.5t-30 -72.5t-73 -29.5t-72.5 29.5t-29.5 72.5z" />
<glyph unicode="&#xc0;" horiz-adv-x="1470" d="M28 60.5q-14 38.5 5 78.5l542 1143q24 51 70 70.5t90 19.5t90 -19.5t70 -70.5l543 -1143q19 -40 5 -78.5t-54 -60.5q-40 -18 -81.5 -2.5t-60.5 53.5l-182 379h-659l-183 -379q-19 -38 -60 -53.5t-81 2.5q-40 22 -54 60.5zM442 1718q0 34 23 57t57 23q22 0 37.5 -8.5 t42.5 -32.5l150 -143q22 -25 22 -60q0 -34 -23 -56.5t-57 -22.5q-22 0 -37.5 8.5t-42.5 32.5l-149 143q-23 26 -23 59zM500 635h471l-236 512z" />
<glyph unicode="&#xc1;" horiz-adv-x="1470" d="M28 60.5q-14 38.5 5 78.5l542 1143q24 51 70 70.5t90 19.5t90 -19.5t70 -70.5l543 -1143q19 -40 5 -78.5t-54 -60.5q-40 -18 -81.5 -2.5t-60.5 53.5l-182 379h-659l-183 -379q-19 -38 -60 -53.5t-81 2.5q-40 22 -54 60.5zM500 635h471l-236 512zM707 1554q0 35 22 60 l150 143q28 24 42.5 32.5t36.5 8.5q34 0 57 -23t23 -57t-22 -59l-150 -143q-27 -24 -42.5 -32.5t-37.5 -8.5q-34 0 -56.5 22.5t-22.5 56.5z" />
<glyph unicode="&#xc2;" horiz-adv-x="1470" d="M28 60.5q-14 38.5 5 78.5l542 1143q24 51 70 70.5t90 19.5t90 -19.5t70 -70.5l543 -1143q19 -40 5 -78.5t-54 -60.5q-40 -18 -81.5 -2.5t-60.5 53.5l-182 379h-659l-183 -379q-19 -38 -60 -53.5t-81 2.5q-40 22 -54 60.5zM440 1548q0 33 23 56l201 198q25 25 38.5 33 t34.5 8t35.5 -8.5t38.5 -32.5l201 -198q22 -22 22 -56q0 -31 -20.5 -52t-52.5 -21q-21 0 -35.5 7.5t-38.5 30.5l-152 152l-147 -152q-24 -23 -38.5 -30.5t-35.5 -7.5q-32 0 -53 21t-21 52zM500 635h471l-236 512z" />
<glyph unicode="&#xc3;" horiz-adv-x="1470" d="M28 60.5q-14 38.5 5 78.5l542 1143q24 51 70 70.5t90 19.5t90 -19.5t70 -70.5l543 -1143q19 -40 5 -78.5t-54 -60.5q-40 -18 -81.5 -2.5t-60.5 53.5l-182 379h-659l-183 -379q-19 -38 -60 -53.5t-81 2.5q-40 22 -54 60.5zM403 1532q-4 29 13 49q41 57 76 88.5t78.5 45 t94.5 -3.5t115 -64q84 -69 160 43q14 24 46.5 26t55.5 -14q25 -22 29.5 -51t-12.5 -49q-41 -57 -76.5 -88.5t-79 -45.5t-95 3t-114.5 65q-83 69 -159 -43q-14 -24 -47 -26t-56 14q-25 22 -29 51zM500 635h471l-236 512z" />
<glyph unicode="&#xc4;" horiz-adv-x="1470" d="M28 60.5q-14 38.5 5 78.5l542 1143q24 51 70 70.5t90 19.5t90 -19.5t70 -70.5l543 -1143q19 -40 5 -78.5t-54 -60.5q-40 -18 -81.5 -2.5t-60.5 53.5l-182 379h-659l-183 -379q-19 -38 -60 -53.5t-81 2.5q-40 22 -54 60.5zM438 1591q0 48 33 82.5t82 34.5q47 0 83 -35 t36 -82q0 -50 -35.5 -83t-83.5 -33q-50 0 -82.5 32.5t-32.5 83.5zM500 635h471l-236 512zM805 1591q0 48 33 82.5t82 34.5t83.5 -34.5t34.5 -82.5q0 -50 -34 -83t-84 -33t-82.5 32.5t-32.5 83.5z" />
<glyph unicode="&#xc5;" horiz-adv-x="1470" d="M28 60.5q-14 38.5 5 78.5l542 1143q24 51 70 70.5t90 19.5t90 -19.5t70 -70.5l543 -1143q19 -40 5 -78.5t-54 -60.5q-40 -18 -81.5 -2.5t-60.5 53.5l-182 379h-659l-183 -379q-19 -38 -60 -53.5t-81 2.5q-40 22 -54 60.5zM500 635h471l-236 512zM543 1667 q0 80 56.5 136.5t135.5 56.5t136 -57t57 -136t-56.5 -135.5t-136.5 -56.5q-79 0 -135.5 56.5t-56.5 135.5zM645 1667q0 -40 25 -65t65 -25t65 25t25 65t-25 65t-65 25t-65 -25t-25 -65z" />
<glyph unicode="&#xc6;" horiz-adv-x="1921" d="M23 56q-7 35 14 61l876 1165q52 70 121 70h713q43 0 72.5 -30t29.5 -73t-29.5 -72.5t-72.5 -29.5h-492v-369h369q43 0 72.5 -29.5t29.5 -72.5t-29.5 -73t-72.5 -30h-369v-368h492q43 0 72.5 -30t29.5 -73t-29.5 -72.5t-72.5 -29.5h-594q-43 0 -72.5 29.5t-29.5 72.5v471 h-437l-411 -540q-24 -31 -64 -41t-76 8q-33 21 -40 56zM760 778h291v369h-15z" />
<glyph unicode="&#xc7;" horiz-adv-x="1454" d="M123 676q0 142 55 271t148 222t222 148t271 55q145 0 274 -56t228 -157q31 -31 31 -71.5t-31 -71.5t-72.5 -30t-72.5 32q-143 149 -357 149q-140 0 -252.5 -67t-173.5 -178.5t-61 -245.5t61 -246t173.5 -179t252.5 -67q214 0 357 150q31 31 72.5 32t72.5 -30t31 -71.5 t-31 -71.5q-96 -97 -219 -153t-262 -60v-50q106 -5 150 -85q40 -73 5 -158q-39 -94 -148 -136q-27 -10 -56 -16q-89 -16 -107 29q-11 30 1.5 55t43.5 29q79 12 112 65q28 46 -3 81q-20 22 -62 28q-32 4 -42.5 16.5t-10.5 36.5v113q-168 22 -305.5 118.5t-216 246.5 t-78.5 323z" />
<glyph unicode="&#xc8;" horiz-adv-x="1024" d="M154 102v1147q0 43 29.5 73t72.5 30h594q43 0 72.5 -30t29.5 -73t-29.5 -72.5t-72.5 -29.5h-492v-328h369q43 0 72.5 -29.5t29.5 -72.5t-29.5 -73t-72.5 -30h-369v-409h492q43 0 72.5 -30t29.5 -73t-29.5 -72.5t-72.5 -29.5h-594q-43 0 -72.5 29.5t-29.5 72.5zM242 1718 q0 34 23 57t57 23q22 0 36.5 -8.5t42.5 -32.5l150 -143q22 -25 22 -60q0 -34 -22.5 -56.5t-56.5 -22.5q-22 0 -37.5 8.5t-42.5 32.5l-150 143q-22 25 -22 59z" />
<glyph unicode="&#xc9;" horiz-adv-x="1024" d="M154 102v1147q0 43 29.5 73t72.5 30h594q43 0 72.5 -30t29.5 -73t-29.5 -72.5t-72.5 -29.5h-492v-328h369q43 0 72.5 -29.5t29.5 -72.5t-29.5 -73t-72.5 -30h-369v-409h492q43 0 72.5 -30t29.5 -73t-29.5 -72.5t-72.5 -29.5h-594q-43 0 -72.5 29.5t-29.5 72.5zM496 1554 q0 35 22 60l150 143q27 24 42.5 32.5t37.5 8.5q34 0 56.5 -23t22.5 -57t-22 -59l-150 -143q-27 -24 -42.5 -32.5t-37.5 -8.5q-34 0 -56.5 22.5t-22.5 56.5z" />
<glyph unicode="&#xca;" horiz-adv-x="1024" d="M154 102v1147q0 43 29.5 73t72.5 30h594q43 0 72.5 -30t29.5 -73t-29.5 -72.5t-72.5 -29.5h-492v-328h369q43 0 72.5 -29.5t29.5 -72.5t-29.5 -73t-72.5 -30h-369v-409h492q43 0 72.5 -30t29.5 -73t-29.5 -72.5t-72.5 -29.5h-594q-43 0 -72.5 29.5t-29.5 72.5zM262 1548 q0 33 23 56l200 198q24 24 38.5 32.5t35.5 8.5t35.5 -8.5t38.5 -32.5l201 -198q22 -22 22 -56q0 -31 -21 -52t-53 -21q-21 0 -35 7.5t-38 30.5l-152 152l-147 -152q-24 -23 -38.5 -30.5t-35.5 -7.5q-32 0 -53 21t-21 52z" />
<glyph unicode="&#xcb;" horiz-adv-x="1024" d="M154 102v1147q0 43 29.5 73t72.5 30h594q43 0 72.5 -30t29.5 -73t-29.5 -72.5t-72.5 -29.5h-492v-328h369q43 0 72.5 -29.5t29.5 -72.5t-29.5 -73t-72.5 -30h-369v-409h492q43 0 72.5 -30t29.5 -73t-29.5 -72.5t-72.5 -29.5h-594q-43 0 -72.5 29.5t-29.5 72.5zM246 1591 q0 48 32.5 82.5t81.5 34.5q47 0 83 -35t36 -82q0 -50 -35.5 -83t-83.5 -33q-50 0 -82 32.5t-32 83.5zM612 1591q0 48 33 82.5t82 34.5t84 -34.5t35 -82.5q0 -50 -34.5 -83t-84.5 -33t-82.5 32.5t-32.5 83.5z" />
<glyph unicode="&#xcc;" horiz-adv-x="512" d="M0 1718q0 34 23 57t57 23q22 0 37.5 -8.5t42.5 -32.5l149 -143q23 -26 23 -60t-23 -56.5t-57 -22.5q-22 0 -37.5 8.5t-42.5 32.5l-149 143q-23 26 -23 59zM154 92v1168q0 43 29.5 72.5t72.5 29.5t72.5 -29.5t29.5 -72.5v-1168q0 -43 -29.5 -72.5t-72.5 -29.5t-72.5 29.5 t-29.5 72.5z" />
<glyph unicode="&#xcd;" horiz-adv-x="512" d="M154 92v1168q0 43 29.5 72.5t72.5 29.5t72.5 -29.5t29.5 -72.5v-1168q0 -43 -29.5 -72.5t-72.5 -29.5t-72.5 29.5t-29.5 72.5zM180 1554q0 34 23 60l149 143q27 24 42.5 32.5t37.5 8.5q34 0 57 -23t23 -57q0 -33 -23 -59l-149 -143q-27 -24 -42.5 -32.5t-37.5 -8.5 q-34 0 -57 22.5t-23 56.5z" />
<glyph unicode="&#xce;" horiz-adv-x="512" d="M-41 1548q0 33 23 56l200 198q24 24 38.5 32.5t35.5 8.5t35.5 -8.5t38.5 -32.5l200 -198q23 -23 23 -56q0 -31 -21 -52t-53 -21q-21 0 -35 7.5t-38 30.5l-152 152l-148 -152q-24 -23 -38 -30.5t-35 -7.5q-32 0 -53 21t-21 52zM152 92v1168q0 43 29.5 72.5t72.5 29.5 t72.5 -29.5t29.5 -72.5v-1168q0 -43 -29.5 -72.5t-72.5 -29.5t-72.5 29.5t-29.5 72.5z" />
<glyph unicode="&#xcf;" horiz-adv-x="512" d="M-43 1591q0 48 33 82.5t82 34.5q47 0 82.5 -35t35.5 -82q0 -50 -35 -83t-83 -33q-50 0 -82.5 32.5t-32.5 83.5zM156 92v1168q0 43 29.5 72.5t72.5 29.5t72.5 -29.5t29.5 -72.5v-1168q0 -43 -29.5 -72.5t-72.5 -29.5t-72.5 29.5t-29.5 72.5zM324 1591q0 48 32.5 82.5 t81.5 34.5t84 -34.5t35 -82.5q0 -50 -34.5 -83t-84.5 -33t-82 32.5t-32 83.5z" />
<glyph unicode="&#xd0;" horiz-adv-x="1720" d="M0 686q0 22 14.5 36.5t36.5 14.5h103v512q0 43 29.5 73t72.5 30h645q142 0 270.5 -52t222 -141t148.5 -215t55 -268t-55 -268t-148.5 -215t-222 -141t-270.5 -52h-645q-43 0 -72.5 29.5t-29.5 72.5v533h-103q-22 0 -36.5 14.5t-14.5 36.5zM358 205h543q214 0 351 134 t137 337t-137 337t-351 134h-543v-410h357q22 0 36.5 -14.5t14.5 -36.5t-14.5 -36.5t-36.5 -14.5h-357v-430z" />
<glyph unicode="&#xd1;" horiz-adv-x="1802" d="M154 92v1168q0 43 29.5 72.5t72.5 29.5q30 0 50.5 -11t51.5 -42l1086 -971v922q0 43 29.5 72.5t72.5 29.5t73 -29.5t30 -72.5v-1168q0 -43 -30 -72.5t-73 -29.5q-30 0 -50.5 11t-51.5 42l-1086 971v-922q0 -43 -29.5 -72.5t-72.5 -29.5t-72.5 29.5t-29.5 72.5z M595.5 1532q-4.5 29 12.5 49q41 57 76 88.5t78.5 45t95 -3.5t115.5 -64q84 -69 160 43q14 24 46.5 26t55.5 -14q25 -22 29 -51t-13 -49q-41 -57 -76.5 -88.5t-78.5 -45.5t-94.5 3t-114.5 65q-84 69 -160 -43q-14 -24 -46.5 -26t-55.5 14q-25 22 -29.5 51z" />
<glyph unicode="&#xd2;" horiz-adv-x="1638" d="M123 676q0 142 55 271t148 222t222 148t271 55q189 0 349.5 -93t254 -253.5t93.5 -349.5t-93.5 -349.5t-254 -253.5t-349.5 -93q-142 0 -271 55t-222 148t-148 222t-55 271zM332 676q0 -134 61 -246t173.5 -179t252.5 -67t252.5 67t174 179.5t61.5 245.5t-61.5 245 t-174 179t-252.5 67t-252.5 -67t-173.5 -178.5t-61 -245.5zM537 1718q0 34 22.5 57t56.5 23q22 0 37.5 -8.5t42.5 -32.5l150 -143q22 -25 22 -60q0 -34 -23 -56.5t-57 -22.5q-22 0 -36.5 8.5t-42.5 32.5l-150 143q-22 25 -22 59z" />
<glyph unicode="&#xd3;" horiz-adv-x="1638" d="M123 676q0 142 55 271t148 222t222 148t271 55q189 0 349.5 -93t254 -253.5t93.5 -349.5t-93.5 -349.5t-254 -253.5t-349.5 -93q-142 0 -271 55t-222 148t-148 222t-55 271zM332 676q0 -134 61 -246t173.5 -179t252.5 -67t252.5 67t174 179.5t61.5 245.5t-61.5 245 t-174 179t-252.5 67t-252.5 -67t-173.5 -178.5t-61 -245.5zM788 1554q0 34 23 60l150 143q28 24 42.5 32.5t36.5 8.5q34 0 57 -23t23 -57t-22 -59l-150 -143q-27 -24 -42.5 -32.5t-37.5 -8.5q-34 0 -57 22.5t-23 56.5z" />
<glyph unicode="&#xd4;" horiz-adv-x="1638" d="M123 676q0 142 55 271t148 222t222 148t271 55q189 0 349.5 -93t254 -253.5t93.5 -349.5t-93.5 -349.5t-254 -253.5t-349.5 -93q-142 0 -271 55t-222 148t-148 222t-55 271zM332 676q0 -134 61 -246t173.5 -179t252.5 -67t252.5 67t174 179.5t61.5 245.5t-61.5 245 t-174 179t-252.5 67t-252.5 -67t-173.5 -178.5t-61 -245.5zM530 1548q0 33 23 56l201 198q25 25 38.5 33t34.5 8t35.5 -8.5t38.5 -32.5l201 -198q22 -22 22 -56q0 -31 -20.5 -52t-52.5 -21q-21 0 -35.5 7.5t-38.5 30.5l-152 152l-147 -152q-24 -23 -38.5 -30.5t-35.5 -7.5 q-32 0 -53 21t-21 52z" />
<glyph unicode="&#xd5;" horiz-adv-x="1638" d="M123 676q0 142 55 271t148 222t222 148t271 55q189 0 349.5 -93t254 -253.5t93.5 -349.5t-93.5 -349.5t-254 -253.5t-349.5 -93q-142 0 -271 55t-222 148t-148 222t-55 271zM332 676q0 -134 61 -246t173.5 -179t252.5 -67t252.5 67t174 179.5t61.5 245.5t-61.5 245 t-174 179t-252.5 67t-252.5 -67t-173.5 -178.5t-61 -245.5zM487 1532q-4 29 13 49q41 57 76 88.5t78.5 45t94.5 -3.5t115 -64q84 -69 160 43q14 24 46.5 26t55.5 -14q25 -22 29.5 -51t-12.5 -49q-41 -57 -76.5 -88.5t-79 -45.5t-95 3t-114.5 65q-84 69 -160 -43 q-14 -24 -46.5 -26t-55.5 14q-25 22 -29 51z" />
<glyph unicode="&#xd6;" horiz-adv-x="1638" d="M123 676q0 142 55 271t148 222t222 148t271 55q189 0 349.5 -93t254 -253.5t93.5 -349.5t-93.5 -349.5t-254 -253.5t-349.5 -93q-142 0 -271 55t-222 148t-148 222t-55 271zM332 676q0 -134 61 -246t173.5 -179t252.5 -67t252.5 67t174 179.5t61.5 245.5t-61.5 245 t-174 179t-252.5 67t-252.5 -67t-173.5 -178.5t-61 -245.5zM522 1591q0 48 33 82.5t82 34.5q47 0 83 -35t36 -82q0 -50 -35.5 -83t-83.5 -33q-50 0 -82.5 32.5t-32.5 83.5zM889 1591q0 48 33 82.5t82 34.5t83.5 -34.5t34.5 -82.5q0 -50 -34 -83t-84 -33t-82.5 32.5 t-32.5 83.5z" />
<glyph unicode="&#xd7;" horiz-adv-x="1087" d="M164 209.5q0 36.5 26 62.5l228 228l-228 227q-26 26 -26 62.5t26 62.5q28 27 63 27t62 -27l228 -227l227 227q26 26 62.5 26t62.5 -26q27 -28 27 -63t-27 -62l-227 -227l227 -228q27 -27 27 -62t-27 -63q-26 -26 -62.5 -26t-62.5 26l-227 228l-228 -228q-27 -27 -62 -27 t-63 27q-26 26 -26 62.5z" />
<glyph unicode="&#xd8;" horiz-adv-x="1638" d="M123 676q0 142 55 271t148 222t222 148t271 55q189 0 349.5 -93t254 -253.5t93.5 -349.5t-93.5 -349.5t-254 -253.5t-349.5 -93q-142 0 -271 55t-222 148t-148 222t-55 271zM332 676q0 -172 100 -305l692 692q-129 104 -305 104q-140 0 -252.5 -67t-173.5 -178.5 t-61 -245.5zM504 297q132 -113 315 -113q140 0 252.5 67t174 179.5t61.5 245.5q0 175 -109 313z" />
<glyph unicode="&#xd9;" horiz-adv-x="1679" d="M143 676v584q0 43 30 72.5t73 29.5t72.5 -29.5t29.5 -72.5v-584q0 -133 62.5 -245.5t176 -179.5t253.5 -67t253.5 67t175.5 179.5t62 245.5v584q0 43 30 72.5t73 29.5t72.5 -29.5t29.5 -72.5v-584q0 -142 -55 -271t-148 -222t-222 -148t-271 -55q-189 0 -349.5 93 t-254 253.5t-93.5 349.5zM553 1718q0 34 23 57t57 23q22 0 37.5 -8.5t42.5 -32.5l149 -143q23 -26 23 -60t-23 -56.5t-57 -22.5q-22 0 -37.5 8.5t-42.5 32.5l-150 143q-22 25 -22 59z" />
<glyph unicode="&#xda;" horiz-adv-x="1679" d="M143 676v584q0 43 30 72.5t73 29.5t72.5 -29.5t29.5 -72.5v-584q0 -133 62.5 -245.5t176 -179.5t253.5 -67t253.5 67t175.5 179.5t62 245.5v584q0 43 30 72.5t73 29.5t72.5 -29.5t29.5 -72.5v-584q0 -142 -55 -271t-148 -222t-222 -148t-271 -55q-189 0 -349.5 93 t-254 253.5t-93.5 349.5zM801 1554q0 35 22 60l150 143q27 24 42.5 32.5t37.5 8.5q34 0 57 -23t23 -57q0 -33 -23 -59l-149 -143q-27 -24 -42.5 -32.5t-37.5 -8.5q-34 0 -57 22.5t-23 56.5z" />
<glyph unicode="&#xdb;" horiz-adv-x="1679" d="M143 676v584q0 43 30 72.5t73 29.5t72.5 -29.5t29.5 -72.5v-584q0 -133 62.5 -245.5t176 -179.5t253.5 -67t253.5 67t175.5 179.5t62 245.5v584q0 43 30 72.5t73 29.5t72.5 -29.5t29.5 -72.5v-584q0 -142 -55 -271t-148 -222t-222 -148t-271 -55q-189 0 -349.5 93 t-254 253.5t-93.5 349.5zM545 1548q0 34 22 56l201 198q24 24 38.5 32.5t35.5 8.5t34.5 -8t38.5 -33l201 -198q23 -23 23 -56q0 -31 -21 -52t-53 -21q-21 0 -35.5 7.5t-38.5 30.5l-151 152l-148 -152q-24 -23 -38.5 -30.5t-35.5 -7.5q-32 0 -52.5 21t-20.5 52z" />
<glyph unicode="&#xdc;" horiz-adv-x="1679" d="M143 676v584q0 43 30 72.5t73 29.5t72.5 -29.5t29.5 -72.5v-584q0 -133 62.5 -245.5t176 -179.5t253.5 -67t253.5 67t175.5 179.5t62 245.5v584q0 43 30 72.5t73 29.5t72.5 -29.5t29.5 -72.5v-584q0 -142 -55 -271t-148 -222t-222 -148t-271 -55q-189 0 -349.5 93 t-254 253.5t-93.5 349.5zM539 1591q0 48 32.5 82.5t81.5 34.5q47 0 83 -35t36 -82q0 -50 -35.5 -83t-83.5 -33q-50 0 -82 32.5t-32 83.5zM905 1591q0 48 33 82.5t82 34.5t84 -34.5t35 -82.5q0 -50 -34.5 -83t-84.5 -33t-82.5 32.5t-32.5 83.5z" />
<glyph unicode="&#xdd;" horiz-adv-x="1441" d="M20 1260q0 43 30 72.5t73 29.5q30 0 50.5 -11t51.5 -42l494 -490l498 490q31 31 51.5 42t50.5 11q43 0 72.5 -29.5t29.5 -72.5q0 -42 -32 -74l-568 -555v-539q0 -43 -29.5 -72.5t-72.5 -29.5t-73 29.5t-30 72.5v539l-563 555q-33 33 -33 74zM678 1554q0 35 22 60l150 143 q27 24 42.5 32.5t37.5 8.5q34 0 57 -23t23 -57q0 -33 -23 -59l-149 -143q-27 -24 -42.5 -32.5t-37.5 -8.5q-34 0 -57 22.5t-23 56.5z" />
<glyph unicode="&#xde;" horiz-adv-x="1136" d="M154 92v1168q0 43 29.5 72.5t72.5 29.5t72.5 -29.5t29.5 -72.5v-154h287q169 0 289.5 -120.5t120.5 -289.5t-120.5 -289t-289.5 -120h-287v-195q0 -43 -29.5 -72.5t-72.5 -29.5t-72.5 29.5t-29.5 72.5zM358 492h283q85 0 145 59.5t60 144.5t-60 145t-145 60h-283v-409z " />
<glyph unicode="&#xdf;" horiz-adv-x="1054" d="M92 -358v1341q0 158 105 263.5t284 105.5t284 -105.5t105 -263.5q0 -131 -100 -231q100 -49 161.5 -140t61.5 -204q0 -169 -120 -288.5t-289 -119.5h-103q-43 0 -72.5 29.5t-29.5 72.5t29.5 73t72.5 30h99q85 0 144.5 60t59.5 145t-59.5 144.5t-144.5 59.5h-99 q-43 0 -72.5 30t-29.5 73t29.5 72.5t72.5 29.5h17q68 0 116 48.5t48 115.5q0 68 -52.5 116t-128.5 48t-130 -48t-54 -116v-1341q0 -43 -29.5 -73t-72.5 -30t-73 30t-30 73z" />
<glyph unicode="&#xe0;" d="M61 236q0 56 20.5 101t52.5 73.5t73.5 47.5t82 26.5t79.5 7.5q158 0 282 -52h4v72q0 133 -180 133q-48 0 -110.5 -15t-116.5 -46q-36 -24 -79.5 -17.5t-64.5 45.5q-12 23 -12 45t7 38t19.5 31t22.5 22.5t19 13.5q128 78 325 78q103 0 179 -25.5t117 -68.5t60 -91.5 t19 -101.5v-461q0 -43 -29.5 -72.5t-72.5 -29.5t-73 29.5t-30 72.5v21h-4q-42 -61 -126 -97t-177 -36q-39 0 -77 7.5t-77 26.5t-68 47.5t-47 73.5t-18 101zM217 1165q0 34 23 57t57 23q22 0 37.5 -8.5t42.5 -32.5l149 -143q23 -26 23 -60t-23 -56.5t-57 -22.5 q-22 0 -37.5 8.5t-42.5 32.5l-150 143q-22 25 -22 59zM266 246q0 -92 133 -92q129 0 256 51v123q-113 10 -256 10q-133 0 -133 -92z" />
<glyph unicode="&#xe1;" d="M61 236q0 56 20.5 101t52.5 73.5t73.5 47.5t82 26.5t79.5 7.5q158 0 282 -52h4v72q0 133 -180 133q-48 0 -110.5 -15t-116.5 -46q-36 -24 -79.5 -17.5t-64.5 45.5q-12 23 -12 45t7 38t19.5 31t22.5 22.5t19 13.5q128 78 325 78q103 0 179 -25.5t117 -68.5t60 -91.5 t19 -101.5v-461q0 -43 -29.5 -72.5t-72.5 -29.5t-73 29.5t-30 72.5v21h-4q-42 -61 -126 -97t-177 -36q-39 0 -77 7.5t-77 26.5t-68 47.5t-47 73.5t-18 101zM266 246q0 -92 133 -92q129 0 256 51v123q-113 10 -256 10q-133 0 -133 -92zM383 1001q0 34 23 60l149 143 q27 24 42.5 32.5t37.5 8.5q34 0 57 -23t23 -57t-22 -59l-150 -143q-27 -24 -42.5 -32.5t-37.5 -8.5q-34 0 -57 22.5t-23 56.5z" />
<glyph unicode="&#xe2;" d="M61 236q0 56 20.5 101t52.5 73.5t73.5 47.5t82 26.5t79.5 7.5q158 0 282 -52h4v72q0 133 -180 133q-48 0 -110.5 -15t-116.5 -46q-36 -24 -79.5 -17.5t-64.5 45.5q-12 23 -12 45t7 38t19.5 31t22.5 22.5t19 13.5q128 78 325 78q103 0 179 -25.5t117 -68.5t60 -91.5 t19 -101.5v-461q0 -43 -29.5 -72.5t-72.5 -29.5t-73 29.5t-30 72.5v21h-4q-42 -61 -126 -97t-177 -36q-39 0 -77 7.5t-77 26.5t-68 47.5t-47 73.5t-18 101zM180 995q0 33 23 56l201 198q25 25 38.5 33t34.5 8t35.5 -8.5t38.5 -32.5l201 -198q22 -22 22 -56q0 -31 -20.5 -52 t-52.5 -21q-21 0 -35 8t-39 31l-152 151l-147 -151q-25 -23 -39 -31t-35 -8q-32 0 -53 21t-21 52zM266 246q0 -92 133 -92q129 0 256 51v123q-113 10 -256 10q-133 0 -133 -92z" />
<glyph unicode="&#xe3;" d="M61 236q0 56 20.5 101t52.5 73.5t73.5 47.5t82 26.5t79.5 7.5q158 0 282 -52h4v72q0 133 -180 133q-48 0 -110.5 -15t-116.5 -46q-36 -24 -79.5 -17.5t-64.5 45.5q-12 23 -12 45t7 38t19.5 31t22.5 22.5t19 13.5q128 78 325 78q103 0 179 -25.5t117 -68.5t60 -91.5 t19 -101.5v-461q0 -43 -29.5 -72.5t-72.5 -29.5t-73 29.5t-30 72.5v21h-4q-42 -61 -126 -97t-177 -36q-39 0 -77 7.5t-77 26.5t-68 47.5t-47 73.5t-18 101zM149.5 979q-4.5 29 12.5 49q41 57 76 88.5t78.5 45t95 -3.5t115.5 -64q83 -69 159 43q14 24 47 26t56 -14 q25 -22 29 -51t-13 -49q-41 -57 -76.5 -88.5t-78.5 -45.5t-94.5 3t-114.5 65q-84 69 -160 -43q-14 -24 -46.5 -26t-55.5 14q-25 22 -29.5 51zM266 246q0 -92 133 -92q129 0 256 51v123q-113 10 -256 10q-133 0 -133 -92z" />
<glyph unicode="&#xe4;" d="M61 236q0 56 20.5 101t52.5 73.5t73.5 47.5t82 26.5t79.5 7.5q158 0 282 -52h4v72q0 133 -180 133q-48 0 -110.5 -15t-116.5 -46q-36 -24 -79.5 -17.5t-64.5 45.5q-12 23 -12 45t7 38t19.5 31t22.5 22.5t19 13.5q128 78 325 78q103 0 179 -25.5t117 -68.5t60 -91.5 t19 -101.5v-461q0 -43 -29.5 -72.5t-72.5 -29.5t-73 29.5t-30 72.5v21h-4q-42 -61 -126 -97t-177 -36q-39 0 -77 7.5t-77 26.5t-68 47.5t-47 73.5t-18 101zM181 1038q0 48 32.5 82.5t81.5 34.5q47 0 83 -35t36 -82q0 -50 -35.5 -83t-83.5 -33q-50 0 -82 32.5t-32 83.5z M266 246q0 -92 133 -92q129 0 256 51v123q-113 10 -256 10q-133 0 -133 -92zM547 1038q0 48 33 82.5t82 34.5t84 -34.5t35 -82.5q0 -50 -34.5 -83t-84.5 -33t-82.5 32.5t-32.5 83.5z" />
<glyph unicode="&#xe5;" d="M61 236q0 56 20.5 101t52.5 73.5t73.5 47.5t82 26.5t79.5 7.5q158 0 282 -52h4v72q0 133 -180 133q-48 0 -110.5 -15t-116.5 -46q-36 -24 -79.5 -17.5t-64.5 45.5q-12 23 -12 45t7 38t19.5 31t22.5 22.5t19 13.5q128 78 325 78q103 0 179 -25.5t117 -68.5t60 -91.5 t19 -101.5v-461q0 -43 -29.5 -72.5t-72.5 -29.5t-73 29.5t-30 72.5v21h-4q-42 -61 -126 -97t-177 -36q-39 0 -77 7.5t-77 26.5t-68 47.5t-47 73.5t-18 101zM266 246q0 -92 133 -92q129 0 256 51v123q-113 10 -256 10q-133 0 -133 -92zM277 1114q0 80 56.5 136.5t135.5 56.5 t136 -56.5t57 -136.5q0 -79 -56.5 -135.5t-136.5 -56.5q-79 0 -135.5 56t-56.5 136zM379 1114q0 -40 25 -65t65 -25t65 25t25 65t-25 65t-65 25t-65 -25t-25 -65z" />
<glyph unicode="&#xe6;" horiz-adv-x="1536" d="M61 236q0 56 20.5 101t52.5 73.5t73.5 47.5t82 26.5t79.5 7.5q158 0 282 -52h4v72q0 133 -180 133q-48 0 -110.5 -15t-116.5 -46q-36 -24 -79.5 -17.5t-64.5 45.5q-12 23 -12 45t7 38t19.5 31t22.5 22.5t19 13.5q128 78 325 78q225 0 318 -107q123 107 282 107 q184 0 297 -110.5t113 -289.5q0 -43 -29.5 -72.5t-72.5 -29.5h-525q21 -74 79 -119t138 -45q103 0 218 62q36 21 75.5 11t59.5 -50q25 -52 1.5 -93.5t-53.5 -56.5q-118 -67 -301 -67q-102 0 -191.5 44.5t-150.5 122.5q-155 -167 -395 -167q-39 0 -77 7.5t-77 26.5t-68 47.5 t-47 73.5t-18 101zM266 246q0 -92 133 -92q150 0 295 77q-21 47 -30 95q-133 12 -265 12q-133 0 -133 -92zM891 512h373q-36 133 -179 133q-138 0 -194 -133z" />
<glyph unicode="&#xe7;" horiz-adv-x="897" d="M61 410q0 178 126 304t305 126q181 0 301 -68q29 -15 52.5 -56t-1.5 -93q-20 -40 -59.5 -50t-75.5 11q-113 61 -217 61q-99 0 -162.5 -67t-63.5 -168t63.5 -168.5t162.5 -67.5q102 0 217 62q36 21 75.5 11t59.5 -50q25 -52 1.5 -93.5t-52.5 -56.5q-114 -64 -279 -67v-50 q106 -5 150 -85q40 -73 5 -158q-39 -94 -148 -136q-27 -10 -56 -16q-89 -16 -107 29q-11 30 1.5 55t43.5 29q79 12 112 65q29 46 -2 81q-20 22 -62 28q-32 4 -43 16.5t-11 36.5v115q-146 33 -241 150t-95 270z" />
<glyph unicode="&#xe8;" d="M61 410q0 178 126 304t305 126q184 0 296.5 -110.5t112.5 -289.5q0 -43 -29.5 -72.5t-72.5 -29.5h-525q21 -73 79.5 -118.5t138.5 -45.5q102 0 217 62q36 21 75.5 11t59.5 -50q25 -52 1.5 -93.5t-52.5 -56.5q-118 -67 -301 -67q-179 0 -305 126t-126 304zM277 1165 q0 34 23 57t57 23q22 0 37.5 -8.5t42.5 -32.5l149 -143q23 -26 23 -60t-23 -56.5t-57 -22.5q-22 0 -37.5 8.5t-42.5 32.5l-150 143q-22 25 -22 59zM297 512h373q-36 133 -178 133q-139 0 -195 -133z" />
<glyph unicode="&#xe9;" d="M61 410q0 178 126 304t305 126q184 0 296.5 -110.5t112.5 -289.5q0 -43 -29.5 -72.5t-72.5 -29.5h-525q21 -73 79.5 -118.5t138.5 -45.5q102 0 217 62q36 21 75.5 11t59.5 -50q25 -52 1.5 -93.5t-52.5 -56.5q-118 -67 -301 -67q-179 0 -305 126t-126 304zM297 512h373 q-36 133 -178 133q-139 0 -195 -133zM524 1001q0 34 23 60l149 143q27 24 42.5 32.5t37.5 8.5q34 0 57 -23t23 -57t-22 -59l-150 -143q-27 -24 -42.5 -32.5t-37.5 -8.5q-34 0 -57 22.5t-23 56.5z" />
<glyph unicode="&#xea;" d="M61 410q0 178 126 304t305 126q184 0 296.5 -110.5t112.5 -289.5q0 -43 -29.5 -72.5t-72.5 -29.5h-525q21 -73 79.5 -118.5t138.5 -45.5q102 0 217 62q36 21 75.5 11t59.5 -50q25 -52 1.5 -93.5t-52.5 -56.5q-118 -67 -301 -67q-179 0 -305 126t-126 304zM219 995 q0 33 23 56l201 198q25 25 38.5 33t34.5 8t35.5 -8.5t38.5 -32.5l201 -198q22 -22 22 -56q0 -31 -20.5 -52t-52.5 -21q-21 0 -35 8t-39 31l-152 151l-147 -151q-25 -23 -39 -31t-35 -8q-32 0 -53 21t-21 52zM297 512h373q-36 133 -178 133q-139 0 -195 -133z" />
<glyph unicode="&#xeb;" d="M61 410q0 178 126 304t305 126q184 0 296.5 -110.5t112.5 -289.5q0 -43 -29.5 -72.5t-72.5 -29.5h-525q21 -73 79.5 -118.5t138.5 -45.5q102 0 217 62q36 21 75.5 11t59.5 -50q25 -52 1.5 -93.5t-52.5 -56.5q-118 -67 -301 -67q-179 0 -305 126t-126 304zM158 1038 q0 48 32.5 82.5t81.5 34.5q47 0 83 -35t36 -82q0 -50 -35.5 -83t-83.5 -33q-50 0 -82 32.5t-32 83.5zM297 512h373q-36 133 -178 133q-139 0 -195 -133zM524 1038q0 48 33 82.5t82 34.5t84 -34.5t35 -82.5q0 -50 -34.5 -83t-84.5 -33t-82.5 32.5t-32.5 83.5z" />
<glyph unicode="&#xec;" horiz-adv-x="389" d="M-65 1165q0 34 23 57t57 23q22 0 37.5 -8.5t42.5 -32.5l149 -143q23 -26 23 -60t-23 -56.5t-57 -22.5q-22 0 -37.5 8.5t-42.5 32.5l-150 143q-22 25 -22 59zM92 92v635q0 43 30 72.5t73 29.5t72.5 -29.5t29.5 -72.5v-635q0 -43 -29.5 -72.5t-72.5 -29.5t-73 29.5 t-30 72.5z" />
<glyph unicode="&#xed;" horiz-adv-x="389" d="M92 92v635q0 43 30 72.5t73 29.5t72.5 -29.5t29.5 -72.5v-635q0 -43 -29.5 -72.5t-72.5 -29.5t-73 29.5t-30 72.5zM127 1001q0 34 23 60l149 143q27 24 42.5 32.5t37.5 8.5q34 0 57 -23t23 -57t-22 -59l-150 -143q-27 -24 -42.5 -32.5t-37.5 -8.5q-34 0 -57 22.5 t-23 56.5z" />
<glyph unicode="&#xee;" horiz-adv-x="389" d="M-102 995q0 34 22 56l201 198q24 24 38.5 32.5t35.5 8.5t34.5 -8t38.5 -33l201 -198q23 -23 23 -56q0 -31 -21 -52t-53 -21q-21 0 -35 8t-39 31l-151 151l-148 -151q-25 -23 -39 -31t-35 -8q-32 0 -52.5 21t-20.5 52zM92 92v635q0 43 30 72.5t73 29.5t72.5 -29.5 t29.5 -72.5v-635q0 -43 -29.5 -72.5t-72.5 -29.5t-73 29.5t-30 72.5z" />
<glyph unicode="&#xef;" horiz-adv-x="389" d="M-104 1038q0 48 32.5 82.5t81.5 34.5q47 0 83 -35t36 -82q0 -50 -35.5 -83t-83.5 -33q-50 0 -82 32.5t-32 83.5zM94 92v635q0 43 30 72.5t73 29.5t72.5 -29.5t29.5 -72.5v-635q0 -43 -29.5 -72.5t-72.5 -29.5t-73 29.5t-30 72.5zM262 1038q0 48 33 82.5t82 34.5t84 -34.5 t35 -82.5q0 -50 -34.5 -83t-84.5 -33t-82.5 32.5t-32.5 83.5z" />
<glyph unicode="&#xf0;" horiz-adv-x="989" d="M61 410q0 176 125 292.5t306 116.5q106 0 192 -63q-65 151 -199 260l-90 -90q-15 -15 -35.5 -15t-35.5 15t-15 35.5t15 35.5l77 78q-82 50 -178 88q-39 15 -57 51.5t-6 75.5q14 43 53 63t78 3q138 -55 254 -137l102 104q15 13 36 13t36 -13q15 -15 15 -37t-15 -37 l-92 -92q68 -59 120.5 -127.5t85.5 -136t55.5 -139.5t29.5 -138t9 -133t-7 -123q-19 -162 -141 -271t-287 -109q-179 0 -305 126t-126 304zM266 410q0 -101 63.5 -168.5t162.5 -67.5t162 67.5t63 168.5t-63 168t-162 67t-162.5 -67t-63.5 -168z" />
<glyph unicode="&#xf1;" horiz-adv-x="1034" d="M92 92v635q0 43 30 72.5t73 29.5t72.5 -29.5t29.5 -72.5v-20h4q63 66 129.5 99.5t153.5 33.5q169 0 268.5 -115.5t99.5 -314.5v-318q0 -43 -29.5 -72.5t-72.5 -29.5t-72.5 29.5t-29.5 72.5v318q0 113 -61.5 174t-164.5 61q-99 0 -162 -67t-63 -168v-318 q0 -43 -29.5 -72.5t-72.5 -29.5t-73 29.5t-30 72.5zM171.5 979q-4.5 29 12.5 49q41 57 76 88.5t78.5 45t95 -3.5t115.5 -64q83 -69 159 43q14 24 47 26t56 -14q25 -22 29 -51t-13 -49q-41 -57 -76.5 -88.5t-78.5 -45.5t-94.5 3t-114.5 65q-84 69 -160 -43q-14 -24 -46.5 -26 t-55.5 14q-25 22 -29.5 51z" />
<glyph unicode="&#xf2;" horiz-adv-x="983" d="M61 410q0 178 126 304t305 126q178 0 304 -126t126 -304t-126 -304t-304 -126q-179 0 -305 126t-126 304zM258 1165q0 34 23 57t57 23q22 0 37.5 -8.5t42.5 -32.5l149 -143q23 -26 23 -60t-23 -56.5t-57 -22.5q-22 0 -37.5 8.5t-42.5 32.5l-150 143q-22 25 -22 59z M266 410q0 -101 63.5 -168.5t162.5 -67.5t162 67.5t63 168.5t-63 168t-162 67t-162.5 -67t-63.5 -168z" />
<glyph unicode="&#xf3;" horiz-adv-x="983" d="M61 410q0 178 126 304t305 126q178 0 304 -126t126 -304t-126 -304t-304 -126q-179 0 -305 126t-126 304zM266 410q0 -101 63.5 -168.5t162.5 -67.5t162 67.5t63 168.5t-63 168t-162 67t-162.5 -67t-63.5 -168zM415 1001q0 34 23 60l149 143q27 24 42.5 32.5t37.5 8.5 q34 0 57 -23t23 -57t-22 -59l-150 -143q-27 -24 -42.5 -32.5t-37.5 -8.5q-34 0 -57 22.5t-23 56.5z" />
<glyph unicode="&#xf4;" horiz-adv-x="983" d="M61 410q0 178 126 304t305 126q178 0 304 -126t126 -304t-126 -304t-304 -126q-179 0 -305 126t-126 304zM200 995q0 33 23 56l201 198q25 25 38.5 33t34.5 8t35.5 -8.5t38.5 -32.5l201 -198q22 -22 22 -56q0 -31 -20.5 -52t-52.5 -21q-21 0 -35 8t-39 31l-152 151 l-147 -151q-25 -23 -39 -31t-35 -8q-32 0 -53 21t-21 52zM266 410q0 -101 63.5 -168.5t162.5 -67.5t162 67.5t63 168.5t-63 168t-162 67t-162.5 -67t-63.5 -168z" />
<glyph unicode="&#xf5;" horiz-adv-x="983" d="M61 410q0 178 126 304t305 126q178 0 304 -126t126 -304t-126 -304t-304 -126q-179 0 -305 126t-126 304zM171.5 979q-4.5 29 12.5 49q41 57 76 88.5t78.5 45t95 -3.5t115.5 -64q83 -69 159 43q14 24 47 26t56 -14q25 -22 29 -51t-13 -49q-41 -57 -76.5 -88.5 t-78.5 -45.5t-94.5 3t-114.5 65q-84 69 -160 -43q-14 -24 -46.5 -26t-55.5 14q-25 22 -29.5 51zM266 410q0 -101 63.5 -168.5t162.5 -67.5t162 67.5t63 168.5t-63 168t-162 67t-162.5 -67t-63.5 -168z" />
<glyph unicode="&#xf6;" horiz-adv-x="983" d="M61 410q0 178 126 304t305 126q178 0 304 -126t126 -304t-126 -304t-304 -126q-179 0 -305 126t-126 304zM191 1038q0 48 32.5 82.5t81.5 34.5q47 0 83 -35t36 -82q0 -50 -35.5 -83t-83.5 -33q-50 0 -82 32.5t-32 83.5zM266 410q0 -101 63.5 -168.5t162.5 -67.5t162 67.5 t63 168.5t-63 168t-162 67t-162.5 -67t-63.5 -168zM557 1038q0 48 33 82.5t82 34.5t84 -34.5t35 -82.5q0 -50 -34.5 -83t-84.5 -33t-82.5 32.5t-32.5 83.5z" />
<glyph unicode="&#xf7;" horiz-adv-x="1118" d="M164 500q0 38 25.5 63t62.5 25h614q37 0 62.5 -25t25.5 -63q0 -37 -25.5 -62.5t-62.5 -25.5h-614q-37 0 -62.5 25.5t-25.5 62.5zM440 205q0 43 30 72.5t73 29.5t72.5 -29.5t29.5 -72.5t-29.5 -73t-72.5 -30t-73 30t-30 73zM440 799q0 43 30 72.5t73 29.5t72.5 -29.5 t29.5 -72.5t-29.5 -73t-72.5 -30t-73 30t-30 73z" />
<glyph unicode="&#xf8;" horiz-adv-x="983" d="M61 410q0 178 126 304t305 126q178 0 304 -126t126 -304t-126 -304t-304 -126q-179 0 -305 126t-126 304zM266 410q0 -59 27 -115l317 317q-58 33 -118 33q-99 0 -162.5 -67t-63.5 -168zM358 215q53 -41 134 -41q99 0 162 67.5t63 168.5q0 73 -35 129z" />
<glyph unicode="&#xf9;" horiz-adv-x="1034" d="M82 410v317q0 43 29.5 72.5t72.5 29.5t73 -29.5t30 -72.5v-317q0 -113 61.5 -174.5t163.5 -61.5q99 0 162 67.5t63 168.5v317q0 43 30 72.5t73 29.5t72.5 -29.5t29.5 -72.5v-635q0 -43 -29.5 -72.5t-72.5 -29.5t-73 29.5t-30 72.5v21h-4q-63 -66 -129 -99.5t-153 -33.5 q-169 0 -269 115.5t-100 314.5zM254 1165q0 34 23 57t57 23q22 0 37.5 -8.5t42.5 -32.5l149 -143q23 -26 23 -60t-23 -56.5t-57 -22.5q-22 0 -37.5 8.5t-42.5 32.5l-150 143q-22 25 -22 59z" />
<glyph unicode="&#xfa;" horiz-adv-x="1034" d="M82 410v317q0 43 29.5 72.5t72.5 29.5t73 -29.5t30 -72.5v-317q0 -113 61.5 -174.5t163.5 -61.5q99 0 162 67.5t63 168.5v317q0 43 30 72.5t73 29.5t72.5 -29.5t29.5 -72.5v-635q0 -43 -29.5 -72.5t-72.5 -29.5t-73 29.5t-30 72.5v21h-4q-63 -66 -129 -99.5t-153 -33.5 q-169 0 -269 115.5t-100 314.5zM446 1001q0 34 23 60l149 143q27 24 42.5 32.5t37.5 8.5q34 0 57 -23t23 -57t-22 -59l-150 -143q-27 -24 -42.5 -32.5t-37.5 -8.5q-34 0 -57 22.5t-23 56.5z" />
<glyph unicode="&#xfb;" horiz-adv-x="1034" d="M82 410v317q0 43 29.5 72.5t72.5 29.5t73 -29.5t30 -72.5v-317q0 -113 61.5 -174.5t163.5 -61.5q99 0 162 67.5t63 168.5v317q0 43 30 72.5t73 29.5t72.5 -29.5t29.5 -72.5v-635q0 -43 -29.5 -72.5t-72.5 -29.5t-73 29.5t-30 72.5v21h-4q-63 -66 -129 -99.5t-153 -33.5 q-169 0 -269 115.5t-100 314.5zM221 995q0 33 23 56l201 198q25 25 38.5 33t34.5 8t35.5 -8.5t38.5 -32.5l201 -198q22 -22 22 -56q0 -31 -20.5 -52t-52.5 -21q-21 0 -35 8t-39 31l-152 151l-147 -151q-25 -23 -39 -31t-35 -8q-32 0 -53 21t-21 52z" />
<glyph unicode="&#xfc;" horiz-adv-x="1034" d="M82 410v317q0 43 29.5 72.5t72.5 29.5t73 -29.5t30 -72.5v-317q0 -113 61.5 -174.5t163.5 -61.5q99 0 162 67.5t63 168.5v317q0 43 30 72.5t73 29.5t72.5 -29.5t29.5 -72.5v-635q0 -43 -29.5 -72.5t-72.5 -29.5t-73 29.5t-30 72.5v21h-4q-63 -66 -129 -99.5t-153 -33.5 q-169 0 -269 115.5t-100 314.5zM207 1038q0 48 32.5 82.5t81.5 34.5q47 0 83 -35t36 -82q0 -50 -35.5 -83t-83.5 -33q-50 0 -82 32.5t-32 83.5zM573 1038q0 48 33 82.5t82 34.5t84 -34.5t35 -82.5q0 -50 -34.5 -83t-84.5 -33t-82.5 32.5t-32.5 83.5z" />
<glyph unicode="&#xfd;" horiz-adv-x="1034" d="M82 410v317q0 43 29.5 72.5t72.5 29.5t73 -29.5t30 -72.5v-317q0 -113 61.5 -174.5t163.5 -61.5q99 0 162 67.5t63 168.5v317q0 43 30 72.5t73 29.5t72.5 -29.5t29.5 -72.5v-768q0 -179 -126 -304.5t-304 -125.5q-181 0 -301 68q-29 15 -52.5 56t1.5 93q20 40 59.5 50 t75.5 -11q113 -61 217 -61q99 0 162 67t63 168v154h-4q-63 -66 -129 -99.5t-153 -33.5q-169 0 -269 115.5t-100 314.5zM442 1001q0 34 23 60l149 143q27 24 42.5 32.5t37.5 8.5q34 0 57 -23t23 -57t-22 -59l-150 -143q-27 -24 -42.5 -32.5t-37.5 -8.5q-34 0 -57 22.5 t-23 56.5z" />
<glyph unicode="&#xfe;" horiz-adv-x="1013" d="M92 -369v1629q0 43 30 72.5t73 29.5t72.5 -29.5t29.5 -72.5v-553h4q92 133 262 133q167 0 278 -125t111 -305t-111 -305t-278 -125q-173 0 -262 112h-4v-461q0 -43 -29.5 -72.5t-72.5 -29.5t-73 29.5t-30 72.5zM297 410q0 -101 63 -168.5t162 -67.5t162.5 67.5 t63.5 168.5t-63.5 168t-162.5 67t-162 -67t-63 -168z" />
<glyph unicode="&#xff;" horiz-adv-x="1034" d="M82 410v317q0 43 29.5 72.5t72.5 29.5t73 -29.5t30 -72.5v-317q0 -113 61.5 -174.5t163.5 -61.5q99 0 162 67.5t63 168.5v317q0 43 30 72.5t73 29.5t72.5 -29.5t29.5 -72.5v-768q0 -179 -126 -304.5t-304 -125.5q-181 0 -301 68q-29 15 -52.5 56t1.5 93q20 40 59.5 50 t75.5 -11q113 -61 217 -61q99 0 162 67t63 168v154h-4q-63 -66 -129 -99.5t-153 -33.5q-169 0 -269 115.5t-100 314.5zM222 1038q0 48 32.5 82.5t81.5 34.5q47 0 83 -35t36 -82q0 -50 -35.5 -83t-83.5 -33q-50 0 -82 32.5t-32 83.5zM588 1038q0 48 33 82.5t82 34.5t84 -34.5 t35 -82.5q0 -50 -34.5 -83t-84.5 -33t-82.5 32.5t-32.5 83.5z" />
<glyph unicode="&#x152;" horiz-adv-x="2181" d="M123 676q0 142 55 271t148 222t222 148t271 55q140 0 267.5 -53.5t224.5 -149.5v80q0 43 29.5 73t72.5 30h594q43 0 72.5 -30t29.5 -73t-29.5 -72.5t-72.5 -29.5h-491v-328h368q43 0 73 -29.5t30 -72.5t-30 -73t-73 -30h-368v-409h491q43 0 72.5 -30t29.5 -73 t-29.5 -72.5t-72.5 -29.5h-594q-43 0 -72.5 29.5t-29.5 72.5v80q-97 -95 -224.5 -148.5t-267.5 -53.5q-142 0 -271 55t-222 148t-148 222t-55 271zM332 676q0 -134 61 -246t173.5 -179t252.5 -67t252.5 67t174 179.5t61.5 245.5t-61.5 245t-174 179t-252.5 67t-252.5 -67 t-173.5 -178.5t-61 -245.5z" />
<glyph unicode="&#x153;" horiz-adv-x="1601" d="M61 410q0 178 126 304t305 126q96 0 181.5 -42t147.5 -114q60 72 146 114t184 42q184 0 297 -110.5t113 -289.5q0 -43 -30 -72.5t-73 -29.5h-524q21 -74 79 -119t138 -45q102 0 217 62q36 21 75.5 11t59.5 -50q25 -52 1.5 -93.5t-52.5 -56.5q-118 -67 -301 -67 q-98 0 -184.5 40.5t-145.5 112.5q-61 -72 -146.5 -112.5t-182.5 -40.5q-179 0 -305 126t-126 304zM266 410q0 -101 63.5 -168.5t162.5 -67.5t162 67.5t63 168.5t-63 168t-162 67t-162.5 -67t-63.5 -168zM956 512h373q-36 133 -178 133q-139 0 -195 -133z" />
<glyph unicode="&#x178;" horiz-adv-x="1441" d="M20 1260q0 43 30 72.5t73 29.5q30 0 50.5 -11t51.5 -42l494 -490l498 490q31 31 51.5 42t50.5 11q43 0 72.5 -29.5t29.5 -72.5q0 -42 -32 -74l-568 -555v-539q0 -43 -29.5 -72.5t-72.5 -29.5t-73 29.5t-30 72.5v539l-563 555q-33 33 -33 74zM418 1591q0 48 32.5 82.5 t81.5 34.5q47 0 83 -35t36 -82q0 -50 -35.5 -83t-83.5 -33q-50 0 -82 32.5t-32 83.5zM784 1591q0 48 33 82.5t82 34.5t84 -34.5t35 -82.5q0 -50 -34.5 -83t-84.5 -33t-82.5 32.5t-32.5 83.5z" />
<glyph unicode="&#x2c6;" horiz-adv-x="704" d="M57 995q0 33 23 56l201 198q25 25 38.5 33t34.5 8t35.5 -8.5t38.5 -32.5l201 -198q22 -22 22 -56q0 -31 -20.5 -52t-52.5 -21q-21 0 -35 8t-39 31l-152 151l-147 -151q-25 -23 -39 -31t-35 -8q-32 0 -53 21t-21 52z" />
<glyph unicode="&#x2dc;" horiz-adv-x="833" d="M81.5 979q-4.5 29 12.5 49q41 57 76 88.5t78.5 45t95 -3.5t115.5 -64q83 -69 159 43q14 24 47 26t56 -14q25 -22 29 -51t-13 -49q-41 -57 -76.5 -88.5t-78.5 -45.5t-94.5 3t-114.5 65q-84 69 -160 -43q-14 -24 -46.5 -26t-55.5 14q-25 22 -29.5 51z" />
<glyph unicode="&#x2000;" horiz-adv-x="930" />
<glyph unicode="&#x2001;" horiz-adv-x="1860" />
<glyph unicode="&#x2002;" horiz-adv-x="930" />
<glyph unicode="&#x2003;" horiz-adv-x="1860" />
<glyph unicode="&#x2004;" horiz-adv-x="620" />
<glyph unicode="&#x2005;" horiz-adv-x="465" />
<glyph unicode="&#x2006;" horiz-adv-x="310" />
<glyph unicode="&#x2007;" horiz-adv-x="310" />
<glyph unicode="&#x2008;" horiz-adv-x="232" />
<glyph unicode="&#x2009;" horiz-adv-x="372" />
<glyph unicode="&#x200a;" horiz-adv-x="103" />
<glyph unicode="&#x2010;" horiz-adv-x="1118" d="M164 500q0 38 25.5 63t62.5 25h614q37 0 62.5 -25t25.5 -63q0 -37 -25.5 -62.5t-62.5 -25.5h-614q-37 0 -62.5 25.5t-25.5 62.5z" />
<glyph unicode="&#x2011;" horiz-adv-x="1118" d="M164 500q0 38 25.5 63t62.5 25h614q37 0 62.5 -25t25.5 -63q0 -37 -25.5 -62.5t-62.5 -25.5h-614q-37 0 -62.5 25.5t-25.5 62.5z" />
<glyph unicode="&#x2012;" horiz-adv-x="1118" d="M164 500q0 38 25.5 63t62.5 25h614q37 0 62.5 -25t25.5 -63q0 -37 -25.5 -62.5t-62.5 -25.5h-614q-37 0 -62.5 25.5t-25.5 62.5z" />
<glyph unicode="&#x2013;" horiz-adv-x="1118" d="M164 500q0 38 25.5 63t62.5 25h614q37 0 62.5 -25t25.5 -63q0 -37 -25.5 -62.5t-62.5 -25.5h-614q-37 0 -62.5 25.5t-25.5 62.5z" />
<glyph unicode="&#x2014;" horiz-adv-x="1732" d="M164 500q0 38 25.5 63t62.5 25h1229q37 0 62.5 -25t25.5 -63q0 -37 -25.5 -62.5t-62.5 -25.5h-1229q-37 0 -62.5 25.5t-25.5 62.5z" />
<glyph unicode="&#x2018;" horiz-adv-x="428" d="M111 987q-20 83 10.5 180t99.5 166q16 16 38 20t40 -10q17 -13 18 -34.5t-14 -36.5q-38 -38 -59.5 -84.5t-20.5 -87.5q43 0 73 -30t30 -73t-30 -72.5t-73 -29.5q-42 0 -71.5 24.5t-40.5 67.5z" />
<glyph unicode="&#x2019;" horiz-adv-x="428" d="M102 1260q0 43 30 72.5t73 29.5q42 0 71.5 -24.5t40.5 -67.5q20 -83 -10.5 -180t-99.5 -166q-16 -16 -37.5 -20.5t-40.5 9.5q-17 13 -18 35t14 37q38 38 59.5 84.5t20.5 87.5q-43 0 -73 30t-30 73z" />
<glyph unicode="&#x201a;" horiz-adv-x="428" d="M102 92q0 43 30 73t73 30q42 0 71.5 -25t40.5 -68q20 -83 -10.5 -180t-99.5 -166q-16 -16 -38 -20t-40 10q-17 13 -18 35t14 37q38 38 59.5 84.5t20.5 87.5q-43 0 -73 29.5t-30 72.5z" />
<glyph unicode="&#x201c;" horiz-adv-x="735" d="M111 987q-20 83 10.5 180t99.5 166q16 16 38 20t40 -10q17 -13 18 -34.5t-14 -36.5q-38 -38 -59.5 -84.5t-20.5 -87.5q43 0 73 -30t30 -73t-30 -72.5t-73 -29.5q-42 0 -71.5 24.5t-40.5 67.5zM418 987q-20 83 10.5 180t99.5 166q16 16 38 20t40 -10q17 -13 18 -34.5 t-14 -36.5q-38 -38 -59.5 -84.5t-20.5 -87.5q43 0 73 -30t30 -73t-30 -72.5t-73 -29.5q-42 0 -71.5 24.5t-40.5 67.5z" />
<glyph unicode="&#x201d;" horiz-adv-x="735" d="M102 1260q0 43 30 72.5t73 29.5q42 0 71.5 -24.5t40.5 -67.5q20 -83 -10.5 -180t-99.5 -166q-16 -16 -37.5 -20.5t-40.5 9.5q-17 13 -18 35t14 37q38 38 59.5 84.5t20.5 87.5q-43 0 -73 30t-30 73zM410 1260q0 43 29.5 72.5t72.5 29.5t72.5 -24.5t40.5 -67.5 q20 -83 -11 -180t-100 -166q-16 -16 -37.5 -20.5t-40.5 9.5q-17 13 -18 35t14 37q38 38 59.5 84.5t20.5 87.5q-43 0 -72.5 30t-29.5 73z" />
<glyph unicode="&#x201e;" horiz-adv-x="735" d="M102 92q0 43 30 73t73 30q42 0 71.5 -25t40.5 -68q20 -83 -10.5 -180t-99.5 -166q-16 -16 -38 -20t-40 10q-17 13 -18 35t14 37q38 38 59.5 84.5t20.5 87.5q-43 0 -73 29.5t-30 72.5zM410 92q0 43 29.5 73t72.5 30q42 0 72 -25t41 -68q20 -83 -11 -180t-100 -166 q-16 -16 -38 -20t-40 10q-17 13 -18 35t14 37q38 38 59.5 84.5t20.5 87.5q-43 0 -72.5 29.5t-29.5 72.5z" />
<glyph unicode="&#x2022;" horiz-adv-x="409" d="M88 711q0 48 33 82t82 34q48 0 83.5 -34.5t35.5 -81.5q0 -50 -35.5 -83.5t-83.5 -33.5q-50 0 -82.5 33t-32.5 84z" />
<glyph unicode="&#x2026;" horiz-adv-x="1003" d="M92 92q0 43 30 73t73 30t72.5 -30t29.5 -73t-29.5 -72.5t-72.5 -29.5t-73 29.5t-30 72.5zM399 92q0 43 30 73t73 30t72.5 -30t29.5 -73t-29.5 -72.5t-72.5 -29.5t-73 29.5t-30 72.5zM707 92q0 43 29.5 73t72.5 30t72.5 -30t29.5 -73t-29.5 -72.5t-72.5 -29.5t-72.5 29.5 t-29.5 72.5z" />
<glyph unicode="&#x202f;" horiz-adv-x="372" />
<glyph unicode="&#x2039;" horiz-adv-x="794" d="M164 502q0 25 9.5 41.5t37.5 46.5l266 260q22 27 66 27q36 0 62 -25.5t26 -63.5q0 -25 -10 -42t-39 -46l-203 -196l203 -197q29 -29 39 -46t10 -42q0 -38 -26 -63t-62 -25q-44 0 -66 27l-266 256q-27 26 -37 43.5t-10 44.5z" />
<glyph unicode="&#x203a;" horiz-adv-x="794" d="M164 219q0 25 10 42t39 46l203 197l-203 196q-29 29 -39 46t-10 42q0 38 26 63.5t62 25.5q43 0 65 -27l267 -260q28 -30 37.5 -46.5t9.5 -41.5q0 -27 -10 -44.5t-37 -43.5l-267 -256q-22 -27 -65 -27q-36 0 -62 25t-26 63z" />
<glyph unicode="&#x205f;" horiz-adv-x="465" />
<glyph unicode="&#x20ac;" horiz-adv-x="1636" d="M102 543q0 22 15 36.5t37 14.5h155q-4 54 -4 82q0 41 2 61h-153q-22 0 -37 14.5t-15 36.5t15 37t37 15h170q56 232 244 382t433 150q145 0 274 -56t228 -157q31 -31 31 -71.5t-31 -71.5t-72.5 -30t-72.5 32q-143 149 -357 149q-165 0 -289 -91t-173 -236h278 q22 0 36.5 -15t14.5 -37t-14.5 -36.5t-36.5 -14.5h-301q-2 -20 -2 -61q0 -42 6 -82h297q22 0 36.5 -14.5t14.5 -36.5t-14.5 -36.5t-36.5 -14.5h-270q54 -139 174.5 -223.5t279.5 -84.5q214 0 357 150q31 31 72.5 32t72.5 -30t31 -71.5t-31 -71.5q-99 -101 -228 -157 t-274 -56q-239 0 -424.5 143.5t-246.5 368.5h-176q-22 0 -37 14.5t-15 36.5z" />
<glyph unicode="&#x2122;" horiz-adv-x="1810" d="M123 1303q0 22 14.5 35.5t36.5 13.5h614q22 0 37 -14t15 -35q0 -22 -15 -36t-37 -14h-256v-551q0 -22 -14.5 -36.5t-36.5 -14.5t-36.5 14.5t-14.5 36.5v551h-256q-22 0 -36.5 14t-14.5 36zM983 702v603q0 22 14.5 36.5t36.5 14.5q24 0 51 -27l250 -254l250 254 q27 27 51 27q22 0 37 -14.5t15 -36.5v-603q0 -22 -15 -36.5t-37 -14.5t-36.5 14.5t-14.5 36.5v480l-196 -203q-27 -27 -52 -27q-24 0 -51 27l-201 203v-480q0 -22 -14.5 -36.5t-36.5 -14.5t-36.5 14.5t-14.5 36.5z" />
<glyph unicode="&#xe000;" horiz-adv-x="829" d="M0 0v829h829v-829h-829z" />
</font>
</defs>
</svg>
